<?xml version="1.0" encoding="UTF-8" standalone="no"?><svg xmlns="http://www.w3.org/2000/svg" xmlns:xlink="http://www.w3.org/1999/xlink" clip-rule="evenodd" stroke-miterlimit="10" viewBox="0 0 1920 1080"><desc>SVG generated by Keynote</desc><defs></defs><g transform="matrix(1.00, 0.00, -0.00, -1.00, 0.0, 1080.0)"><path d="M 0.0 1080.0 L 1920.0 1080.0 L 1920.0 0.0 L 0.0 0.0 Z M 0.0 1080.0 " fill="#FEFFFF"></path><text xml:space="preserve" font-family="Helvetica-Light,Helvetica" font-size="112.0" fill="#000000" transform="matrix(1.00, 0.00, -0.00, -1.00, 338.6, 873.8)">P</text><text xml:space="preserve" font-family="Helvetica-Light,Helvetica" font-size="112.0" fill="#000000" transform="matrix(1.00, 0.00, -0.00, -1.00, 407.1, 873.8)">r</text><text xml:space="preserve" font-family="Helvetica-Light,Helvetica" font-size="112.0" fill="#000000" transform="matrix(1.00, 0.00, -0.00, -1.00, 442.3, 873.8)">o</text><text xml:space="preserve" font-family="Helvetica-Light,Helvetica" font-size="112.0" fill="#000000" transform="matrix(1.00, 0.00, -0.00, -1.00, 504.6, 873.8)">j</text><text xml:space="preserve" font-family="Helvetica-Light,Helvetica" font-size="112.0" fill="#000000" transform="matrix(1.00, 0.00, -0.00, -1.00, 529.5, 873.8)">e</text><text xml:space="preserve" font-family="Helvetica-Light,Helvetica" font-size="112.0" fill="#000000" transform="matrix(1.00, 0.00, -0.00, -1.00, 591.7, 873.8)">c</text><text xml:space="preserve" font-family="Helvetica-Light,Helvetica" font-size="112.0" fill="#000000" transform="matrix(1.00, 0.00, -0.00, -1.00, 654.0, 873.8)">t</text><text xml:space="preserve" font-family="Helvetica-Light,Helvetica" font-size="112.0" fill="#000000" transform="matrix(1.00, 0.00, -0.00, -1.00, 685.2, 873.8)"> </text><text xml:space="preserve" font-family="Helvetica-Light,Helvetica" font-size="112.0" fill="#000000" transform="matrix(1.00, 0.00, -0.00, -1.00, 716.3, 873.8)">S</text><text xml:space="preserve" font-family="Helvetica-Light,Helvetica" font-size="112.0" fill="#000000" transform="matrix(1.00, 0.00, -0.00, -1.00, 784.7, 873.8)">e</text><text xml:space="preserve" font-family="Helvetica-Light,Helvetica" font-size="112.0" fill="#000000" transform="matrix(1.00, 0.00, -0.00, -1.00, 847.0, 873.8)">t</text><text xml:space="preserve" font-family="Helvetica-Light,Helvetica" font-size="112.0" fill="#000000" transform="matrix(1.00, 0.00, -0.00, -1.00, 878.1, 873.8)">u</text><text xml:space="preserve" font-family="Helvetica-Light,Helvetica" font-size="112.0" fill="#000000" transform="matrix(1.00, 0.00, -0.00, -1.00, 940.4, 873.8)">p</text><text xml:space="preserve" font-family="Helvetica-Light,Helvetica" font-size="112.0" fill="#000000" transform="matrix(1.00, 0.00, -0.00, -1.00, 1008.8, 873.8)"> </text><text xml:space="preserve" font-family="Helvetica-Light,Helvetica" font-size="112.0" fill="#000000" transform="matrix(1.00, 0.00, -0.00, -1.00, 1040.0, 873.8)">w</text><text xml:space="preserve" font-family="Helvetica-Light,Helvetica" font-size="112.0" fill="#000000" transform="matrix(1.00, 0.00, -0.00, -1.00, 1120.8, 873.8)">i</text><text xml:space="preserve" font-family="Helvetica-Light,Helvetica" font-size="112.0" fill="#000000" transform="matrix(1.00, 0.00, -0.00, -1.00, 1145.7, 873.8)">t</text><text xml:space="preserve" font-family="Helvetica-Light,Helvetica" font-size="112.0" fill="#000000" transform="matrix(1.00, 0.00, -0.00, -1.00, 1176.8, 873.8)">h</text><text xml:space="preserve" font-family="Helvetica-Light,Helvetica" font-size="112.0" fill="#000000" transform="matrix(1.00, 0.00, -0.00, -1.00, 1239.1, 873.8)"> </text><text xml:space="preserve" font-family="Helvetica-Light,Helvetica" font-size="112.0" fill="#000000" transform="matrix(1.00, 0.00, -0.00, -1.00, 1270.2, 873.8)">C</text><text xml:space="preserve" font-family="Helvetica-Light,Helvetica" font-size="112.0" fill="#000000" transform="matrix(1.00, 0.00, -0.00, -1.00, 1351.1, 873.8)">a</text><text xml:space="preserve" font-family="Helvetica-Light,Helvetica" font-size="112.0" fill="#000000" transform="matrix(1.00, 0.00, -0.00, -1.00, 1413.4, 873.8)">r</text><text xml:space="preserve" font-family="Helvetica-Light,Helvetica" font-size="112.0" fill="#000000" transform="matrix(1.00, 0.00, -0.00, -1.00, 1450.7, 873.8)">g</text><text xml:space="preserve" font-family="Helvetica-Light,Helvetica" font-size="112.0" fill="#000000" transform="matrix(1.00, 0.00, -0.00, -1.00, 1519.1, 873.8)">o</text><image xlink:href="../../5ACD218B-358D-488F-B616-4C94FF091946/assets/07B395DA58915CE6E115DB895920D4D8.png" width="1682.00" height="753.00" transform="matrix(1.00, 0.00, -0.00, -1.00, 119.0, 837.0)" opacity="0.50"></image><path d="M 133.0 825.0 L 1787.0 825.0 L 1787.0 100.0 L 133.0 100.0 Z M 133.0 825.0 " fill="#FEFFFE"></path><image xlink:href="../../5ACD218B-358D-488F-B616-4C94FF091946/assets/18D564B8FBACB674C707A16ACBF1C413.png" width="1676.00" height="747.00" transform="matrix(1.00, 0.00, -0.00, 1.00, 122.0, 89.0)"></image><g><clipPath id="clip0x6000020b7fa0"><path d="M 128.9 101.0 L 1791.1 101.0 L 1791.1 829.1 L 128.9 829.1 Z M 128.9 101.0 "></path></clipPath><g clip-path="url(#clip0x6000020b7fa0)"><text xml:space="preserve" font-family="PragmataPro,PragmataPro" font-size="32.0" fill="#4E8F00" transform="matrix(1.00, 0.00, -0.00, -1.00, 138.0, 789.9)">$</text><text xml:space="preserve" font-family="PragmataPro,PragmataPro" font-size="32.0" fill="#000000" transform="matrix(1.00, 0.00, -0.00, -1.00, 154.6, 789.9)"> </text><text xml:space="preserve" font-family="PragmataPro,PragmataPro" font-size="32.0" fill="#000000" transform="matrix(1.00, 0.00, -0.00, -1.00, 171.1, 789.9)">c</text><text xml:space="preserve" font-family="PragmataPro,PragmataPro" font-size="32.0" fill="#000000" transform="matrix(1.00, 0.00, -0.00, -1.00, 187.7, 789.9)">a</text><text xml:space="preserve" font-family="PragmataPro,PragmataPro" font-size="32.0" fill="#000000" transform="matrix(1.00, 0.00, -0.00, -1.00, 204.2, 789.9)">r</text><text xml:space="preserve" font-family="PragmataPro,PragmataPro" font-size="32.0" fill="#000000" transform="matrix(1.00, 0.00, -0.00, -1.00, 220.8, 789.9)">g</text><text xml:space="preserve" font-family="PragmataPro,PragmataPro" font-size="32.0" fill="#000000" transform="matrix(1.00, 0.00, -0.00, -1.00, 237.3, 789.9)">o</text><text xml:space="preserve" font-family="PragmataPro,PragmataPro" font-size="32.0" fill="#000000" transform="matrix(1.00, 0.00, -0.00, -1.00, 253.9, 789.9)"> </text><text xml:space="preserve" font-family="PragmataPro,PragmataPro" font-size="32.0" fill="#000000" transform="matrix(1.00, 0.00, -0.00, -1.00, 270.4, 789.9)">n</text><text xml:space="preserve" font-family="PragmataPro,PragmataPro" font-size="32.0" fill="#000000" transform="matrix(1.00, 0.00, -0.00, -1.00, 287.0, 789.9)">e</text><text xml:space="preserve" font-family="PragmataPro,PragmataPro" font-size="32.0" fill="#000000" transform="matrix(1.00, 0.00, -0.00, -1.00, 303.5, 789.9)">w</text><text xml:space="preserve" font-family="PragmataPro,PragmataPro" font-size="32.0" fill="#000000" transform="matrix(1.00, 0.00, -0.00, -1.00, 320.1, 789.9)"> </text><text xml:space="preserve" font-family="PragmataPro,PragmataPro" font-size="32.0" fill="#000000" transform="matrix(1.00, 0.00, -0.00, -1.00, 336.6, 789.9)">-</text><text xml:space="preserve" font-family="PragmataPro,PragmataPro" font-size="32.0" fill="#000000" transform="matrix(1.00, 0.00, -0.00, -1.00, 353.2, 789.9)">-</text><text xml:space="preserve" font-family="PragmataPro,PragmataPro" font-size="32.0" fill="#000000" transform="matrix(1.00, 0.00, -0.00, -1.00, 369.7, 789.9)">b</text><text xml:space="preserve" font-family="PragmataPro,PragmataPro" font-size="32.0" fill="#000000" transform="matrix(1.00, 0.00, -0.00, -1.00, 386.3, 789.9)">i</text><text xml:space="preserve" font-family="PragmataPro,PragmataPro" font-size="32.0" fill="#000000" transform="matrix(1.00, 0.00, -0.00, -1.00, 402.8, 789.9)">n</text><text xml:space="preserve" font-family="PragmataPro,PragmataPro" font-size="32.0" fill="#000000" transform="matrix(1.00, 0.00, -0.00, -1.00, 419.4, 789.9)"> </text><text xml:space="preserve" font-family="PragmataPro,PragmataPro" font-size="32.0" fill="#000000" transform="matrix(1.00, 0.00, -0.00, -1.00, 435.9, 789.9)">h</text><text xml:space="preserve" font-family="PragmataPro,PragmataPro" font-size="32.0" fill="#000000" transform="matrix(1.00, 0.00, -0.00, -1.00, 452.5, 789.9)">e</text><text xml:space="preserve" font-family="PragmataPro,PragmataPro" font-size="32.0" fill="#000000" transform="matrix(1.00, 0.00, -0.00, -1.00, 469.0, 789.9)">l</text><text xml:space="preserve" font-family="PragmataPro,PragmataPro" font-size="32.0" fill="#000000" transform="matrix(1.00, 0.00, -0.00, -1.00, 485.6, 789.9)">l</text><text xml:space="preserve" font-family="PragmataPro,PragmataPro" font-size="32.0" fill="#000000" transform="matrix(1.00, 0.00, -0.00, -1.00, 502.1, 789.9)">o</text><text xml:space="preserve" font-family="PragmataPro,PragmataPro" font-size="32.0" fill="#000000" transform="matrix(1.00, 0.00, -0.00, -1.00, 518.7, 789.9)">-</text><text xml:space="preserve" font-family="PragmataPro,PragmataPro" font-size="32.0" fill="#000000" transform="matrix(1.00, 0.00, -0.00, -1.00, 535.2, 789.9)">w</text><text xml:space="preserve" font-family="PragmataPro,PragmataPro" font-size="32.0" fill="#000000" transform="matrix(1.00, 0.00, -0.00, -1.00, 551.8, 789.9)">o</text><text xml:space="preserve" font-family="PragmataPro,PragmataPro" font-size="32.0" fill="#000000" transform="matrix(1.00, 0.00, -0.00, -1.00, 568.3, 789.9)">r</text><text xml:space="preserve" font-family="PragmataPro,PragmataPro" font-size="32.0" fill="#000000" transform="matrix(1.00, 0.00, -0.00, -1.00, 584.9, 789.9)">l</text><text xml:space="preserve" font-family="PragmataPro,PragmataPro" font-size="32.0" fill="#000000" transform="matrix(1.00, 0.00, -0.00, -1.00, 601.4, 789.9)">d</text><text xml:space="preserve" font-family="PragmataPro,PragmataPro" font-size="32.0" fill="#000000" transform="matrix(1.00, 0.00, -0.00, -1.00, 618.3, 789.9)"> </text><text xml:space="preserve" font-family="PragmataPro,PragmataPro" font-size="32.0" fill="#4E8F00" transform="matrix(1.00, 0.00, -0.00, -1.00, 138.0, 753.9)">$</text><text xml:space="preserve" font-family="PragmataPro,PragmataPro" font-size="32.0" fill="#000000" transform="matrix(1.00, 0.00, -0.00, -1.00, 154.6, 753.9)"> </text><text xml:space="preserve" font-family="PragmataPro,PragmataPro" font-size="32.0" fill="#000000" transform="matrix(1.00, 0.00, -0.00, -1.00, 171.1, 753.9)">c</text><text xml:space="preserve" font-family="PragmataPro,PragmataPro" font-size="32.0" fill="#000000" transform="matrix(1.00, 0.00, -0.00, -1.00, 187.7, 753.9)">d</text><text xml:space="preserve" font-family="PragmataPro,PragmataPro" font-size="32.0" fill="#000000" transform="matrix(1.00, 0.00, -0.00, -1.00, 204.2, 753.9)"> </text><text xml:space="preserve" font-family="PragmataPro,PragmataPro" font-size="32.0" fill="#000000" transform="matrix(1.00, 0.00, -0.00, -1.00, 220.8, 753.9)">h</text><text xml:space="preserve" font-family="PragmataPro,PragmataPro" font-size="32.0" fill="#000000" transform="matrix(1.00, 0.00, -0.00, -1.00, 237.3, 753.9)">e</text><text xml:space="preserve" font-family="PragmataPro,PragmataPro" font-size="32.0" fill="#000000" transform="matrix(1.00, 0.00, -0.00, -1.00, 253.9, 753.9)">l</text><text xml:space="preserve" font-family="PragmataPro,PragmataPro" font-size="32.0" fill="#000000" transform="matrix(1.00, 0.00, -0.00, -1.00, 270.4, 753.9)">l</text><text xml:space="preserve" font-family="PragmataPro,PragmataPro" font-size="32.0" fill="#000000" transform="matrix(1.00, 0.00, -0.00, -1.00, 287.0, 753.9)">o</text><text xml:space="preserve" font-family="PragmataPro,PragmataPro" font-size="32.0" fill="#000000" transform="matrix(1.00, 0.00, -0.00, -1.00, 303.5, 753.9)">-</text><text xml:space="preserve" font-family="PragmataPro,PragmataPro" font-size="32.0" fill="#000000" transform="matrix(1.00, 0.00, -0.00, -1.00, 320.1, 753.9)">w</text><text xml:space="preserve" font-family="PragmataPro,PragmataPro" font-size="32.0" fill="#000000" transform="matrix(1.00, 0.00, -0.00, -1.00, 336.6, 753.9)">o</text><text xml:space="preserve" font-family="PragmataPro,PragmataPro" font-size="32.0" fill="#000000" transform="matrix(1.00, 0.00, -0.00, -1.00, 353.2, 753.9)">r</text><text xml:space="preserve" font-family="PragmataPro,PragmataPro" font-size="32.0" fill="#000000" transform="matrix(1.00, 0.00, -0.00, -1.00, 369.7, 753.9)">l</text><text xml:space="preserve" font-family="PragmataPro,PragmataPro" font-size="32.0" fill="#000000" transform="matrix(1.00, 0.00, -0.00, -1.00, 386.3, 753.9)">d</text><text xml:space="preserve" font-family="PragmataPro,PragmataPro" font-size="32.0" fill="#000000" transform="matrix(1.00, 0.00, -0.00, -1.00, 403.0, 753.9)"> </text><text xml:space="preserve" font-family="PragmataPro,PragmataPro" font-size="32.0" fill="#008F51" transform="matrix(1.00, 0.00, -0.00, -1.00, 138.0, 717.9)">$</text><text xml:space="preserve" font-family="PragmataPro,PragmataPro" font-size="32.0" fill="#000000" transform="matrix(1.00, 0.00, -0.00, -1.00, 154.6, 717.9)"> </text><text xml:space="preserve" font-family="PragmataPro,PragmataPro" font-size="32.0" fill="#000000" transform="matrix(1.00, 0.00, -0.00, -1.00, 171.1, 717.9)">f</text><text xml:space="preserve" font-family="PragmataPro,PragmataPro" font-size="32.0" fill="#000000" transform="matrix(1.00, 0.00, -0.00, -1.00, 187.7, 717.9)">i</text><text xml:space="preserve" font-family="PragmataPro,PragmataPro" font-size="32.0" fill="#000000" transform="matrix(1.00, 0.00, -0.00, -1.00, 204.2, 717.9)">n</text><text xml:space="preserve" font-family="PragmataPro,PragmataPro" font-size="32.0" fill="#000000" transform="matrix(1.00, 0.00, -0.00, -1.00, 220.8, 717.9)">d</text><text xml:space="preserve" font-family="PragmataPro,PragmataPro" font-size="32.0" fill="#000000" transform="matrix(1.00, 0.00, -0.00, -1.00, 237.3, 717.9)"> </text><text xml:space="preserve" font-family="PragmataPro,PragmataPro" font-size="32.0" fill="#000000" transform="matrix(1.00, 0.00, -0.00, -1.00, 253.9, 717.9)">.</text><text xml:space="preserve" font-family="PragmataPro,PragmataPro" font-size="32.0" fill="#000000" transform="matrix(1.00, 0.00, -0.00, -1.00, 270.4, 717.9)"> </text><text xml:space="preserve" font-family="PragmataPro,PragmataPro" font-size="32.0" fill="#000000" transform="matrix(1.00, 0.00, -0.00, -1.00, 287.0, 717.9)">-</text><text xml:space="preserve" font-family="PragmataPro,PragmataPro" font-size="32.0" fill="#000000" transform="matrix(1.00, 0.00, -0.00, -1.00, 303.5, 717.9)">t</text><text xml:space="preserve" font-family="PragmataPro,PragmataPro" font-size="32.0" fill="#000000" transform="matrix(1.00, 0.00, -0.00, -1.00, 320.1, 717.9)">y</text><text xml:space="preserve" font-family="PragmataPro,PragmataPro" font-size="32.0" fill="#000000" transform="matrix(1.00, 0.00, -0.00, -1.00, 336.6, 717.9)">p</text><text xml:space="preserve" font-family="PragmataPro,PragmataPro" font-size="32.0" fill="#000000" transform="matrix(1.00, 0.00, -0.00, -1.00, 353.2, 717.9)">e</text><text xml:space="preserve" font-family="PragmataPro,PragmataPro" font-size="32.0" fill="#000000" transform="matrix(1.00, 0.00, -0.00, -1.00, 369.7, 717.9)"> </text><text xml:space="preserve" font-family="PragmataPro,PragmataPro" font-size="32.0" fill="#000000" transform="matrix(1.00, 0.00, -0.00, -1.00, 386.3, 717.9)">f</text><text xml:space="preserve" font-family="PragmataPro,PragmataPro" font-size="32.0" fill="#000000" transform="matrix(1.00, 0.00, -0.00, -1.00, 403.0, 717.9)"> </text><text xml:space="preserve" font-family="PragmataPro,PragmataPro" font-size="32.0" fill="#5E5E5E" transform="matrix(1.00, 0.00, -0.00, -1.00, 138.0, 681.9)">.</text><text xml:space="preserve" font-family="PragmataPro,PragmataPro" font-size="32.0" fill="#5E5E5E" transform="matrix(1.00, 0.00, -0.00, -1.00, 154.5, 681.9)">/</text><text xml:space="preserve" font-family="PragmataPro,PragmataPro" font-size="32.0" fill="#5E5E5E" transform="matrix(1.00, 0.00, -0.00, -1.00, 171.1, 681.9)">.</text><text xml:space="preserve" font-family="PragmataPro,PragmataPro" font-size="32.0" fill="#5E5E5E" transform="matrix(1.00, 0.00, -0.00, -1.00, 187.6, 681.9)">g</text><text xml:space="preserve" font-family="PragmataPro,PragmataPro" font-size="32.0" fill="#5E5E5E" transform="matrix(1.00, 0.00, -0.00, -1.00, 204.2, 681.9)">i</text><text xml:space="preserve" font-family="PragmataPro,PragmataPro" font-size="32.0" fill="#5E5E5E" transform="matrix(1.00, 0.00, -0.00, -1.00, 220.7, 681.9)">t</text><text xml:space="preserve" font-family="PragmataPro,PragmataPro" font-size="32.0" fill="#5E5E5E" transform="matrix(1.00, 0.00, -0.00, -1.00, 237.3, 681.9)">/</text><text xml:space="preserve" font-family="PragmataPro,PragmataPro" font-size="32.0" fill="#5E5E5E" transform="matrix(1.00, 0.00, -0.00, -1.00, 253.8, 681.9)">c</text><text xml:space="preserve" font-family="PragmataPro,PragmataPro" font-size="32.0" fill="#5E5E5E" transform="matrix(1.00, 0.00, -0.00, -1.00, 270.4, 681.9)">o</text><text xml:space="preserve" font-family="PragmataPro,PragmataPro" font-size="32.0" fill="#5E5E5E" transform="matrix(1.00, 0.00, -0.00, -1.00, 286.9, 681.9)">n</text><text xml:space="preserve" font-family="PragmataPro,PragmataPro" font-size="32.0" fill="#5E5E5E" transform="matrix(1.00, 0.00, -0.00, -1.00, 303.5, 681.9)">f</text><text xml:space="preserve" font-family="PragmataPro,PragmataPro" font-size="32.0" fill="#5E5E5E" transform="matrix(1.00, 0.00, -0.00, -1.00, 320.0, 681.9)">i</text><text xml:space="preserve" font-family="PragmataPro,PragmataPro" font-size="32.0" fill="#5E5E5E" transform="matrix(1.00, 0.00, -0.00, -1.00, 336.6, 681.9)">g</text><text xml:space="preserve" font-family="PragmataPro,PragmataPro" font-size="32.0" fill="#5E5E5E" transform="matrix(1.00, 0.00, -0.00, -1.00, 353.1, 681.9)"> </text><text xml:space="preserve" font-family="PragmataPro,PragmataPro" font-size="32.0" fill="#5E5E5E" transform="matrix(1.00, 0.00, -0.00, -1.00, 138.0, 645.9)">.</text><text xml:space="preserve" font-family="PragmataPro,PragmataPro" font-size="32.0" fill="#5E5E5E" transform="matrix(1.00, 0.00, -0.00, -1.00, 154.5, 645.9)">/</text><text xml:space="preserve" font-family="PragmataPro,PragmataPro" font-size="32.0" fill="#5E5E5E" transform="matrix(1.00, 0.00, -0.00, -1.00, 171.1, 645.9)">.</text><text xml:space="preserve" font-family="PragmataPro,PragmataPro" font-size="32.0" fill="#5E5E5E" transform="matrix(1.00, 0.00, -0.00, -1.00, 187.6, 645.9)">g</text><text xml:space="preserve" font-family="PragmataPro,PragmataPro" font-size="32.0" fill="#5E5E5E" transform="matrix(1.00, 0.00, -0.00, -1.00, 204.2, 645.9)">i</text><text xml:space="preserve" font-family="PragmataPro,PragmataPro" font-size="32.0" fill="#5E5E5E" transform="matrix(1.00, 0.00, -0.00, -1.00, 220.7, 645.9)">t</text><text xml:space="preserve" font-family="PragmataPro,PragmataPro" font-size="32.0" fill="#5E5E5E" transform="matrix(1.00, 0.00, -0.00, -1.00, 237.3, 645.9)">/</text><text xml:space="preserve" font-family="PragmataPro,PragmataPro" font-size="32.0" fill="#5E5E5E" transform="matrix(1.00, 0.00, -0.00, -1.00, 253.8, 645.9)">d</text><text xml:space="preserve" font-family="PragmataPro,PragmataPro" font-size="32.0" fill="#5E5E5E" transform="matrix(1.00, 0.00, -0.00, -1.00, 270.4, 645.9)">e</text><text xml:space="preserve" font-family="PragmataPro,PragmataPro" font-size="32.0" fill="#5E5E5E" transform="matrix(1.00, 0.00, -0.00, -1.00, 286.9, 645.9)">s</text><text xml:space="preserve" font-family="PragmataPro,PragmataPro" font-size="32.0" fill="#5E5E5E" transform="matrix(1.00, 0.00, -0.00, -1.00, 303.5, 645.9)">c</text><text xml:space="preserve" font-family="PragmataPro,PragmataPro" font-size="32.0" fill="#5E5E5E" transform="matrix(1.00, 0.00, -0.00, -1.00, 320.0, 645.9)">r</text><text xml:space="preserve" font-family="PragmataPro,PragmataPro" font-size="32.0" fill="#5E5E5E" transform="matrix(1.00, 0.00, -0.00, -1.00, 336.6, 645.9)">i</text><text xml:space="preserve" font-family="PragmataPro,PragmataPro" font-size="32.0" fill="#5E5E5E" transform="matrix(1.00, 0.00, -0.00, -1.00, 353.1, 645.9)">p</text><text xml:space="preserve" font-family="PragmataPro,PragmataPro" font-size="32.0" fill="#5E5E5E" transform="matrix(1.00, 0.00, -0.00, -1.00, 369.7, 645.9)">t</text><text xml:space="preserve" font-family="PragmataPro,PragmataPro" font-size="32.0" fill="#5E5E5E" transform="matrix(1.00, 0.00, -0.00, -1.00, 386.2, 645.9)">i</text><text xml:space="preserve" font-family="PragmataPro,PragmataPro" font-size="32.0" fill="#5E5E5E" transform="matrix(1.00, 0.00, -0.00, -1.00, 402.8, 645.9)">o</text><text xml:space="preserve" font-family="PragmataPro,PragmataPro" font-size="32.0" fill="#5E5E5E" transform="matrix(1.00, 0.00, -0.00, -1.00, 419.3, 645.9)">n</text><text xml:space="preserve" font-family="PragmataPro,PragmataPro" font-size="32.0" fill="#5E5E5E" transform="matrix(1.00, 0.00, -0.00, -1.00, 435.9, 645.9)"> </text><text xml:space="preserve" font-family="PragmataPro,PragmataPro" font-size="32.0" fill="#5E5E5E" transform="matrix(1.00, 0.00, -0.00, -1.00, 138.0, 609.9)">.</text><text xml:space="preserve" font-family="PragmataPro,PragmataPro" font-size="32.0" fill="#5E5E5E" transform="matrix(1.00, 0.00, -0.00, -1.00, 154.5, 609.9)">/</text><text xml:space="preserve" font-family="PragmataPro,PragmataPro" font-size="32.0" fill="#5E5E5E" transform="matrix(1.00, 0.00, -0.00, -1.00, 171.1, 609.9)">.</text><text xml:space="preserve" font-family="PragmataPro,PragmataPro" font-size="32.0" fill="#5E5E5E" transform="matrix(1.00, 0.00, -0.00, -1.00, 187.6, 609.9)">g</text><text xml:space="preserve" font-family="PragmataPro,PragmataPro" font-size="32.0" fill="#5E5E5E" transform="matrix(1.00, 0.00, -0.00, -1.00, 204.2, 609.9)">i</text><text xml:space="preserve" font-family="PragmataPro,PragmataPro" font-size="32.0" fill="#5E5E5E" transform="matrix(1.00, 0.00, -0.00, -1.00, 220.7, 609.9)">t</text><text xml:space="preserve" font-family="PragmataPro,PragmataPro" font-size="32.0" fill="#5E5E5E" transform="matrix(1.00, 0.00, -0.00, -1.00, 237.3, 609.9)">/</text><text xml:space="preserve" font-family="PragmataPro,PragmataPro" font-size="32.0" fill="#5E5E5E" transform="matrix(1.00, 0.00, -0.00, -1.00, 253.8, 609.9)">H</text><text xml:space="preserve" font-family="PragmataPro,PragmataPro" font-size="32.0" fill="#5E5E5E" transform="matrix(1.00, 0.00, -0.00, -1.00, 270.4, 609.9)">E</text><text xml:space="preserve" font-family="PragmataPro,PragmataPro" font-size="32.0" fill="#5E5E5E" transform="matrix(1.00, 0.00, -0.00, -1.00, 286.9, 609.9)">A</text><text xml:space="preserve" font-family="PragmataPro,PragmataPro" font-size="32.0" fill="#5E5E5E" transform="matrix(1.00, 0.00, -0.00, -1.00, 303.5, 609.9)">D</text><text xml:space="preserve" font-family="PragmataPro,PragmataPro" font-size="32.0" fill="#5E5E5E" transform="matrix(1.00, 0.00, -0.00, -1.00, 320.0, 609.9)"> </text><text xml:space="preserve" font-family="PragmataPro,PragmataPro" font-size="32.0" fill="#5E5E5E" transform="matrix(1.00, 0.00, -0.00, -1.00, 138.0, 573.9)">.</text><text xml:space="preserve" font-family="PragmataPro,PragmataPro" font-size="32.0" fill="#5E5E5E" transform="matrix(1.00, 0.00, -0.00, -1.00, 154.5, 573.9)">/</text><text xml:space="preserve" font-family="PragmataPro,PragmataPro" font-size="32.0" fill="#5E5E5E" transform="matrix(1.00, 0.00, -0.00, -1.00, 171.1, 573.9)">.</text><text xml:space="preserve" font-family="PragmataPro,PragmataPro" font-size="32.0" fill="#5E5E5E" transform="matrix(1.00, 0.00, -0.00, -1.00, 187.6, 573.9)">g</text><text xml:space="preserve" font-family="PragmataPro,PragmataPro" font-size="32.0" fill="#5E5E5E" transform="matrix(1.00, 0.00, -0.00, -1.00, 204.2, 573.9)">i</text><text xml:space="preserve" font-family="PragmataPro,PragmataPro" font-size="32.0" fill="#5E5E5E" transform="matrix(1.00, 0.00, -0.00, -1.00, 220.7, 573.9)">t</text><text xml:space="preserve" font-family="PragmataPro,PragmataPro" font-size="32.0" fill="#5E5E5E" transform="matrix(1.00, 0.00, -0.00, -1.00, 237.3, 573.9)">/</text><text xml:space="preserve" font-family="PragmataPro,PragmataPro" font-size="32.0" fill="#5E5E5E" transform="matrix(1.00, 0.00, -0.00, -1.00, 253.8, 573.9)">h</text><text xml:space="preserve" font-family="PragmataPro,PragmataPro" font-size="32.0" fill="#5E5E5E" transform="matrix(1.00, 0.00, -0.00, -1.00, 270.4, 573.9)">o</text><text xml:space="preserve" font-family="PragmataPro,PragmataPro" font-size="32.0" fill="#5E5E5E" transform="matrix(1.00, 0.00, -0.00, -1.00, 286.9, 573.9)">o</text><text xml:space="preserve" font-family="PragmataPro,PragmataPro" font-size="32.0" fill="#5E5E5E" transform="matrix(1.00, 0.00, -0.00, -1.00, 303.5, 573.9)">k</text><text xml:space="preserve" font-family="PragmataPro,PragmataPro" font-size="32.0" fill="#5E5E5E" transform="matrix(1.00, 0.00, -0.00, -1.00, 320.0, 573.9)">s</text><text xml:space="preserve" font-family="PragmataPro,PragmataPro" font-size="32.0" fill="#5E5E5E" transform="matrix(1.00, 0.00, -0.00, -1.00, 336.6, 573.9)">/</text><text xml:space="preserve" font-family="PragmataPro,PragmataPro" font-size="32.0" fill="#5E5E5E" transform="matrix(1.00, 0.00, -0.00, -1.00, 353.1, 573.9)">R</text><text xml:space="preserve" font-family="PragmataPro,PragmataPro" font-size="32.0" fill="#5E5E5E" transform="matrix(1.00, 0.00, -0.00, -1.00, 369.7, 573.9)">E</text><text xml:space="preserve" font-family="PragmataPro,PragmataPro" font-size="32.0" fill="#5E5E5E" transform="matrix(1.00, 0.00, -0.00, -1.00, 386.2, 573.9)">A</text><text xml:space="preserve" font-family="PragmataPro,PragmataPro" font-size="32.0" fill="#5E5E5E" transform="matrix(1.00, 0.00, -0.00, -1.00, 402.8, 573.9)">D</text><text xml:space="preserve" font-family="PragmataPro,PragmataPro" font-size="32.0" fill="#5E5E5E" transform="matrix(1.00, 0.00, -0.00, -1.00, 419.3, 573.9)">M</text><text xml:space="preserve" font-family="PragmataPro,PragmataPro" font-size="32.0" fill="#5E5E5E" transform="matrix(1.00, 0.00, -0.00, -1.00, 435.9, 573.9)">E</text><text xml:space="preserve" font-family="PragmataPro,PragmataPro" font-size="32.0" fill="#5E5E5E" transform="matrix(1.00, 0.00, -0.00, -1.00, 452.4, 573.9)">.</text><text xml:space="preserve" font-family="PragmataPro,PragmataPro" font-size="32.0" fill="#5E5E5E" transform="matrix(1.00, 0.00, -0.00, -1.00, 469.0, 573.9)">s</text><text xml:space="preserve" font-family="PragmataPro,PragmataPro" font-size="32.0" fill="#5E5E5E" transform="matrix(1.00, 0.00, -0.00, -1.00, 485.5, 573.9)">a</text><text xml:space="preserve" font-family="PragmataPro,PragmataPro" font-size="32.0" fill="#5E5E5E" transform="matrix(1.00, 0.00, -0.00, -1.00, 502.1, 573.9)">m</text><text xml:space="preserve" font-family="PragmataPro,PragmataPro" font-size="32.0" fill="#5E5E5E" transform="matrix(1.00, 0.00, -0.00, -1.00, 518.6, 573.9)">p</text><text xml:space="preserve" font-family="PragmataPro,PragmataPro" font-size="32.0" fill="#5E5E5E" transform="matrix(1.00, 0.00, -0.00, -1.00, 535.2, 573.9)">l</text><text xml:space="preserve" font-family="PragmataPro,PragmataPro" font-size="32.0" fill="#5E5E5E" transform="matrix(1.00, 0.00, -0.00, -1.00, 551.7, 573.9)">e</text><text xml:space="preserve" font-family="PragmataPro,PragmataPro" font-size="32.0" fill="#5E5E5E" transform="matrix(1.00, 0.00, -0.00, -1.00, 568.3, 573.9)"> </text><text xml:space="preserve" font-family="PragmataPro,PragmataPro" font-size="32.0" fill="#5E5E5E" transform="matrix(1.00, 0.00, -0.00, -1.00, 138.0, 537.9)">.</text><text xml:space="preserve" font-family="PragmataPro,PragmataPro" font-size="32.0" fill="#5E5E5E" transform="matrix(1.00, 0.00, -0.00, -1.00, 154.5, 537.9)">/</text><text xml:space="preserve" font-family="PragmataPro,PragmataPro" font-size="32.0" fill="#5E5E5E" transform="matrix(1.00, 0.00, -0.00, -1.00, 171.1, 537.9)">.</text><text xml:space="preserve" font-family="PragmataPro,PragmataPro" font-size="32.0" fill="#5E5E5E" transform="matrix(1.00, 0.00, -0.00, -1.00, 187.6, 537.9)">g</text><text xml:space="preserve" font-family="PragmataPro,PragmataPro" font-size="32.0" fill="#5E5E5E" transform="matrix(1.00, 0.00, -0.00, -1.00, 204.2, 537.9)">i</text><text xml:space="preserve" font-family="PragmataPro,PragmataPro" font-size="32.0" fill="#5E5E5E" transform="matrix(1.00, 0.00, -0.00, -1.00, 220.7, 537.9)">t</text><text xml:space="preserve" font-family="PragmataPro,PragmataPro" font-size="32.0" fill="#5E5E5E" transform="matrix(1.00, 0.00, -0.00, -1.00, 237.3, 537.9)">/</text><text xml:space="preserve" font-family="PragmataPro,PragmataPro" font-size="32.0" fill="#5E5E5E" transform="matrix(1.00, 0.00, -0.00, -1.00, 253.8, 537.9)">i</text><text xml:space="preserve" font-family="PragmataPro,PragmataPro" font-size="32.0" fill="#5E5E5E" transform="matrix(1.00, 0.00, -0.00, -1.00, 270.4, 537.9)">n</text><text xml:space="preserve" font-family="PragmataPro,PragmataPro" font-size="32.0" fill="#5E5E5E" transform="matrix(1.00, 0.00, -0.00, -1.00, 286.9, 537.9)">f</text><text xml:space="preserve" font-family="PragmataPro,PragmataPro" font-size="32.0" fill="#5E5E5E" transform="matrix(1.00, 0.00, -0.00, -1.00, 303.5, 537.9)">o</text><text xml:space="preserve" font-family="PragmataPro,PragmataPro" font-size="32.0" fill="#5E5E5E" transform="matrix(1.00, 0.00, -0.00, -1.00, 320.0, 537.9)">/</text><text xml:space="preserve" font-family="PragmataPro,PragmataPro" font-size="32.0" fill="#5E5E5E" transform="matrix(1.00, 0.00, -0.00, -1.00, 336.6, 537.9)">e</text><text xml:space="preserve" font-family="PragmataPro,PragmataPro" font-size="32.0" fill="#5E5E5E" transform="matrix(1.00, 0.00, -0.00, -1.00, 353.1, 537.9)">x</text><text xml:space="preserve" font-family="PragmataPro,PragmataPro" font-size="32.0" fill="#5E5E5E" transform="matrix(1.00, 0.00, -0.00, -1.00, 369.7, 537.9)">c</text><text xml:space="preserve" font-family="PragmataPro,PragmataPro" font-size="32.0" fill="#5E5E5E" transform="matrix(1.00, 0.00, -0.00, -1.00, 386.2, 537.9)">l</text><text xml:space="preserve" font-family="PragmataPro,PragmataPro" font-size="32.0" fill="#5E5E5E" transform="matrix(1.00, 0.00, -0.00, -1.00, 402.8, 537.9)">u</text><text xml:space="preserve" font-family="PragmataPro,PragmataPro" font-size="32.0" fill="#5E5E5E" transform="matrix(1.00, 0.00, -0.00, -1.00, 419.3, 537.9)">d</text><text xml:space="preserve" font-family="PragmataPro,PragmataPro" font-size="32.0" fill="#5E5E5E" transform="matrix(1.00, 0.00, -0.00, -1.00, 435.9, 537.9)">e</text><text xml:space="preserve" font-family="PragmataPro,PragmataPro" font-size="32.0" fill="#5E5E5E" transform="matrix(1.00, 0.00, -0.00, -1.00, 452.4, 537.9)"> </text><text xml:space="preserve" font-family="PragmataPro,PragmataPro" font-size="32.0" fill="#5E5E5E" transform="matrix(1.00, 0.00, -0.00, -1.00, 138.0, 501.9)">.</text><text xml:space="preserve" font-family="PragmataPro,PragmataPro" font-size="32.0" fill="#5E5E5E" transform="matrix(1.00, 0.00, -0.00, -1.00, 154.5, 501.9)">/</text><text xml:space="preserve" font-family="PragmataPro,PragmataPro" font-size="32.0" fill="#5E5E5E" transform="matrix(1.00, 0.00, -0.00, -1.00, 171.1, 501.9)">.</text><text xml:space="preserve" font-family="PragmataPro,PragmataPro" font-size="32.0" fill="#5E5E5E" transform="matrix(1.00, 0.00, -0.00, -1.00, 187.6, 501.9)">g</text><text xml:space="preserve" font-family="PragmataPro,PragmataPro" font-size="32.0" fill="#5E5E5E" transform="matrix(1.00, 0.00, -0.00, -1.00, 204.2, 501.9)">i</text><text xml:space="preserve" font-family="PragmataPro,PragmataPro" font-size="32.0" fill="#5E5E5E" transform="matrix(1.00, 0.00, -0.00, -1.00, 220.7, 501.9)">t</text><text xml:space="preserve" font-family="PragmataPro,PragmataPro" font-size="32.0" fill="#5E5E5E" transform="matrix(1.00, 0.00, -0.00, -1.00, 237.3, 501.9)">i</text><text xml:space="preserve" font-family="PragmataPro,PragmataPro" font-size="32.0" fill="#5E5E5E" transform="matrix(1.00, 0.00, -0.00, -1.00, 253.8, 501.9)">g</text><text xml:space="preserve" font-family="PragmataPro,PragmataPro" font-size="32.0" fill="#5E5E5E" transform="matrix(1.00, 0.00, -0.00, -1.00, 270.4, 501.9)">n</text><text xml:space="preserve" font-family="PragmataPro,PragmataPro" font-size="32.0" fill="#5E5E5E" transform="matrix(1.00, 0.00, -0.00, -1.00, 286.9, 501.9)">o</text><text xml:space="preserve" font-family="PragmataPro,PragmataPro" font-size="32.0" fill="#5E5E5E" transform="matrix(1.00, 0.00, -0.00, -1.00, 303.5, 501.9)">r</text><text xml:space="preserve" font-family="PragmataPro,PragmataPro" font-size="32.0" fill="#5E5E5E" transform="matrix(1.00, 0.00, -0.00, -1.00, 320.0, 501.9)">e</text><text xml:space="preserve" font-family="PragmataPro,PragmataPro" font-size="32.0" fill="#5E5E5E" transform="matrix(1.00, 0.00, -0.00, -1.00, 336.6, 501.9)"> </text><text xml:space="preserve" font-family="PragmataPro,PragmataPro" font-size="32.0" fill="#5E5E5E" transform="matrix(1.00, 0.00, -0.00, -1.00, 138.0, 465.9)">.</text><text xml:space="preserve" font-family="PragmataPro,PragmataPro" font-size="32.0" fill="#5E5E5E" transform="matrix(1.00, 0.00, -0.00, -1.00, 154.5, 465.9)">/</text><text xml:space="preserve" font-family="PragmataPro,PragmataPro" font-size="32.0" fill="#5E5E5E" transform="matrix(1.00, 0.00, -0.00, -1.00, 171.1, 465.9)">C</text><text xml:space="preserve" font-family="PragmataPro,PragmataPro" font-size="32.0" fill="#5E5E5E" transform="matrix(1.00, 0.00, -0.00, -1.00, 187.6, 465.9)">a</text><text xml:space="preserve" font-family="PragmataPro,PragmataPro" font-size="32.0" fill="#5E5E5E" transform="matrix(1.00, 0.00, -0.00, -1.00, 204.2, 465.9)">r</text><text xml:space="preserve" font-family="PragmataPro,PragmataPro" font-size="32.0" fill="#5E5E5E" transform="matrix(1.00, 0.00, -0.00, -1.00, 220.7, 465.9)">g</text><text xml:space="preserve" font-family="PragmataPro,PragmataPro" font-size="32.0" fill="#5E5E5E" transform="matrix(1.00, 0.00, -0.00, -1.00, 237.3, 465.9)">o</text><text xml:space="preserve" font-family="PragmataPro,PragmataPro" font-size="32.0" fill="#5E5E5E" transform="matrix(1.00, 0.00, -0.00, -1.00, 253.8, 465.9)">.</text><text xml:space="preserve" font-family="PragmataPro,PragmataPro" font-size="32.0" fill="#5E5E5E" transform="matrix(1.00, 0.00, -0.00, -1.00, 270.4, 465.9)">t</text><text xml:space="preserve" font-family="PragmataPro,PragmataPro" font-size="32.0" fill="#5E5E5E" transform="matrix(1.00, 0.00, -0.00, -1.00, 286.9, 465.9)">o</text><text xml:space="preserve" font-family="PragmataPro,PragmataPro" font-size="32.0" fill="#5E5E5E" transform="matrix(1.00, 0.00, -0.00, -1.00, 303.5, 465.9)">m</text><text xml:space="preserve" font-family="PragmataPro,PragmataPro" font-size="32.0" fill="#5E5E5E" transform="matrix(1.00, 0.00, -0.00, -1.00, 320.0, 465.9)">l</text><text xml:space="preserve" font-family="PragmataPro,PragmataPro" font-size="32.0" fill="#5E5E5E" transform="matrix(1.00, 0.00, -0.00, -1.00, 336.6, 465.9)"> </text><text xml:space="preserve" font-family="PragmataPro,PragmataPro" font-size="32.0" fill="#5E5E5E" transform="matrix(1.00, 0.00, -0.00, -1.00, 138.0, 429.9)">.</text><text xml:space="preserve" font-family="PragmataPro,PragmataPro" font-size="32.0" fill="#5E5E5E" transform="matrix(1.00, 0.00, -0.00, -1.00, 154.5, 429.9)">/</text><text xml:space="preserve" font-family="PragmataPro,PragmataPro" font-size="32.0" fill="#5E5E5E" transform="matrix(1.00, 0.00, -0.00, -1.00, 171.1, 429.9)">s</text><text xml:space="preserve" font-family="PragmataPro,PragmataPro" font-size="32.0" fill="#5E5E5E" transform="matrix(1.00, 0.00, -0.00, -1.00, 187.6, 429.9)">r</text><text xml:space="preserve" font-family="PragmataPro,PragmataPro" font-size="32.0" fill="#5E5E5E" transform="matrix(1.00, 0.00, -0.00, -1.00, 204.2, 429.9)">c</text><text xml:space="preserve" font-family="PragmataPro,PragmataPro" font-size="32.0" fill="#5E5E5E" transform="matrix(1.00, 0.00, -0.00, -1.00, 220.7, 429.9)">/</text><text xml:space="preserve" font-family="PragmataPro,PragmataPro" font-size="32.0" fill="#5E5E5E" transform="matrix(1.00, 0.00, -0.00, -1.00, 237.4, 429.9)">m</text><text xml:space="preserve" font-family="PragmataPro,PragmataPro" font-size="32.0" fill="#5E5E5E" transform="matrix(1.00, 0.00, -0.00, -1.00, 253.9, 429.9)">a</text><text xml:space="preserve" font-family="PragmataPro,PragmataPro" font-size="32.0" fill="#5E5E5E" transform="matrix(1.00, 0.00, -0.00, -1.00, 270.5, 429.9)">i</text><text xml:space="preserve" font-family="PragmataPro,PragmataPro" font-size="32.0" fill="#5E5E5E" transform="matrix(1.00, 0.00, -0.00, -1.00, 287.0, 429.9)">n</text><text xml:space="preserve" font-family="PragmataPro,PragmataPro" font-size="32.0" fill="#5E5E5E" transform="matrix(1.00, 0.00, -0.00, -1.00, 303.6, 429.9)">.</text><text xml:space="preserve" font-family="PragmataPro,PragmataPro" font-size="32.0" fill="#5E5E5E" transform="matrix(1.00, 0.00, -0.00, -1.00, 320.1, 429.9)">r</text><text xml:space="preserve" font-family="PragmataPro,PragmataPro" font-size="32.0" fill="#5E5E5E" transform="matrix(1.00, 0.00, -0.00, -1.00, 336.7, 429.9)">s</text><path d="M 103.4 398.9 L 219.3 398.9 " fill="none" stroke="#5E5E5E" stroke-width="0.94" transform="matrix(1.00, 0.00, 0.00, -1.00, 134.0, 824.0)"></path></g></g></g></svg>