<?xml version="1.0" encoding="UTF-8" standalone="no"?><svg xmlns="http://www.w3.org/2000/svg" xmlns:xlink="http://www.w3.org/1999/xlink" clip-rule="evenodd" stroke-miterlimit="10" viewBox="0 0 1920 1080"><desc>SVG generated by Keynote</desc><defs></defs><g transform="matrix(1.00, 0.00, -0.00, -1.00, 0.0, 1080.0)"><path d="M 0.0 1080.0 L 1920.0 1080.0 L 1920.0 0.0 L 0.0 0.0 Z M 0.0 1080.0 " fill="#FEFFFF"></path><text xml:space="preserve" font-family="Helvetica-Light,Helvetica" font-size="112.0" fill="#000000" transform="matrix(1.00, 0.00, -0.00, -1.00, 580.3, 873.8)">M</text><text xml:space="preserve" font-family="Helvetica-Light,Helvetica" font-size="112.0" fill="#000000" transform="matrix(1.00, 0.00, -0.00, -1.00, 673.6, 873.8)">o</text><text xml:space="preserve" font-family="Helvetica-Light,Helvetica" font-size="112.0" fill="#000000" transform="matrix(1.00, 0.00, -0.00, -1.00, 735.9, 873.8)">v</text><text xml:space="preserve" font-family="Helvetica-Light,Helvetica" font-size="112.0" fill="#000000" transform="matrix(1.00, 0.00, -0.00, -1.00, 791.9, 873.8)">e</text><text xml:space="preserve" font-family="Helvetica-Light,Helvetica" font-size="112.0" fill="#000000" transform="matrix(1.00, 0.00, -0.00, -1.00, 854.2, 873.8)"> </text><text xml:space="preserve" font-family="Helvetica-Light,Helvetica" font-size="112.0" fill="#000000" transform="matrix(1.00, 0.00, -0.00, -1.00, 885.3, 873.8)">s</text><text xml:space="preserve" font-family="Helvetica-Light,Helvetica" font-size="112.0" fill="#000000" transform="matrix(1.00, 0.00, -0.00, -1.00, 941.3, 873.8)">e</text><text xml:space="preserve" font-family="Helvetica-Light,Helvetica" font-size="112.0" fill="#000000" transform="matrix(1.00, 0.00, -0.00, -1.00, 1003.6, 873.8)">m</text><text xml:space="preserve" font-family="Helvetica-Light,Helvetica" font-size="112.0" fill="#000000" transform="matrix(1.00, 0.00, -0.00, -1.00, 1096.9, 873.8)">a</text><text xml:space="preserve" font-family="Helvetica-Light,Helvetica" font-size="112.0" fill="#000000" transform="matrix(1.00, 0.00, -0.00, -1.00, 1159.1, 873.8)">n</text><text xml:space="preserve" font-family="Helvetica-Light,Helvetica" font-size="112.0" fill="#000000" transform="matrix(1.00, 0.00, -0.00, -1.00, 1221.4, 873.8)">t</text><text xml:space="preserve" font-family="Helvetica-Light,Helvetica" font-size="112.0" fill="#000000" transform="matrix(1.00, 0.00, -0.00, -1.00, 1252.5, 873.8)">i</text><text xml:space="preserve" font-family="Helvetica-Light,Helvetica" font-size="112.0" fill="#000000" transform="matrix(1.00, 0.00, -0.00, -1.00, 1277.4, 873.8)">c</text><text xml:space="preserve" font-family="Helvetica-Light,Helvetica" font-size="39.0" fill="#000000" transform="matrix(1.00, 0.00, -0.00, -1.00, 137.0, 691.5)">•</text><text xml:space="preserve" font-family="Helvetica-Light,Helvetica" font-size="52.0" fill="#000000" transform="matrix(1.00, 0.00, -0.00, -1.00, 187.0, 687.0)">M</text><text xml:space="preserve" font-family="Helvetica-Light,Helvetica" font-size="52.0" fill="#000000" transform="matrix(1.00, 0.00, -0.00, -1.00, 230.3, 687.0)">o</text><text xml:space="preserve" font-family="Helvetica-Light,Helvetica" font-size="52.0" fill="#000000" transform="matrix(1.00, 0.00, -0.00, -1.00, 259.2, 687.0)">v</text><text xml:space="preserve" font-family="Helvetica-Light,Helvetica" font-size="52.0" fill="#000000" transform="matrix(1.00, 0.00, -0.00, -1.00, 285.2, 687.0)">e</text><text xml:space="preserve" font-family="Helvetica-Light,Helvetica" font-size="52.0" fill="#000000" transform="matrix(1.00, 0.00, -0.00, -1.00, 314.1, 687.0)"> </text><text xml:space="preserve" font-family="Helvetica-Light,Helvetica" font-size="52.0" fill="#000000" transform="matrix(1.00, 0.00, -0.00, -1.00, 328.6, 687.0)">o</text><text xml:space="preserve" font-family="Helvetica-Light,Helvetica" font-size="52.0" fill="#000000" transform="matrix(1.00, 0.00, -0.00, -1.00, 357.5, 687.0)">w</text><text xml:space="preserve" font-family="Helvetica-Light,Helvetica" font-size="52.0" fill="#000000" transform="matrix(1.00, 0.00, -0.00, -1.00, 395.1, 687.0)">n</text><text xml:space="preserve" font-family="Helvetica-Light,Helvetica" font-size="52.0" fill="#000000" transform="matrix(1.00, 0.00, -0.00, -1.00, 424.0, 687.0)">e</text><text xml:space="preserve" font-family="Helvetica-Light,Helvetica" font-size="52.0" fill="#000000" transform="matrix(1.00, 0.00, -0.00, -1.00, 452.9, 687.0)">r</text><text xml:space="preserve" font-family="Helvetica-Light,Helvetica" font-size="52.0" fill="#000000" transform="matrix(1.00, 0.00, -0.00, -1.00, 470.2, 687.0)">s</text><text xml:space="preserve" font-family="Helvetica-Light,Helvetica" font-size="52.0" fill="#000000" transform="matrix(1.00, 0.00, -0.00, -1.00, 496.2, 687.0)">h</text><text xml:space="preserve" font-family="Helvetica-Light,Helvetica" font-size="52.0" fill="#000000" transform="matrix(1.00, 0.00, -0.00, -1.00, 525.1, 687.0)">i</text><text xml:space="preserve" font-family="Helvetica-Light,Helvetica" font-size="52.0" fill="#000000" transform="matrix(1.00, 0.00, -0.00, -1.00, 536.6, 687.0)">p</text><text xml:space="preserve" font-family="Helvetica-Light,Helvetica" font-size="52.0" fill="#000000" transform="matrix(1.00, 0.00, -0.00, -1.00, 568.4, 687.0)"> </text><text xml:space="preserve" font-family="Helvetica-Light,Helvetica" font-size="52.0" fill="#000000" transform="matrix(1.00, 0.00, -0.00, -1.00, 582.9, 687.0)">b</text><text xml:space="preserve" font-family="Helvetica-Light,Helvetica" font-size="52.0" fill="#000000" transform="matrix(1.00, 0.00, -0.00, -1.00, 614.6, 687.0)">y</text><text xml:space="preserve" font-family="Helvetica-Light,Helvetica" font-size="52.0" fill="#000000" transform="matrix(1.00, 0.00, -0.00, -1.00, 640.6, 687.0)"> </text><text xml:space="preserve" font-family="Helvetica-Light,Helvetica" font-size="52.0" fill="#000000" transform="matrix(1.00, 0.00, -0.00, -1.00, 655.1, 687.0)">d</text><text xml:space="preserve" font-family="Helvetica-Light,Helvetica" font-size="52.0" fill="#000000" transform="matrix(1.00, 0.00, -0.00, -1.00, 686.9, 687.0)">e</text><text xml:space="preserve" font-family="Helvetica-Light,Helvetica" font-size="52.0" fill="#000000" transform="matrix(1.00, 0.00, -0.00, -1.00, 715.8, 687.0)">f</text><text xml:space="preserve" font-family="Helvetica-Light,Helvetica" font-size="52.0" fill="#000000" transform="matrix(1.00, 0.00, -0.00, -1.00, 730.2, 687.0)">a</text><text xml:space="preserve" font-family="Helvetica-Light,Helvetica" font-size="52.0" fill="#000000" transform="matrix(1.00, 0.00, -0.00, -1.00, 759.2, 687.0)">u</text><text xml:space="preserve" font-family="Helvetica-Light,Helvetica" font-size="52.0" fill="#000000" transform="matrix(1.00, 0.00, -0.00, -1.00, 788.1, 687.0)">l</text><text xml:space="preserve" font-family="Helvetica-Light,Helvetica" font-size="52.0" fill="#000000" transform="matrix(1.00, 0.00, -0.00, -1.00, 799.6, 687.0)">t</text><text xml:space="preserve" font-family="Helvetica-Light,Helvetica" font-size="52.0" fill="#000000" transform="matrix(1.00, 0.00, -0.00, -1.00, 814.1, 687.0)"> </text><text xml:space="preserve" font-family="Helvetica-Light,Helvetica" font-size="39.0" fill="#000000" transform="matrix(1.00, 0.00, -0.00, -1.00, 137.0, 570.5)">•</text><text xml:space="preserve" font-family="Helvetica-Light,Helvetica" font-size="52.0" fill="#000000" transform="matrix(1.00, 0.00, -0.00, -1.00, 187.0, 566.0)">U</text><text xml:space="preserve" font-family="Helvetica-Light,Helvetica" font-size="52.0" fill="#000000" transform="matrix(1.00, 0.00, -0.00, -1.00, 224.5, 566.0)">n</text><text xml:space="preserve" font-family="Helvetica-Light,Helvetica" font-size="52.0" fill="#000000" transform="matrix(1.00, 0.00, -0.00, -1.00, 253.5, 566.0)">l</text><text xml:space="preserve" font-family="Helvetica-Light,Helvetica" font-size="52.0" fill="#000000" transform="matrix(1.00, 0.00, -0.00, -1.00, 265.0, 566.0)">e</text><text xml:space="preserve" font-family="Helvetica-Light,Helvetica" font-size="52.0" fill="#000000" transform="matrix(1.00, 0.00, -0.00, -1.00, 293.9, 566.0)">s</text><text xml:space="preserve" font-family="Helvetica-Light,Helvetica" font-size="52.0" fill="#000000" transform="matrix(1.00, 0.00, -0.00, -1.00, 319.9, 566.0)">s</text><text xml:space="preserve" font-family="Helvetica-Light,Helvetica" font-size="52.0" fill="#000000" transform="matrix(1.00, 0.00, -0.00, -1.00, 345.9, 566.0)"> </text><text xml:space="preserve" font-family="Helvetica-Light,Helvetica" font-size="52.0" fill="#000000" transform="matrix(1.00, 0.00, -0.00, -1.00, 360.4, 566.0)">C</text><text xml:space="preserve" font-family="Helvetica-Light,Helvetica" font-size="52.0" fill="#000000" transform="matrix(1.00, 0.00, -0.00, -1.00, 397.9, 566.0)">o</text><text xml:space="preserve" font-family="Helvetica-Light,Helvetica" font-size="52.0" fill="#000000" transform="matrix(1.00, 0.00, -0.00, -1.00, 426.8, 566.0)">p</text><text xml:space="preserve" font-family="Helvetica-Light,Helvetica" font-size="52.0" fill="#000000" transform="matrix(1.00, 0.00, -0.00, -1.00, 458.6, 566.0)">y</text><text xml:space="preserve" font-family="Helvetica-Light,Helvetica" font-size="52.0" fill="#000000" transform="matrix(1.00, 0.00, -0.00, -1.00, 484.6, 566.0)"> </text><text xml:space="preserve" font-family="Helvetica-Light,Helvetica" font-size="52.0" fill="#000000" transform="matrix(1.00, 0.00, -0.00, -1.00, 499.1, 566.0)">t</text><text xml:space="preserve" font-family="Helvetica-Light,Helvetica" font-size="52.0" fill="#000000" transform="matrix(1.00, 0.00, -0.00, -1.00, 513.5, 566.0)">r</text><text xml:space="preserve" font-family="Helvetica-Light,Helvetica" font-size="52.0" fill="#000000" transform="matrix(1.00, 0.00, -0.00, -1.00, 530.8, 566.0)">a</text><text xml:space="preserve" font-family="Helvetica-Light,Helvetica" font-size="52.0" fill="#000000" transform="matrix(1.00, 0.00, -0.00, -1.00, 559.7, 566.0)">i</text><text xml:space="preserve" font-family="Helvetica-Light,Helvetica" font-size="52.0" fill="#000000" transform="matrix(1.00, 0.00, -0.00, -1.00, 571.3, 566.0)">t</text><text xml:space="preserve" font-family="Helvetica-Light,Helvetica" font-size="52.0" fill="#000000" transform="matrix(1.00, 0.00, -0.00, -1.00, 585.7, 566.0)"> </text><text xml:space="preserve" font-family="Helvetica-Light,Helvetica" font-size="52.0" fill="#000000" transform="matrix(1.00, 0.00, -0.00, -1.00, 600.2, 566.0)">i</text><text xml:space="preserve" font-family="Helvetica-Light,Helvetica" font-size="52.0" fill="#000000" transform="matrix(1.00, 0.00, -0.00, -1.00, 611.7, 566.0)">s</text><text xml:space="preserve" font-family="Helvetica-Light,Helvetica" font-size="52.0" fill="#000000" transform="matrix(1.00, 0.00, -0.00, -1.00, 637.7, 566.0)"> </text><text xml:space="preserve" font-family="Helvetica-Light,Helvetica" font-size="52.0" fill="#000000" transform="matrix(1.00, 0.00, -0.00, -1.00, 652.2, 566.0)">i</text><text xml:space="preserve" font-family="Helvetica-Light,Helvetica" font-size="52.0" fill="#000000" transform="matrix(1.00, 0.00, -0.00, -1.00, 663.7, 566.0)">m</text><text xml:space="preserve" font-family="Helvetica-Light,Helvetica" font-size="52.0" fill="#000000" transform="matrix(1.00, 0.00, -0.00, -1.00, 707.1, 566.0)">p</text><text xml:space="preserve" font-family="Helvetica-Light,Helvetica" font-size="52.0" fill="#000000" transform="matrix(1.00, 0.00, -0.00, -1.00, 738.8, 566.0)">l</text><text xml:space="preserve" font-family="Helvetica-Light,Helvetica" font-size="52.0" fill="#000000" transform="matrix(1.00, 0.00, -0.00, -1.00, 750.4, 566.0)">e</text><text xml:space="preserve" font-family="Helvetica-Light,Helvetica" font-size="52.0" fill="#000000" transform="matrix(1.00, 0.00, -0.00, -1.00, 779.3, 566.0)">m</text><text xml:space="preserve" font-family="Helvetica-Light,Helvetica" font-size="52.0" fill="#000000" transform="matrix(1.00, 0.00, -0.00, -1.00, 822.6, 566.0)">e</text><text xml:space="preserve" font-family="Helvetica-Light,Helvetica" font-size="52.0" fill="#000000" transform="matrix(1.00, 0.00, -0.00, -1.00, 851.5, 566.0)">n</text><text xml:space="preserve" font-family="Helvetica-Light,Helvetica" font-size="52.0" fill="#000000" transform="matrix(1.00, 0.00, -0.00, -1.00, 880.4, 566.0)">t</text><path d="M 337.0 395.0 L 1583.0 395.0 L 1583.0 133.0 L 337.0 133.0 Z M 337.1 394.9 " fill="#FEFFFE"></path><image xlink:href="A465FD04BF6C8A2693A6F639313547DB.png" width="1268.00" height="284.00" transform="matrix(1.00, 0.00, -0.00, 1.00, 326.1, 121.9)"></image><g><clipPath id="clip0x6000028b1b80"><path d="M 333.0 128.8 L 1587.0 128.8 L 1587.0 399.0 L 333.0 399.0 Z M 333.0 128.8 "></path></clipPath><g clip-path="url(#clip0x6000028b1b80)"><text xml:space="preserve" font-family="PragmataPro,PragmataPro" font-size="32.0" fill="#A7305D" transform="matrix(1.00, 0.00, -0.00, -1.00, 342.1, 359.8)">s</text><text xml:space="preserve" font-family="PragmataPro,PragmataPro" font-size="32.0" fill="#A7305D" transform="matrix(1.00, 0.00, -0.00, -1.00, 358.6, 359.8)">t</text><text xml:space="preserve" font-family="PragmataPro,PragmataPro" font-size="32.0" fill="#A7305D" transform="matrix(1.00, 0.00, -0.00, -1.00, 375.2, 359.8)">r</text><text xml:space="preserve" font-family="PragmataPro,PragmataPro" font-size="32.0" fill="#A7305D" transform="matrix(1.00, 0.00, -0.00, -1.00, 391.7, 359.8)">u</text><text xml:space="preserve" font-family="PragmataPro,PragmataPro" font-size="32.0" fill="#A7305D" transform="matrix(1.00, 0.00, -0.00, -1.00, 408.3, 359.8)">c</text><text xml:space="preserve" font-family="PragmataPro,PragmataPro" font-size="32.0" fill="#A7305D" transform="matrix(1.00, 0.00, -0.00, -1.00, 424.8, 359.8)">t</text><text xml:space="preserve" font-family="PragmataPro,PragmataPro" font-size="32.0" fill="#000000" transform="matrix(1.00, 0.00, -0.00, -1.00, 441.4, 359.8)"> </text><text xml:space="preserve" font-family="PragmataPro,PragmataPro" font-size="32.0" fill="#000000" transform="matrix(1.00, 0.00, -0.00, -1.00, 458.0, 359.8)">A</text><text xml:space="preserve" font-family="PragmataPro,PragmataPro" font-size="32.0" fill="#000000" transform="matrix(1.00, 0.00, -0.00, -1.00, 474.5, 359.8)">;</text><text xml:space="preserve" font-family="PragmataPro,PragmataPro" font-size="32.0" fill="#000000" transform="matrix(1.00, 0.00, -0.00, -1.00, 491.1, 359.8)"> </text><text xml:space="preserve" font-family="PragmataPro,PragmataPro" font-size="32.0" fill="#A7305D" transform="matrix(1.00, 0.00, -0.00, -1.00, 342.1, 287.8)">f</text><text xml:space="preserve" font-family="PragmataPro,PragmataPro" font-size="32.0" fill="#A7305D" transform="matrix(1.00, 0.00, -0.00, -1.00, 358.6, 287.8)">n</text><text xml:space="preserve" font-family="PragmataPro,PragmataPro" font-size="32.0" fill="#000000" transform="matrix(1.00, 0.00, -0.00, -1.00, 375.2, 287.8)"> </text><text xml:space="preserve" font-family="PragmataPro,PragmataPro" font-size="32.0" fill="#795DA3" transform="matrix(1.00, 0.00, -0.00, -1.00, 391.8, 287.8)">t</text><text xml:space="preserve" font-family="PragmataPro,PragmataPro" font-size="32.0" fill="#795DA3" transform="matrix(1.00, 0.00, -0.00, -1.00, 408.3, 287.8)">e</text><text xml:space="preserve" font-family="PragmataPro,PragmataPro" font-size="32.0" fill="#795DA3" transform="matrix(1.00, 0.00, -0.00, -1.00, 424.8, 287.8)">s</text><text xml:space="preserve" font-family="PragmataPro,PragmataPro" font-size="32.0" fill="#795DA3" transform="matrix(1.00, 0.00, -0.00, -1.00, 441.4, 287.8)">t</text><text xml:space="preserve" font-family="PragmataPro,PragmataPro" font-size="32.0" fill="#000000" transform="matrix(1.00, 0.00, -0.00, -1.00, 458.0, 287.8)">(</text><text xml:space="preserve" font-family="PragmataPro,PragmataPro" font-size="32.0" fill="#000000" transform="matrix(1.00, 0.00, -0.00, -1.00, 474.5, 287.8)">)</text><text xml:space="preserve" font-family="PragmataPro,PragmataPro" font-size="32.0" fill="#000000" transform="matrix(1.00, 0.00, -0.00, -1.00, 491.1, 287.8)"> </text><text xml:space="preserve" font-family="PragmataPro,PragmataPro" font-size="32.0" fill="#000000" transform="matrix(1.00, 0.00, -0.00, -1.00, 507.6, 287.8)">{</text><text xml:space="preserve" font-family="PragmataPro,PragmataPro" font-size="32.0" fill="#000000" transform="matrix(1.00, 0.00, -0.00, -1.00, 524.2, 287.8)"> </text><text xml:space="preserve" font-family="PragmataPro,PragmataPro" font-size="32.0" fill="#000000" transform="matrix(1.00, 0.00, -0.00, -1.00, 342.1, 251.8)"> </text><text xml:space="preserve" font-family="PragmataPro,PragmataPro" font-size="32.0" fill="#000000" transform="matrix(1.00, 0.00, -0.00, -1.00, 358.6, 251.8)"> </text><text xml:space="preserve" font-family="PragmataPro,PragmataPro" font-size="32.0" fill="#000000" transform="matrix(1.00, 0.00, -0.00, -1.00, 375.2, 251.8)"> </text><text xml:space="preserve" font-family="PragmataPro,PragmataPro" font-size="32.0" fill="#A61C5D" transform="matrix(1.00, 0.00, -0.00, -1.00, 391.8, 251.8)">l</text><text xml:space="preserve" font-family="PragmataPro,PragmataPro" font-size="32.0" fill="#A61C5D" transform="matrix(1.00, 0.00, -0.00, -1.00, 408.3, 251.8)">e</text><text xml:space="preserve" font-family="PragmataPro,PragmataPro" font-size="32.0" fill="#A61C5D" transform="matrix(1.00, 0.00, -0.00, -1.00, 424.8, 251.8)">t</text><text xml:space="preserve" font-family="PragmataPro,PragmataPro" font-size="32.0" fill="#000000" transform="matrix(1.00, 0.00, -0.00, -1.00, 441.4, 251.8)"> </text><text xml:space="preserve" font-family="PragmataPro,PragmataPro" font-size="32.0" fill="#000000" transform="matrix(1.00, 0.00, -0.00, -1.00, 458.0, 251.8)">a</text><text xml:space="preserve" font-family="PragmataPro,PragmataPro" font-size="32.0" fill="#000000" transform="matrix(1.00, 0.00, -0.00, -1.00, 474.5, 251.8)"> </text><text xml:space="preserve" font-family="PragmataPro,PragmataPro" font-size="32.0" fill="#A61C5D" transform="matrix(1.00, 0.00, -0.00, -1.00, 491.1, 251.8)">=</text><text xml:space="preserve" font-family="PragmataPro,PragmataPro" font-size="32.0" fill="#000000" transform="matrix(1.00, 0.00, -0.00, -1.00, 507.7, 251.8)"> </text><text xml:space="preserve" font-family="PragmataPro,PragmataPro" font-size="32.0" fill="#000000" transform="matrix(1.00, 0.00, -0.00, -1.00, 524.2, 251.8)">A</text><text xml:space="preserve" font-family="PragmataPro,PragmataPro" font-size="32.0" fill="#A61C5D" transform="matrix(1.00, 0.00, -0.00, -1.00, 540.8, 251.8)">;</text><text xml:space="preserve" font-family="PragmataPro,PragmataPro" font-size="32.0" fill="#000000" transform="matrix(1.00, 0.00, -0.00, -1.00, 557.4, 251.8)"> </text><text xml:space="preserve" font-family="PragmataPro,PragmataPro" font-size="32.0" fill="#000000" transform="matrix(1.00, 0.00, -0.00, -1.00, 342.1, 215.8)"> </text><text xml:space="preserve" font-family="PragmataPro,PragmataPro" font-size="32.0" fill="#000000" transform="matrix(1.00, 0.00, -0.00, -1.00, 358.6, 215.8)"> </text><text xml:space="preserve" font-family="PragmataPro,PragmataPro" font-size="32.0" fill="#000000" transform="matrix(1.00, 0.00, -0.00, -1.00, 375.2, 215.8)"> </text><text xml:space="preserve" font-family="PragmataPro,PragmataPro" font-size="32.0" fill="#A61C5D" transform="matrix(1.00, 0.00, -0.00, -1.00, 391.8, 215.8)">l</text><text xml:space="preserve" font-family="PragmataPro,PragmataPro" font-size="32.0" fill="#A61C5D" transform="matrix(1.00, 0.00, -0.00, -1.00, 408.3, 215.8)">e</text><text xml:space="preserve" font-family="PragmataPro,PragmataPro" font-size="32.0" fill="#A61C5D" transform="matrix(1.00, 0.00, -0.00, -1.00, 424.8, 215.8)">t</text><text xml:space="preserve" font-family="PragmataPro,PragmataPro" font-size="32.0" fill="#000000" transform="matrix(1.00, 0.00, -0.00, -1.00, 441.4, 215.8)"> </text><text xml:space="preserve" font-family="PragmataPro,PragmataPro" font-size="32.0" fill="#000000" transform="matrix(1.00, 0.00, -0.00, -1.00, 458.0, 215.8)">b</text><text xml:space="preserve" font-family="PragmataPro,PragmataPro" font-size="32.0" fill="#000000" transform="matrix(1.00, 0.00, -0.00, -1.00, 474.5, 215.8)"> </text><text xml:space="preserve" font-family="PragmataPro,PragmataPro" font-size="32.0" fill="#A61C5D" transform="matrix(1.00, 0.00, -0.00, -1.00, 491.1, 215.8)">=</text><text xml:space="preserve" font-family="PragmataPro,PragmataPro" font-size="32.0" fill="#000000" transform="matrix(1.00, 0.00, -0.00, -1.00, 507.7, 215.8)"> </text><text xml:space="preserve" font-family="PragmataPro,PragmataPro" font-size="32.0" fill="#000000" transform="matrix(1.00, 0.00, -0.00, -1.00, 524.2, 215.8)">a</text><text xml:space="preserve" font-family="PragmataPro,PragmataPro" font-size="32.0" fill="#A61C5D" transform="matrix(1.00, 0.00, -0.00, -1.00, 540.8, 215.8)">;</text><text xml:space="preserve" font-family="PragmataPro,PragmataPro" font-size="32.0" fill="#000000" transform="matrix(1.00, 0.00, -0.00, -1.00, 557.4, 215.8)"> </text><text xml:space="preserve" font-family="PragmataPro,PragmataPro" font-size="32.0" fill="#000000" transform="matrix(1.00, 0.00, -0.00, -1.00, 342.1, 179.8)"> </text><text xml:space="preserve" font-family="PragmataPro,PragmataPro" font-size="32.0" fill="#000000" transform="matrix(1.00, 0.00, -0.00, -1.00, 358.6, 179.8)"> </text><text xml:space="preserve" font-family="PragmataPro,PragmataPro" font-size="32.0" fill="#000000" transform="matrix(1.00, 0.00, -0.00, -1.00, 375.2, 179.8)"> </text><text xml:space="preserve" font-family="PragmataPro,PragmataPro" font-size="32.0" fill="#A61C5D" transform="matrix(1.00, 0.00, -0.00, -1.00, 391.8, 179.8)">l</text><text xml:space="preserve" font-family="PragmataPro,PragmataPro" font-size="32.0" fill="#A61C5D" transform="matrix(1.00, 0.00, -0.00, -1.00, 408.3, 179.8)">e</text><text xml:space="preserve" font-family="PragmataPro,PragmataPro" font-size="32.0" fill="#A61C5D" transform="matrix(1.00, 0.00, -0.00, -1.00, 424.8, 179.8)">t</text><text xml:space="preserve" font-family="PragmataPro,PragmataPro" font-size="32.0" fill="#000000" transform="matrix(1.00, 0.00, -0.00, -1.00, 441.4, 179.8)"> </text><text xml:space="preserve" font-family="PragmataPro,PragmataPro" font-size="32.0" fill="#000000" transform="matrix(1.00, 0.00, -0.00, -1.00, 458.0, 179.8)">c</text><text xml:space="preserve" font-family="PragmataPro,PragmataPro" font-size="32.0" fill="#000000" transform="matrix(1.00, 0.00, -0.00, -1.00, 474.5, 179.8)"> </text><text xml:space="preserve" font-family="PragmataPro,PragmataPro" font-size="32.0" fill="#A61C5D" transform="matrix(1.00, 0.00, -0.00, -1.00, 491.1, 179.8)">=</text><text xml:space="preserve" font-family="PragmataPro,PragmataPro" font-size="32.0" fill="#000000" transform="matrix(1.00, 0.00, -0.00, -1.00, 507.7, 179.8)"> </text><text xml:space="preserve" font-family="PragmataPro,PragmataPro" font-size="32.0" fill="#000000" transform="matrix(1.00, 0.00, -0.00, -1.00, 524.2, 179.8)">a</text><text xml:space="preserve" font-family="PragmataPro,PragmataPro" font-size="32.0" fill="#A61C5D" transform="matrix(1.00, 0.00, -0.00, -1.00, 540.8, 179.8)">;</text><text xml:space="preserve" font-family="PragmataPro,PragmataPro" font-size="32.0" fill="#52575F" transform="matrix(1.00, 0.00, -0.00, -1.00, 557.4, 179.8)"> </text><text xml:space="preserve" font-family="PragmataPro,PragmataPro" font-size="32.0" fill="#52575F" transform="matrix(1.00, 0.00, -0.00, -1.00, 573.9, 179.8)">/</text><text xml:space="preserve" font-family="PragmataPro,PragmataPro" font-size="32.0" fill="#52575F" transform="matrix(1.00, 0.00, -0.00, -1.00, 590.5, 179.8)">/</text><text xml:space="preserve" font-family="PragmataPro,PragmataPro" font-size="32.0" fill="#52575F" transform="matrix(1.00, 0.00, -0.00, -1.00, 607.0, 179.8)"> </text><text xml:space="preserve" font-family="PragmataPro,PragmataPro" font-size="32.0" fill="#52575F" transform="matrix(1.00, 0.00, -0.00, -1.00, 623.6, 179.8)">e</text><text xml:space="preserve" font-family="PragmataPro,PragmataPro" font-size="32.0" fill="#52575F" transform="matrix(1.00, 0.00, -0.00, -1.00, 640.1, 179.8)">r</text><text xml:space="preserve" font-family="PragmataPro,PragmataPro" font-size="32.0" fill="#52575F" transform="matrix(1.00, 0.00, -0.00, -1.00, 656.7, 179.8)">r</text><text xml:space="preserve" font-family="PragmataPro,PragmataPro" font-size="32.0" fill="#52575F" transform="matrix(1.00, 0.00, -0.00, -1.00, 673.2, 179.8)">o</text><text xml:space="preserve" font-family="PragmataPro,PragmataPro" font-size="32.0" fill="#52575F" transform="matrix(1.00, 0.00, -0.00, -1.00, 689.8, 179.8)">r</text><text xml:space="preserve" font-family="PragmataPro,PragmataPro" font-size="32.0" fill="#52575F" transform="matrix(1.00, 0.00, -0.00, -1.00, 706.3, 179.8)">:</text><text xml:space="preserve" font-family="PragmataPro,PragmataPro" font-size="32.0" fill="#52575F" transform="matrix(1.00, 0.00, -0.00, -1.00, 722.9, 179.8)"> </text><text xml:space="preserve" font-family="PragmataPro,PragmataPro" font-size="32.0" fill="#52575F" transform="matrix(1.00, 0.00, -0.00, -1.00, 739.4, 179.8)">u</text><text xml:space="preserve" font-family="PragmataPro,PragmataPro" font-size="32.0" fill="#52575F" transform="matrix(1.00, 0.00, -0.00, -1.00, 756.0, 179.8)">s</text><text xml:space="preserve" font-family="PragmataPro,PragmataPro" font-size="32.0" fill="#52575F" transform="matrix(1.00, 0.00, -0.00, -1.00, 772.5, 179.8)">e</text><text xml:space="preserve" font-family="PragmataPro,PragmataPro" font-size="32.0" fill="#52575F" transform="matrix(1.00, 0.00, -0.00, -1.00, 789.1, 179.8)"> </text><text xml:space="preserve" font-family="PragmataPro,PragmataPro" font-size="32.0" fill="#52575F" transform="matrix(1.00, 0.00, -0.00, -1.00, 805.6, 179.8)">o</text><text xml:space="preserve" font-family="PragmataPro,PragmataPro" font-size="32.0" fill="#52575F" transform="matrix(1.00, 0.00, -0.00, -1.00, 822.2, 179.8)">f</text><text xml:space="preserve" font-family="PragmataPro,PragmataPro" font-size="32.0" fill="#52575F" transform="matrix(1.00, 0.00, -0.00, -1.00, 838.7, 179.8)"> </text><text xml:space="preserve" font-family="PragmataPro,PragmataPro" font-size="32.0" fill="#52575F" transform="matrix(1.00, 0.00, -0.00, -1.00, 855.3, 179.8)">m</text><text xml:space="preserve" font-family="PragmataPro,PragmataPro" font-size="32.0" fill="#52575F" transform="matrix(1.00, 0.00, -0.00, -1.00, 871.8, 179.8)">o</text><text xml:space="preserve" font-family="PragmataPro,PragmataPro" font-size="32.0" fill="#52575F" transform="matrix(1.00, 0.00, -0.00, -1.00, 888.4, 179.8)">v</text><text xml:space="preserve" font-family="PragmataPro,PragmataPro" font-size="32.0" fill="#52575F" transform="matrix(1.00, 0.00, -0.00, -1.00, 904.9, 179.8)">e</text><text xml:space="preserve" font-family="PragmataPro,PragmataPro" font-size="32.0" fill="#52575F" transform="matrix(1.00, 0.00, -0.00, -1.00, 921.5, 179.8)">d</text><text xml:space="preserve" font-family="PragmataPro,PragmataPro" font-size="32.0" fill="#52575F" transform="matrix(1.00, 0.00, -0.00, -1.00, 938.0, 179.8)"> </text><text xml:space="preserve" font-family="PragmataPro,PragmataPro" font-size="32.0" fill="#52575F" transform="matrix(1.00, 0.00, -0.00, -1.00, 954.6, 179.8)">v</text><text xml:space="preserve" font-family="PragmataPro,PragmataPro" font-size="32.0" fill="#52575F" transform="matrix(1.00, 0.00, -0.00, -1.00, 971.1, 179.8)">a</text><text xml:space="preserve" font-family="PragmataPro,PragmataPro" font-size="32.0" fill="#52575F" transform="matrix(1.00, 0.00, -0.00, -1.00, 987.7, 179.8)">l</text><text xml:space="preserve" font-family="PragmataPro,PragmataPro" font-size="32.0" fill="#52575F" transform="matrix(1.00, 0.00, -0.00, -1.00, 1004.2, 179.8)">u</text><text xml:space="preserve" font-family="PragmataPro,PragmataPro" font-size="32.0" fill="#52575F" transform="matrix(1.00, 0.00, -0.00, -1.00, 1020.8, 179.8)">e</text><text xml:space="preserve" font-family="PragmataPro,PragmataPro" font-size="32.0" fill="#52575F" transform="matrix(1.00, 0.00, -0.00, -1.00, 1037.3, 179.8)">:</text><text xml:space="preserve" font-family="PragmataPro,PragmataPro" font-size="32.0" fill="#52575F" transform="matrix(1.00, 0.00, -0.00, -1.00, 1053.9, 179.8)"> </text><text xml:space="preserve" font-family="PragmataPro,PragmataPro" font-size="32.0" fill="#52575F" transform="matrix(1.00, 0.00, -0.00, -1.00, 1070.4, 179.8)">`</text><text xml:space="preserve" font-family="PragmataPro,PragmataPro" font-size="32.0" fill="#52575F" transform="matrix(1.00, 0.00, -0.00, -1.00, 1087.0, 179.8)">a</text><text xml:space="preserve" font-family="PragmataPro,PragmataPro" font-size="32.0" fill="#52575F" transform="matrix(1.00, 0.00, -0.00, -1.00, 1103.5, 179.8)">`</text><text xml:space="preserve" font-family="PragmataPro,PragmataPro" font-size="32.0" fill="#000000" transform="matrix(1.00, 0.00, -0.00, -1.00, 1120.5, 179.8)"> </text><text xml:space="preserve" font-family="PragmataPro,PragmataPro" font-size="32.0" fill="#000000" transform="matrix(1.00, 0.00, -0.00, -1.00, 342.1, 143.8)">}</text></g></g></g></svg>