<?xml version="1.0" encoding="UTF-8" standalone="no"?><svg xmlns="http://www.w3.org/2000/svg" xmlns:xlink="http://www.w3.org/1999/xlink" clip-rule="evenodd" stroke-miterlimit="4.00" viewBox="0 0 1920 1080"><desc>SVG generated by Keynote</desc><defs></defs><g transform="matrix(1.00, 0.00, -0.00, -1.00, 0.0, 1080.0)"><path d="M 0.0 1080.0 L 1920.0 1080.0 L 1920.0 0.0 L 0.0 0.0 Z M 0.0 1080.0 " fill="#F4F4F4"></path><text xml:space="preserve" font-family="Helvetica-Light" font-size="112.0" fill="#000000" transform="matrix(1.00, 0.00, -0.00, -1.00, 336.0, 874.0)">P</text><text xml:space="preserve" font-family="Helvetica-Light" font-size="112.0" fill="#000000" transform="matrix(1.00, 0.00, -0.00, -1.00, 404.4, 874.0)">r</text><text xml:space="preserve" font-family="Helvetica-Light" font-size="112.0" fill="#000000" transform="matrix(1.00, 0.00, -0.00, -1.00, 439.7, 874.0)">o</text><text xml:space="preserve" font-family="Helvetica-Light" font-size="112.0" fill="#000000" transform="matrix(1.00, 0.00, -0.00, -1.00, 502.0, 874.0)">d</text><text xml:space="preserve" font-family="Helvetica-Light" font-size="112.0" fill="#000000" transform="matrix(1.00, 0.00, -0.00, -1.00, 570.4, 874.0)">u</text><text xml:space="preserve" font-family="Helvetica-Light" font-size="112.0" fill="#000000" transform="matrix(1.00, 0.00, -0.00, -1.00, 632.7, 874.0)">c</text><text xml:space="preserve" font-family="Helvetica-Light" font-size="112.0" fill="#000000" transform="matrix(1.00, 0.00, -0.00, -1.00, 695.0, 874.0)">t</text><text xml:space="preserve" font-family="Helvetica-Light" font-size="112.0" fill="#000000" transform="matrix(1.00, 0.00, -0.00, -1.00, 726.1, 874.0)"> </text><text xml:space="preserve" font-family="Helvetica-Light" font-size="112.0" fill="#000000" transform="matrix(1.00, 0.00, -0.00, -1.00, 757.2, 874.0)">t</text><text xml:space="preserve" font-family="Helvetica-Light" font-size="112.0" fill="#000000" transform="matrix(1.00, 0.00, -0.00, -1.00, 788.4, 874.0)">y</text><text xml:space="preserve" font-family="Helvetica-Light" font-size="112.0" fill="#000000" transform="matrix(1.00, 0.00, -0.00, -1.00, 844.4, 874.0)">p</text><text xml:space="preserve" font-family="Helvetica-Light" font-size="112.0" fill="#000000" transform="matrix(1.00, 0.00, -0.00, -1.00, 912.8, 874.0)">e</text><text xml:space="preserve" font-family="Helvetica-Light" font-size="112.0" fill="#000000" transform="matrix(1.00, 0.00, -0.00, -1.00, 975.1, 874.0)">s</text><text xml:space="preserve" font-family="Helvetica-Light" font-size="112.0" fill="#000000" transform="matrix(1.00, 0.00, -0.00, -1.00, 1031.1, 874.0)"> </text><text xml:space="preserve" font-family="Helvetica-Light" font-size="112.0" fill="#000000" transform="matrix(1.00, 0.00, -0.00, -1.00, 1062.2, 874.0)">-</text><text xml:space="preserve" font-family="Helvetica-Light" font-size="112.0" fill="#000000" transform="matrix(1.00, 0.00, -0.00, -1.00, 1099.5, 874.0)"> </text><text xml:space="preserve" font-family="Helvetica-Light" font-size="112.0" fill="#000000" transform="matrix(1.00, 0.00, -0.00, -1.00, 1130.6, 874.0)">S</text><text xml:space="preserve" font-family="Helvetica-Light" font-size="112.0" fill="#000000" transform="matrix(1.00, 0.00, -0.00, -1.00, 1199.1, 874.0)">t</text><text xml:space="preserve" font-family="Helvetica-Light" font-size="112.0" fill="#000000" transform="matrix(1.00, 0.00, -0.00, -1.00, 1230.2, 874.0)">r</text><text xml:space="preserve" font-family="Helvetica-Light" font-size="112.0" fill="#000000" transform="matrix(1.00, 0.00, -0.00, -1.00, 1267.5, 874.0)">u</text><text xml:space="preserve" font-family="Helvetica-Light" font-size="112.0" fill="#000000" transform="matrix(1.00, 0.00, -0.00, -1.00, 1329.8, 874.0)">c</text><text xml:space="preserve" font-family="Helvetica-Light" font-size="112.0" fill="#000000" transform="matrix(1.00, 0.00, -0.00, -1.00, 1392.0, 874.0)">t</text><text xml:space="preserve" font-family="Helvetica-Light" font-size="112.0" fill="#000000" transform="matrix(1.00, 0.00, -0.00, -1.00, 1423.2, 874.0)">u</text><text xml:space="preserve" font-family="Helvetica-Light" font-size="112.0" fill="#000000" transform="matrix(1.00, 0.00, -0.00, -1.00, 1485.5, 874.0)">r</text><text xml:space="preserve" font-family="Helvetica-Light" font-size="112.0" fill="#000000" transform="matrix(1.00, 0.00, -0.00, -1.00, 1520.7, 874.0)">e</text><text xml:space="preserve" font-family="Helvetica-Light" font-size="39.0" fill="#000000" transform="matrix(1.00, 0.00, -0.00, -1.00, 137.0, 762.5)">•</text><text xml:space="preserve" font-family="Helvetica-Light" font-size="52.0" fill="#000000" transform="matrix(1.00, 0.00, -0.00, -1.00, 187.0, 758.0)">h</text><text xml:space="preserve" font-family="Helvetica-Light" font-size="52.0" fill="#000000" transform="matrix(1.00, 0.00, -0.00, -1.00, 215.9, 758.0)">e</text><text xml:space="preserve" font-family="Helvetica-Light" font-size="52.0" fill="#000000" transform="matrix(1.00, 0.00, -0.00, -1.00, 244.8, 758.0)">t</text><text xml:space="preserve" font-family="Helvetica-Light" font-size="52.0" fill="#000000" transform="matrix(1.00, 0.00, -0.00, -1.00, 259.3, 758.0)">e</text><text xml:space="preserve" font-family="Helvetica-Light" font-size="52.0" fill="#000000" transform="matrix(1.00, 0.00, -0.00, -1.00, 288.2, 758.0)">r</text><text xml:space="preserve" font-family="Helvetica-Light" font-size="52.0" fill="#000000" transform="matrix(1.00, 0.00, -0.00, -1.00, 304.6, 758.0)">o</text><text xml:space="preserve" font-family="Helvetica-Light" font-size="52.0" fill="#000000" transform="matrix(1.00, 0.00, -0.00, -1.00, 333.5, 758.0)">g</text><text xml:space="preserve" font-family="Helvetica-Light" font-size="52.0" fill="#000000" transform="matrix(1.00, 0.00, -0.00, -1.00, 365.3, 758.0)">e</text><text xml:space="preserve" font-family="Helvetica-Light" font-size="52.0" fill="#000000" transform="matrix(1.00, 0.00, -0.00, -1.00, 394.2, 758.0)">n</text><text xml:space="preserve" font-family="Helvetica-Light" font-size="52.0" fill="#000000" transform="matrix(1.00, 0.00, -0.00, -1.00, 423.1, 758.0)">e</text><text xml:space="preserve" font-family="Helvetica-Light" font-size="52.0" fill="#000000" transform="matrix(1.00, 0.00, -0.00, -1.00, 452.0, 758.0)">o</text><text xml:space="preserve" font-family="Helvetica-Light" font-size="52.0" fill="#000000" transform="matrix(1.00, 0.00, -0.00, -1.00, 480.9, 758.0)">u</text><text xml:space="preserve" font-family="Helvetica-Light" font-size="52.0" fill="#000000" transform="matrix(1.00, 0.00, -0.00, -1.00, 509.8, 758.0)">s</text><text xml:space="preserve" font-family="Helvetica-Light" font-size="52.0" fill="#000000" transform="matrix(1.00, 0.00, -0.00, -1.00, 535.8, 758.0)"> </text><text xml:space="preserve" font-family="Helvetica-Light" font-size="52.0" fill="#000000" transform="matrix(1.00, 0.00, -0.00, -1.00, 550.3, 758.0)">p</text><text xml:space="preserve" font-family="Helvetica-Light" font-size="52.0" fill="#000000" transform="matrix(1.00, 0.00, -0.00, -1.00, 582.0, 758.0)">r</text><text xml:space="preserve" font-family="Helvetica-Light" font-size="52.0" fill="#000000" transform="matrix(1.00, 0.00, -0.00, -1.00, 598.4, 758.0)">o</text><text xml:space="preserve" font-family="Helvetica-Light" font-size="52.0" fill="#000000" transform="matrix(1.00, 0.00, -0.00, -1.00, 627.3, 758.0)">d</text><text xml:space="preserve" font-family="Helvetica-Light" font-size="52.0" fill="#000000" transform="matrix(1.00, 0.00, -0.00, -1.00, 659.1, 758.0)">u</text><text xml:space="preserve" font-family="Helvetica-Light" font-size="52.0" fill="#000000" transform="matrix(1.00, 0.00, -0.00, -1.00, 688.0, 758.0)">c</text><text xml:space="preserve" font-family="Helvetica-Light" font-size="52.0" fill="#000000" transform="matrix(1.00, 0.00, -0.00, -1.00, 716.9, 758.0)">t</text><text xml:space="preserve" font-family="Helvetica-Light" font-size="52.0" fill="#000000" transform="matrix(1.00, 0.00, -0.00, -1.00, 731.4, 758.0)"> </text><text xml:space="preserve" font-family="Helvetica-Light" font-size="52.0" fill="#000000" transform="matrix(1.00, 0.00, -0.00, -1.00, 745.8, 758.0)">o</text><text xml:space="preserve" font-family="Helvetica-Light" font-size="52.0" fill="#000000" transform="matrix(1.00, 0.00, -0.00, -1.00, 774.8, 758.0)">f</text><text xml:space="preserve" font-family="Helvetica-Light" font-size="52.0" fill="#000000" transform="matrix(1.00, 0.00, -0.00, -1.00, 789.2, 758.0)"> </text><text xml:space="preserve" font-family="Helvetica-Light" font-size="52.0" fill="#000000" transform="matrix(1.00, 0.00, -0.00, -1.00, 803.7, 758.0)">o</text><text xml:space="preserve" font-family="Helvetica-Light" font-size="52.0" fill="#000000" transform="matrix(1.00, 0.00, -0.00, -1.00, 832.6, 758.0)">t</text><text xml:space="preserve" font-family="Helvetica-Light" font-size="52.0" fill="#000000" transform="matrix(1.00, 0.00, -0.00, -1.00, 847.0, 758.0)">h</text><text xml:space="preserve" font-family="Helvetica-Light" font-size="52.0" fill="#000000" transform="matrix(1.00, 0.00, -0.00, -1.00, 875.9, 758.0)">e</text><text xml:space="preserve" font-family="Helvetica-Light" font-size="52.0" fill="#000000" transform="matrix(1.00, 0.00, -0.00, -1.00, 904.9, 758.0)">r</text><text xml:space="preserve" font-family="Helvetica-Light" font-size="52.0" fill="#000000" transform="matrix(1.00, 0.00, -0.00, -1.00, 922.2, 758.0)"> </text><text xml:space="preserve" font-family="Helvetica-Light" font-size="52.0" fill="#000000" transform="matrix(1.00, 0.00, -0.00, -1.00, 936.6, 758.0)">t</text><text xml:space="preserve" font-family="Helvetica-Light" font-size="52.0" fill="#000000" transform="matrix(1.00, 0.00, -0.00, -1.00, 951.1, 758.0)">y</text><text xml:space="preserve" font-family="Helvetica-Light" font-size="52.0" fill="#000000" transform="matrix(1.00, 0.00, -0.00, -1.00, 977.1, 758.0)">p</text><text xml:space="preserve" font-family="Helvetica-Light" font-size="52.0" fill="#000000" transform="matrix(1.00, 0.00, -0.00, -1.00, 1008.9, 758.0)">e</text><text xml:space="preserve" font-family="Helvetica-Light" font-size="52.0" fill="#000000" transform="matrix(1.00, 0.00, -0.00, -1.00, 1037.8, 758.0)">s</text><text xml:space="preserve" font-family="Helvetica-Light" font-size="52.0" fill="#000000" transform="matrix(1.00, 0.00, -0.00, -1.00, 1063.8, 758.0)"> </text><text xml:space="preserve" font-family="Helvetica-Light" font-size="39.0" fill="#000000" transform="matrix(1.00, 0.00, -0.00, -1.00, 137.0, 648.5)">•</text><text xml:space="preserve" font-family="Helvetica-Light" font-size="52.0" fill="#000000" transform="matrix(1.00, 0.00, -0.00, -1.00, 187.0, 644.0)">a</text><text xml:space="preserve" font-family="Helvetica-Light" font-size="52.0" fill="#000000" transform="matrix(1.00, 0.00, -0.00, -1.00, 215.9, 644.0)">c</text><text xml:space="preserve" font-family="Helvetica-Light" font-size="52.0" fill="#000000" transform="matrix(1.00, 0.00, -0.00, -1.00, 244.8, 644.0)">c</text><text xml:space="preserve" font-family="Helvetica-Light" font-size="52.0" fill="#000000" transform="matrix(1.00, 0.00, -0.00, -1.00, 273.7, 644.0)">e</text><text xml:space="preserve" font-family="Helvetica-Light" font-size="52.0" fill="#000000" transform="matrix(1.00, 0.00, -0.00, -1.00, 302.6, 644.0)">s</text><text xml:space="preserve" font-family="Helvetica-Light" font-size="52.0" fill="#000000" transform="matrix(1.00, 0.00, -0.00, -1.00, 328.6, 644.0)">s</text><text xml:space="preserve" font-family="Helvetica-Light" font-size="52.0" fill="#000000" transform="matrix(1.00, 0.00, -0.00, -1.00, 354.6, 644.0)"> </text><text xml:space="preserve" font-family="Helvetica-Light" font-size="52.0" fill="#000000" transform="matrix(1.00, 0.00, -0.00, -1.00, 369.1, 644.0)">v</text><text xml:space="preserve" font-family="Helvetica-Light" font-size="52.0" fill="#000000" transform="matrix(1.00, 0.00, -0.00, -1.00, 395.1, 644.0)">i</text><text xml:space="preserve" font-family="Helvetica-Light" font-size="52.0" fill="#000000" transform="matrix(1.00, 0.00, -0.00, -1.00, 406.6, 644.0)">a</text><text xml:space="preserve" font-family="Helvetica-Light" font-size="52.0" fill="#000000" transform="matrix(1.00, 0.00, -0.00, -1.00, 435.6, 644.0)"> </text><text xml:space="preserve" font-family="Helvetica-Light" font-size="52.0" fill="#000000" transform="matrix(1.00, 0.00, -0.00, -1.00, 450.0, 644.0)">ﬁ</text><text xml:space="preserve" font-family="Helvetica-Light" font-size="52.0" fill="#000000" transform="matrix(1.00, 0.00, -0.00, -1.00, 476.0, 644.0)">e</text><text xml:space="preserve" font-family="Helvetica-Light" font-size="52.0" fill="#000000" transform="matrix(1.00, 0.00, -0.00, -1.00, 504.9, 644.0)">l</text><text xml:space="preserve" font-family="Helvetica-Light" font-size="52.0" fill="#000000" transform="matrix(1.00, 0.00, -0.00, -1.00, 516.5, 644.0)">d</text><text xml:space="preserve" font-family="Helvetica-Light" font-size="52.0" fill="#000000" transform="matrix(1.00, 0.00, -0.00, -1.00, 548.2, 644.0)"> </text><text xml:space="preserve" font-family="Helvetica-Light" font-size="52.0" fill="#000000" transform="matrix(1.00, 0.00, -0.00, -1.00, 562.7, 644.0)">n</text><text xml:space="preserve" font-family="Helvetica-Light" font-size="52.0" fill="#000000" transform="matrix(1.00, 0.00, -0.00, -1.00, 591.6, 644.0)">a</text><text xml:space="preserve" font-family="Helvetica-Light" font-size="52.0" fill="#000000" transform="matrix(1.00, 0.00, -0.00, -1.00, 620.5, 644.0)">m</text><text xml:space="preserve" font-family="Helvetica-Light" font-size="52.0" fill="#000000" transform="matrix(1.00, 0.00, -0.00, -1.00, 663.8, 644.0)">e</text><text xml:space="preserve" font-family="Helvetica-Light" font-size="52.0" fill="#000000" transform="matrix(1.00, 0.00, -0.00, -1.00, 692.8, 644.0)">s</text><text xml:space="preserve" font-family="Helvetica-Light" font-size="52.0" fill="#000000" transform="matrix(1.00, 0.00, -0.00, -1.00, 718.8, 644.0)"> </text><text xml:space="preserve" font-family="Helvetica-Light" font-size="39.0" fill="#000000" transform="matrix(1.00, 0.00, -0.00, -1.00, 137.0, 534.5)">•</text><text xml:space="preserve" font-family="Helvetica-Light" font-size="52.0" fill="#000000" transform="matrix(1.00, 0.00, -0.00, -1.00, 187.0, 530.0)">o</text><text xml:space="preserve" font-family="Helvetica-Light" font-size="52.0" fill="#000000" transform="matrix(1.00, 0.00, -0.00, -1.00, 215.9, 530.0)">n</text><text xml:space="preserve" font-family="Helvetica-Light" font-size="52.0" fill="#000000" transform="matrix(1.00, 0.00, -0.00, -1.00, 244.8, 530.0)">l</text><text xml:space="preserve" font-family="Helvetica-Light" font-size="52.0" fill="#000000" transform="matrix(1.00, 0.00, -0.00, -1.00, 256.4, 530.0)">y</text><text xml:space="preserve" font-family="Helvetica-Light" font-size="52.0" fill="#000000" transform="matrix(1.00, 0.00, -0.00, -1.00, 282.4, 530.0)"> </text><text xml:space="preserve" font-family="Helvetica-Light" font-size="52.0" fill="#000000" transform="matrix(1.00, 0.00, -0.00, -1.00, 296.8, 530.0)">o</text><text xml:space="preserve" font-family="Helvetica-Light" font-size="52.0" fill="#000000" transform="matrix(1.00, 0.00, -0.00, -1.00, 325.7, 530.0)">n</text><text xml:space="preserve" font-family="Helvetica-Light" font-size="52.0" fill="#000000" transform="matrix(1.00, 0.00, -0.00, -1.00, 354.6, 530.0)">e</text><text xml:space="preserve" font-family="Helvetica-Light" font-size="52.0" fill="#000000" transform="matrix(1.00, 0.00, -0.00, -1.00, 383.6, 530.0)"> </text><text xml:space="preserve" font-family="Helvetica-Light" font-size="52.0" fill="#000000" transform="matrix(1.00, 0.00, -0.00, -1.00, 398.0, 530.0)">w</text><text xml:space="preserve" font-family="Helvetica-Light" font-size="52.0" fill="#000000" transform="matrix(1.00, 0.00, -0.00, -1.00, 435.6, 530.0)">a</text><text xml:space="preserve" font-family="Helvetica-Light" font-size="52.0" fill="#000000" transform="matrix(1.00, 0.00, -0.00, -1.00, 464.5, 530.0)">y</text><text xml:space="preserve" font-family="Helvetica-Light" font-size="52.0" fill="#000000" transform="matrix(1.00, 0.00, -0.00, -1.00, 490.5, 530.0)"> </text><text xml:space="preserve" font-family="Helvetica-Light" font-size="52.0" fill="#000000" transform="matrix(1.00, 0.00, -0.00, -1.00, 504.9, 530.0)">o</text><text xml:space="preserve" font-family="Helvetica-Light" font-size="52.0" fill="#000000" transform="matrix(1.00, 0.00, -0.00, -1.00, 533.8, 530.0)">f</text><text xml:space="preserve" font-family="Helvetica-Light" font-size="52.0" fill="#000000" transform="matrix(1.00, 0.00, -0.00, -1.00, 548.3, 530.0)"> </text><text xml:space="preserve" font-family="Helvetica-Light" font-size="52.0" fill="#000000" transform="matrix(1.00, 0.00, -0.00, -1.00, 562.8, 530.0)">c</text><text xml:space="preserve" font-family="Helvetica-Light" font-size="52.0" fill="#000000" transform="matrix(1.00, 0.00, -0.00, -1.00, 591.7, 530.0)">o</text><text xml:space="preserve" font-family="Helvetica-Light" font-size="52.0" fill="#000000" transform="matrix(1.00, 0.00, -0.00, -1.00, 620.6, 530.0)">n</text><text xml:space="preserve" font-family="Helvetica-Light" font-size="52.0" fill="#000000" transform="matrix(1.00, 0.00, -0.00, -1.00, 649.5, 530.0)">s</text><text xml:space="preserve" font-family="Helvetica-Light" font-size="52.0" fill="#000000" transform="matrix(1.00, 0.00, -0.00, -1.00, 675.5, 530.0)">t</text><text xml:space="preserve" font-family="Helvetica-Light" font-size="52.0" fill="#000000" transform="matrix(1.00, 0.00, -0.00, -1.00, 689.9, 530.0)">r</text><text xml:space="preserve" font-family="Helvetica-Light" font-size="52.0" fill="#000000" transform="matrix(1.00, 0.00, -0.00, -1.00, 707.3, 530.0)">u</text><text xml:space="preserve" font-family="Helvetica-Light" font-size="52.0" fill="#000000" transform="matrix(1.00, 0.00, -0.00, -1.00, 736.2, 530.0)">c</text><text xml:space="preserve" font-family="Helvetica-Light" font-size="52.0" fill="#000000" transform="matrix(1.00, 0.00, -0.00, -1.00, 765.1, 530.0)">t</text><text xml:space="preserve" font-family="Helvetica-Light" font-size="52.0" fill="#000000" transform="matrix(1.00, 0.00, -0.00, -1.00, 779.5, 530.0)">i</text><text xml:space="preserve" font-family="Helvetica-Light" font-size="52.0" fill="#000000" transform="matrix(1.00, 0.00, -0.00, -1.00, 791.1, 530.0)">n</text><text xml:space="preserve" font-family="Helvetica-Light" font-size="52.0" fill="#000000" transform="matrix(1.00, 0.00, -0.00, -1.00, 820.0, 530.0)">g</text><text xml:space="preserve" font-family="Helvetica-Light" font-size="52.0" fill="#000000" transform="matrix(1.00, 0.00, -0.00, -1.00, 851.8, 530.0)"> </text><text xml:space="preserve" font-family="Helvetica-Light" font-size="52.0" fill="#000000" transform="matrix(1.00, 0.00, -0.00, -1.00, 866.2, 530.0)">-</text><text xml:space="preserve" font-family="Helvetica-Light" font-size="52.0" fill="#000000" transform="matrix(1.00, 0.00, -0.00, -1.00, 883.5, 530.0)"> </text><text xml:space="preserve" font-family="Helvetica-Light" font-size="52.0" fill="#000000" transform="matrix(1.00, 0.00, -0.00, -1.00, 898.0, 530.0)">o</text><text xml:space="preserve" font-family="Helvetica-Light" font-size="52.0" fill="#000000" transform="matrix(1.00, 0.00, -0.00, -1.00, 926.9, 530.0)">f</text><text xml:space="preserve" font-family="Helvetica-Light" font-size="52.0" fill="#000000" transform="matrix(1.00, 0.00, -0.00, -1.00, 941.4, 530.0)">t</text><text xml:space="preserve" font-family="Helvetica-Light" font-size="52.0" fill="#000000" transform="matrix(1.00, 0.00, -0.00, -1.00, 955.8, 530.0)">e</text><text xml:space="preserve" font-family="Helvetica-Light" font-size="52.0" fill="#000000" transform="matrix(1.00, 0.00, -0.00, -1.00, 984.7, 530.0)">n</text><text xml:space="preserve" font-family="Helvetica-Light" font-size="52.0" fill="#000000" transform="matrix(1.00, 0.00, -0.00, -1.00, 1013.6, 530.0)"> </text><text xml:space="preserve" font-family="Helvetica-Light" font-size="52.0" fill="#000000" transform="matrix(1.00, 0.00, -0.00, -1.00, 1028.1, 530.0)">w</text><text xml:space="preserve" font-family="Helvetica-Light" font-size="52.0" fill="#000000" transform="matrix(1.00, 0.00, -0.00, -1.00, 1065.6, 530.0)">r</text><text xml:space="preserve" font-family="Helvetica-Light" font-size="52.0" fill="#000000" transform="matrix(1.00, 0.00, -0.00, -1.00, 1083.0, 530.0)">a</text><text xml:space="preserve" font-family="Helvetica-Light" font-size="52.0" fill="#000000" transform="matrix(1.00, 0.00, -0.00, -1.00, 1111.9, 530.0)">p</text><text xml:space="preserve" font-family="Helvetica-Light" font-size="52.0" fill="#000000" transform="matrix(1.00, 0.00, -0.00, -1.00, 1143.6, 530.0)">p</text><text xml:space="preserve" font-family="Helvetica-Light" font-size="52.0" fill="#000000" transform="matrix(1.00, 0.00, -0.00, -1.00, 1175.4, 530.0)">e</text><text xml:space="preserve" font-family="Helvetica-Light" font-size="52.0" fill="#000000" transform="matrix(1.00, 0.00, -0.00, -1.00, 1204.3, 530.0)">d</text><text xml:space="preserve" font-family="Helvetica-Light" font-size="52.0" fill="#000000" transform="matrix(1.00, 0.00, -0.00, -1.00, 1236.1, 530.0)"> </text><text xml:space="preserve" font-family="Helvetica-Light" font-size="52.0" fill="#000000" transform="matrix(1.00, 0.00, -0.00, -1.00, 1250.6, 530.0)">i</text><text xml:space="preserve" font-family="Helvetica-Light" font-size="52.0" fill="#000000" transform="matrix(1.00, 0.00, -0.00, -1.00, 1262.1, 530.0)">n</text><text xml:space="preserve" font-family="Helvetica-Light" font-size="52.0" fill="#000000" transform="matrix(1.00, 0.00, -0.00, -1.00, 1291.0, 530.0)"> </text><text xml:space="preserve" font-family="Helvetica-Light" font-size="52.0" fill="#000000" transform="matrix(1.00, 0.00, -0.00, -1.00, 1305.5, 530.0)">a</text><text xml:space="preserve" font-family="Helvetica-Light" font-size="52.0" fill="#000000" transform="matrix(1.00, 0.00, -0.00, -1.00, 1334.4, 530.0)">s</text><text xml:space="preserve" font-family="Helvetica-Light" font-size="52.0" fill="#000000" transform="matrix(1.00, 0.00, -0.00, -1.00, 1360.4, 530.0)">s</text><text xml:space="preserve" font-family="Helvetica-Light" font-size="52.0" fill="#000000" transform="matrix(1.00, 0.00, -0.00, -1.00, 1386.4, 530.0)">o</text><text xml:space="preserve" font-family="Helvetica-Light" font-size="52.0" fill="#000000" transform="matrix(1.00, 0.00, -0.00, -1.00, 1415.3, 530.0)">c</text><text xml:space="preserve" font-family="Helvetica-Light" font-size="52.0" fill="#000000" transform="matrix(1.00, 0.00, -0.00, -1.00, 1444.2, 530.0)">i</text><text xml:space="preserve" font-family="Helvetica-Light" font-size="52.0" fill="#000000" transform="matrix(1.00, 0.00, -0.00, -1.00, 1455.7, 530.0)">a</text><text xml:space="preserve" font-family="Helvetica-Light" font-size="52.0" fill="#000000" transform="matrix(1.00, 0.00, -0.00, -1.00, 1484.7, 530.0)">t</text><text xml:space="preserve" font-family="Helvetica-Light" font-size="52.0" fill="#000000" transform="matrix(1.00, 0.00, -0.00, -1.00, 1499.1, 530.0)">e</text><text xml:space="preserve" font-family="Helvetica-Light" font-size="52.0" fill="#000000" transform="matrix(1.00, 0.00, -0.00, -1.00, 1528.0, 530.0)">d</text><text xml:space="preserve" font-family="Helvetica-Light" font-size="52.0" fill="#000000" transform="matrix(1.00, 0.00, -0.00, -1.00, 1559.8, 530.0)"> </text><text xml:space="preserve" font-family="Helvetica-Light" font-size="52.0" fill="#000000" transform="matrix(1.00, 0.00, -0.00, -1.00, 187.0, 468.0)">f</text><text xml:space="preserve" font-family="Helvetica-Light" font-size="52.0" fill="#000000" transform="matrix(1.00, 0.00, -0.00, -1.00, 201.5, 468.0)">u</text><text xml:space="preserve" font-family="Helvetica-Light" font-size="52.0" fill="#000000" transform="matrix(1.00, 0.00, -0.00, -1.00, 230.4, 468.0)">n</text><text xml:space="preserve" font-family="Helvetica-Light" font-size="52.0" fill="#000000" transform="matrix(1.00, 0.00, -0.00, -1.00, 259.3, 468.0)">c</text><text xml:space="preserve" font-family="Helvetica-Light" font-size="52.0" fill="#000000" transform="matrix(1.00, 0.00, -0.00, -1.00, 288.2, 468.0)">t</text><text xml:space="preserve" font-family="Helvetica-Light" font-size="52.0" fill="#000000" transform="matrix(1.00, 0.00, -0.00, -1.00, 302.6, 468.0)">i</text><text xml:space="preserve" font-family="Helvetica-Light" font-size="52.0" fill="#000000" transform="matrix(1.00, 0.00, -0.00, -1.00, 314.2, 468.0)">o</text><text xml:space="preserve" font-family="Helvetica-Light" font-size="52.0" fill="#000000" transform="matrix(1.00, 0.00, -0.00, -1.00, 343.1, 468.0)">n</text><text xml:space="preserve" font-family="Helvetica-Light" font-size="52.0" fill="#000000" transform="matrix(1.00, 0.00, -0.00, -1.00, 372.0, 468.0)">s</text><text xml:space="preserve" font-family="Courier" font-size="38.0" fill="#20677E" transform="matrix(1.00, 0.00, -0.00, -1.00, 137.0, 370.0)">s</text><text xml:space="preserve" font-family="Courier" font-size="38.0" fill="#20677E" transform="matrix(1.00, 0.00, -0.00, -1.00, 159.8, 370.0)">t</text><text xml:space="preserve" font-family="Courier" font-size="38.0" fill="#20677E" transform="matrix(1.00, 0.00, -0.00, -1.00, 182.6, 370.0)">r</text><text xml:space="preserve" font-family="Courier" font-size="38.0" fill="#20677E" transform="matrix(1.00, 0.00, -0.00, -1.00, 205.4, 370.0)">u</text><text xml:space="preserve" font-family="Courier" font-size="38.0" fill="#20677E" transform="matrix(1.00, 0.00, -0.00, -1.00, 228.2, 370.0)">c</text><text xml:space="preserve" font-family="Courier" font-size="38.0" fill="#20677E" transform="matrix(1.00, 0.00, -0.00, -1.00, 251.0, 370.0)">t</text><text xml:space="preserve" font-family="Courier" font-size="38.0" fill="#20677E" transform="matrix(1.00, 0.00, -0.00, -1.00, 273.8, 370.0)"> </text><text xml:space="preserve" font-family="Courier" font-size="38.0" fill="#404040" transform="matrix(1.00, 0.00, -0.00, -1.00, 296.6, 370.0)">P</text><text xml:space="preserve" font-family="Courier" font-size="38.0" fill="#404040" transform="matrix(1.00, 0.00, -0.00, -1.00, 319.4, 370.0)">e</text><text xml:space="preserve" font-family="Courier" font-size="38.0" fill="#404040" transform="matrix(1.00, 0.00, -0.00, -1.00, 342.2, 370.0)">r</text><text xml:space="preserve" font-family="Courier" font-size="38.0" fill="#404040" transform="matrix(1.00, 0.00, -0.00, -1.00, 365.0, 370.0)">s</text><text xml:space="preserve" font-family="Courier" font-size="38.0" fill="#404040" transform="matrix(1.00, 0.00, -0.00, -1.00, 387.9, 370.0)">o</text><text xml:space="preserve" font-family="Courier" font-size="38.0" fill="#404040" transform="matrix(1.00, 0.00, -0.00, -1.00, 410.7, 370.0)">n</text><text xml:space="preserve" font-family="Courier" font-size="38.0" fill="#404040" transform="matrix(1.00, 0.00, -0.00, -1.00, 433.5, 370.0)"> </text><text xml:space="preserve" font-family="Courier" font-size="38.0" fill="#404040" transform="matrix(1.00, 0.00, -0.00, -1.00, 456.3, 370.0)">{</text><text xml:space="preserve" font-family="Courier" font-size="38.0" fill="#404040" transform="matrix(1.00, 0.00, -0.00, -1.00, 173.0, 324.0)">n</text><text xml:space="preserve" font-family="Courier" font-size="38.0" fill="#404040" transform="matrix(1.00, 0.00, -0.00, -1.00, 195.8, 324.0)">a</text><text xml:space="preserve" font-family="Courier" font-size="38.0" fill="#404040" transform="matrix(1.00, 0.00, -0.00, -1.00, 218.6, 324.0)">m</text><text xml:space="preserve" font-family="Courier" font-size="38.0" fill="#404040" transform="matrix(1.00, 0.00, -0.00, -1.00, 241.4, 324.0)">e</text><text xml:space="preserve" font-family="Courier" font-size="38.0" fill="#404040" transform="matrix(1.00, 0.00, -0.00, -1.00, 264.2, 324.0)">:</text><text xml:space="preserve" font-family="Courier" font-size="38.0" fill="#404040" transform="matrix(1.00, 0.00, -0.00, -1.00, 287.0, 324.0)"> </text><text xml:space="preserve" font-family="Courier" font-size="38.0" fill="#404040" transform="matrix(1.00, 0.00, -0.00, -1.00, 309.8, 324.0)">&amp;</text><text xml:space="preserve" font-family="Courier" font-size="38.0" fill="#404040" transform="matrix(1.00, 0.00, -0.00, -1.00, 332.7, 324.0)">'</text><text xml:space="preserve" font-family="Courier" font-size="38.0" fill="#20677E" transform="matrix(1.00, 0.00, -0.00, -1.00, 355.4, 324.0)">s</text><text xml:space="preserve" font-family="Courier" font-size="38.0" fill="#20677E" transform="matrix(1.00, 0.00, -0.00, -1.00, 378.2, 324.0)">t</text><text xml:space="preserve" font-family="Courier" font-size="38.0" fill="#20677E" transform="matrix(1.00, 0.00, -0.00, -1.00, 401.0, 324.0)">a</text><text xml:space="preserve" font-family="Courier" font-size="38.0" fill="#20677E" transform="matrix(1.00, 0.00, -0.00, -1.00, 423.9, 324.0)">t</text><text xml:space="preserve" font-family="Courier" font-size="38.0" fill="#20677E" transform="matrix(1.00, 0.00, -0.00, -1.00, 446.7, 324.0)">i</text><text xml:space="preserve" font-family="Courier" font-size="38.0" fill="#20677E" transform="matrix(1.00, 0.00, -0.00, -1.00, 469.5, 324.0)">c</text><text xml:space="preserve" font-family="Courier" font-size="38.0" fill="#20677E" transform="matrix(1.00, 0.00, -0.00, -1.00, 492.3, 324.0)"> </text><text xml:space="preserve" font-family="Courier" font-size="38.0" fill="#BE511B" transform="matrix(1.00, 0.00, -0.00, -1.00, 515.1, 324.0)">s</text><text xml:space="preserve" font-family="Courier" font-size="38.0" fill="#BE511B" transform="matrix(1.00, 0.00, -0.00, -1.00, 537.9, 324.0)">t</text><text xml:space="preserve" font-family="Courier" font-size="38.0" fill="#BE511B" transform="matrix(1.00, 0.00, -0.00, -1.00, 560.7, 324.0)">r</text><text xml:space="preserve" font-family="Courier" font-size="38.0" fill="#404040" transform="matrix(1.00, 0.00, -0.00, -1.00, 583.5, 324.0)">,</text><text xml:space="preserve" font-family="Courier" font-size="38.0" fill="#404040" transform="matrix(1.00, 0.00, -0.00, -1.00, 173.0, 278.0)">a</text><text xml:space="preserve" font-family="Courier" font-size="38.0" fill="#404040" transform="matrix(1.00, 0.00, -0.00, -1.00, 195.8, 278.0)">g</text><text xml:space="preserve" font-family="Courier" font-size="38.0" fill="#404040" transform="matrix(1.00, 0.00, -0.00, -1.00, 218.6, 278.0)">e</text><text xml:space="preserve" font-family="Courier" font-size="38.0" fill="#404040" transform="matrix(1.00, 0.00, -0.00, -1.00, 241.4, 278.0)">:</text><text xml:space="preserve" font-family="Courier" font-size="38.0" fill="#404040" transform="matrix(1.00, 0.00, -0.00, -1.00, 264.2, 278.0)"> </text><text xml:space="preserve" font-family="Courier" font-size="38.0" fill="#BE511B" transform="matrix(1.00, 0.00, -0.00, -1.00, 287.0, 278.0)">u</text><text xml:space="preserve" font-family="Courier" font-size="38.0" fill="#BE511B" transform="matrix(1.00, 0.00, -0.00, -1.00, 309.8, 278.0)">8</text><text xml:space="preserve" font-family="Courier" font-size="38.0" fill="#404040" transform="matrix(1.00, 0.00, -0.00, -1.00, 332.6, 278.0)">,</text><text xml:space="preserve" font-family="Courier" font-size="38.0" fill="#404040" transform="matrix(1.00, 0.00, -0.00, -1.00, 137.0, 232.0)">}</text><text xml:space="preserve" font-family="Courier" font-size="38.0" fill="#20677E" transform="matrix(1.00, 0.00, -0.00, -1.00, 137.0, 140.0)">l</text><text xml:space="preserve" font-family="Courier" font-size="38.0" fill="#20677E" transform="matrix(1.00, 0.00, -0.00, -1.00, 159.8, 140.0)">e</text><text xml:space="preserve" font-family="Courier" font-size="38.0" fill="#20677E" transform="matrix(1.00, 0.00, -0.00, -1.00, 182.6, 140.0)">t</text><text xml:space="preserve" font-family="Courier" font-size="38.0" fill="#20677E" transform="matrix(1.00, 0.00, -0.00, -1.00, 205.4, 140.0)"> </text><text xml:space="preserve" font-family="Courier" font-size="38.0" fill="#404040" transform="matrix(1.00, 0.00, -0.00, -1.00, 228.2, 140.0)">a</text><text xml:space="preserve" font-family="Courier" font-size="38.0" fill="#404040" transform="matrix(1.00, 0.00, -0.00, -1.00, 251.0, 140.0)"> </text><text xml:space="preserve" font-family="Courier" font-size="38.0" fill="#404040" transform="matrix(1.00, 0.00, -0.00, -1.00, 273.8, 140.0)">=</text><text xml:space="preserve" font-family="Courier" font-size="38.0" fill="#404040" transform="matrix(1.00, 0.00, -0.00, -1.00, 296.6, 140.0)"> </text><text xml:space="preserve" font-family="Courier" font-size="38.0" fill="#404040" transform="matrix(1.00, 0.00, -0.00, -1.00, 319.4, 140.0)">P</text><text xml:space="preserve" font-family="Courier" font-size="38.0" fill="#404040" transform="matrix(1.00, 0.00, -0.00, -1.00, 342.3, 140.0)">e</text><text xml:space="preserve" font-family="Courier" font-size="38.0" fill="#404040" transform="matrix(1.00, 0.00, -0.00, -1.00, 365.1, 140.0)">r</text><text xml:space="preserve" font-family="Courier" font-size="38.0" fill="#404040" transform="matrix(1.00, 0.00, -0.00, -1.00, 387.9, 140.0)">s</text><text xml:space="preserve" font-family="Courier" font-size="38.0" fill="#404040" transform="matrix(1.00, 0.00, -0.00, -1.00, 410.7, 140.0)">o</text><text xml:space="preserve" font-family="Courier" font-size="38.0" fill="#404040" transform="matrix(1.00, 0.00, -0.00, -1.00, 433.5, 140.0)">n</text><text xml:space="preserve" font-family="Courier" font-size="38.0" fill="#404040" transform="matrix(1.00, 0.00, -0.00, -1.00, 456.3, 140.0)"> </text><text xml:space="preserve" font-family="Courier" font-size="38.0" fill="#404040" transform="matrix(1.00, 0.00, -0.00, -1.00, 479.1, 140.0)">{</text><text xml:space="preserve" font-family="Courier" font-size="38.0" fill="#404040" transform="matrix(1.00, 0.00, -0.00, -1.00, 501.9, 140.0)"> </text><text xml:space="preserve" font-family="Courier" font-size="38.0" fill="#404040" transform="matrix(1.00, 0.00, -0.00, -1.00, 524.7, 140.0)">n</text><text xml:space="preserve" font-family="Courier" font-size="38.0" fill="#404040" transform="matrix(1.00, 0.00, -0.00, -1.00, 547.5, 140.0)">a</text><text xml:space="preserve" font-family="Courier" font-size="38.0" fill="#404040" transform="matrix(1.00, 0.00, -0.00, -1.00, 570.3, 140.0)">m</text><text xml:space="preserve" font-family="Courier" font-size="38.0" fill="#404040" transform="matrix(1.00, 0.00, -0.00, -1.00, 593.1, 140.0)">e</text><text xml:space="preserve" font-family="Courier" font-size="38.0" fill="#404040" transform="matrix(1.00, 0.00, -0.00, -1.00, 615.9, 140.0)">:</text><text xml:space="preserve" font-family="Courier" font-size="38.0" fill="#404040" transform="matrix(1.00, 0.00, -0.00, -1.00, 638.8, 140.0)"> </text><text xml:space="preserve" font-family="Courier" font-size="38.0" fill="#637F37" transform="matrix(1.00, 0.00, -0.00, -1.00, 661.5, 140.0)">"</text><text xml:space="preserve" font-family="Courier" font-size="38.0" fill="#637F37" transform="matrix(1.00, 0.00, -0.00, -1.00, 684.3, 140.0)">F</text><text xml:space="preserve" font-family="Courier" font-size="38.0" fill="#637F37" transform="matrix(1.00, 0.00, -0.00, -1.00, 707.1, 140.0)">o</text><text xml:space="preserve" font-family="Courier" font-size="38.0" fill="#637F37" transform="matrix(1.00, 0.00, -0.00, -1.00, 729.9, 140.0)">o</text><text xml:space="preserve" font-family="Courier" font-size="38.0" fill="#637F37" transform="matrix(1.00, 0.00, -0.00, -1.00, 752.7, 140.0)">"</text><text xml:space="preserve" font-family="Courier" font-size="38.0" fill="#404040" transform="matrix(1.00, 0.00, -0.00, -1.00, 775.5, 140.0)">,</text><text xml:space="preserve" font-family="Courier" font-size="38.0" fill="#404040" transform="matrix(1.00, 0.00, -0.00, -1.00, 798.3, 140.0)"> </text><text xml:space="preserve" font-family="Courier" font-size="38.0" fill="#404040" transform="matrix(1.00, 0.00, -0.00, -1.00, 821.1, 140.0)">a</text><text xml:space="preserve" font-family="Courier" font-size="38.0" fill="#404040" transform="matrix(1.00, 0.00, -0.00, -1.00, 843.9, 140.0)">g</text><text xml:space="preserve" font-family="Courier" font-size="38.0" fill="#404040" transform="matrix(1.00, 0.00, -0.00, -1.00, 866.7, 140.0)">e</text><text xml:space="preserve" font-family="Courier" font-size="38.0" fill="#404040" transform="matrix(1.00, 0.00, -0.00, -1.00, 889.5, 140.0)">:</text><text xml:space="preserve" font-family="Courier" font-size="38.0" fill="#404040" transform="matrix(1.00, 0.00, -0.00, -1.00, 912.3, 140.0)"> </text><text xml:space="preserve" font-family="Courier" font-size="38.0" fill="#7C50A3" transform="matrix(1.00, 0.00, -0.00, -1.00, 935.1, 140.0)">1</text><text xml:space="preserve" font-family="Courier" font-size="38.0" fill="#7C50A3" transform="matrix(1.00, 0.00, -0.00, -1.00, 957.9, 140.0)">0</text><text xml:space="preserve" font-family="Courier" font-size="38.0" fill="#7C50A3" transform="matrix(1.00, 0.00, -0.00, -1.00, 980.7, 140.0)"> </text><text xml:space="preserve" font-family="Courier" font-size="38.0" fill="#404040" transform="matrix(1.00, 0.00, -0.00, -1.00, 1003.5, 140.0)">}</text><text xml:space="preserve" font-family="Courier" font-size="38.0" fill="#404040" transform="matrix(1.00, 0.00, -0.00, -1.00, 1026.3, 140.0)">;</text><text xml:space="preserve" font-family="Courier" font-size="38.0" fill="#404040" transform="matrix(1.00, 0.00, -0.00, -1.00, 1049.2, 140.0)"> </text><text xml:space="preserve" font-family="Courier" font-size="38.0" fill="#78868C" transform="matrix(1.00, 0.00, -0.00, -1.00, 1072.0, 140.0)">/</text><text xml:space="preserve" font-family="Courier" font-size="38.0" fill="#78868C" transform="matrix(1.00, 0.00, -0.00, -1.00, 1094.8, 140.0)">/</text><text xml:space="preserve" font-family="Courier" font-size="38.0" fill="#78868C" transform="matrix(1.00, 0.00, -0.00, -1.00, 1117.6, 140.0)"> </text><text xml:space="preserve" font-family="Courier" font-size="38.0" fill="#78868C" transform="matrix(1.00, 0.00, -0.00, -1.00, 1140.4, 140.0)">t</text><text xml:space="preserve" font-family="Courier" font-size="38.0" fill="#78868C" transform="matrix(1.00, 0.00, -0.00, -1.00, 1163.2, 140.0)">y</text><text xml:space="preserve" font-family="Courier" font-size="38.0" fill="#78868C" transform="matrix(1.00, 0.00, -0.00, -1.00, 1186.0, 140.0)">p</text><text xml:space="preserve" font-family="Courier" font-size="38.0" fill="#78868C" transform="matrix(1.00, 0.00, -0.00, -1.00, 1208.8, 140.0)">e</text><text xml:space="preserve" font-family="Courier" font-size="38.0" fill="#78868C" transform="matrix(1.00, 0.00, -0.00, -1.00, 1231.6, 140.0)"> </text><text xml:space="preserve" font-family="Courier" font-size="38.0" fill="#78868C" transform="matrix(1.00, 0.00, -0.00, -1.00, 1254.4, 140.0)">P</text><text xml:space="preserve" font-family="Courier" font-size="38.0" fill="#78868C" transform="matrix(1.00, 0.00, -0.00, -1.00, 1277.2, 140.0)">e</text><text xml:space="preserve" font-family="Courier" font-size="38.0" fill="#78868C" transform="matrix(1.00, 0.00, -0.00, -1.00, 1300.0, 140.0)">r</text><text xml:space="preserve" font-family="Courier" font-size="38.0" fill="#78868C" transform="matrix(1.00, 0.00, -0.00, -1.00, 1322.8, 140.0)">s</text><text xml:space="preserve" font-family="Courier" font-size="38.0" fill="#78868C" transform="matrix(1.00, 0.00, -0.00, -1.00, 1345.6, 140.0)">o</text><text xml:space="preserve" font-family="Courier" font-size="38.0" fill="#78868C" transform="matrix(1.00, 0.00, -0.00, -1.00, 1368.4, 140.0)">n</text><text xml:space="preserve" font-family="Courier" font-size="38.0" fill="#20677E" transform="matrix(1.00, 0.00, -0.00, -1.00, 137.0, 94.0)">l</text><text xml:space="preserve" font-family="Courier" font-size="38.0" fill="#20677E" transform="matrix(1.00, 0.00, -0.00, -1.00, 159.8, 94.0)">e</text><text xml:space="preserve" font-family="Courier" font-size="38.0" fill="#20677E" transform="matrix(1.00, 0.00, -0.00, -1.00, 182.6, 94.0)">t</text><text xml:space="preserve" font-family="Courier" font-size="38.0" fill="#20677E" transform="matrix(1.00, 0.00, -0.00, -1.00, 205.4, 94.0)"> </text><text xml:space="preserve" font-family="Courier" font-size="38.0" fill="#404040" transform="matrix(1.00, 0.00, -0.00, -1.00, 228.2, 94.0)">b</text><text xml:space="preserve" font-family="Courier" font-size="38.0" fill="#404040" transform="matrix(1.00, 0.00, -0.00, -1.00, 251.0, 94.0)"> </text><text xml:space="preserve" font-family="Courier" font-size="38.0" fill="#404040" transform="matrix(1.00, 0.00, -0.00, -1.00, 273.8, 94.0)">=</text><text xml:space="preserve" font-family="Courier" font-size="38.0" fill="#404040" transform="matrix(1.00, 0.00, -0.00, -1.00, 296.6, 94.0)"> </text><text xml:space="preserve" font-family="Courier" font-size="38.0" fill="#404040" transform="matrix(1.00, 0.00, -0.00, -1.00, 319.4, 94.0)">a</text><text xml:space="preserve" font-family="Courier" font-size="38.0" fill="#404040" transform="matrix(1.00, 0.00, -0.00, -1.00, 342.3, 94.0)">.</text><text xml:space="preserve" font-family="Courier" font-size="38.0" fill="#404040" transform="matrix(1.00, 0.00, -0.00, -1.00, 365.1, 94.0)">n</text><text xml:space="preserve" font-family="Courier" font-size="38.0" fill="#404040" transform="matrix(1.00, 0.00, -0.00, -1.00, 387.9, 94.0)">a</text><text xml:space="preserve" font-family="Courier" font-size="38.0" fill="#404040" transform="matrix(1.00, 0.00, -0.00, -1.00, 410.7, 94.0)">m</text><text xml:space="preserve" font-family="Courier" font-size="38.0" fill="#404040" transform="matrix(1.00, 0.00, -0.00, -1.00, 433.5, 94.0)">e</text><text xml:space="preserve" font-family="Courier" font-size="38.0" fill="#404040" transform="matrix(1.00, 0.00, -0.00, -1.00, 456.3, 94.0)">;</text><text xml:space="preserve" font-family="Courier" font-size="38.0" fill="#404040" transform="matrix(1.00, 0.00, -0.00, -1.00, 479.1, 94.0)"> </text><text xml:space="preserve" font-family="Courier" font-size="38.0" fill="#78868C" transform="matrix(1.00, 0.00, -0.00, -1.00, 501.9, 94.0)">/</text><text xml:space="preserve" font-family="Courier" font-size="38.0" fill="#78868C" transform="matrix(1.00, 0.00, -0.00, -1.00, 524.7, 94.0)">/</text><text xml:space="preserve" font-family="Courier" font-size="38.0" fill="#78868C" transform="matrix(1.00, 0.00, -0.00, -1.00, 547.5, 94.0)"> </text><text xml:space="preserve" font-family="Courier" font-size="38.0" fill="#78868C" transform="matrix(1.00, 0.00, -0.00, -1.00, 570.3, 94.0)">"</text><text xml:space="preserve" font-family="Courier" font-size="38.0" fill="#78868C" transform="matrix(1.00, 0.00, -0.00, -1.00, 593.1, 94.0)">F</text><text xml:space="preserve" font-family="Courier" font-size="38.0" fill="#78868C" transform="matrix(1.00, 0.00, -0.00, -1.00, 615.9, 94.0)">o</text><text xml:space="preserve" font-family="Courier" font-size="38.0" fill="#78868C" transform="matrix(1.00, 0.00, -0.00, -1.00, 638.7, 94.0)">o</text><text xml:space="preserve" font-family="Courier" font-size="38.0" fill="#78868C" transform="matrix(1.00, 0.00, -0.00, -1.00, 661.5, 94.0)">"</text><text xml:space="preserve" font-family="Courier" font-size="38.0" fill="#78868C" transform="matrix(1.00, 0.00, -0.00, -1.00, 684.3, 94.0)"> </text><text xml:space="preserve" font-family="Courier" font-size="38.0" fill="#78868C" transform="matrix(1.00, 0.00, -0.00, -1.00, 707.1, 94.0)">a</text><text xml:space="preserve" font-family="Courier" font-size="38.0" fill="#78868C" transform="matrix(1.00, 0.00, -0.00, -1.00, 729.9, 94.0)">s</text><text xml:space="preserve" font-family="Courier" font-size="38.0" fill="#78868C" transform="matrix(1.00, 0.00, -0.00, -1.00, 752.7, 94.0)"> </text><text xml:space="preserve" font-family="Courier" font-size="38.0" fill="#78868C" transform="matrix(1.00, 0.00, -0.00, -1.00, 775.5, 94.0)">&amp;</text><text xml:space="preserve" font-family="Courier" font-size="38.0" fill="#78868C" transform="matrix(1.00, 0.00, -0.00, -1.00, 798.4, 94.0)">'</text><text xml:space="preserve" font-family="Courier" font-size="38.0" fill="#78868C" transform="matrix(1.00, 0.00, -0.00, -1.00, 821.2, 94.0)">s</text><text xml:space="preserve" font-family="Courier" font-size="38.0" fill="#78868C" transform="matrix(1.00, 0.00, -0.00, -1.00, 844.0, 94.0)">t</text><text xml:space="preserve" font-family="Courier" font-size="38.0" fill="#78868C" transform="matrix(1.00, 0.00, -0.00, -1.00, 866.8, 94.0)">a</text><text xml:space="preserve" font-family="Courier" font-size="38.0" fill="#78868C" transform="matrix(1.00, 0.00, -0.00, -1.00, 889.6, 94.0)">t</text><text xml:space="preserve" font-family="Courier" font-size="38.0" fill="#78868C" transform="matrix(1.00, 0.00, -0.00, -1.00, 912.4, 94.0)">i</text><text xml:space="preserve" font-family="Courier" font-size="38.0" fill="#78868C" transform="matrix(1.00, 0.00, -0.00, -1.00, 935.2, 94.0)">c</text><text xml:space="preserve" font-family="Courier" font-size="38.0" fill="#78868C" transform="matrix(1.00, 0.00, -0.00, -1.00, 958.0, 94.0)"> </text><text xml:space="preserve" font-family="Courier" font-size="38.0" fill="#78868C" transform="matrix(1.00, 0.00, -0.00, -1.00, 980.8, 94.0)">s</text><text xml:space="preserve" font-family="Courier" font-size="38.0" fill="#78868C" transform="matrix(1.00, 0.00, -0.00, -1.00, 1003.6, 94.0)">t</text><text xml:space="preserve" font-family="Courier" font-size="38.0" fill="#78868C" transform="matrix(1.00, 0.00, -0.00, -1.00, 1026.4, 94.0)">r</text><text xml:space="preserve" font-family="Courier" font-size="38.0" fill="#20677E" transform="matrix(1.00, 0.00, -0.00, -1.00, 137.0, 48.0)">l</text><text xml:space="preserve" font-family="Courier" font-size="38.0" fill="#20677E" transform="matrix(1.00, 0.00, -0.00, -1.00, 159.8, 48.0)">e</text><text xml:space="preserve" font-family="Courier" font-size="38.0" fill="#20677E" transform="matrix(1.00, 0.00, -0.00, -1.00, 182.6, 48.0)">t</text><text xml:space="preserve" font-family="Courier" font-size="38.0" fill="#20677E" transform="matrix(1.00, 0.00, -0.00, -1.00, 205.4, 48.0)"> </text><text xml:space="preserve" font-family="Courier" font-size="38.0" fill="#404040" transform="matrix(1.00, 0.00, -0.00, -1.00, 228.2, 48.0)">c</text><text xml:space="preserve" font-family="Courier" font-size="38.0" fill="#404040" transform="matrix(1.00, 0.00, -0.00, -1.00, 251.0, 48.0)"> </text><text xml:space="preserve" font-family="Courier" font-size="38.0" fill="#404040" transform="matrix(1.00, 0.00, -0.00, -1.00, 273.8, 48.0)">=</text><text xml:space="preserve" font-family="Courier" font-size="38.0" fill="#404040" transform="matrix(1.00, 0.00, -0.00, -1.00, 296.6, 48.0)"> </text><text xml:space="preserve" font-family="Courier" font-size="38.0" fill="#404040" transform="matrix(1.00, 0.00, -0.00, -1.00, 319.4, 48.0)">a</text><text xml:space="preserve" font-family="Courier" font-size="38.0" fill="#404040" transform="matrix(1.00, 0.00, -0.00, -1.00, 342.3, 48.0)">.</text><text xml:space="preserve" font-family="Courier" font-size="38.0" fill="#404040" transform="matrix(1.00, 0.00, -0.00, -1.00, 365.1, 48.0)">a</text><text xml:space="preserve" font-family="Courier" font-size="38.0" fill="#404040" transform="matrix(1.00, 0.00, -0.00, -1.00, 387.9, 48.0)">g</text><text xml:space="preserve" font-family="Courier" font-size="38.0" fill="#404040" transform="matrix(1.00, 0.00, -0.00, -1.00, 410.7, 48.0)">e</text><text xml:space="preserve" font-family="Courier" font-size="38.0" fill="#404040" transform="matrix(1.00, 0.00, -0.00, -1.00, 433.5, 48.0)">;</text><text xml:space="preserve" font-family="Courier" font-size="38.0" fill="#404040" transform="matrix(1.00, 0.00, -0.00, -1.00, 456.3, 48.0)"> </text><text xml:space="preserve" font-family="Courier" font-size="38.0" fill="#404040" transform="matrix(1.00, 0.00, -0.00, -1.00, 479.1, 48.0)"> </text><text xml:space="preserve" font-family="Courier" font-size="38.0" fill="#78868C" transform="matrix(1.00, 0.00, -0.00, -1.00, 501.9, 48.0)">/</text><text xml:space="preserve" font-family="Courier" font-size="38.0" fill="#78868C" transform="matrix(1.00, 0.00, -0.00, -1.00, 524.7, 48.0)">/</text><text xml:space="preserve" font-family="Courier" font-size="38.0" fill="#78868C" transform="matrix(1.00, 0.00, -0.00, -1.00, 547.5, 48.0)"> </text><text xml:space="preserve" font-family="Courier" font-size="38.0" fill="#78868C" transform="matrix(1.00, 0.00, -0.00, -1.00, 570.3, 48.0)">1</text><text xml:space="preserve" font-family="Courier" font-size="38.0" fill="#78868C" transform="matrix(1.00, 0.00, -0.00, -1.00, 593.1, 48.0)">0</text><text xml:space="preserve" font-family="Courier" font-size="38.0" fill="#78868C" transform="matrix(1.00, 0.00, -0.00, -1.00, 615.9, 48.0)"> </text><text xml:space="preserve" font-family="Courier" font-size="38.0" fill="#78868C" transform="matrix(1.00, 0.00, -0.00, -1.00, 638.7, 48.0)">a</text><text xml:space="preserve" font-family="Courier" font-size="38.0" fill="#78868C" transform="matrix(1.00, 0.00, -0.00, -1.00, 661.5, 48.0)">s</text><text xml:space="preserve" font-family="Courier" font-size="38.0" fill="#78868C" transform="matrix(1.00, 0.00, -0.00, -1.00, 684.3, 48.0)"> </text><text xml:space="preserve" font-family="Courier" font-size="38.0" fill="#78868C" transform="matrix(1.00, 0.00, -0.00, -1.00, 707.1, 48.0)">u</text><text xml:space="preserve" font-family="Courier" font-size="38.0" fill="#78868C" transform="matrix(1.00, 0.00, -0.00, -1.00, 729.9, 48.0)">8</text></g></svg>