<?xml version="1.0" encoding="UTF-8" standalone="no"?><svg xmlns="http://www.w3.org/2000/svg" xmlns:xlink="http://www.w3.org/1999/xlink" clip-rule="evenodd" stroke-miterlimit="10" viewBox="0 0 1920 1080"><desc>SVG generated by Keynote</desc><defs></defs><g transform="matrix(1.00, 0.00, -0.00, -1.00, 0.0, 1080.0)"><path d="M 0.0 1080.0 L 1920.0 1080.0 L 1920.0 0.0 L 0.0 0.0 Z M 0.0 1080.0 " fill="#FEFFFF"></path><text xml:space="preserve" font-family="Helvetica-Light,Helvetica" font-size="112.0" fill="#000000" transform="matrix(1.00, 0.00, -0.00, -1.00, 519.0, 562.8)">R</text><text xml:space="preserve" font-family="Helvetica-Light,Helvetica" font-size="112.0" fill="#000000" transform="matrix(1.00, 0.00, -0.00, -1.00, 593.7, 562.8)">u</text><text xml:space="preserve" font-family="Helvetica-Light,Helvetica" font-size="112.0" fill="#000000" transform="matrix(1.00, 0.00, -0.00, -1.00, 656.0, 562.8)">s</text><text xml:space="preserve" font-family="Helvetica-Light,Helvetica" font-size="112.0" fill="#000000" transform="matrix(1.00, 0.00, -0.00, -1.00, 712.0, 562.8)">t</text><text xml:space="preserve" font-family="Helvetica-Light,Helvetica" font-size="112.0" fill="#000000" transform="matrix(1.00, 0.00, -0.00, -1.00, 743.1, 562.8)">:</text><text xml:space="preserve" font-family="Helvetica-Light,Helvetica" font-size="112.0" fill="#000000" transform="matrix(1.00, 0.00, -0.00, -1.00, 774.2, 562.8)"> </text><text xml:space="preserve" font-family="Helvetica-Light,Helvetica" font-size="112.0" fill="#000000" transform="matrix(1.00, 0.00, -0.00, -1.00, 805.4, 562.8)">I</text><text xml:space="preserve" font-family="Helvetica-Light,Helvetica" font-size="112.0" fill="#000000" transform="matrix(1.00, 0.00, -0.00, -1.00, 836.5, 562.8)">n</text><text xml:space="preserve" font-family="Helvetica-Light,Helvetica" font-size="112.0" fill="#000000" transform="matrix(1.00, 0.00, -0.00, -1.00, 898.8, 562.8)">t</text><text xml:space="preserve" font-family="Helvetica-Light,Helvetica" font-size="112.0" fill="#000000" transform="matrix(1.00, 0.00, -0.00, -1.00, 929.9, 562.8)">r</text><text xml:space="preserve" font-family="Helvetica-Light,Helvetica" font-size="112.0" fill="#000000" transform="matrix(1.00, 0.00, -0.00, -1.00, 965.2, 562.8)">o</text><text xml:space="preserve" font-family="Helvetica-Light,Helvetica" font-size="112.0" fill="#000000" transform="matrix(1.00, 0.00, -0.00, -1.00, 1027.5, 562.8)">d</text><text xml:space="preserve" font-family="Helvetica-Light,Helvetica" font-size="112.0" fill="#000000" transform="matrix(1.00, 0.00, -0.00, -1.00, 1095.9, 562.8)">u</text><text xml:space="preserve" font-family="Helvetica-Light,Helvetica" font-size="112.0" fill="#000000" transform="matrix(1.00, 0.00, -0.00, -1.00, 1158.2, 562.8)">c</text><text xml:space="preserve" font-family="Helvetica-Light,Helvetica" font-size="112.0" fill="#000000" transform="matrix(1.00, 0.00, -0.00, -1.00, 1220.5, 562.8)">t</text><text xml:space="preserve" font-family="Helvetica-Light,Helvetica" font-size="112.0" fill="#000000" transform="matrix(1.00, 0.00, -0.00, -1.00, 1251.6, 562.8)">i</text><text xml:space="preserve" font-family="Helvetica-Light,Helvetica" font-size="112.0" fill="#000000" transform="matrix(1.00, 0.00, -0.00, -1.00, 1276.5, 562.8)">o</text><text xml:space="preserve" font-family="Helvetica-Light,Helvetica" font-size="112.0" fill="#000000" transform="matrix(1.00, 0.00, -0.00, -1.00, 1338.7, 562.8)">n</text><text xml:space="preserve" font-family="Helvetica-Light,Helvetica" font-size="44.0" fill="#000000" transform="matrix(1.00, 0.00, -0.00, -1.00, 484.7, 476.1)">I</text><text xml:space="preserve" font-family="Helvetica-Light,Helvetica" font-size="44.0" fill="#000000" transform="matrix(1.00, 0.00, -0.00, -1.00, 497.0, 476.1)">n</text><text xml:space="preserve" font-family="Helvetica-Light,Helvetica" font-size="44.0" fill="#000000" transform="matrix(1.00, 0.00, -0.00, -1.00, 521.4, 476.1)">t</text><text xml:space="preserve" font-family="Helvetica-Light,Helvetica" font-size="44.0" fill="#000000" transform="matrix(1.00, 0.00, -0.00, -1.00, 533.7, 476.1)">r</text><text xml:space="preserve" font-family="Helvetica-Light,Helvetica" font-size="44.0" fill="#000000" transform="matrix(1.00, 0.00, -0.00, -1.00, 547.5, 476.1)">o</text><text xml:space="preserve" font-family="Helvetica-Light,Helvetica" font-size="44.0" fill="#000000" transform="matrix(1.00, 0.00, -0.00, -1.00, 572.0, 476.1)">d</text><text xml:space="preserve" font-family="Helvetica-Light,Helvetica" font-size="44.0" fill="#000000" transform="matrix(1.00, 0.00, -0.00, -1.00, 598.9, 476.1)">u</text><text xml:space="preserve" font-family="Helvetica-Light,Helvetica" font-size="44.0" fill="#000000" transform="matrix(1.00, 0.00, -0.00, -1.00, 623.3, 476.1)">c</text><text xml:space="preserve" font-family="Helvetica-Light,Helvetica" font-size="44.0" fill="#000000" transform="matrix(1.00, 0.00, -0.00, -1.00, 647.8, 476.1)">t</text><text xml:space="preserve" font-family="Helvetica-Light,Helvetica" font-size="44.0" fill="#000000" transform="matrix(1.00, 0.00, -0.00, -1.00, 660.0, 476.1)">i</text><text xml:space="preserve" font-family="Helvetica-Light,Helvetica" font-size="44.0" fill="#000000" transform="matrix(1.00, 0.00, -0.00, -1.00, 669.8, 476.1)">o</text><text xml:space="preserve" font-family="Helvetica-Light,Helvetica" font-size="44.0" fill="#000000" transform="matrix(1.00, 0.00, -0.00, -1.00, 694.3, 476.1)">n</text><text xml:space="preserve" font-family="Helvetica-Light,Helvetica" font-size="44.0" fill="#000000" transform="matrix(1.00, 0.00, -0.00, -1.00, 718.7, 476.1)"> </text><text xml:space="preserve" font-family="Helvetica-Light,Helvetica" font-size="44.0" fill="#000000" transform="matrix(1.00, 0.00, -0.00, -1.00, 731.0, 476.1)">t</text><text xml:space="preserve" font-family="Helvetica-Light,Helvetica" font-size="44.0" fill="#000000" transform="matrix(1.00, 0.00, -0.00, -1.00, 743.2, 476.1)">o</text><text xml:space="preserve" font-family="Helvetica-Light,Helvetica" font-size="44.0" fill="#000000" transform="matrix(1.00, 0.00, -0.00, -1.00, 767.7, 476.1)"> </text><text xml:space="preserve" font-family="Helvetica-Light,Helvetica" font-size="44.0" fill="#000000" transform="matrix(1.00, 0.00, -0.00, -1.00, 779.9, 476.1)">R</text><text xml:space="preserve" font-family="Helvetica-Light,Helvetica" font-size="44.0" fill="#000000" transform="matrix(1.00, 0.00, -0.00, -1.00, 809.2, 476.1)">u</text><text xml:space="preserve" font-family="Helvetica-Light,Helvetica" font-size="44.0" fill="#000000" transform="matrix(1.00, 0.00, -0.00, -1.00, 833.7, 476.1)">s</text><text xml:space="preserve" font-family="Helvetica-Light,Helvetica" font-size="44.0" fill="#000000" transform="matrix(1.00, 0.00, -0.00, -1.00, 855.7, 476.1)">t</text><text xml:space="preserve" font-family="Helvetica-Light,Helvetica" font-size="44.0" fill="#000000" transform="matrix(1.00, 0.00, -0.00, -1.00, 867.9, 476.1)"> </text><text xml:space="preserve" font-family="Helvetica-Light,Helvetica" font-size="44.0" fill="#000000" transform="matrix(1.00, 0.00, -0.00, -1.00, 880.2, 476.1)">l</text><text xml:space="preserve" font-family="Helvetica-Light,Helvetica" font-size="44.0" fill="#000000" transform="matrix(1.00, 0.00, -0.00, -1.00, 889.9, 476.1)">a</text><text xml:space="preserve" font-family="Helvetica-Light,Helvetica" font-size="44.0" fill="#000000" transform="matrix(1.00, 0.00, -0.00, -1.00, 914.4, 476.1)">n</text><text xml:space="preserve" font-family="Helvetica-Light,Helvetica" font-size="44.0" fill="#000000" transform="matrix(1.00, 0.00, -0.00, -1.00, 938.9, 476.1)">g</text><text xml:space="preserve" font-family="Helvetica-Light,Helvetica" font-size="44.0" fill="#000000" transform="matrix(1.00, 0.00, -0.00, -1.00, 965.7, 476.1)">u</text><text xml:space="preserve" font-family="Helvetica-Light,Helvetica" font-size="44.0" fill="#000000" transform="matrix(1.00, 0.00, -0.00, -1.00, 990.2, 476.1)">a</text><text xml:space="preserve" font-family="Helvetica-Light,Helvetica" font-size="44.0" fill="#000000" transform="matrix(1.00, 0.00, -0.00, -1.00, 1014.7, 476.1)">g</text><text xml:space="preserve" font-family="Helvetica-Light,Helvetica" font-size="44.0" fill="#000000" transform="matrix(1.00, 0.00, -0.00, -1.00, 1041.6, 476.1)">e</text><text xml:space="preserve" font-family="Helvetica-Light,Helvetica" font-size="44.0" fill="#000000" transform="matrix(1.00, 0.00, -0.00, -1.00, 1066.0, 476.1)"> </text><text xml:space="preserve" font-family="Helvetica-Light,Helvetica" font-size="44.0" fill="#000000" transform="matrix(1.00, 0.00, -0.00, -1.00, 1078.2, 476.1)">a</text><text xml:space="preserve" font-family="Helvetica-Light,Helvetica" font-size="44.0" fill="#000000" transform="matrix(1.00, 0.00, -0.00, -1.00, 1102.7, 476.1)">n</text><text xml:space="preserve" font-family="Helvetica-Light,Helvetica" font-size="44.0" fill="#000000" transform="matrix(1.00, 0.00, -0.00, -1.00, 1127.2, 476.1)">d</text><text xml:space="preserve" font-family="Helvetica-Light,Helvetica" font-size="44.0" fill="#000000" transform="matrix(1.00, 0.00, -0.00, -1.00, 1154.1, 476.1)"> </text><text xml:space="preserve" font-family="Helvetica-Light,Helvetica" font-size="44.0" fill="#000000" transform="matrix(1.00, 0.00, -0.00, -1.00, 1166.3, 476.1)">i</text><text xml:space="preserve" font-family="Helvetica-Light,Helvetica" font-size="44.0" fill="#000000" transform="matrix(1.00, 0.00, -0.00, -1.00, 1176.1, 476.1)">t</text><text xml:space="preserve" font-family="Helvetica-Light,Helvetica" font-size="44.0" fill="#000000" transform="matrix(1.00, 0.00, -0.00, -1.00, 1188.3, 476.1)">s</text><text xml:space="preserve" font-family="Helvetica-Light,Helvetica" font-size="44.0" fill="#000000" transform="matrix(1.00, 0.00, -0.00, -1.00, 1210.3, 476.1)"> </text><text xml:space="preserve" font-family="Helvetica-Light,Helvetica" font-size="44.0" fill="#000000" transform="matrix(1.00, 0.00, -0.00, -1.00, 1222.5, 476.1)">e</text><text xml:space="preserve" font-family="Helvetica-Light,Helvetica" font-size="44.0" fill="#000000" transform="matrix(1.00, 0.00, -0.00, -1.00, 1247.0, 476.1)">c</text><text xml:space="preserve" font-family="Helvetica-Light,Helvetica" font-size="44.0" fill="#000000" transform="matrix(1.00, 0.00, -0.00, -1.00, 1271.5, 476.1)">o</text><text xml:space="preserve" font-family="Helvetica-Light,Helvetica" font-size="44.0" fill="#000000" transform="matrix(1.00, 0.00, -0.00, -1.00, 1295.9, 476.1)">s</text><text xml:space="preserve" font-family="Helvetica-Light,Helvetica" font-size="44.0" fill="#000000" transform="matrix(1.00, 0.00, -0.00, -1.00, 1317.9, 476.1)">y</text><text xml:space="preserve" font-family="Helvetica-Light,Helvetica" font-size="44.0" fill="#000000" transform="matrix(1.00, 0.00, -0.00, -1.00, 1339.9, 476.1)">s</text><text xml:space="preserve" font-family="Helvetica-Light,Helvetica" font-size="44.0" fill="#000000" transform="matrix(1.00, 0.00, -0.00, -1.00, 1361.9, 476.1)">t</text><text xml:space="preserve" font-family="Helvetica-Light,Helvetica" font-size="44.0" fill="#000000" transform="matrix(1.00, 0.00, -0.00, -1.00, 1374.1, 476.1)">e</text><text xml:space="preserve" font-family="Helvetica-Light,Helvetica" font-size="44.0" fill="#000000" transform="matrix(1.00, 0.00, -0.00, -1.00, 1398.6, 476.1)">m</text><text xml:space="preserve" font-family="Helvetica-Light,Helvetica" font-size="44.0" fill="#000000" transform="matrix(1.00, 0.00, -0.00, -1.00, 1435.3, 476.1)"> </text><text xml:space="preserve" font-family="Helvetica-Light,Helvetica" font-size="37.0" fill="#000000" transform="matrix(1.00, 0.00, -0.00, -1.00, 586.1, 430.5)">J</text><text xml:space="preserve" font-family="Helvetica-Light,Helvetica" font-size="37.0" fill="#000000" transform="matrix(1.00, 0.00, -0.00, -1.00, 604.6, 430.5)">a</text><text xml:space="preserve" font-family="Helvetica-Light,Helvetica" font-size="37.0" fill="#000000" transform="matrix(1.00, 0.00, -0.00, -1.00, 625.2, 430.5)">k</text><text xml:space="preserve" font-family="Helvetica-Light,Helvetica" font-size="37.0" fill="#000000" transform="matrix(1.00, 0.00, -0.00, -1.00, 643.7, 430.5)">u</text><text xml:space="preserve" font-family="Helvetica-Light,Helvetica" font-size="37.0" fill="#000000" transform="matrix(1.00, 0.00, -0.00, -1.00, 664.3, 430.5)">b</text><text xml:space="preserve" font-family="Helvetica-Light,Helvetica" font-size="37.0" fill="#000000" transform="matrix(1.00, 0.00, -0.00, -1.00, 686.9, 430.5)"> </text><text xml:space="preserve" font-family="Helvetica-Light,Helvetica" font-size="37.0" fill="#000000" transform="matrix(1.00, 0.00, -0.00, -1.00, 697.2, 430.5)">P</text><text xml:space="preserve" font-family="Helvetica-Light,Helvetica" font-size="37.0" fill="#000000" transform="matrix(1.00, 0.00, -0.00, -1.00, 719.8, 430.5)">a</text><text xml:space="preserve" font-family="Helvetica-Light,Helvetica" font-size="37.0" fill="#000000" transform="matrix(1.00, 0.00, -0.00, -1.00, 740.3, 430.5)">s</text><text xml:space="preserve" font-family="Helvetica-Light,Helvetica" font-size="37.0" fill="#000000" transform="matrix(1.00, 0.00, -0.00, -1.00, 758.8, 430.5)">t</text><text xml:space="preserve" font-family="Helvetica-Light,Helvetica" font-size="37.0" fill="#000000" transform="matrix(1.00, 0.00, -0.00, -1.00, 769.1, 430.5)">u</text><text xml:space="preserve" font-family="Helvetica-Light,Helvetica" font-size="37.0" fill="#000000" transform="matrix(1.00, 0.00, -0.00, -1.00, 789.7, 430.5)">s</text><text xml:space="preserve" font-family="Helvetica-Light,Helvetica" font-size="37.0" fill="#000000" transform="matrix(1.00, 0.00, -0.00, -1.00, 808.2, 430.5)">z</text><text xml:space="preserve" font-family="Helvetica-Light,Helvetica" font-size="37.0" fill="#000000" transform="matrix(1.00, 0.00, -0.00, -1.00, 826.7, 430.5)">e</text><text xml:space="preserve" font-family="Helvetica-Light,Helvetica" font-size="37.0" fill="#000000" transform="matrix(1.00, 0.00, -0.00, -1.00, 847.3, 430.5)">k</text><text xml:space="preserve" font-family="Helvetica-Light,Helvetica" font-size="37.0" fill="#000000" transform="matrix(1.00, 0.00, -0.00, -1.00, 865.8, 430.5)"> </text><text xml:space="preserve" font-family="Helvetica-Light,Helvetica" font-size="37.0" fill="#000000" transform="matrix(1.00, 0.00, -0.00, -1.00, 876.0, 430.5)">D</text><text xml:space="preserve" font-family="Helvetica-Light,Helvetica" font-size="37.0" fill="#000000" transform="matrix(1.00, 0.00, -0.00, -1.00, 902.8, 430.5)">u</text><text xml:space="preserve" font-family="Helvetica-Light,Helvetica" font-size="37.0" fill="#000000" transform="matrix(1.00, 0.00, -0.00, -1.00, 923.3, 430.5)">b</text><text xml:space="preserve" font-family="Helvetica-Light,Helvetica" font-size="37.0" fill="#000000" transform="matrix(1.00, 0.00, -0.00, -1.00, 945.9, 430.5)">l</text><text xml:space="preserve" font-family="Helvetica-Light,Helvetica" font-size="37.0" fill="#000000" transform="matrix(1.00, 0.00, -0.00, -1.00, 954.2, 430.5)">i</text><text xml:space="preserve" font-family="Helvetica-Light,Helvetica" font-size="37.0" fill="#000000" transform="matrix(1.00, 0.00, -0.00, -1.00, 962.4, 430.5)">n</text><text xml:space="preserve" font-family="Helvetica-Light,Helvetica" font-size="37.0" fill="#000000" transform="matrix(1.00, 0.00, -0.00, -1.00, 982.9, 430.5)"> </text><text xml:space="preserve" font-family="Helvetica-Light,Helvetica" font-size="37.0" fill="#000000" transform="matrix(1.00, 0.00, -0.00, -1.00, 993.2, 430.5)">3</text><text xml:space="preserve" font-family="Helvetica-Light,Helvetica" font-size="37.0" fill="#000000" transform="matrix(1.00, 0.00, -0.00, -1.00, 1013.8, 430.5)">r</text><text xml:space="preserve" font-family="Helvetica-Light,Helvetica" font-size="37.0" fill="#000000" transform="matrix(1.00, 0.00, -0.00, -1.00, 1025.5, 430.5)">d</text><text xml:space="preserve" font-family="Helvetica-Light,Helvetica" font-size="37.0" fill="#000000" transform="matrix(1.00, 0.00, -0.00, -1.00, 1048.1, 430.5)"> </text><text xml:space="preserve" font-family="Helvetica-Light,Helvetica" font-size="37.0" fill="#000000" transform="matrix(1.00, 0.00, -0.00, -1.00, 1058.3, 430.5)">S</text><text xml:space="preserve" font-family="Helvetica-Light,Helvetica" font-size="37.0" fill="#000000" transform="matrix(1.00, 0.00, -0.00, -1.00, 1081.0, 430.5)">e</text><text xml:space="preserve" font-family="Helvetica-Light,Helvetica" font-size="37.0" fill="#000000" transform="matrix(1.00, 0.00, -0.00, -1.00, 1101.5, 430.5)">p</text><text xml:space="preserve" font-family="Helvetica-Light,Helvetica" font-size="37.0" fill="#000000" transform="matrix(1.00, 0.00, -0.00, -1.00, 1124.1, 430.5)">t</text><text xml:space="preserve" font-family="Helvetica-Light,Helvetica" font-size="37.0" fill="#000000" transform="matrix(1.00, 0.00, -0.00, -1.00, 1134.4, 430.5)">e</text><text xml:space="preserve" font-family="Helvetica-Light,Helvetica" font-size="37.0" fill="#000000" transform="matrix(1.00, 0.00, -0.00, -1.00, 1155.0, 430.5)">m</text><text xml:space="preserve" font-family="Helvetica-Light,Helvetica" font-size="37.0" fill="#000000" transform="matrix(1.00, 0.00, -0.00, -1.00, 1185.8, 430.5)">b</text><text xml:space="preserve" font-family="Helvetica-Light,Helvetica" font-size="37.0" fill="#000000" transform="matrix(1.00, 0.00, -0.00, -1.00, 1208.4, 430.5)">e</text><text xml:space="preserve" font-family="Helvetica-Light,Helvetica" font-size="37.0" fill="#000000" transform="matrix(1.00, 0.00, -0.00, -1.00, 1229.0, 430.5)">r</text><text xml:space="preserve" font-family="Helvetica-Light,Helvetica" font-size="37.0" fill="#000000" transform="matrix(1.00, 0.00, -0.00, -1.00, 1241.3, 430.5)"> </text><text xml:space="preserve" font-family="Helvetica-Light,Helvetica" font-size="37.0" fill="#000000" transform="matrix(1.00, 0.00, -0.00, -1.00, 1251.6, 430.5)">2</text><text xml:space="preserve" font-family="Helvetica-Light,Helvetica" font-size="37.0" fill="#000000" transform="matrix(1.00, 0.00, -0.00, -1.00, 1272.2, 430.5)">0</text><text xml:space="preserve" font-family="Helvetica-Light,Helvetica" font-size="37.0" fill="#000000" transform="matrix(1.00, 0.00, -0.00, -1.00, 1292.7, 430.5)">1</text><text xml:space="preserve" font-family="Helvetica-Light,Helvetica" font-size="37.0" fill="#000000" transform="matrix(1.00, 0.00, -0.00, -1.00, 1313.3, 430.5)">5</text></g></svg>