<?xml version="1.0" encoding="UTF-8" standalone="no"?><svg xmlns="http://www.w3.org/2000/svg" xmlns:xlink="http://www.w3.org/1999/xlink" clip-rule="evenodd" stroke-miterlimit="10" viewBox="0 0 1920 1080"><desc>SVG generated by Keynote</desc><defs></defs><g transform="matrix(1.00, 0.00, -0.00, -1.00, 0.0, 1080.0)"><path d="M 0.0 1080.0 L 1920.0 1080.0 L 1920.0 0.0 L 0.0 0.0 Z M 0.0 1080.0 " fill="#FEFFFF"></path><text xml:space="preserve" font-family="Helvetica-Light,Helvetica" font-size="112.0" fill="#000000" transform="matrix(1.00, 0.00, -0.00, -1.00, 472.3, 873.8)">L</text><text xml:space="preserve" font-family="Helvetica-Light,Helvetica" font-size="112.0" fill="#000000" transform="matrix(1.00, 0.00, -0.00, -1.00, 534.6, 873.8)">a</text><text xml:space="preserve" font-family="Helvetica-Light,Helvetica" font-size="112.0" fill="#000000" transform="matrix(1.00, 0.00, -0.00, -1.00, 596.8, 873.8)">n</text><text xml:space="preserve" font-family="Helvetica-Light,Helvetica" font-size="112.0" fill="#000000" transform="matrix(1.00, 0.00, -0.00, -1.00, 659.1, 873.8)">g</text><text xml:space="preserve" font-family="Helvetica-Light,Helvetica" font-size="112.0" fill="#000000" transform="matrix(1.00, 0.00, -0.00, -1.00, 727.5, 873.8)">u</text><text xml:space="preserve" font-family="Helvetica-Light,Helvetica" font-size="112.0" fill="#000000" transform="matrix(1.00, 0.00, -0.00, -1.00, 789.8, 873.8)">a</text><text xml:space="preserve" font-family="Helvetica-Light,Helvetica" font-size="112.0" fill="#000000" transform="matrix(1.00, 0.00, -0.00, -1.00, 852.1, 873.8)">g</text><text xml:space="preserve" font-family="Helvetica-Light,Helvetica" font-size="112.0" fill="#000000" transform="matrix(1.00, 0.00, -0.00, -1.00, 920.5, 873.8)">e</text><text xml:space="preserve" font-family="Helvetica-Light,Helvetica" font-size="112.0" fill="#000000" transform="matrix(1.00, 0.00, -0.00, -1.00, 982.8, 873.8)"> </text><text xml:space="preserve" font-family="Helvetica-Light,Helvetica" font-size="112.0" fill="#000000" transform="matrix(1.00, 0.00, -0.00, -1.00, 1013.9, 873.8)">F</text><text xml:space="preserve" font-family="Helvetica-Light,Helvetica" font-size="112.0" fill="#000000" transform="matrix(1.00, 0.00, -0.00, -1.00, 1076.2, 873.8)">e</text><text xml:space="preserve" font-family="Helvetica-Light,Helvetica" font-size="112.0" fill="#000000" transform="matrix(1.00, 0.00, -0.00, -1.00, 1138.5, 873.8)">a</text><text xml:space="preserve" font-family="Helvetica-Light,Helvetica" font-size="112.0" fill="#000000" transform="matrix(1.00, 0.00, -0.00, -1.00, 1200.7, 873.8)">t</text><text xml:space="preserve" font-family="Helvetica-Light,Helvetica" font-size="112.0" fill="#000000" transform="matrix(1.00, 0.00, -0.00, -1.00, 1231.9, 873.8)">u</text><text xml:space="preserve" font-family="Helvetica-Light,Helvetica" font-size="112.0" fill="#000000" transform="matrix(1.00, 0.00, -0.00, -1.00, 1294.2, 873.8)">r</text><text xml:space="preserve" font-family="Helvetica-Light,Helvetica" font-size="112.0" fill="#000000" transform="matrix(1.00, 0.00, -0.00, -1.00, 1329.4, 873.8)">e</text><text xml:space="preserve" font-family="Helvetica-Light,Helvetica" font-size="112.0" fill="#000000" transform="matrix(1.00, 0.00, -0.00, -1.00, 1391.7, 873.8)">s</text><text xml:space="preserve" font-family="Helvetica-Light,Helvetica" font-size="30.4" fill="#000000" transform="matrix(1.00, 0.00, -0.00, -1.00, 137.0, 781.0)">•</text><text xml:space="preserve" font-family="Helvetica-Light,Helvetica" font-size="40.6" fill="#000000" transform="matrix(1.00, 0.00, -0.00, -1.00, 176.0, 777.3)">O</text><text xml:space="preserve" font-family="Helvetica-Light,Helvetica" font-size="40.6" fill="#000000" transform="matrix(1.00, 0.00, -0.00, -1.00, 207.6, 777.3)">w</text><text xml:space="preserve" font-family="Helvetica-Light,Helvetica" font-size="40.6" fill="#000000" transform="matrix(1.00, 0.00, -0.00, -1.00, 236.8, 777.3)">n</text><text xml:space="preserve" font-family="Helvetica-Light,Helvetica" font-size="40.6" fill="#000000" transform="matrix(1.00, 0.00, -0.00, -1.00, 259.4, 777.3)">e</text><text xml:space="preserve" font-family="Helvetica-Light,Helvetica" font-size="40.6" fill="#000000" transform="matrix(1.00, 0.00, -0.00, -1.00, 281.9, 777.3)">r</text><text xml:space="preserve" font-family="Helvetica-Light,Helvetica" font-size="40.6" fill="#000000" transform="matrix(1.00, 0.00, -0.00, -1.00, 295.4, 777.3)">s</text><text xml:space="preserve" font-family="Helvetica-Light,Helvetica" font-size="40.6" fill="#000000" transform="matrix(1.00, 0.00, -0.00, -1.00, 315.7, 777.3)">h</text><text xml:space="preserve" font-family="Helvetica-Light,Helvetica" font-size="40.6" fill="#000000" transform="matrix(1.00, 0.00, -0.00, -1.00, 338.3, 777.3)">i</text><text xml:space="preserve" font-family="Helvetica-Light,Helvetica" font-size="40.6" fill="#000000" transform="matrix(1.00, 0.00, -0.00, -1.00, 347.3, 777.3)">p</text><text xml:space="preserve" font-family="Helvetica-Light,Helvetica" font-size="40.6" fill="#000000" transform="matrix(1.00, 0.00, -0.00, -1.00, 372.1, 777.3)"> </text><text xml:space="preserve" font-family="Helvetica-Light,Helvetica" font-size="30.4" fill="#000000" transform="matrix(1.00, 0.00, -0.00, -1.00, 137.0, 687.0)">•</text><text xml:space="preserve" font-family="Helvetica-Light,Helvetica" font-size="40.6" fill="#000000" transform="matrix(1.00, 0.00, -0.00, -1.00, 176.0, 683.3)">M</text><text xml:space="preserve" font-family="Helvetica-Light,Helvetica" font-size="40.6" fill="#000000" transform="matrix(1.00, 0.00, -0.00, -1.00, 209.8, 683.3)">o</text><text xml:space="preserve" font-family="Helvetica-Light,Helvetica" font-size="40.6" fill="#000000" transform="matrix(1.00, 0.00, -0.00, -1.00, 232.3, 683.3)">v</text><text xml:space="preserve" font-family="Helvetica-Light,Helvetica" font-size="40.6" fill="#000000" transform="matrix(1.00, 0.00, -0.00, -1.00, 252.6, 683.3)">e</text><text xml:space="preserve" font-family="Helvetica-Light,Helvetica" font-size="40.6" fill="#000000" transform="matrix(1.00, 0.00, -0.00, -1.00, 275.2, 683.3)"> </text><text xml:space="preserve" font-family="Helvetica-Light,Helvetica" font-size="40.6" fill="#000000" transform="matrix(1.00, 0.00, -0.00, -1.00, 286.4, 683.3)">s</text><text xml:space="preserve" font-family="Helvetica-Light,Helvetica" font-size="40.6" fill="#000000" transform="matrix(1.00, 0.00, -0.00, -1.00, 306.7, 683.3)">e</text><text xml:space="preserve" font-family="Helvetica-Light,Helvetica" font-size="40.6" fill="#000000" transform="matrix(1.00, 0.00, -0.00, -1.00, 329.3, 683.3)">m</text><text xml:space="preserve" font-family="Helvetica-Light,Helvetica" font-size="40.6" fill="#000000" transform="matrix(1.00, 0.00, -0.00, -1.00, 363.1, 683.3)">a</text><text xml:space="preserve" font-family="Helvetica-Light,Helvetica" font-size="40.6" fill="#000000" transform="matrix(1.00, 0.00, -0.00, -1.00, 385.6, 683.3)">n</text><text xml:space="preserve" font-family="Helvetica-Light,Helvetica" font-size="40.6" fill="#000000" transform="matrix(1.00, 0.00, -0.00, -1.00, 408.2, 683.3)">t</text><text xml:space="preserve" font-family="Helvetica-Light,Helvetica" font-size="40.6" fill="#000000" transform="matrix(1.00, 0.00, -0.00, -1.00, 419.4, 683.3)">i</text><text xml:space="preserve" font-family="Helvetica-Light,Helvetica" font-size="40.6" fill="#000000" transform="matrix(1.00, 0.00, -0.00, -1.00, 428.4, 683.3)">c</text><text xml:space="preserve" font-family="Helvetica-Light,Helvetica" font-size="40.6" fill="#000000" transform="matrix(1.00, 0.00, -0.00, -1.00, 451.0, 683.3)">s</text><text xml:space="preserve" font-family="Helvetica-Light,Helvetica" font-size="40.6" fill="#000000" transform="matrix(1.00, 0.00, -0.00, -1.00, 471.3, 683.3)"> </text><text xml:space="preserve" font-family="Helvetica-Light,Helvetica" font-size="30.4" fill="#000000" transform="matrix(1.00, 0.00, -0.00, -1.00, 137.0, 593.0)">•</text><text xml:space="preserve" font-family="Helvetica-Light,Helvetica" font-size="40.6" fill="#000000" transform="matrix(1.00, 0.00, -0.00, -1.00, 176.0, 589.3)">L</text><text xml:space="preserve" font-family="Helvetica-Light,Helvetica" font-size="40.6" fill="#000000" transform="matrix(1.00, 0.00, -0.00, -1.00, 198.6, 589.3)">i</text><text xml:space="preserve" font-family="Helvetica-Light,Helvetica" font-size="40.6" fill="#000000" transform="matrix(1.00, 0.00, -0.00, -1.00, 207.6, 589.3)">f</text><text xml:space="preserve" font-family="Helvetica-Light,Helvetica" font-size="40.6" fill="#000000" transform="matrix(1.00, 0.00, -0.00, -1.00, 218.8, 589.3)">e</text><text xml:space="preserve" font-family="Helvetica-Light,Helvetica" font-size="40.6" fill="#000000" transform="matrix(1.00, 0.00, -0.00, -1.00, 241.4, 589.3)">t</text><text xml:space="preserve" font-family="Helvetica-Light,Helvetica" font-size="40.6" fill="#000000" transform="matrix(1.00, 0.00, -0.00, -1.00, 252.7, 589.3)">i</text><text xml:space="preserve" font-family="Helvetica-Light,Helvetica" font-size="40.6" fill="#000000" transform="matrix(1.00, 0.00, -0.00, -1.00, 261.7, 589.3)">m</text><text xml:space="preserve" font-family="Helvetica-Light,Helvetica" font-size="40.6" fill="#000000" transform="matrix(1.00, 0.00, -0.00, -1.00, 295.4, 589.3)">e</text><text xml:space="preserve" font-family="Helvetica-Light,Helvetica" font-size="40.6" fill="#000000" transform="matrix(1.00, 0.00, -0.00, -1.00, 318.0, 589.3)"> </text><text xml:space="preserve" font-family="Helvetica-Light,Helvetica" font-size="30.4" fill="#000000" transform="matrix(1.00, 0.00, -0.00, -1.00, 137.0, 498.9)">•</text><text xml:space="preserve" font-family="Helvetica-Light,Helvetica" font-size="40.6" fill="#000000" transform="matrix(1.00, 0.00, -0.00, -1.00, 176.0, 495.3)">T</text><text xml:space="preserve" font-family="Helvetica-Light,Helvetica" font-size="40.6" fill="#000000" transform="matrix(1.00, 0.00, -0.00, -1.00, 194.8, 495.3)">r</text><text xml:space="preserve" font-family="Helvetica-Light,Helvetica" font-size="40.6" fill="#000000" transform="matrix(1.00, 0.00, -0.00, -1.00, 208.3, 495.3)">a</text><text xml:space="preserve" font-family="Helvetica-Light,Helvetica" font-size="40.6" fill="#000000" transform="matrix(1.00, 0.00, -0.00, -1.00, 230.9, 495.3)">i</text><text xml:space="preserve" font-family="Helvetica-Light,Helvetica" font-size="40.6" fill="#000000" transform="matrix(1.00, 0.00, -0.00, -1.00, 239.9, 495.3)">t</text><text xml:space="preserve" font-family="Helvetica-Light,Helvetica" font-size="40.6" fill="#000000" transform="matrix(1.00, 0.00, -0.00, -1.00, 251.2, 495.3)"> </text><text xml:space="preserve" font-family="Helvetica-Light,Helvetica" font-size="40.6" fill="#000000" transform="matrix(1.00, 0.00, -0.00, -1.00, 262.4, 495.3)">b</text><text xml:space="preserve" font-family="Helvetica-Light,Helvetica" font-size="40.6" fill="#000000" transform="matrix(1.00, 0.00, -0.00, -1.00, 287.2, 495.3)">a</text><text xml:space="preserve" font-family="Helvetica-Light,Helvetica" font-size="40.6" fill="#000000" transform="matrix(1.00, 0.00, -0.00, -1.00, 309.8, 495.3)">s</text><text xml:space="preserve" font-family="Helvetica-Light,Helvetica" font-size="40.6" fill="#000000" transform="matrix(1.00, 0.00, -0.00, -1.00, 330.0, 495.3)">e</text><text xml:space="preserve" font-family="Helvetica-Light,Helvetica" font-size="40.6" fill="#000000" transform="matrix(1.00, 0.00, -0.00, -1.00, 352.6, 495.3)">d</text><text xml:space="preserve" font-family="Helvetica-Light,Helvetica" font-size="40.6" fill="#000000" transform="matrix(1.00, 0.00, -0.00, -1.00, 377.4, 495.3)"> </text><text xml:space="preserve" font-family="Helvetica-Light,Helvetica" font-size="40.6" fill="#000000" transform="matrix(1.00, 0.00, -0.00, -1.00, 388.7, 495.3)">g</text><text xml:space="preserve" font-family="Helvetica-Light,Helvetica" font-size="40.6" fill="#000000" transform="matrix(1.00, 0.00, -0.00, -1.00, 413.4, 495.3)">e</text><text xml:space="preserve" font-family="Helvetica-Light,Helvetica" font-size="40.6" fill="#000000" transform="matrix(1.00, 0.00, -0.00, -1.00, 436.0, 495.3)">n</text><text xml:space="preserve" font-family="Helvetica-Light,Helvetica" font-size="40.6" fill="#000000" transform="matrix(1.00, 0.00, -0.00, -1.00, 458.5, 495.3)">e</text><text xml:space="preserve" font-family="Helvetica-Light,Helvetica" font-size="40.6" fill="#000000" transform="matrix(1.00, 0.00, -0.00, -1.00, 481.1, 495.3)">r</text><text xml:space="preserve" font-family="Helvetica-Light,Helvetica" font-size="40.6" fill="#000000" transform="matrix(1.00, 0.00, -0.00, -1.00, 494.6, 495.3)">i</text><text xml:space="preserve" font-family="Helvetica-Light,Helvetica" font-size="40.6" fill="#000000" transform="matrix(1.00, 0.00, -0.00, -1.00, 503.6, 495.3)">c</text><text xml:space="preserve" font-family="Helvetica-Light,Helvetica" font-size="40.6" fill="#000000" transform="matrix(1.00, 0.00, -0.00, -1.00, 526.2, 495.3)">s</text><text xml:space="preserve" font-family="Helvetica-Light,Helvetica" font-size="40.6" fill="#000000" transform="matrix(1.00, 0.00, -0.00, -1.00, 546.4, 495.3)"> </text><text xml:space="preserve" font-family="Helvetica-Light,Helvetica" font-size="30.4" fill="#000000" transform="matrix(1.00, 0.00, -0.00, -1.00, 137.0, 404.9)">•</text><text xml:space="preserve" font-family="Helvetica-Light,Helvetica" font-size="40.6" fill="#000000" transform="matrix(1.00, 0.00, -0.00, -1.00, 176.0, 401.2)">E</text><text xml:space="preserve" font-family="Helvetica-Light,Helvetica" font-size="40.6" fill="#000000" transform="matrix(1.00, 0.00, -0.00, -1.00, 200.8, 401.2)">x</text><text xml:space="preserve" font-family="Helvetica-Light,Helvetica" font-size="40.6" fill="#000000" transform="matrix(1.00, 0.00, -0.00, -1.00, 221.1, 401.2)">p</text><text xml:space="preserve" font-family="Helvetica-Light,Helvetica" font-size="40.6" fill="#000000" transform="matrix(1.00, 0.00, -0.00, -1.00, 245.8, 401.2)">r</text><text xml:space="preserve" font-family="Helvetica-Light,Helvetica" font-size="40.6" fill="#000000" transform="matrix(1.00, 0.00, -0.00, -1.00, 258.6, 401.2)">e</text><text xml:space="preserve" font-family="Helvetica-Light,Helvetica" font-size="40.6" fill="#000000" transform="matrix(1.00, 0.00, -0.00, -1.00, 281.2, 401.2)">s</text><text xml:space="preserve" font-family="Helvetica-Light,Helvetica" font-size="40.6" fill="#000000" transform="matrix(1.00, 0.00, -0.00, -1.00, 301.5, 401.2)">s</text><text xml:space="preserve" font-family="Helvetica-Light,Helvetica" font-size="40.6" fill="#000000" transform="matrix(1.00, 0.00, -0.00, -1.00, 321.7, 401.2)">i</text><text xml:space="preserve" font-family="Helvetica-Light,Helvetica" font-size="40.6" fill="#000000" transform="matrix(1.00, 0.00, -0.00, -1.00, 330.7, 401.2)">o</text><text xml:space="preserve" font-family="Helvetica-Light,Helvetica" font-size="40.6" fill="#000000" transform="matrix(1.00, 0.00, -0.00, -1.00, 353.3, 401.2)">n</text><text xml:space="preserve" font-family="Helvetica-Light,Helvetica" font-size="40.6" fill="#000000" transform="matrix(1.00, 0.00, -0.00, -1.00, 375.8, 401.2)"> </text><text xml:space="preserve" font-family="Helvetica-Light,Helvetica" font-size="40.6" fill="#000000" transform="matrix(1.00, 0.00, -0.00, -1.00, 387.1, 401.2)">o</text><text xml:space="preserve" font-family="Helvetica-Light,Helvetica" font-size="40.6" fill="#000000" transform="matrix(1.00, 0.00, -0.00, -1.00, 409.7, 401.2)">r</text><text xml:space="preserve" font-family="Helvetica-Light,Helvetica" font-size="40.6" fill="#000000" transform="matrix(1.00, 0.00, -0.00, -1.00, 423.2, 401.2)">i</text><text xml:space="preserve" font-family="Helvetica-Light,Helvetica" font-size="40.6" fill="#000000" transform="matrix(1.00, 0.00, -0.00, -1.00, 432.2, 401.2)">e</text><text xml:space="preserve" font-family="Helvetica-Light,Helvetica" font-size="40.6" fill="#000000" transform="matrix(1.00, 0.00, -0.00, -1.00, 454.7, 401.2)">n</text><text xml:space="preserve" font-family="Helvetica-Light,Helvetica" font-size="40.6" fill="#000000" transform="matrix(1.00, 0.00, -0.00, -1.00, 477.3, 401.2)">t</text><text xml:space="preserve" font-family="Helvetica-Light,Helvetica" font-size="40.6" fill="#000000" transform="matrix(1.00, 0.00, -0.00, -1.00, 488.6, 401.2)">a</text><text xml:space="preserve" font-family="Helvetica-Light,Helvetica" font-size="40.6" fill="#000000" transform="matrix(1.00, 0.00, -0.00, -1.00, 511.1, 401.2)">t</text><text xml:space="preserve" font-family="Helvetica-Light,Helvetica" font-size="40.6" fill="#000000" transform="matrix(1.00, 0.00, -0.00, -1.00, 522.4, 401.2)">e</text><text xml:space="preserve" font-family="Helvetica-Light,Helvetica" font-size="40.6" fill="#000000" transform="matrix(1.00, 0.00, -0.00, -1.00, 544.9, 401.2)">d</text><text xml:space="preserve" font-family="Helvetica-Light,Helvetica" font-size="40.6" fill="#000000" transform="matrix(1.00, 0.00, -0.00, -1.00, 569.7, 401.2)"> </text><text xml:space="preserve" font-family="Helvetica-Light,Helvetica" font-size="30.4" fill="#000000" transform="matrix(1.00, 0.00, -0.00, -1.00, 137.0, 310.9)">•</text><text xml:space="preserve" font-family="Helvetica-Light,Helvetica" font-size="40.6" fill="#000000" transform="matrix(1.00, 0.00, -0.00, -1.00, 176.0, 307.2)">P</text><text xml:space="preserve" font-family="Helvetica-Light,Helvetica" font-size="40.6" fill="#000000" transform="matrix(1.00, 0.00, -0.00, -1.00, 200.8, 307.2)">a</text><text xml:space="preserve" font-family="Helvetica-Light,Helvetica" font-size="40.6" fill="#000000" transform="matrix(1.00, 0.00, -0.00, -1.00, 223.3, 307.2)">t</text><text xml:space="preserve" font-family="Helvetica-Light,Helvetica" font-size="40.6" fill="#000000" transform="matrix(1.00, 0.00, -0.00, -1.00, 234.6, 307.2)">t</text><text xml:space="preserve" font-family="Helvetica-Light,Helvetica" font-size="40.6" fill="#000000" transform="matrix(1.00, 0.00, -0.00, -1.00, 245.9, 307.2)">e</text><text xml:space="preserve" font-family="Helvetica-Light,Helvetica" font-size="40.6" fill="#000000" transform="matrix(1.00, 0.00, -0.00, -1.00, 268.4, 307.2)">r</text><text xml:space="preserve" font-family="Helvetica-Light,Helvetica" font-size="40.6" fill="#000000" transform="matrix(1.00, 0.00, -0.00, -1.00, 282.7, 307.2)">n</text><text xml:space="preserve" font-family="Helvetica-Light,Helvetica" font-size="40.6" fill="#000000" transform="matrix(1.00, 0.00, -0.00, -1.00, 305.2, 307.2)"> </text><text xml:space="preserve" font-family="Helvetica-Light,Helvetica" font-size="40.6" fill="#000000" transform="matrix(1.00, 0.00, -0.00, -1.00, 316.5, 307.2)">m</text><text xml:space="preserve" font-family="Helvetica-Light,Helvetica" font-size="40.6" fill="#000000" transform="matrix(1.00, 0.00, -0.00, -1.00, 350.3, 307.2)">a</text><text xml:space="preserve" font-family="Helvetica-Light,Helvetica" font-size="40.6" fill="#000000" transform="matrix(1.00, 0.00, -0.00, -1.00, 372.8, 307.2)">t</text><text xml:space="preserve" font-family="Helvetica-Light,Helvetica" font-size="40.6" fill="#000000" transform="matrix(1.00, 0.00, -0.00, -1.00, 384.1, 307.2)">c</text><text xml:space="preserve" font-family="Helvetica-Light,Helvetica" font-size="40.6" fill="#000000" transform="matrix(1.00, 0.00, -0.00, -1.00, 406.7, 307.2)">h</text><text xml:space="preserve" font-family="Helvetica-Light,Helvetica" font-size="40.6" fill="#000000" transform="matrix(1.00, 0.00, -0.00, -1.00, 429.2, 307.2)">i</text><text xml:space="preserve" font-family="Helvetica-Light,Helvetica" font-size="40.6" fill="#000000" transform="matrix(1.00, 0.00, -0.00, -1.00, 438.2, 307.2)">n</text><text xml:space="preserve" font-family="Helvetica-Light,Helvetica" font-size="40.6" fill="#000000" transform="matrix(1.00, 0.00, -0.00, -1.00, 460.8, 307.2)">g</text><text xml:space="preserve" font-family="Helvetica-Light,Helvetica" font-size="40.6" fill="#000000" transform="matrix(1.00, 0.00, -0.00, -1.00, 485.6, 307.2)"> </text><text xml:space="preserve" font-family="Helvetica-Light,Helvetica" font-size="30.4" fill="#000000" transform="matrix(1.00, 0.00, -0.00, -1.00, 137.0, 216.9)">•</text><text xml:space="preserve" font-family="Helvetica-Light,Helvetica" font-size="40.6" fill="#000000" transform="matrix(1.00, 0.00, -0.00, -1.00, 176.0, 213.2)">D</text><text xml:space="preserve" font-family="Helvetica-Light,Helvetica" font-size="40.6" fill="#000000" transform="matrix(1.00, 0.00, -0.00, -1.00, 205.3, 213.2)">e</text><text xml:space="preserve" font-family="Helvetica-Light,Helvetica" font-size="40.6" fill="#000000" transform="matrix(1.00, 0.00, -0.00, -1.00, 227.8, 213.2)">s</text><text xml:space="preserve" font-family="Helvetica-Light,Helvetica" font-size="40.6" fill="#000000" transform="matrix(1.00, 0.00, -0.00, -1.00, 248.1, 213.2)">t</text><text xml:space="preserve" font-family="Helvetica-Light,Helvetica" font-size="40.6" fill="#000000" transform="matrix(1.00, 0.00, -0.00, -1.00, 259.4, 213.2)">r</text><text xml:space="preserve" font-family="Helvetica-Light,Helvetica" font-size="40.6" fill="#000000" transform="matrix(1.00, 0.00, -0.00, -1.00, 272.9, 213.2)">u</text><text xml:space="preserve" font-family="Helvetica-Light,Helvetica" font-size="40.6" fill="#000000" transform="matrix(1.00, 0.00, -0.00, -1.00, 295.4, 213.2)">c</text><text xml:space="preserve" font-family="Helvetica-Light,Helvetica" font-size="40.6" fill="#000000" transform="matrix(1.00, 0.00, -0.00, -1.00, 318.0, 213.2)">t</text><text xml:space="preserve" font-family="Helvetica-Light,Helvetica" font-size="40.6" fill="#000000" transform="matrix(1.00, 0.00, -0.00, -1.00, 329.3, 213.2)">i</text><text xml:space="preserve" font-family="Helvetica-Light,Helvetica" font-size="40.6" fill="#000000" transform="matrix(1.00, 0.00, -0.00, -1.00, 338.3, 213.2)">n</text><text xml:space="preserve" font-family="Helvetica-Light,Helvetica" font-size="40.6" fill="#000000" transform="matrix(1.00, 0.00, -0.00, -1.00, 360.8, 213.2)">g</text><text xml:space="preserve" font-family="Helvetica-Light,Helvetica" font-size="40.6" fill="#000000" transform="matrix(1.00, 0.00, -0.00, -1.00, 385.6, 213.2)"> </text><text xml:space="preserve" font-family="Helvetica-Light,Helvetica" font-size="30.4" fill="#000000" transform="matrix(1.00, 0.00, -0.00, -1.00, 137.0, 122.9)">•</text><text xml:space="preserve" font-family="Helvetica-Light,Helvetica" font-size="40.6" fill="#000000" transform="matrix(1.00, 0.00, -0.00, -1.00, 176.0, 119.2)">C</text><text xml:space="preserve" font-family="Helvetica-Light,Helvetica" font-size="40.6" fill="#000000" transform="matrix(1.00, 0.00, -0.00, -1.00, 205.3, 119.2)">l</text><text xml:space="preserve" font-family="Helvetica-Light,Helvetica" font-size="40.6" fill="#000000" transform="matrix(1.00, 0.00, -0.00, -1.00, 214.3, 119.2)">o</text><text xml:space="preserve" font-family="Helvetica-Light,Helvetica" font-size="40.6" fill="#000000" transform="matrix(1.00, 0.00, -0.00, -1.00, 236.8, 119.2)">s</text><text xml:space="preserve" font-family="Helvetica-Light,Helvetica" font-size="40.6" fill="#000000" transform="matrix(1.00, 0.00, -0.00, -1.00, 257.1, 119.2)">u</text><text xml:space="preserve" font-family="Helvetica-Light,Helvetica" font-size="40.6" fill="#000000" transform="matrix(1.00, 0.00, -0.00, -1.00, 279.7, 119.2)">r</text><text xml:space="preserve" font-family="Helvetica-Light,Helvetica" font-size="40.6" fill="#000000" transform="matrix(1.00, 0.00, -0.00, -1.00, 292.4, 119.2)">e</text><text xml:space="preserve" font-family="Helvetica-Light,Helvetica" font-size="40.6" fill="#000000" transform="matrix(1.00, 0.00, -0.00, -1.00, 315.0, 119.2)">s</text><text xml:space="preserve" font-family="Helvetica-Light,Helvetica" font-size="40.6" fill="#000000" transform="matrix(1.00, 0.00, -0.00, -1.00, 335.3, 119.2)"> </text><text xml:space="preserve" font-family="Helvetica-Light,Helvetica" font-size="30.4" fill="#000000" transform="matrix(1.00, 0.00, -0.00, -1.00, 1001.1, 734.0)">•</text><text xml:space="preserve" font-family="Helvetica-Light,Helvetica" font-size="40.6" fill="#000000" transform="matrix(1.00, 0.00, -0.00, -1.00, 1040.2, 730.3)">T</text><text xml:space="preserve" font-family="Helvetica-Light,Helvetica" font-size="40.6" fill="#000000" transform="matrix(1.00, 0.00, -0.00, -1.00, 1059.3, 730.3)">y</text><text xml:space="preserve" font-family="Helvetica-Light,Helvetica" font-size="40.6" fill="#000000" transform="matrix(1.00, 0.00, -0.00, -1.00, 1079.6, 730.3)">p</text><text xml:space="preserve" font-family="Helvetica-Light,Helvetica" font-size="40.6" fill="#000000" transform="matrix(1.00, 0.00, -0.00, -1.00, 1104.4, 730.3)">e</text><text xml:space="preserve" font-family="Helvetica-Light,Helvetica" font-size="40.6" fill="#000000" transform="matrix(1.00, 0.00, -0.00, -1.00, 1126.9, 730.3)"> </text><text xml:space="preserve" font-family="Helvetica-Light,Helvetica" font-size="40.6" fill="#000000" transform="matrix(1.00, 0.00, -0.00, -1.00, 1138.2, 730.3)">i</text><text xml:space="preserve" font-family="Helvetica-Light,Helvetica" font-size="40.6" fill="#000000" transform="matrix(1.00, 0.00, -0.00, -1.00, 1147.2, 730.3)">n</text><text xml:space="preserve" font-family="Helvetica-Light,Helvetica" font-size="40.6" fill="#000000" transform="matrix(1.00, 0.00, -0.00, -1.00, 1169.7, 730.3)">f</text><text xml:space="preserve" font-family="Helvetica-Light,Helvetica" font-size="40.6" fill="#000000" transform="matrix(1.00, 0.00, -0.00, -1.00, 1181.0, 730.3)">e</text><text xml:space="preserve" font-family="Helvetica-Light,Helvetica" font-size="40.6" fill="#000000" transform="matrix(1.00, 0.00, -0.00, -1.00, 1203.6, 730.3)">r</text><text xml:space="preserve" font-family="Helvetica-Light,Helvetica" font-size="40.6" fill="#000000" transform="matrix(1.00, 0.00, -0.00, -1.00, 1216.3, 730.3)">e</text><text xml:space="preserve" font-family="Helvetica-Light,Helvetica" font-size="40.6" fill="#000000" transform="matrix(1.00, 0.00, -0.00, -1.00, 1238.9, 730.3)">n</text><text xml:space="preserve" font-family="Helvetica-Light,Helvetica" font-size="40.6" fill="#000000" transform="matrix(1.00, 0.00, -0.00, -1.00, 1261.4, 730.3)">c</text><text xml:space="preserve" font-family="Helvetica-Light,Helvetica" font-size="40.6" fill="#000000" transform="matrix(1.00, 0.00, -0.00, -1.00, 1284.0, 730.3)">e</text><text xml:space="preserve" font-family="Helvetica-Light,Helvetica" font-size="40.6" fill="#000000" transform="matrix(1.00, 0.00, -0.00, -1.00, 1306.5, 730.3)"> </text><text xml:space="preserve" font-family="Helvetica-Light,Helvetica" font-size="30.4" fill="#000000" transform="matrix(1.00, 0.00, -0.00, -1.00, 1001.1, 640.0)">•</text><text xml:space="preserve" font-family="Helvetica-Light,Helvetica" font-size="40.6" fill="#000000" transform="matrix(1.00, 0.00, -0.00, -1.00, 1040.2, 636.3)">H</text><text xml:space="preserve" font-family="Helvetica-Light,Helvetica" font-size="40.6" fill="#000000" transform="matrix(1.00, 0.00, -0.00, -1.00, 1069.4, 636.3)">y</text><text xml:space="preserve" font-family="Helvetica-Light,Helvetica" font-size="40.6" fill="#000000" transform="matrix(1.00, 0.00, -0.00, -1.00, 1089.7, 636.3)">g</text><text xml:space="preserve" font-family="Helvetica-Light,Helvetica" font-size="40.6" fill="#000000" transform="matrix(1.00, 0.00, -0.00, -1.00, 1114.5, 636.3)">i</text><text xml:space="preserve" font-family="Helvetica-Light,Helvetica" font-size="40.6" fill="#000000" transform="matrix(1.00, 0.00, -0.00, -1.00, 1123.5, 636.3)">e</text><text xml:space="preserve" font-family="Helvetica-Light,Helvetica" font-size="40.6" fill="#000000" transform="matrix(1.00, 0.00, -0.00, -1.00, 1146.1, 636.3)">n</text><text xml:space="preserve" font-family="Helvetica-Light,Helvetica" font-size="40.6" fill="#000000" transform="matrix(1.00, 0.00, -0.00, -1.00, 1168.6, 636.3)">i</text><text xml:space="preserve" font-family="Helvetica-Light,Helvetica" font-size="40.6" fill="#000000" transform="matrix(1.00, 0.00, -0.00, -1.00, 1177.6, 636.3)">c</text><text xml:space="preserve" font-family="Helvetica-Light,Helvetica" font-size="40.6" fill="#000000" transform="matrix(1.00, 0.00, -0.00, -1.00, 1200.2, 636.3)"> </text><text xml:space="preserve" font-family="Helvetica-Light,Helvetica" font-size="40.6" fill="#000000" transform="matrix(1.00, 0.00, -0.00, -1.00, 1211.4, 636.3)">m</text><text xml:space="preserve" font-family="Helvetica-Light,Helvetica" font-size="40.6" fill="#000000" transform="matrix(1.00, 0.00, -0.00, -1.00, 1245.2, 636.3)">a</text><text xml:space="preserve" font-family="Helvetica-Light,Helvetica" font-size="40.6" fill="#000000" transform="matrix(1.00, 0.00, -0.00, -1.00, 1267.8, 636.3)">c</text><text xml:space="preserve" font-family="Helvetica-Light,Helvetica" font-size="40.6" fill="#000000" transform="matrix(1.00, 0.00, -0.00, -1.00, 1290.3, 636.3)">r</text><text xml:space="preserve" font-family="Helvetica-Light,Helvetica" font-size="40.6" fill="#000000" transform="matrix(1.00, 0.00, -0.00, -1.00, 1303.1, 636.3)">o</text><text xml:space="preserve" font-family="Helvetica-Light,Helvetica" font-size="40.6" fill="#000000" transform="matrix(1.00, 0.00, -0.00, -1.00, 1325.7, 636.3)">s</text><text xml:space="preserve" font-family="Helvetica-Light,Helvetica" font-size="40.6" fill="#000000" transform="matrix(1.00, 0.00, -0.00, -1.00, 1345.9, 636.3)"> </text><text xml:space="preserve" font-family="Helvetica-Light,Helvetica" font-size="30.4" fill="#000000" transform="matrix(1.00, 0.00, -0.00, -1.00, 1001.1, 546.0)">•</text><text xml:space="preserve" font-family="Helvetica-Light,Helvetica" font-size="40.6" fill="#000000" transform="matrix(1.00, 0.00, -0.00, -1.00, 1040.2, 542.3)">U</text><text xml:space="preserve" font-family="Helvetica-Light,Helvetica" font-size="40.6" fill="#000000" transform="matrix(1.00, 0.00, -0.00, -1.00, 1069.4, 542.3)">n</text><text xml:space="preserve" font-family="Helvetica-Light,Helvetica" font-size="40.6" fill="#000000" transform="matrix(1.00, 0.00, -0.00, -1.00, 1092.0, 542.3)">i</text><text xml:space="preserve" font-family="Helvetica-Light,Helvetica" font-size="40.6" fill="#000000" transform="matrix(1.00, 0.00, -0.00, -1.00, 1101.0, 542.3)">o</text><text xml:space="preserve" font-family="Helvetica-Light,Helvetica" font-size="40.6" fill="#000000" transform="matrix(1.00, 0.00, -0.00, -1.00, 1123.5, 542.3)">n</text><text xml:space="preserve" font-family="Helvetica-Light,Helvetica" font-size="40.6" fill="#000000" transform="matrix(1.00, 0.00, -0.00, -1.00, 1146.1, 542.3)"> </text><text xml:space="preserve" font-family="Helvetica-Light,Helvetica" font-size="40.6" fill="#000000" transform="matrix(1.00, 0.00, -0.00, -1.00, 1157.4, 542.3)">l</text><text xml:space="preserve" font-family="Helvetica-Light,Helvetica" font-size="40.6" fill="#000000" transform="matrix(1.00, 0.00, -0.00, -1.00, 1166.4, 542.3)">i</text><text xml:space="preserve" font-family="Helvetica-Light,Helvetica" font-size="40.6" fill="#000000" transform="matrix(1.00, 0.00, -0.00, -1.00, 1175.4, 542.3)">k</text><text xml:space="preserve" font-family="Helvetica-Light,Helvetica" font-size="40.6" fill="#000000" transform="matrix(1.00, 0.00, -0.00, -1.00, 1195.7, 542.3)">e</text><text xml:space="preserve" font-family="Helvetica-Light,Helvetica" font-size="40.6" fill="#000000" transform="matrix(1.00, 0.00, -0.00, -1.00, 1218.2, 542.3)"> </text><text xml:space="preserve" font-family="Helvetica-Light,Helvetica" font-size="40.6" fill="#000000" transform="matrix(1.00, 0.00, -0.00, -1.00, 1229.5, 542.3)">e</text><text xml:space="preserve" font-family="Helvetica-Light,Helvetica" font-size="40.6" fill="#000000" transform="matrix(1.00, 0.00, -0.00, -1.00, 1252.0, 542.3)">n</text><text xml:space="preserve" font-family="Helvetica-Light,Helvetica" font-size="40.6" fill="#000000" transform="matrix(1.00, 0.00, -0.00, -1.00, 1274.6, 542.3)">u</text><text xml:space="preserve" font-family="Helvetica-Light,Helvetica" font-size="40.6" fill="#000000" transform="matrix(1.00, 0.00, -0.00, -1.00, 1297.1, 542.3)">m</text><text xml:space="preserve" font-family="Helvetica-Light,Helvetica" font-size="40.6" fill="#000000" transform="matrix(1.00, 0.00, -0.00, -1.00, 1330.9, 542.3)">s</text><text xml:space="preserve" font-family="Helvetica-Light,Helvetica" font-size="40.6" fill="#000000" transform="matrix(1.00, 0.00, -0.00, -1.00, 1351.2, 542.3)"> </text><text xml:space="preserve" font-family="Helvetica-Light,Helvetica" font-size="30.4" fill="#000000" transform="matrix(1.00, 0.00, -0.00, -1.00, 1001.1, 451.9)">•</text><text xml:space="preserve" font-family="Helvetica-Light,Helvetica" font-size="40.6" fill="#000000" transform="matrix(1.00, 0.00, -0.00, -1.00, 1040.2, 448.3)">T</text><text xml:space="preserve" font-family="Helvetica-Light,Helvetica" font-size="40.6" fill="#000000" transform="matrix(1.00, 0.00, -0.00, -1.00, 1062.7, 448.3)">i</text><text xml:space="preserve" font-family="Helvetica-Light,Helvetica" font-size="40.6" fill="#000000" transform="matrix(1.00, 0.00, -0.00, -1.00, 1071.7, 448.3)">e</text><text xml:space="preserve" font-family="Helvetica-Light,Helvetica" font-size="40.6" fill="#000000" transform="matrix(1.00, 0.00, -0.00, -1.00, 1094.3, 448.3)">r</text><text xml:space="preserve" font-family="Helvetica-Light,Helvetica" font-size="40.6" fill="#000000" transform="matrix(1.00, 0.00, -0.00, -1.00, 1107.0, 448.3)">e</text><text xml:space="preserve" font-family="Helvetica-Light,Helvetica" font-size="40.6" fill="#000000" transform="matrix(1.00, 0.00, -0.00, -1.00, 1129.6, 448.3)">d</text><text xml:space="preserve" font-family="Helvetica-Light,Helvetica" font-size="40.6" fill="#000000" transform="matrix(1.00, 0.00, -0.00, -1.00, 1154.4, 448.3)"> </text><text xml:space="preserve" font-family="Helvetica-Light,Helvetica" font-size="40.6" fill="#000000" transform="matrix(1.00, 0.00, -0.00, -1.00, 1165.6, 448.3)">e</text><text xml:space="preserve" font-family="Helvetica-Light,Helvetica" font-size="40.6" fill="#000000" transform="matrix(1.00, 0.00, -0.00, -1.00, 1188.2, 448.3)">r</text><text xml:space="preserve" font-family="Helvetica-Light,Helvetica" font-size="40.6" fill="#000000" transform="matrix(1.00, 0.00, -0.00, -1.00, 1201.7, 448.3)">r</text><text xml:space="preserve" font-family="Helvetica-Light,Helvetica" font-size="40.6" fill="#000000" transform="matrix(1.00, 0.00, -0.00, -1.00, 1214.5, 448.3)">o</text><text xml:space="preserve" font-family="Helvetica-Light,Helvetica" font-size="40.6" fill="#000000" transform="matrix(1.00, 0.00, -0.00, -1.00, 1237.0, 448.3)">r</text><text xml:space="preserve" font-family="Helvetica-Light,Helvetica" font-size="40.6" fill="#000000" transform="matrix(1.00, 0.00, -0.00, -1.00, 1248.3, 448.3)">-</text><text xml:space="preserve" font-family="Helvetica-Light,Helvetica" font-size="40.6" fill="#000000" transform="matrix(1.00, 0.00, -0.00, -1.00, 1261.8, 448.3)">h</text><text xml:space="preserve" font-family="Helvetica-Light,Helvetica" font-size="40.6" fill="#000000" transform="matrix(1.00, 0.00, -0.00, -1.00, 1284.4, 448.3)">a</text><text xml:space="preserve" font-family="Helvetica-Light,Helvetica" font-size="40.6" fill="#000000" transform="matrix(1.00, 0.00, -0.00, -1.00, 1306.9, 448.3)">n</text><text xml:space="preserve" font-family="Helvetica-Light,Helvetica" font-size="40.6" fill="#000000" transform="matrix(1.00, 0.00, -0.00, -1.00, 1329.5, 448.3)">d</text><text xml:space="preserve" font-family="Helvetica-Light,Helvetica" font-size="40.6" fill="#000000" transform="matrix(1.00, 0.00, -0.00, -1.00, 1354.2, 448.3)">l</text><text xml:space="preserve" font-family="Helvetica-Light,Helvetica" font-size="40.6" fill="#000000" transform="matrix(1.00, 0.00, -0.00, -1.00, 1363.3, 448.3)">i</text><text xml:space="preserve" font-family="Helvetica-Light,Helvetica" font-size="40.6" fill="#000000" transform="matrix(1.00, 0.00, -0.00, -1.00, 1372.3, 448.3)">n</text><text xml:space="preserve" font-family="Helvetica-Light,Helvetica" font-size="40.6" fill="#000000" transform="matrix(1.00, 0.00, -0.00, -1.00, 1394.8, 448.3)">g</text><text xml:space="preserve" font-family="Helvetica-Light,Helvetica" font-size="40.6" fill="#000000" transform="matrix(1.00, 0.00, -0.00, -1.00, 1419.6, 448.3)"> </text><text xml:space="preserve" font-family="Helvetica-Light,Helvetica" font-size="40.6" fill="#000000" transform="matrix(1.00, 0.00, -0.00, -1.00, 1430.9, 448.3)">s</text><text xml:space="preserve" font-family="Helvetica-Light,Helvetica" font-size="40.6" fill="#000000" transform="matrix(1.00, 0.00, -0.00, -1.00, 1451.1, 448.3)">c</text><text xml:space="preserve" font-family="Helvetica-Light,Helvetica" font-size="40.6" fill="#000000" transform="matrix(1.00, 0.00, -0.00, -1.00, 1473.7, 448.3)">h</text><text xml:space="preserve" font-family="Helvetica-Light,Helvetica" font-size="40.6" fill="#000000" transform="matrix(1.00, 0.00, -0.00, -1.00, 1496.2, 448.3)">e</text><text xml:space="preserve" font-family="Helvetica-Light,Helvetica" font-size="40.6" fill="#000000" transform="matrix(1.00, 0.00, -0.00, -1.00, 1518.8, 448.3)">m</text><text xml:space="preserve" font-family="Helvetica-Light,Helvetica" font-size="40.6" fill="#000000" transform="matrix(1.00, 0.00, -0.00, -1.00, 1552.6, 448.3)">e</text><text xml:space="preserve" font-family="Helvetica-Light,Helvetica" font-size="40.6" fill="#000000" transform="matrix(1.00, 0.00, -0.00, -1.00, 1575.1, 448.3)"> </text><text xml:space="preserve" font-family="Helvetica-Light,Helvetica" font-size="30.4" fill="#000000" transform="matrix(1.00, 0.00, -0.00, -1.00, 1001.1, 357.9)">•</text><text xml:space="preserve" font-family="Helvetica-Light,Helvetica" font-size="40.6" fill="#000000" transform="matrix(1.00, 0.00, -0.00, -1.00, 1040.2, 354.2)">C</text><text xml:space="preserve" font-family="Helvetica-Light,Helvetica" font-size="40.6" fill="#000000" transform="matrix(1.00, 0.00, -0.00, -1.00, 1069.4, 354.2)">o</text><text xml:space="preserve" font-family="Helvetica-Light,Helvetica" font-size="40.6" fill="#000000" transform="matrix(1.00, 0.00, -0.00, -1.00, 1092.0, 354.2)">n</text><text xml:space="preserve" font-family="Helvetica-Light,Helvetica" font-size="40.6" fill="#000000" transform="matrix(1.00, 0.00, -0.00, -1.00, 1114.5, 354.2)">t</text><text xml:space="preserve" font-family="Helvetica-Light,Helvetica" font-size="40.6" fill="#000000" transform="matrix(1.00, 0.00, -0.00, -1.00, 1125.8, 354.2)">r</text><text xml:space="preserve" font-family="Helvetica-Light,Helvetica" font-size="40.6" fill="#000000" transform="matrix(1.00, 0.00, -0.00, -1.00, 1138.6, 354.2)">o</text><text xml:space="preserve" font-family="Helvetica-Light,Helvetica" font-size="40.6" fill="#000000" transform="matrix(1.00, 0.00, -0.00, -1.00, 1161.1, 354.2)">l</text><text xml:space="preserve" font-family="Helvetica-Light,Helvetica" font-size="40.6" fill="#000000" transform="matrix(1.00, 0.00, -0.00, -1.00, 1170.1, 354.2)"> </text><text xml:space="preserve" font-family="Helvetica-Light,Helvetica" font-size="40.6" fill="#000000" transform="matrix(1.00, 0.00, -0.00, -1.00, 1181.4, 354.2)">a</text><text xml:space="preserve" font-family="Helvetica-Light,Helvetica" font-size="40.6" fill="#000000" transform="matrix(1.00, 0.00, -0.00, -1.00, 1204.0, 354.2)">b</text><text xml:space="preserve" font-family="Helvetica-Light,Helvetica" font-size="40.6" fill="#000000" transform="matrix(1.00, 0.00, -0.00, -1.00, 1228.8, 354.2)">o</text><text xml:space="preserve" font-family="Helvetica-Light,Helvetica" font-size="40.6" fill="#000000" transform="matrix(1.00, 0.00, -0.00, -1.00, 1251.3, 354.2)">u</text><text xml:space="preserve" font-family="Helvetica-Light,Helvetica" font-size="40.6" fill="#000000" transform="matrix(1.00, 0.00, -0.00, -1.00, 1273.9, 354.2)">t</text><text xml:space="preserve" font-family="Helvetica-Light,Helvetica" font-size="40.6" fill="#000000" transform="matrix(1.00, 0.00, -0.00, -1.00, 1285.1, 354.2)"> </text><text xml:space="preserve" font-family="Helvetica-Light,Helvetica" font-size="40.6" fill="#000000" transform="matrix(1.00, 0.00, -0.00, -1.00, 1296.4, 354.2)">h</text><text xml:space="preserve" font-family="Helvetica-Light,Helvetica" font-size="40.6" fill="#000000" transform="matrix(1.00, 0.00, -0.00, -1.00, 1319.0, 354.2)">e</text><text xml:space="preserve" font-family="Helvetica-Light,Helvetica" font-size="40.6" fill="#000000" transform="matrix(1.00, 0.00, -0.00, -1.00, 1341.5, 354.2)">a</text><text xml:space="preserve" font-family="Helvetica-Light,Helvetica" font-size="40.6" fill="#000000" transform="matrix(1.00, 0.00, -0.00, -1.00, 1364.1, 354.2)">p</text><text xml:space="preserve" font-family="Helvetica-Light,Helvetica" font-size="40.6" fill="#000000" transform="matrix(1.00, 0.00, -0.00, -1.00, 1388.8, 354.2)"> </text><text xml:space="preserve" font-family="Helvetica-Light,Helvetica" font-size="40.6" fill="#000000" transform="matrix(1.00, 0.00, -0.00, -1.00, 1400.1, 354.2)">v</text><text xml:space="preserve" font-family="Helvetica-Light,Helvetica" font-size="40.6" fill="#000000" transform="matrix(1.00, 0.00, -0.00, -1.00, 1420.4, 354.2)">s</text><text xml:space="preserve" font-family="Helvetica-Light,Helvetica" font-size="40.6" fill="#000000" transform="matrix(1.00, 0.00, -0.00, -1.00, 1440.7, 354.2)"> </text><text xml:space="preserve" font-family="Helvetica-Light,Helvetica" font-size="40.6" fill="#000000" transform="matrix(1.00, 0.00, -0.00, -1.00, 1452.0, 354.2)">s</text><text xml:space="preserve" font-family="Helvetica-Light,Helvetica" font-size="40.6" fill="#000000" transform="matrix(1.00, 0.00, -0.00, -1.00, 1472.2, 354.2)">t</text><text xml:space="preserve" font-family="Helvetica-Light,Helvetica" font-size="40.6" fill="#000000" transform="matrix(1.00, 0.00, -0.00, -1.00, 1483.5, 354.2)">a</text><text xml:space="preserve" font-family="Helvetica-Light,Helvetica" font-size="40.6" fill="#000000" transform="matrix(1.00, 0.00, -0.00, -1.00, 1506.1, 354.2)">c</text><text xml:space="preserve" font-family="Helvetica-Light,Helvetica" font-size="40.6" fill="#000000" transform="matrix(1.00, 0.00, -0.00, -1.00, 1528.6, 354.2)">k</text><text xml:space="preserve" font-family="Helvetica-Light,Helvetica" font-size="40.6" fill="#000000" transform="matrix(1.00, 0.00, -0.00, -1.00, 1548.9, 354.2)"> </text><text xml:space="preserve" font-family="Helvetica-Light,Helvetica" font-size="40.6" fill="#000000" transform="matrix(1.00, 0.00, -0.00, -1.00, 1560.2, 354.2)">a</text><text xml:space="preserve" font-family="Helvetica-Light,Helvetica" font-size="40.6" fill="#000000" transform="matrix(1.00, 0.00, -0.00, -1.00, 1582.7, 354.2)">l</text><text xml:space="preserve" font-family="Helvetica-Light,Helvetica" font-size="40.6" fill="#000000" transform="matrix(1.00, 0.00, -0.00, -1.00, 1591.7, 354.2)">l</text><text xml:space="preserve" font-family="Helvetica-Light,Helvetica" font-size="40.6" fill="#000000" transform="matrix(1.00, 0.00, -0.00, -1.00, 1600.7, 354.2)">o</text><text xml:space="preserve" font-family="Helvetica-Light,Helvetica" font-size="40.6" fill="#000000" transform="matrix(1.00, 0.00, -0.00, -1.00, 1623.3, 354.2)">c</text><text xml:space="preserve" font-family="Helvetica-Light,Helvetica" font-size="40.6" fill="#000000" transform="matrix(1.00, 0.00, -0.00, -1.00, 1645.8, 354.2)">a</text><text xml:space="preserve" font-family="Helvetica-Light,Helvetica" font-size="40.6" fill="#000000" transform="matrix(1.00, 0.00, -0.00, -1.00, 1668.4, 354.2)">t</text><text xml:space="preserve" font-family="Helvetica-Light,Helvetica" font-size="40.6" fill="#000000" transform="matrix(1.00, 0.00, -0.00, -1.00, 1679.7, 354.2)">i</text><text xml:space="preserve" font-family="Helvetica-Light,Helvetica" font-size="40.6" fill="#000000" transform="matrix(1.00, 0.00, -0.00, -1.00, 1688.7, 354.2)">o</text><text xml:space="preserve" font-family="Helvetica-Light,Helvetica" font-size="40.6" fill="#000000" transform="matrix(1.00, 0.00, -0.00, -1.00, 1711.2, 354.2)">n</text><text xml:space="preserve" font-family="Helvetica-Light,Helvetica" font-size="40.6" fill="#000000" transform="matrix(1.00, 0.00, -0.00, -1.00, 1733.8, 354.2)">s</text><text xml:space="preserve" font-family="Helvetica-Light,Helvetica" font-size="40.6" fill="#000000" transform="matrix(1.00, 0.00, -0.00, -1.00, 1754.0, 354.2)"> </text><text xml:space="preserve" font-family="Helvetica-Light,Helvetica" font-size="30.4" fill="#000000" transform="matrix(1.00, 0.00, -0.00, -1.00, 1001.1, 263.9)">•</text><text xml:space="preserve" font-family="Helvetica-Light,Helvetica" font-size="40.6" fill="#000000" transform="matrix(1.00, 0.00, -0.00, -1.00, 1040.2, 260.2)">I</text><text xml:space="preserve" font-family="Helvetica-Light,Helvetica" font-size="40.6" fill="#000000" transform="matrix(1.00, 0.00, -0.00, -1.00, 1051.4, 260.2)">m</text><text xml:space="preserve" font-family="Helvetica-Light,Helvetica" font-size="40.6" fill="#000000" transform="matrix(1.00, 0.00, -0.00, -1.00, 1085.2, 260.2)">m</text><text xml:space="preserve" font-family="Helvetica-Light,Helvetica" font-size="40.6" fill="#000000" transform="matrix(1.00, 0.00, -0.00, -1.00, 1119.0, 260.2)">u</text><text xml:space="preserve" font-family="Helvetica-Light,Helvetica" font-size="40.6" fill="#000000" transform="matrix(1.00, 0.00, -0.00, -1.00, 1141.6, 260.2)">t</text><text xml:space="preserve" font-family="Helvetica-Light,Helvetica" font-size="40.6" fill="#000000" transform="matrix(1.00, 0.00, -0.00, -1.00, 1152.8, 260.2)">a</text><text xml:space="preserve" font-family="Helvetica-Light,Helvetica" font-size="40.6" fill="#000000" transform="matrix(1.00, 0.00, -0.00, -1.00, 1175.4, 260.2)">b</text><text xml:space="preserve" font-family="Helvetica-Light,Helvetica" font-size="40.6" fill="#000000" transform="matrix(1.00, 0.00, -0.00, -1.00, 1200.2, 260.2)">l</text><text xml:space="preserve" font-family="Helvetica-Light,Helvetica" font-size="40.6" fill="#000000" transform="matrix(1.00, 0.00, -0.00, -1.00, 1209.2, 260.2)">e</text><text xml:space="preserve" font-family="Helvetica-Light,Helvetica" font-size="40.6" fill="#000000" transform="matrix(1.00, 0.00, -0.00, -1.00, 1231.7, 260.2)"> </text><text xml:space="preserve" font-family="Helvetica-Light,Helvetica" font-size="40.6" fill="#000000" transform="matrix(1.00, 0.00, -0.00, -1.00, 1243.0, 260.2)">b</text><text xml:space="preserve" font-family="Helvetica-Light,Helvetica" font-size="40.6" fill="#000000" transform="matrix(1.00, 0.00, -0.00, -1.00, 1267.8, 260.2)">y</text><text xml:space="preserve" font-family="Helvetica-Light,Helvetica" font-size="40.6" fill="#000000" transform="matrix(1.00, 0.00, -0.00, -1.00, 1288.1, 260.2)"> </text><text xml:space="preserve" font-family="Helvetica-Light,Helvetica" font-size="40.6" fill="#000000" transform="matrix(1.00, 0.00, -0.00, -1.00, 1299.3, 260.2)">d</text><text xml:space="preserve" font-family="Helvetica-Light,Helvetica" font-size="40.6" fill="#000000" transform="matrix(1.00, 0.00, -0.00, -1.00, 1324.1, 260.2)">e</text><text xml:space="preserve" font-family="Helvetica-Light,Helvetica" font-size="40.6" fill="#000000" transform="matrix(1.00, 0.00, -0.00, -1.00, 1346.7, 260.2)">f</text><text xml:space="preserve" font-family="Helvetica-Light,Helvetica" font-size="40.6" fill="#000000" transform="matrix(1.00, 0.00, -0.00, -1.00, 1357.9, 260.2)">a</text><text xml:space="preserve" font-family="Helvetica-Light,Helvetica" font-size="40.6" fill="#000000" transform="matrix(1.00, 0.00, -0.00, -1.00, 1380.5, 260.2)">u</text><text xml:space="preserve" font-family="Helvetica-Light,Helvetica" font-size="40.6" fill="#000000" transform="matrix(1.00, 0.00, -0.00, -1.00, 1403.0, 260.2)">l</text><text xml:space="preserve" font-family="Helvetica-Light,Helvetica" font-size="40.6" fill="#000000" transform="matrix(1.00, 0.00, -0.00, -1.00, 1412.0, 260.2)">t</text><text xml:space="preserve" font-family="Helvetica-Light,Helvetica" font-size="40.6" fill="#000000" transform="matrix(1.00, 0.00, -0.00, -1.00, 1423.3, 260.2)"> </text><text xml:space="preserve" font-family="Helvetica-Light,Helvetica" font-size="40.6" fill="#000000" transform="matrix(1.00, 0.00, -0.00, -1.00, 1434.6, 260.2)"> </text><text xml:space="preserve" font-family="Helvetica-Light,Helvetica" font-size="30.4" fill="#000000" transform="matrix(1.00, 0.00, -0.00, -1.00, 1001.1, 169.9)">•</text><text xml:space="preserve" font-family="Helvetica-Light,Helvetica" font-size="40.6" fill="#000000" transform="matrix(1.00, 0.00, -0.00, -1.00, 1040.2, 166.2)">M</text><text xml:space="preserve" font-family="Helvetica-Light,Helvetica" font-size="40.6" fill="#000000" transform="matrix(1.00, 0.00, -0.00, -1.00, 1073.9, 166.2)">o</text><text xml:space="preserve" font-family="Helvetica-Light,Helvetica" font-size="40.6" fill="#000000" transform="matrix(1.00, 0.00, -0.00, -1.00, 1096.5, 166.2)">d</text><text xml:space="preserve" font-family="Helvetica-Light,Helvetica" font-size="40.6" fill="#000000" transform="matrix(1.00, 0.00, -0.00, -1.00, 1121.3, 166.2)">u</text><text xml:space="preserve" font-family="Helvetica-Light,Helvetica" font-size="40.6" fill="#000000" transform="matrix(1.00, 0.00, -0.00, -1.00, 1143.8, 166.2)">l</text><text xml:space="preserve" font-family="Helvetica-Light,Helvetica" font-size="40.6" fill="#000000" transform="matrix(1.00, 0.00, -0.00, -1.00, 1152.8, 166.2)">e</text><text xml:space="preserve" font-family="Helvetica-Light,Helvetica" font-size="40.6" fill="#000000" transform="matrix(1.00, 0.00, -0.00, -1.00, 1175.4, 166.2)">s</text></g></svg>