<?xml version="1.0" encoding="UTF-8" standalone="no"?><svg xmlns="http://www.w3.org/2000/svg" xmlns:xlink="http://www.w3.org/1999/xlink" clip-rule="evenodd" stroke-miterlimit="10" viewBox="0 0 1920 1080"><desc>SVG generated by Keynote</desc><defs></defs><g transform="matrix(1.00, 0.00, -0.00, -1.00, 0.0, 1080.0)"><path d="M 0.0 1080.0 L 1920.0 1080.0 L 1920.0 0.0 L 0.0 0.0 Z M 0.0 1080.0 " fill="#FEFFFF"></path><text xml:space="preserve" font-family="Helvetica-Light,Helvetica" font-size="112.0" fill="#000000" transform="matrix(1.00, 0.00, -0.00, -1.00, 437.2, 873.8)">B</text><text xml:space="preserve" font-family="Helvetica-Light,Helvetica" font-size="112.0" fill="#000000" transform="matrix(1.00, 0.00, -0.00, -1.00, 511.9, 873.8)">u</text><text xml:space="preserve" font-family="Helvetica-Light,Helvetica" font-size="112.0" fill="#000000" transform="matrix(1.00, 0.00, -0.00, -1.00, 574.2, 873.8)">i</text><text xml:space="preserve" font-family="Helvetica-Light,Helvetica" font-size="112.0" fill="#000000" transform="matrix(1.00, 0.00, -0.00, -1.00, 599.0, 873.8)">l</text><text xml:space="preserve" font-family="Helvetica-Light,Helvetica" font-size="112.0" fill="#000000" transform="matrix(1.00, 0.00, -0.00, -1.00, 623.9, 873.8)">d</text><text xml:space="preserve" font-family="Helvetica-Light,Helvetica" font-size="112.0" fill="#000000" transform="matrix(1.00, 0.00, -0.00, -1.00, 692.3, 873.8)">i</text><text xml:space="preserve" font-family="Helvetica-Light,Helvetica" font-size="112.0" fill="#000000" transform="matrix(1.00, 0.00, -0.00, -1.00, 717.2, 873.8)">n</text><text xml:space="preserve" font-family="Helvetica-Light,Helvetica" font-size="112.0" fill="#000000" transform="matrix(1.00, 0.00, -0.00, -1.00, 779.5, 873.8)">g</text><text xml:space="preserve" font-family="Helvetica-Light,Helvetica" font-size="112.0" fill="#000000" transform="matrix(1.00, 0.00, -0.00, -1.00, 847.9, 873.8)"> </text><text xml:space="preserve" font-family="Helvetica-Light,Helvetica" font-size="112.0" fill="#000000" transform="matrix(1.00, 0.00, -0.00, -1.00, 879.0, 873.8)">a</text><text xml:space="preserve" font-family="Helvetica-Light,Helvetica" font-size="112.0" fill="#000000" transform="matrix(1.00, 0.00, -0.00, -1.00, 941.3, 873.8)">n</text><text xml:space="preserve" font-family="Helvetica-Light,Helvetica" font-size="112.0" fill="#000000" transform="matrix(1.00, 0.00, -0.00, -1.00, 1003.6, 873.8)">d</text><text xml:space="preserve" font-family="Helvetica-Light,Helvetica" font-size="112.0" fill="#000000" transform="matrix(1.00, 0.00, -0.00, -1.00, 1072.0, 873.8)"> </text><text xml:space="preserve" font-family="Helvetica-Light,Helvetica" font-size="112.0" fill="#000000" transform="matrix(1.00, 0.00, -0.00, -1.00, 1103.1, 873.8)">r</text><text xml:space="preserve" font-family="Helvetica-Light,Helvetica" font-size="112.0" fill="#000000" transform="matrix(1.00, 0.00, -0.00, -1.00, 1140.4, 873.8)">u</text><text xml:space="preserve" font-family="Helvetica-Light,Helvetica" font-size="112.0" fill="#000000" transform="matrix(1.00, 0.00, -0.00, -1.00, 1202.7, 873.8)">n</text><text xml:space="preserve" font-family="Helvetica-Light,Helvetica" font-size="112.0" fill="#000000" transform="matrix(1.00, 0.00, -0.00, -1.00, 1265.0, 873.8)">n</text><text xml:space="preserve" font-family="Helvetica-Light,Helvetica" font-size="112.0" fill="#000000" transform="matrix(1.00, 0.00, -0.00, -1.00, 1327.2, 873.8)">i</text><text xml:space="preserve" font-family="Helvetica-Light,Helvetica" font-size="112.0" fill="#000000" transform="matrix(1.00, 0.00, -0.00, -1.00, 1352.1, 873.8)">n</text><text xml:space="preserve" font-family="Helvetica-Light,Helvetica" font-size="112.0" fill="#000000" transform="matrix(1.00, 0.00, -0.00, -1.00, 1414.4, 873.8)">g</text><image xlink:href="../../5ACD218B-358D-488F-B616-4C94FF091946/assets/07B395DA58915CE6E115DB895920D4D8.png" width="1682.00" height="753.00" transform="matrix(1.00, 0.00, -0.00, -1.00, 119.0, 837.0)" opacity="0.50"></image><path d="M 133.0 825.0 L 1787.0 825.0 L 1787.0 100.0 L 133.0 100.0 Z M 133.0 825.0 " fill="#FEFFFE"></path><image xlink:href="../../5ACD218B-358D-488F-B616-4C94FF091946/assets/18D564B8FBACB674C707A16ACBF1C413.png" width="1676.00" height="747.00" transform="matrix(1.00, 0.00, -0.00, 1.00, 122.0, 89.0)"></image><g><clipPath id="clip0x6080010b2840"><path d="M 128.9 101.0 L 1791.1 101.0 L 1791.1 829.1 L 128.9 829.1 Z M 128.9 101.0 "></path></clipPath><g clip-path="url(#clip0x6080010b2840)"><text xml:space="preserve" font-family="PragmataPro,PragmataPro" font-size="32.0" fill="#4E8F00" transform="matrix(1.00, 0.00, -0.00, -1.00, 138.0, 789.9)">$</text><text xml:space="preserve" font-family="PragmataPro,PragmataPro" font-size="32.0" fill="#4E8F00" transform="matrix(1.00, 0.00, -0.00, -1.00, 154.5, 789.9)"> </text><text xml:space="preserve" font-family="PragmataPro,PragmataPro" font-size="32.0" fill="#000000" transform="matrix(1.00, 0.00, -0.00, -1.00, 171.1, 789.9)">c</text><text xml:space="preserve" font-family="PragmataPro,PragmataPro" font-size="32.0" fill="#000000" transform="matrix(1.00, 0.00, -0.00, -1.00, 187.7, 789.9)">a</text><text xml:space="preserve" font-family="PragmataPro,PragmataPro" font-size="32.0" fill="#000000" transform="matrix(1.00, 0.00, -0.00, -1.00, 204.2, 789.9)">r</text><text xml:space="preserve" font-family="PragmataPro,PragmataPro" font-size="32.0" fill="#000000" transform="matrix(1.00, 0.00, -0.00, -1.00, 220.8, 789.9)">g</text><text xml:space="preserve" font-family="PragmataPro,PragmataPro" font-size="32.0" fill="#000000" transform="matrix(1.00, 0.00, -0.00, -1.00, 237.3, 789.9)">o</text><text xml:space="preserve" font-family="PragmataPro,PragmataPro" font-size="32.0" fill="#000000" transform="matrix(1.00, 0.00, -0.00, -1.00, 253.9, 789.9)"> </text><text xml:space="preserve" font-family="PragmataPro,PragmataPro" font-size="32.0" fill="#000000" transform="matrix(1.00, 0.00, -0.00, -1.00, 270.4, 789.9)">b</text><text xml:space="preserve" font-family="PragmataPro,PragmataPro" font-size="32.0" fill="#000000" transform="matrix(1.00, 0.00, -0.00, -1.00, 287.0, 789.9)">u</text><text xml:space="preserve" font-family="PragmataPro,PragmataPro" font-size="32.0" fill="#000000" transform="matrix(1.00, 0.00, -0.00, -1.00, 303.5, 789.9)">i</text><text xml:space="preserve" font-family="PragmataPro,PragmataPro" font-size="32.0" fill="#000000" transform="matrix(1.00, 0.00, -0.00, -1.00, 320.1, 789.9)">l</text><text xml:space="preserve" font-family="PragmataPro,PragmataPro" font-size="32.0" fill="#000000" transform="matrix(1.00, 0.00, -0.00, -1.00, 336.6, 789.9)">d</text><text xml:space="preserve" font-family="PragmataPro,PragmataPro" font-size="32.0" fill="#000000" transform="matrix(1.00, 0.00, -0.00, -1.00, 353.3, 789.9)"> </text><text xml:space="preserve" font-family="PragmataPro,PragmataPro" font-size="32.0" fill="#4E8F00" transform="matrix(1.00, 0.00, -0.00, -1.00, 138.0, 753.9)">$</text><text xml:space="preserve" font-family="PragmataPro,PragmataPro" font-size="32.0" fill="#4E8F00" transform="matrix(1.00, 0.00, -0.00, -1.00, 154.5, 753.9)"> </text><text xml:space="preserve" font-family="PragmataPro,PragmataPro" font-size="32.0" fill="#000000" transform="matrix(1.00, 0.00, -0.00, -1.00, 171.1, 753.9)">c</text><text xml:space="preserve" font-family="PragmataPro,PragmataPro" font-size="32.0" fill="#000000" transform="matrix(1.00, 0.00, -0.00, -1.00, 187.7, 753.9)">a</text><text xml:space="preserve" font-family="PragmataPro,PragmataPro" font-size="32.0" fill="#000000" transform="matrix(1.00, 0.00, -0.00, -1.00, 204.2, 753.9)">r</text><text xml:space="preserve" font-family="PragmataPro,PragmataPro" font-size="32.0" fill="#000000" transform="matrix(1.00, 0.00, -0.00, -1.00, 220.8, 753.9)">g</text><text xml:space="preserve" font-family="PragmataPro,PragmataPro" font-size="32.0" fill="#000000" transform="matrix(1.00, 0.00, -0.00, -1.00, 237.3, 753.9)">o</text><text xml:space="preserve" font-family="PragmataPro,PragmataPro" font-size="32.0" fill="#000000" transform="matrix(1.00, 0.00, -0.00, -1.00, 253.9, 753.9)"> </text><text xml:space="preserve" font-family="PragmataPro,PragmataPro" font-size="32.0" fill="#000000" transform="matrix(1.00, 0.00, -0.00, -1.00, 270.4, 753.9)">r</text><text xml:space="preserve" font-family="PragmataPro,PragmataPro" font-size="32.0" fill="#000000" transform="matrix(1.00, 0.00, -0.00, -1.00, 287.0, 753.9)">u</text><text xml:space="preserve" font-family="PragmataPro,PragmataPro" font-size="32.0" fill="#000000" transform="matrix(1.00, 0.00, -0.00, -1.00, 303.5, 753.9)">n</text><text xml:space="preserve" font-family="PragmataPro,PragmataPro" font-size="32.0" fill="#000000" transform="matrix(1.00, 0.00, -0.00, -1.00, 320.2, 753.9)"> </text><text xml:space="preserve" font-family="PragmataPro,PragmataPro" font-size="32.0" fill="#4E8F00" transform="matrix(1.00, 0.00, -0.00, -1.00, 138.0, 717.9)">$</text><text xml:space="preserve" font-family="PragmataPro,PragmataPro" font-size="32.0" fill="#4E8F00" transform="matrix(1.00, 0.00, -0.00, -1.00, 154.5, 717.9)"> </text><text xml:space="preserve" font-family="PragmataPro,PragmataPro" font-size="32.0" fill="#000000" transform="matrix(1.00, 0.00, -0.00, -1.00, 171.1, 717.9)">c</text><text xml:space="preserve" font-family="PragmataPro,PragmataPro" font-size="32.0" fill="#000000" transform="matrix(1.00, 0.00, -0.00, -1.00, 187.7, 717.9)">a</text><text xml:space="preserve" font-family="PragmataPro,PragmataPro" font-size="32.0" fill="#000000" transform="matrix(1.00, 0.00, -0.00, -1.00, 204.2, 717.9)">r</text><text xml:space="preserve" font-family="PragmataPro,PragmataPro" font-size="32.0" fill="#000000" transform="matrix(1.00, 0.00, -0.00, -1.00, 220.8, 717.9)">g</text><text xml:space="preserve" font-family="PragmataPro,PragmataPro" font-size="32.0" fill="#000000" transform="matrix(1.00, 0.00, -0.00, -1.00, 237.3, 717.9)">o</text><text xml:space="preserve" font-family="PragmataPro,PragmataPro" font-size="32.0" fill="#000000" transform="matrix(1.00, 0.00, -0.00, -1.00, 253.9, 717.9)"> </text><text xml:space="preserve" font-family="PragmataPro,PragmataPro" font-size="32.0" fill="#000000" transform="matrix(1.00, 0.00, -0.00, -1.00, 270.4, 717.9)">t</text><text xml:space="preserve" font-family="PragmataPro,PragmataPro" font-size="32.0" fill="#000000" transform="matrix(1.00, 0.00, -0.00, -1.00, 287.0, 717.9)">e</text><text xml:space="preserve" font-family="PragmataPro,PragmataPro" font-size="32.0" fill="#000000" transform="matrix(1.00, 0.00, -0.00, -1.00, 303.5, 717.9)">s</text><text xml:space="preserve" font-family="PragmataPro,PragmataPro" font-size="32.0" fill="#000000" transform="matrix(1.00, 0.00, -0.00, -1.00, 320.1, 717.9)">t</text></g></g></g></svg>