<?xml version="1.0" encoding="UTF-8" standalone="no"?><svg xmlns="http://www.w3.org/2000/svg" xmlns:xlink="http://www.w3.org/1999/xlink" clip-rule="evenodd" stroke-miterlimit="10" viewBox="0 0 1920 1080"><desc>SVG generated by Keynote</desc><defs></defs><g transform="matrix(1.00, 0.00, -0.00, -1.00, 0.0, 1080.0)"><path d="M 0.0 1080.0 L 1920.0 1080.0 L 1920.0 0.0 L 0.0 0.0 Z M 0.0 1080.0 " fill="#FEFFFF"></path><text xml:space="preserve" font-family="Helvetica-Light,Helvetica" font-size="112.0" fill="#000000" transform="matrix(1.00, 0.00, -0.00, -1.00, 620.8, 873.8)">D</text><text xml:space="preserve" font-family="Helvetica-Light,Helvetica" font-size="112.0" fill="#000000" transform="matrix(1.00, 0.00, -0.00, -1.00, 701.7, 873.8)">e</text><text xml:space="preserve" font-family="Helvetica-Light,Helvetica" font-size="112.0" fill="#000000" transform="matrix(1.00, 0.00, -0.00, -1.00, 763.9, 873.8)">s</text><text xml:space="preserve" font-family="Helvetica-Light,Helvetica" font-size="112.0" fill="#000000" transform="matrix(1.00, 0.00, -0.00, -1.00, 819.9, 873.8)">i</text><text xml:space="preserve" font-family="Helvetica-Light,Helvetica" font-size="112.0" fill="#000000" transform="matrix(1.00, 0.00, -0.00, -1.00, 844.8, 873.8)">g</text><text xml:space="preserve" font-family="Helvetica-Light,Helvetica" font-size="112.0" fill="#000000" transform="matrix(1.00, 0.00, -0.00, -1.00, 913.2, 873.8)">n</text><text xml:space="preserve" font-family="Helvetica-Light,Helvetica" font-size="112.0" fill="#000000" transform="matrix(1.00, 0.00, -0.00, -1.00, 975.5, 873.8)"> </text><text xml:space="preserve" font-family="Helvetica-Light,Helvetica" font-size="112.0" fill="#000000" transform="matrix(1.00, 0.00, -0.00, -1.00, 1006.6, 873.8)">G</text><text xml:space="preserve" font-family="Helvetica-Light,Helvetica" font-size="112.0" fill="#000000" transform="matrix(1.00, 0.00, -0.00, -1.00, 1093.8, 873.8)">o</text><text xml:space="preserve" font-family="Helvetica-Light,Helvetica" font-size="112.0" fill="#000000" transform="matrix(1.00, 0.00, -0.00, -1.00, 1156.1, 873.8)">a</text><text xml:space="preserve" font-family="Helvetica-Light,Helvetica" font-size="112.0" fill="#000000" transform="matrix(1.00, 0.00, -0.00, -1.00, 1218.3, 873.8)">l</text><text xml:space="preserve" font-family="Helvetica-Light,Helvetica" font-size="112.0" fill="#000000" transform="matrix(1.00, 0.00, -0.00, -1.00, 1243.2, 873.8)">s</text><text xml:space="preserve" font-family="Helvetica-Light,Helvetica" font-size="35.5" fill="#000000" transform="matrix(1.00, 0.00, -0.00, -1.00, 137.0, 779.2)">•</text><text xml:space="preserve" font-family="Helvetica-Light,Helvetica" font-size="47.3" fill="#000000" transform="matrix(1.00, 0.00, -0.00, -1.00, 182.5, 774.9)">Z</text><text xml:space="preserve" font-family="Helvetica-Light,Helvetica" font-size="47.3" fill="#000000" transform="matrix(1.00, 0.00, -0.00, -1.00, 211.4, 774.9)">e</text><text xml:space="preserve" font-family="Helvetica-Light,Helvetica" font-size="47.3" fill="#000000" transform="matrix(1.00, 0.00, -0.00, -1.00, 237.7, 774.9)">r</text><text xml:space="preserve" font-family="Helvetica-Light,Helvetica" font-size="47.3" fill="#000000" transform="matrix(1.00, 0.00, -0.00, -1.00, 252.6, 774.9)">o</text><text xml:space="preserve" font-family="Helvetica-Light,Helvetica" font-size="47.3" fill="#000000" transform="matrix(1.00, 0.00, -0.00, -1.00, 278.9, 774.9)">-</text><text xml:space="preserve" font-family="Helvetica-Light,Helvetica" font-size="47.3" fill="#000000" transform="matrix(1.00, 0.00, -0.00, -1.00, 294.7, 774.9)">c</text><text xml:space="preserve" font-family="Helvetica-Light,Helvetica" font-size="47.3" fill="#000000" transform="matrix(1.00, 0.00, -0.00, -1.00, 321.0, 774.9)">o</text><text xml:space="preserve" font-family="Helvetica-Light,Helvetica" font-size="47.3" fill="#000000" transform="matrix(1.00, 0.00, -0.00, -1.00, 347.3, 774.9)">s</text><text xml:space="preserve" font-family="Helvetica-Light,Helvetica" font-size="47.3" fill="#000000" transform="matrix(1.00, 0.00, -0.00, -1.00, 371.0, 774.9)">t</text><text xml:space="preserve" font-family="Helvetica-Light,Helvetica" font-size="47.3" fill="#000000" transform="matrix(1.00, 0.00, -0.00, -1.00, 384.1, 774.9)"> </text><text xml:space="preserve" font-family="Helvetica-Light,Helvetica" font-size="47.3" fill="#000000" transform="matrix(1.00, 0.00, -0.00, -1.00, 397.3, 774.9)">a</text><text xml:space="preserve" font-family="Helvetica-Light,Helvetica" font-size="47.3" fill="#000000" transform="matrix(1.00, 0.00, -0.00, -1.00, 423.6, 774.9)">b</text><text xml:space="preserve" font-family="Helvetica-Light,Helvetica" font-size="47.3" fill="#000000" transform="matrix(1.00, 0.00, -0.00, -1.00, 452.5, 774.9)">s</text><text xml:space="preserve" font-family="Helvetica-Light,Helvetica" font-size="47.3" fill="#000000" transform="matrix(1.00, 0.00, -0.00, -1.00, 476.2, 774.9)">t</text><text xml:space="preserve" font-family="Helvetica-Light,Helvetica" font-size="47.3" fill="#000000" transform="matrix(1.00, 0.00, -0.00, -1.00, 489.3, 774.9)">r</text><text xml:space="preserve" font-family="Helvetica-Light,Helvetica" font-size="47.3" fill="#000000" transform="matrix(1.00, 0.00, -0.00, -1.00, 505.1, 774.9)">a</text><text xml:space="preserve" font-family="Helvetica-Light,Helvetica" font-size="47.3" fill="#000000" transform="matrix(1.00, 0.00, -0.00, -1.00, 531.4, 774.9)">c</text><text xml:space="preserve" font-family="Helvetica-Light,Helvetica" font-size="47.3" fill="#000000" transform="matrix(1.00, 0.00, -0.00, -1.00, 557.7, 774.9)">t</text><text xml:space="preserve" font-family="Helvetica-Light,Helvetica" font-size="47.3" fill="#000000" transform="matrix(1.00, 0.00, -0.00, -1.00, 570.9, 774.9)">i</text><text xml:space="preserve" font-family="Helvetica-Light,Helvetica" font-size="47.3" fill="#000000" transform="matrix(1.00, 0.00, -0.00, -1.00, 581.4, 774.9)">o</text><text xml:space="preserve" font-family="Helvetica-Light,Helvetica" font-size="47.3" fill="#000000" transform="matrix(1.00, 0.00, -0.00, -1.00, 607.7, 774.9)">n</text><text xml:space="preserve" font-family="Helvetica-Light,Helvetica" font-size="47.3" fill="#000000" transform="matrix(1.00, 0.00, -0.00, -1.00, 634.0, 774.9)">s</text><text xml:space="preserve" font-family="Helvetica-Light,Helvetica" font-size="47.3" fill="#000000" transform="matrix(1.00, 0.00, -0.00, -1.00, 657.6, 774.9)"> </text><text xml:space="preserve" font-family="Helvetica-Light,Helvetica" font-size="35.5" fill="#000000" transform="matrix(1.00, 0.00, -0.00, -1.00, 137.0, 669.5)">•</text><text xml:space="preserve" font-family="Helvetica-Light,Helvetica" font-size="47.3" fill="#000000" transform="matrix(1.00, 0.00, -0.00, -1.00, 182.5, 665.2)">G</text><text xml:space="preserve" font-family="Helvetica-Light,Helvetica" font-size="47.3" fill="#000000" transform="matrix(1.00, 0.00, -0.00, -1.00, 219.3, 665.2)">u</text><text xml:space="preserve" font-family="Helvetica-Light,Helvetica" font-size="47.3" fill="#000000" transform="matrix(1.00, 0.00, -0.00, -1.00, 245.6, 665.2)">a</text><text xml:space="preserve" font-family="Helvetica-Light,Helvetica" font-size="47.3" fill="#000000" transform="matrix(1.00, 0.00, -0.00, -1.00, 271.9, 665.2)">r</text><text xml:space="preserve" font-family="Helvetica-Light,Helvetica" font-size="47.3" fill="#000000" transform="matrix(1.00, 0.00, -0.00, -1.00, 287.7, 665.2)">a</text><text xml:space="preserve" font-family="Helvetica-Light,Helvetica" font-size="47.3" fill="#000000" transform="matrix(1.00, 0.00, -0.00, -1.00, 314.0, 665.2)">n</text><text xml:space="preserve" font-family="Helvetica-Light,Helvetica" font-size="47.3" fill="#000000" transform="matrix(1.00, 0.00, -0.00, -1.00, 340.3, 665.2)">t</text><text xml:space="preserve" font-family="Helvetica-Light,Helvetica" font-size="47.3" fill="#000000" transform="matrix(1.00, 0.00, -0.00, -1.00, 353.5, 665.2)">e</text><text xml:space="preserve" font-family="Helvetica-Light,Helvetica" font-size="47.3" fill="#000000" transform="matrix(1.00, 0.00, -0.00, -1.00, 379.8, 665.2)">e</text><text xml:space="preserve" font-family="Helvetica-Light,Helvetica" font-size="47.3" fill="#000000" transform="matrix(1.00, 0.00, -0.00, -1.00, 406.1, 665.2)">d</text><text xml:space="preserve" font-family="Helvetica-Light,Helvetica" font-size="47.3" fill="#000000" transform="matrix(1.00, 0.00, -0.00, -1.00, 435.0, 665.2)"> </text><text xml:space="preserve" font-family="Helvetica-Light,Helvetica" font-size="47.3" fill="#000000" transform="matrix(1.00, 0.00, -0.00, -1.00, 448.2, 665.2)">m</text><text xml:space="preserve" font-family="Helvetica-Light,Helvetica" font-size="47.3" fill="#000000" transform="matrix(1.00, 0.00, -0.00, -1.00, 487.6, 665.2)">e</text><text xml:space="preserve" font-family="Helvetica-Light,Helvetica" font-size="47.3" fill="#000000" transform="matrix(1.00, 0.00, -0.00, -1.00, 513.9, 665.2)">m</text><text xml:space="preserve" font-family="Helvetica-Light,Helvetica" font-size="47.3" fill="#000000" transform="matrix(1.00, 0.00, -0.00, -1.00, 553.3, 665.2)">o</text><text xml:space="preserve" font-family="Helvetica-Light,Helvetica" font-size="47.3" fill="#000000" transform="matrix(1.00, 0.00, -0.00, -1.00, 579.6, 665.2)">r</text><text xml:space="preserve" font-family="Helvetica-Light,Helvetica" font-size="47.3" fill="#000000" transform="matrix(1.00, 0.00, -0.00, -1.00, 596.2, 665.2)">y</text><text xml:space="preserve" font-family="Helvetica-Light,Helvetica" font-size="47.3" fill="#000000" transform="matrix(1.00, 0.00, -0.00, -1.00, 619.9, 665.2)"> </text><text xml:space="preserve" font-family="Helvetica-Light,Helvetica" font-size="47.3" fill="#000000" transform="matrix(1.00, 0.00, -0.00, -1.00, 633.0, 665.2)">s</text><text xml:space="preserve" font-family="Helvetica-Light,Helvetica" font-size="47.3" fill="#000000" transform="matrix(1.00, 0.00, -0.00, -1.00, 656.7, 665.2)">a</text><text xml:space="preserve" font-family="Helvetica-Light,Helvetica" font-size="47.3" fill="#000000" transform="matrix(1.00, 0.00, -0.00, -1.00, 683.0, 665.2)">f</text><text xml:space="preserve" font-family="Helvetica-Light,Helvetica" font-size="47.3" fill="#000000" transform="matrix(1.00, 0.00, -0.00, -1.00, 696.2, 665.2)">e</text><text xml:space="preserve" font-family="Helvetica-Light,Helvetica" font-size="47.3" fill="#000000" transform="matrix(1.00, 0.00, -0.00, -1.00, 722.5, 665.2)">t</text><text xml:space="preserve" font-family="Helvetica-Light,Helvetica" font-size="47.3" fill="#000000" transform="matrix(1.00, 0.00, -0.00, -1.00, 735.6, 665.2)">y</text><text xml:space="preserve" font-family="Helvetica-Light,Helvetica" font-size="47.3" fill="#000000" transform="matrix(1.00, 0.00, -0.00, -1.00, 759.3, 665.2)"> </text><text xml:space="preserve" font-family="Helvetica-Light,Helvetica" font-size="35.5" fill="#000000" transform="matrix(1.00, 0.00, -0.00, -1.00, 137.0, 559.8)">•</text><text xml:space="preserve" font-family="Helvetica-Light,Helvetica" font-size="47.3" fill="#000000" transform="matrix(1.00, 0.00, -0.00, -1.00, 182.5, 555.5)">T</text><text xml:space="preserve" font-family="Helvetica-Light,Helvetica" font-size="47.3" fill="#000000" transform="matrix(1.00, 0.00, -0.00, -1.00, 208.8, 555.5)">h</text><text xml:space="preserve" font-family="Helvetica-Light,Helvetica" font-size="47.3" fill="#000000" transform="matrix(1.00, 0.00, -0.00, -1.00, 235.1, 555.5)">r</text><text xml:space="preserve" font-family="Helvetica-Light,Helvetica" font-size="47.3" fill="#000000" transform="matrix(1.00, 0.00, -0.00, -1.00, 250.0, 555.5)">e</text><text xml:space="preserve" font-family="Helvetica-Light,Helvetica" font-size="47.3" fill="#000000" transform="matrix(1.00, 0.00, -0.00, -1.00, 276.3, 555.5)">a</text><text xml:space="preserve" font-family="Helvetica-Light,Helvetica" font-size="47.3" fill="#000000" transform="matrix(1.00, 0.00, -0.00, -1.00, 302.6, 555.5)">d</text><text xml:space="preserve" font-family="Helvetica-Light,Helvetica" font-size="47.3" fill="#000000" transform="matrix(1.00, 0.00, -0.00, -1.00, 331.6, 555.5)">s</text><text xml:space="preserve" font-family="Helvetica-Light,Helvetica" font-size="47.3" fill="#000000" transform="matrix(1.00, 0.00, -0.00, -1.00, 355.2, 555.5)"> </text><text xml:space="preserve" font-family="Helvetica-Light,Helvetica" font-size="47.3" fill="#000000" transform="matrix(1.00, 0.00, -0.00, -1.00, 368.4, 555.5)">w</text><text xml:space="preserve" font-family="Helvetica-Light,Helvetica" font-size="47.3" fill="#000000" transform="matrix(1.00, 0.00, -0.00, -1.00, 402.5, 555.5)">i</text><text xml:space="preserve" font-family="Helvetica-Light,Helvetica" font-size="47.3" fill="#000000" transform="matrix(1.00, 0.00, -0.00, -1.00, 413.0, 555.5)">t</text><text xml:space="preserve" font-family="Helvetica-Light,Helvetica" font-size="47.3" fill="#000000" transform="matrix(1.00, 0.00, -0.00, -1.00, 426.2, 555.5)">h</text><text xml:space="preserve" font-family="Helvetica-Light,Helvetica" font-size="47.3" fill="#000000" transform="matrix(1.00, 0.00, -0.00, -1.00, 452.5, 555.5)">o</text><text xml:space="preserve" font-family="Helvetica-Light,Helvetica" font-size="47.3" fill="#000000" transform="matrix(1.00, 0.00, -0.00, -1.00, 478.8, 555.5)">u</text><text xml:space="preserve" font-family="Helvetica-Light,Helvetica" font-size="47.3" fill="#000000" transform="matrix(1.00, 0.00, -0.00, -1.00, 505.1, 555.5)">t</text><text xml:space="preserve" font-family="Helvetica-Light,Helvetica" font-size="47.3" fill="#000000" transform="matrix(1.00, 0.00, -0.00, -1.00, 518.3, 555.5)"> </text><text xml:space="preserve" font-family="Helvetica-Light,Helvetica" font-size="47.3" fill="#000000" transform="matrix(1.00, 0.00, -0.00, -1.00, 531.4, 555.5)">d</text><text xml:space="preserve" font-family="Helvetica-Light,Helvetica" font-size="47.3" fill="#000000" transform="matrix(1.00, 0.00, -0.00, -1.00, 560.4, 555.5)">a</text><text xml:space="preserve" font-family="Helvetica-Light,Helvetica" font-size="47.3" fill="#000000" transform="matrix(1.00, 0.00, -0.00, -1.00, 586.7, 555.5)">t</text><text xml:space="preserve" font-family="Helvetica-Light,Helvetica" font-size="47.3" fill="#000000" transform="matrix(1.00, 0.00, -0.00, -1.00, 599.8, 555.5)">a</text><text xml:space="preserve" font-family="Helvetica-Light,Helvetica" font-size="47.3" fill="#000000" transform="matrix(1.00, 0.00, -0.00, -1.00, 626.1, 555.5)"> </text><text xml:space="preserve" font-family="Helvetica-Light,Helvetica" font-size="47.3" fill="#000000" transform="matrix(1.00, 0.00, -0.00, -1.00, 639.3, 555.5)">r</text><text xml:space="preserve" font-family="Helvetica-Light,Helvetica" font-size="47.3" fill="#000000" transform="matrix(1.00, 0.00, -0.00, -1.00, 655.0, 555.5)">a</text><text xml:space="preserve" font-family="Helvetica-Light,Helvetica" font-size="47.3" fill="#000000" transform="matrix(1.00, 0.00, -0.00, -1.00, 681.3, 555.5)">c</text><text xml:space="preserve" font-family="Helvetica-Light,Helvetica" font-size="47.3" fill="#000000" transform="matrix(1.00, 0.00, -0.00, -1.00, 707.7, 555.5)">e</text><text xml:space="preserve" font-family="Helvetica-Light,Helvetica" font-size="47.3" fill="#000000" transform="matrix(1.00, 0.00, -0.00, -1.00, 734.0, 555.5)">s</text><text xml:space="preserve" font-family="Helvetica-Light,Helvetica" font-size="47.3" fill="#000000" transform="matrix(1.00, 0.00, -0.00, -1.00, 757.6, 555.5)"> </text><text xml:space="preserve" font-family="Helvetica-Light,Helvetica" font-size="35.5" fill="#000000" transform="matrix(1.00, 0.00, -0.00, -1.00, 137.0, 450.1)">•</text><text xml:space="preserve" font-family="Helvetica-Light,Helvetica" font-size="47.3" fill="#000000" transform="matrix(1.00, 0.00, -0.00, -1.00, 182.5, 445.8)">M</text><text xml:space="preserve" font-family="Helvetica-Light,Helvetica" font-size="47.3" fill="#000000" transform="matrix(1.00, 0.00, -0.00, -1.00, 221.9, 445.8)">i</text><text xml:space="preserve" font-family="Helvetica-Light,Helvetica" font-size="47.3" fill="#000000" transform="matrix(1.00, 0.00, -0.00, -1.00, 232.4, 445.8)">n</text><text xml:space="preserve" font-family="Helvetica-Light,Helvetica" font-size="47.3" fill="#000000" transform="matrix(1.00, 0.00, -0.00, -1.00, 258.7, 445.8)">i</text><text xml:space="preserve" font-family="Helvetica-Light,Helvetica" font-size="47.3" fill="#000000" transform="matrix(1.00, 0.00, -0.00, -1.00, 269.2, 445.8)">m</text><text xml:space="preserve" font-family="Helvetica-Light,Helvetica" font-size="47.3" fill="#000000" transform="matrix(1.00, 0.00, -0.00, -1.00, 308.7, 445.8)">a</text><text xml:space="preserve" font-family="Helvetica-Light,Helvetica" font-size="47.3" fill="#000000" transform="matrix(1.00, 0.00, -0.00, -1.00, 335.0, 445.8)">l</text><text xml:space="preserve" font-family="Helvetica-Light,Helvetica" font-size="47.3" fill="#000000" transform="matrix(1.00, 0.00, -0.00, -1.00, 345.5, 445.8)"> </text><text xml:space="preserve" font-family="Helvetica-Light,Helvetica" font-size="47.3" fill="#000000" transform="matrix(1.00, 0.00, -0.00, -1.00, 358.6, 445.8)">r</text><text xml:space="preserve" font-family="Helvetica-Light,Helvetica" font-size="47.3" fill="#000000" transform="matrix(1.00, 0.00, -0.00, -1.00, 374.4, 445.8)">u</text><text xml:space="preserve" font-family="Helvetica-Light,Helvetica" font-size="47.3" fill="#000000" transform="matrix(1.00, 0.00, -0.00, -1.00, 400.7, 445.8)">n</text><text xml:space="preserve" font-family="Helvetica-Light,Helvetica" font-size="47.3" fill="#000000" transform="matrix(1.00, 0.00, -0.00, -1.00, 427.0, 445.8)">t</text><text xml:space="preserve" font-family="Helvetica-Light,Helvetica" font-size="47.3" fill="#000000" transform="matrix(1.00, 0.00, -0.00, -1.00, 440.2, 445.8)">i</text><text xml:space="preserve" font-family="Helvetica-Light,Helvetica" font-size="47.3" fill="#000000" transform="matrix(1.00, 0.00, -0.00, -1.00, 450.7, 445.8)">m</text><text xml:space="preserve" font-family="Helvetica-Light,Helvetica" font-size="47.3" fill="#000000" transform="matrix(1.00, 0.00, -0.00, -1.00, 490.1, 445.8)">e</text><text xml:space="preserve" font-family="Helvetica-Light,Helvetica" font-size="47.3" fill="#000000" transform="matrix(1.00, 0.00, -0.00, -1.00, 516.4, 445.8)"> </text><text xml:space="preserve" font-family="Helvetica-Light,Helvetica" font-size="47.3" fill="#000000" transform="matrix(1.00, 0.00, -0.00, -1.00, 529.5, 445.8)">w</text><text xml:space="preserve" font-family="Helvetica-Light,Helvetica" font-size="47.3" fill="#000000" transform="matrix(1.00, 0.00, -0.00, -1.00, 563.7, 445.8)">i</text><text xml:space="preserve" font-family="Helvetica-Light,Helvetica" font-size="47.3" fill="#000000" transform="matrix(1.00, 0.00, -0.00, -1.00, 574.2, 445.8)">t</text><text xml:space="preserve" font-family="Helvetica-Light,Helvetica" font-size="47.3" fill="#000000" transform="matrix(1.00, 0.00, -0.00, -1.00, 587.4, 445.8)">h</text><text xml:space="preserve" font-family="Helvetica-Light,Helvetica" font-size="47.3" fill="#000000" transform="matrix(1.00, 0.00, -0.00, -1.00, 613.7, 445.8)"> </text><text xml:space="preserve" font-family="Helvetica-Light,Helvetica" font-size="47.3" fill="#000000" transform="matrix(1.00, 0.00, -0.00, -1.00, 626.8, 445.8)">n</text><text xml:space="preserve" font-family="Helvetica-Light,Helvetica" font-size="47.3" fill="#000000" transform="matrix(1.00, 0.00, -0.00, -1.00, 653.1, 445.8)">o</text><text xml:space="preserve" font-family="Helvetica-Light,Helvetica" font-size="47.3" fill="#000000" transform="matrix(1.00, 0.00, -0.00, -1.00, 679.5, 445.8)"> </text><text xml:space="preserve" font-family="Helvetica-Light,Helvetica" font-size="47.3" fill="#000000" transform="matrix(1.00, 0.00, -0.00, -1.00, 692.6, 445.8)">n</text><text xml:space="preserve" font-family="Helvetica-Light,Helvetica" font-size="47.3" fill="#000000" transform="matrix(1.00, 0.00, -0.00, -1.00, 718.9, 445.8)">e</text><text xml:space="preserve" font-family="Helvetica-Light,Helvetica" font-size="47.3" fill="#000000" transform="matrix(1.00, 0.00, -0.00, -1.00, 745.2, 445.8)">e</text><text xml:space="preserve" font-family="Helvetica-Light,Helvetica" font-size="47.3" fill="#000000" transform="matrix(1.00, 0.00, -0.00, -1.00, 771.5, 445.8)">d</text><text xml:space="preserve" font-family="Helvetica-Light,Helvetica" font-size="47.3" fill="#000000" transform="matrix(1.00, 0.00, -0.00, -1.00, 800.5, 445.8)"> </text><text xml:space="preserve" font-family="Helvetica-Light,Helvetica" font-size="47.3" fill="#000000" transform="matrix(1.00, 0.00, -0.00, -1.00, 813.6, 445.8)">f</text><text xml:space="preserve" font-family="Helvetica-Light,Helvetica" font-size="47.3" fill="#000000" transform="matrix(1.00, 0.00, -0.00, -1.00, 826.8, 445.8)">o</text><text xml:space="preserve" font-family="Helvetica-Light,Helvetica" font-size="47.3" fill="#000000" transform="matrix(1.00, 0.00, -0.00, -1.00, 853.1, 445.8)">r</text><text xml:space="preserve" font-family="Helvetica-Light,Helvetica" font-size="47.3" fill="#000000" transform="matrix(1.00, 0.00, -0.00, -1.00, 868.8, 445.8)"> </text><text xml:space="preserve" font-family="Helvetica-Light,Helvetica" font-size="47.3" fill="#000000" transform="matrix(1.00, 0.00, -0.00, -1.00, 882.0, 445.8)">G</text><text xml:space="preserve" font-family="Helvetica-Light,Helvetica" font-size="47.3" fill="#000000" transform="matrix(1.00, 0.00, -0.00, -1.00, 918.8, 445.8)">C</text><text xml:space="preserve" font-family="Helvetica-Light,Helvetica" font-size="47.3" fill="#000000" transform="matrix(1.00, 0.00, -0.00, -1.00, 953.0, 445.8)"> </text><text xml:space="preserve" font-family="Helvetica-Light,Helvetica" font-size="35.5" fill="#000000" transform="matrix(1.00, 0.00, -0.00, -1.00, 137.0, 340.4)">•</text><text xml:space="preserve" font-family="Helvetica-Light,Helvetica" font-size="47.3" fill="#000000" transform="matrix(1.00, 0.00, -0.00, -1.00, 182.5, 336.1)">E</text><text xml:space="preserve" font-family="Helvetica-Light,Helvetica" font-size="47.3" fill="#000000" transform="matrix(1.00, 0.00, -0.00, -1.00, 211.4, 336.1)">f</text><text xml:space="preserve" font-family="Helvetica-Light,Helvetica" font-size="47.3" fill="#000000" transform="matrix(1.00, 0.00, -0.00, -1.00, 223.7, 336.1)">ﬁ</text><text xml:space="preserve" font-family="Helvetica-Light,Helvetica" font-size="47.3" fill="#000000" transform="matrix(1.00, 0.00, -0.00, -1.00, 247.4, 336.1)">c</text><text xml:space="preserve" font-family="Helvetica-Light,Helvetica" font-size="47.3" fill="#000000" transform="matrix(1.00, 0.00, -0.00, -1.00, 273.7, 336.1)">i</text><text xml:space="preserve" font-family="Helvetica-Light,Helvetica" font-size="47.3" fill="#000000" transform="matrix(1.00, 0.00, -0.00, -1.00, 284.2, 336.1)">e</text><text xml:space="preserve" font-family="Helvetica-Light,Helvetica" font-size="47.3" fill="#000000" transform="matrix(1.00, 0.00, -0.00, -1.00, 310.5, 336.1)">n</text><text xml:space="preserve" font-family="Helvetica-Light,Helvetica" font-size="47.3" fill="#000000" transform="matrix(1.00, 0.00, -0.00, -1.00, 336.8, 336.1)">t</text><text xml:space="preserve" font-family="Helvetica-Light,Helvetica" font-size="47.3" fill="#000000" transform="matrix(1.00, 0.00, -0.00, -1.00, 350.0, 336.1)"> </text><text xml:space="preserve" font-family="Helvetica-Light,Helvetica" font-size="47.3" fill="#000000" transform="matrix(1.00, 0.00, -0.00, -1.00, 363.1, 336.1)">C</text><text xml:space="preserve" font-family="Helvetica-Light,Helvetica" font-size="47.3" fill="#000000" transform="matrix(1.00, 0.00, -0.00, -1.00, 397.3, 336.1)"> </text><text xml:space="preserve" font-family="Helvetica-Light,Helvetica" font-size="47.3" fill="#000000" transform="matrix(1.00, 0.00, -0.00, -1.00, 410.4, 336.1)">b</text><text xml:space="preserve" font-family="Helvetica-Light,Helvetica" font-size="47.3" fill="#000000" transform="matrix(1.00, 0.00, -0.00, -1.00, 439.4, 336.1)">i</text><text xml:space="preserve" font-family="Helvetica-Light,Helvetica" font-size="47.3" fill="#000000" transform="matrix(1.00, 0.00, -0.00, -1.00, 449.9, 336.1)">n</text><text xml:space="preserve" font-family="Helvetica-Light,Helvetica" font-size="47.3" fill="#000000" transform="matrix(1.00, 0.00, -0.00, -1.00, 476.2, 336.1)">d</text><text xml:space="preserve" font-family="Helvetica-Light,Helvetica" font-size="47.3" fill="#000000" transform="matrix(1.00, 0.00, -0.00, -1.00, 505.1, 336.1)">i</text><text xml:space="preserve" font-family="Helvetica-Light,Helvetica" font-size="47.3" fill="#000000" transform="matrix(1.00, 0.00, -0.00, -1.00, 515.6, 336.1)">n</text><text xml:space="preserve" font-family="Helvetica-Light,Helvetica" font-size="47.3" fill="#000000" transform="matrix(1.00, 0.00, -0.00, -1.00, 541.9, 336.1)">g</text><text xml:space="preserve" font-family="Helvetica-Light,Helvetica" font-size="47.3" fill="#000000" transform="matrix(1.00, 0.00, -0.00, -1.00, 570.8, 336.1)">s</text><text xml:space="preserve" font-family="Helvetica-Light,Helvetica" font-size="47.3" fill="#000000" transform="matrix(1.00, 0.00, -0.00, -1.00, 594.5, 336.1)"> </text><text xml:space="preserve" font-family="Helvetica-Light,Helvetica" font-size="35.5" fill="#000000" transform="matrix(1.00, 0.00, -0.00, -1.00, 137.0, 230.7)">•</text><text xml:space="preserve" font-family="Helvetica-Light,Helvetica" font-size="47.3" fill="#000000" transform="matrix(1.00, 0.00, -0.00, -1.00, 182.5, 226.4)">L</text><text xml:space="preserve" font-family="Helvetica-Light,Helvetica" font-size="47.3" fill="#000000" transform="matrix(1.00, 0.00, -0.00, -1.00, 208.8, 226.4)">o</text><text xml:space="preserve" font-family="Helvetica-Light,Helvetica" font-size="47.3" fill="#000000" transform="matrix(1.00, 0.00, -0.00, -1.00, 235.1, 226.4)">w</text><text xml:space="preserve" font-family="Helvetica-Light,Helvetica" font-size="47.3" fill="#000000" transform="matrix(1.00, 0.00, -0.00, -1.00, 269.3, 226.4)"> </text><text xml:space="preserve" font-family="Helvetica-Light,Helvetica" font-size="47.3" fill="#000000" transform="matrix(1.00, 0.00, -0.00, -1.00, 282.4, 226.4)">l</text><text xml:space="preserve" font-family="Helvetica-Light,Helvetica" font-size="47.3" fill="#000000" transform="matrix(1.00, 0.00, -0.00, -1.00, 292.9, 226.4)">e</text><text xml:space="preserve" font-family="Helvetica-Light,Helvetica" font-size="47.3" fill="#000000" transform="matrix(1.00, 0.00, -0.00, -1.00, 319.3, 226.4)">v</text><text xml:space="preserve" font-family="Helvetica-Light,Helvetica" font-size="47.3" fill="#000000" transform="matrix(1.00, 0.00, -0.00, -1.00, 342.9, 226.4)">e</text><text xml:space="preserve" font-family="Helvetica-Light,Helvetica" font-size="47.3" fill="#000000" transform="matrix(1.00, 0.00, -0.00, -1.00, 369.2, 226.4)">l</text><text xml:space="preserve" font-family="Helvetica-Light,Helvetica" font-size="47.3" fill="#000000" transform="matrix(1.00, 0.00, -0.00, -1.00, 379.7, 226.4)"> </text><text xml:space="preserve" font-family="Helvetica-Light,Helvetica" font-size="47.3" fill="#000000" transform="matrix(1.00, 0.00, -0.00, -1.00, 392.9, 226.4)">c</text><text xml:space="preserve" font-family="Helvetica-Light,Helvetica" font-size="47.3" fill="#000000" transform="matrix(1.00, 0.00, -0.00, -1.00, 419.2, 226.4)">o</text><text xml:space="preserve" font-family="Helvetica-Light,Helvetica" font-size="47.3" fill="#000000" transform="matrix(1.00, 0.00, -0.00, -1.00, 445.5, 226.4)">n</text><text xml:space="preserve" font-family="Helvetica-Light,Helvetica" font-size="47.3" fill="#000000" transform="matrix(1.00, 0.00, -0.00, -1.00, 471.8, 226.4)">t</text><text xml:space="preserve" font-family="Helvetica-Light,Helvetica" font-size="47.3" fill="#000000" transform="matrix(1.00, 0.00, -0.00, -1.00, 485.0, 226.4)">r</text><text xml:space="preserve" font-family="Helvetica-Light,Helvetica" font-size="47.3" fill="#000000" transform="matrix(1.00, 0.00, -0.00, -1.00, 499.9, 226.4)">o</text><text xml:space="preserve" font-family="Helvetica-Light,Helvetica" font-size="47.3" fill="#000000" transform="matrix(1.00, 0.00, -0.00, -1.00, 526.2, 226.4)">l</text><text xml:space="preserve" font-family="Helvetica-Light,Helvetica" font-size="47.3" fill="#000000" transform="matrix(1.00, 0.00, -0.00, -1.00, 536.7, 226.4)"> </text><text xml:space="preserve" font-family="Helvetica-Light,Helvetica" font-size="47.3" fill="#000000" transform="matrix(1.00, 0.00, -0.00, -1.00, 549.8, 226.4)">o</text><text xml:space="preserve" font-family="Helvetica-Light,Helvetica" font-size="47.3" fill="#000000" transform="matrix(1.00, 0.00, -0.00, -1.00, 576.2, 226.4)">f</text><text xml:space="preserve" font-family="Helvetica-Light,Helvetica" font-size="47.3" fill="#000000" transform="matrix(1.00, 0.00, -0.00, -1.00, 589.3, 226.4)"> </text><text xml:space="preserve" font-family="Helvetica-Light,Helvetica" font-size="47.3" fill="#000000" transform="matrix(1.00, 0.00, -0.00, -1.00, 602.5, 226.4)">m</text><text xml:space="preserve" font-family="Helvetica-Light,Helvetica" font-size="47.3" fill="#000000" transform="matrix(1.00, 0.00, -0.00, -1.00, 641.9, 226.4)">e</text><text xml:space="preserve" font-family="Helvetica-Light,Helvetica" font-size="47.3" fill="#000000" transform="matrix(1.00, 0.00, -0.00, -1.00, 668.2, 226.4)">m</text><text xml:space="preserve" font-family="Helvetica-Light,Helvetica" font-size="47.3" fill="#000000" transform="matrix(1.00, 0.00, -0.00, -1.00, 707.6, 226.4)">o</text><text xml:space="preserve" font-family="Helvetica-Light,Helvetica" font-size="47.3" fill="#000000" transform="matrix(1.00, 0.00, -0.00, -1.00, 733.9, 226.4)">r</text><text xml:space="preserve" font-family="Helvetica-Light,Helvetica" font-size="47.3" fill="#000000" transform="matrix(1.00, 0.00, -0.00, -1.00, 750.5, 226.4)">y</text><text xml:space="preserve" font-family="Helvetica-Light,Helvetica" font-size="47.3" fill="#000000" transform="matrix(1.00, 0.00, -0.00, -1.00, 774.2, 226.4)"> </text><text xml:space="preserve" font-family="Helvetica-Light,Helvetica" font-size="47.3" fill="#000000" transform="matrix(1.00, 0.00, -0.00, -1.00, 787.3, 226.4)">l</text><text xml:space="preserve" font-family="Helvetica-Light,Helvetica" font-size="47.3" fill="#000000" transform="matrix(1.00, 0.00, -0.00, -1.00, 797.8, 226.4)">a</text><text xml:space="preserve" font-family="Helvetica-Light,Helvetica" font-size="47.3" fill="#000000" transform="matrix(1.00, 0.00, -0.00, -1.00, 824.2, 226.4)">y</text><text xml:space="preserve" font-family="Helvetica-Light,Helvetica" font-size="47.3" fill="#000000" transform="matrix(1.00, 0.00, -0.00, -1.00, 847.8, 226.4)">o</text><text xml:space="preserve" font-family="Helvetica-Light,Helvetica" font-size="47.3" fill="#000000" transform="matrix(1.00, 0.00, -0.00, -1.00, 874.1, 226.4)">u</text><text xml:space="preserve" font-family="Helvetica-Light,Helvetica" font-size="47.3" fill="#000000" transform="matrix(1.00, 0.00, -0.00, -1.00, 900.4, 226.4)">t</text><text xml:space="preserve" font-family="Helvetica-Light,Helvetica" font-size="47.3" fill="#000000" transform="matrix(1.00, 0.00, -0.00, -1.00, 913.6, 226.4)"> </text><text xml:space="preserve" font-family="Helvetica-Light,Helvetica" font-size="47.3" fill="#000000" transform="matrix(1.00, 0.00, -0.00, -1.00, 926.7, 226.4)">a</text><text xml:space="preserve" font-family="Helvetica-Light,Helvetica" font-size="47.3" fill="#000000" transform="matrix(1.00, 0.00, -0.00, -1.00, 953.1, 226.4)">n</text><text xml:space="preserve" font-family="Helvetica-Light,Helvetica" font-size="47.3" fill="#000000" transform="matrix(1.00, 0.00, -0.00, -1.00, 979.4, 226.4)">d</text><text xml:space="preserve" font-family="Helvetica-Light,Helvetica" font-size="47.3" fill="#000000" transform="matrix(1.00, 0.00, -0.00, -1.00, 1008.3, 226.4)"> </text><text xml:space="preserve" font-family="Helvetica-Light,Helvetica" font-size="47.3" fill="#000000" transform="matrix(1.00, 0.00, -0.00, -1.00, 1021.4, 226.4)">c</text><text xml:space="preserve" font-family="Helvetica-Light,Helvetica" font-size="47.3" fill="#000000" transform="matrix(1.00, 0.00, -0.00, -1.00, 1047.7, 226.4)">o</text><text xml:space="preserve" font-family="Helvetica-Light,Helvetica" font-size="47.3" fill="#000000" transform="matrix(1.00, 0.00, -0.00, -1.00, 1074.1, 226.4)">n</text><text xml:space="preserve" font-family="Helvetica-Light,Helvetica" font-size="47.3" fill="#000000" transform="matrix(1.00, 0.00, -0.00, -1.00, 1100.4, 226.4)">c</text><text xml:space="preserve" font-family="Helvetica-Light,Helvetica" font-size="47.3" fill="#000000" transform="matrix(1.00, 0.00, -0.00, -1.00, 1126.7, 226.4)">u</text><text xml:space="preserve" font-family="Helvetica-Light,Helvetica" font-size="47.3" fill="#000000" transform="matrix(1.00, 0.00, -0.00, -1.00, 1153.0, 226.4)">r</text><text xml:space="preserve" font-family="Helvetica-Light,Helvetica" font-size="47.3" fill="#000000" transform="matrix(1.00, 0.00, -0.00, -1.00, 1168.7, 226.4)">r</text><text xml:space="preserve" font-family="Helvetica-Light,Helvetica" font-size="47.3" fill="#000000" transform="matrix(1.00, 0.00, -0.00, -1.00, 1183.6, 226.4)">e</text><text xml:space="preserve" font-family="Helvetica-Light,Helvetica" font-size="47.3" fill="#000000" transform="matrix(1.00, 0.00, -0.00, -1.00, 1210.0, 226.4)">n</text><text xml:space="preserve" font-family="Helvetica-Light,Helvetica" font-size="47.3" fill="#000000" transform="matrix(1.00, 0.00, -0.00, -1.00, 1236.3, 226.4)">c</text><text xml:space="preserve" font-family="Helvetica-Light,Helvetica" font-size="47.3" fill="#000000" transform="matrix(1.00, 0.00, -0.00, -1.00, 1262.6, 226.4)">y</text><text xml:space="preserve" font-family="Helvetica-Light,Helvetica" font-size="47.3" fill="#000000" transform="matrix(1.00, 0.00, -0.00, -1.00, 1286.2, 226.4)"> </text><text xml:space="preserve" font-family="Helvetica-Light,Helvetica" font-size="47.3" fill="#000000" transform="matrix(1.00, 0.00, -0.00, -1.00, 1299.4, 226.4)"> </text><text xml:space="preserve" font-family="Helvetica-Light,Helvetica" font-size="35.5" fill="#000000" transform="matrix(1.00, 0.00, -0.00, -1.00, 137.0, 121.0)">•</text><text xml:space="preserve" font-family="Helvetica-Light,Helvetica" font-size="47.3" fill="#000000" transform="matrix(1.00, 0.00, -0.00, -1.00, 182.5, 116.7)">P</text><text xml:space="preserve" font-family="Helvetica-Light,Helvetica" font-size="47.3" fill="#000000" transform="matrix(1.00, 0.00, -0.00, -1.00, 211.4, 116.7)">r</text><text xml:space="preserve" font-family="Helvetica-Light,Helvetica" font-size="47.3" fill="#000000" transform="matrix(1.00, 0.00, -0.00, -1.00, 227.2, 116.7)">a</text><text xml:space="preserve" font-family="Helvetica-Light,Helvetica" font-size="47.3" fill="#000000" transform="matrix(1.00, 0.00, -0.00, -1.00, 253.5, 116.7)">c</text><text xml:space="preserve" font-family="Helvetica-Light,Helvetica" font-size="47.3" fill="#000000" transform="matrix(1.00, 0.00, -0.00, -1.00, 279.8, 116.7)">t</text><text xml:space="preserve" font-family="Helvetica-Light,Helvetica" font-size="47.3" fill="#000000" transform="matrix(1.00, 0.00, -0.00, -1.00, 292.9, 116.7)">i</text><text xml:space="preserve" font-family="Helvetica-Light,Helvetica" font-size="47.3" fill="#000000" transform="matrix(1.00, 0.00, -0.00, -1.00, 303.4, 116.7)">c</text><text xml:space="preserve" font-family="Helvetica-Light,Helvetica" font-size="47.3" fill="#000000" transform="matrix(1.00, 0.00, -0.00, -1.00, 329.8, 116.7)">a</text><text xml:space="preserve" font-family="Helvetica-Light,Helvetica" font-size="47.3" fill="#000000" transform="matrix(1.00, 0.00, -0.00, -1.00, 356.1, 116.7)">l</text><text xml:space="preserve" font-family="Helvetica-Light,Helvetica" font-size="47.3" fill="#000000" transform="matrix(1.00, 0.00, -0.00, -1.00, 366.6, 116.7)"> </text><text xml:space="preserve" font-family="Helvetica-Light,Helvetica" font-size="47.3" fill="#000000" transform="matrix(1.00, 0.00, -0.00, -1.00, 379.7, 116.7)">l</text><text xml:space="preserve" font-family="Helvetica-Light,Helvetica" font-size="47.3" fill="#000000" transform="matrix(1.00, 0.00, -0.00, -1.00, 390.2, 116.7)">a</text><text xml:space="preserve" font-family="Helvetica-Light,Helvetica" font-size="47.3" fill="#000000" transform="matrix(1.00, 0.00, -0.00, -1.00, 416.5, 116.7)">n</text><text xml:space="preserve" font-family="Helvetica-Light,Helvetica" font-size="47.3" fill="#000000" transform="matrix(1.00, 0.00, -0.00, -1.00, 442.9, 116.7)">g</text><text xml:space="preserve" font-family="Helvetica-Light,Helvetica" font-size="47.3" fill="#000000" transform="matrix(1.00, 0.00, -0.00, -1.00, 471.8, 116.7)">u</text><text xml:space="preserve" font-family="Helvetica-Light,Helvetica" font-size="47.3" fill="#000000" transform="matrix(1.00, 0.00, -0.00, -1.00, 498.1, 116.7)">a</text><text xml:space="preserve" font-family="Helvetica-Light,Helvetica" font-size="47.3" fill="#000000" transform="matrix(1.00, 0.00, -0.00, -1.00, 524.4, 116.7)">g</text><text xml:space="preserve" font-family="Helvetica-Light,Helvetica" font-size="47.3" fill="#000000" transform="matrix(1.00, 0.00, -0.00, -1.00, 553.3, 116.7)">e</text><text xml:space="preserve" font-family="Helvetica-Light,Helvetica" font-size="47.3" fill="#000000" transform="matrix(1.00, 0.00, -0.00, -1.00, 579.6, 116.7)"> </text><text xml:space="preserve" font-family="Helvetica-Light,Helvetica" font-size="47.3" fill="#000000" transform="matrix(1.00, 0.00, -0.00, -1.00, 592.8, 116.7)">t</text><text xml:space="preserve" font-family="Helvetica-Light,Helvetica" font-size="47.3" fill="#000000" transform="matrix(1.00, 0.00, -0.00, -1.00, 605.9, 116.7)">o</text><text xml:space="preserve" font-family="Helvetica-Light,Helvetica" font-size="47.3" fill="#000000" transform="matrix(1.00, 0.00, -0.00, -1.00, 632.2, 116.7)"> </text><text xml:space="preserve" font-family="Helvetica-Light,Helvetica" font-size="47.3" fill="#000000" transform="matrix(1.00, 0.00, -0.00, -1.00, 645.4, 116.7)">i</text><text xml:space="preserve" font-family="Helvetica-Light,Helvetica" font-size="47.3" fill="#000000" transform="matrix(1.00, 0.00, -0.00, -1.00, 655.9, 116.7)">m</text><text xml:space="preserve" font-family="Helvetica-Light,Helvetica" font-size="47.3" fill="#000000" transform="matrix(1.00, 0.00, -0.00, -1.00, 695.3, 116.7)">p</text><text xml:space="preserve" font-family="Helvetica-Light,Helvetica" font-size="47.3" fill="#000000" transform="matrix(1.00, 0.00, -0.00, -1.00, 724.2, 116.7)">l</text><text xml:space="preserve" font-family="Helvetica-Light,Helvetica" font-size="47.3" fill="#000000" transform="matrix(1.00, 0.00, -0.00, -1.00, 734.7, 116.7)">e</text><text xml:space="preserve" font-family="Helvetica-Light,Helvetica" font-size="47.3" fill="#000000" transform="matrix(1.00, 0.00, -0.00, -1.00, 761.0, 116.7)">m</text><text xml:space="preserve" font-family="Helvetica-Light,Helvetica" font-size="47.3" fill="#000000" transform="matrix(1.00, 0.00, -0.00, -1.00, 800.5, 116.7)">e</text><text xml:space="preserve" font-family="Helvetica-Light,Helvetica" font-size="47.3" fill="#000000" transform="matrix(1.00, 0.00, -0.00, -1.00, 826.8, 116.7)">n</text><text xml:space="preserve" font-family="Helvetica-Light,Helvetica" font-size="47.3" fill="#000000" transform="matrix(1.00, 0.00, -0.00, -1.00, 853.1, 116.7)">t</text><text xml:space="preserve" font-family="Helvetica-Light,Helvetica" font-size="47.3" fill="#000000" transform="matrix(1.00, 0.00, -0.00, -1.00, 866.2, 116.7)"> </text><text xml:space="preserve" font-family="Helvetica-Light,Helvetica" font-size="47.3" fill="#000000" transform="matrix(1.00, 0.00, -0.00, -1.00, 879.4, 116.7)">S</text><text xml:space="preserve" font-family="Helvetica-Light,Helvetica" font-size="47.3" fill="#000000" transform="matrix(1.00, 0.00, -0.00, -1.00, 908.3, 116.7)">e</text><text xml:space="preserve" font-family="Helvetica-Light,Helvetica" font-size="47.3" fill="#000000" transform="matrix(1.00, 0.00, -0.00, -1.00, 934.6, 116.7)">r</text><text xml:space="preserve" font-family="Helvetica-Light,Helvetica" font-size="47.3" fill="#000000" transform="matrix(1.00, 0.00, -0.00, -1.00, 950.4, 116.7)">v</text><text xml:space="preserve" font-family="Helvetica-Light,Helvetica" font-size="47.3" fill="#000000" transform="matrix(1.00, 0.00, -0.00, -1.00, 974.0, 116.7)">o</text><text xml:space="preserve" font-family="Helvetica-Light,Helvetica" font-size="47.3" fill="#000000" transform="matrix(1.00, 0.00, -0.00, -1.00, 1000.3, 116.7)"> </text><text xml:space="preserve" font-family="Helvetica-Light,Helvetica" font-size="47.3" fill="#000000" transform="matrix(1.00, 0.00, -0.00, -1.00, 1013.5, 116.7)">l</text><text xml:space="preserve" font-family="Helvetica-Light,Helvetica" font-size="47.3" fill="#000000" transform="matrix(1.00, 0.00, -0.00, -1.00, 1024.0, 116.7)">a</text><text xml:space="preserve" font-family="Helvetica-Light,Helvetica" font-size="47.3" fill="#000000" transform="matrix(1.00, 0.00, -0.00, -1.00, 1050.3, 116.7)">y</text><text xml:space="preserve" font-family="Helvetica-Light,Helvetica" font-size="47.3" fill="#000000" transform="matrix(1.00, 0.00, -0.00, -1.00, 1074.0, 116.7)">o</text><text xml:space="preserve" font-family="Helvetica-Light,Helvetica" font-size="47.3" fill="#000000" transform="matrix(1.00, 0.00, -0.00, -1.00, 1100.3, 116.7)">u</text><text xml:space="preserve" font-family="Helvetica-Light,Helvetica" font-size="47.3" fill="#000000" transform="matrix(1.00, 0.00, -0.00, -1.00, 1126.6, 116.7)">t</text><text xml:space="preserve" font-family="Helvetica-Light,Helvetica" font-size="47.3" fill="#000000" transform="matrix(1.00, 0.00, -0.00, -1.00, 1139.7, 116.7)"> </text><text xml:space="preserve" font-family="Helvetica-Light,Helvetica" font-size="47.3" fill="#000000" transform="matrix(1.00, 0.00, -0.00, -1.00, 1152.9, 116.7)">e</text><text xml:space="preserve" font-family="Helvetica-Light,Helvetica" font-size="47.3" fill="#000000" transform="matrix(1.00, 0.00, -0.00, -1.00, 1179.2, 116.7)">n</text><text xml:space="preserve" font-family="Helvetica-Light,Helvetica" font-size="47.3" fill="#000000" transform="matrix(1.00, 0.00, -0.00, -1.00, 1205.5, 116.7)">g</text><text xml:space="preserve" font-family="Helvetica-Light,Helvetica" font-size="47.3" fill="#000000" transform="matrix(1.00, 0.00, -0.00, -1.00, 1234.4, 116.7)">i</text><text xml:space="preserve" font-family="Helvetica-Light,Helvetica" font-size="47.3" fill="#000000" transform="matrix(1.00, 0.00, -0.00, -1.00, 1244.9, 116.7)">n</text><text xml:space="preserve" font-family="Helvetica-Light,Helvetica" font-size="47.3" fill="#000000" transform="matrix(1.00, 0.00, -0.00, -1.00, 1271.2, 116.7)">e</text><text xml:space="preserve" font-family="Helvetica-Light,Helvetica" font-size="47.3" fill="#000000" transform="matrix(1.00, 0.00, -0.00, -1.00, 1297.5, 116.7)"> </text><text xml:space="preserve" font-family="Helvetica-Light,Helvetica" font-size="47.3" fill="#000000" transform="matrix(1.00, 0.00, -0.00, -1.00, 1310.7, 116.7)">a</text><text xml:space="preserve" font-family="Helvetica-Light,Helvetica" font-size="47.3" fill="#000000" transform="matrix(1.00, 0.00, -0.00, -1.00, 1337.0, 116.7)">n</text><text xml:space="preserve" font-family="Helvetica-Light,Helvetica" font-size="47.3" fill="#000000" transform="matrix(1.00, 0.00, -0.00, -1.00, 1363.3, 116.7)">d</text><text xml:space="preserve" font-family="Helvetica-Light,Helvetica" font-size="47.3" fill="#000000" transform="matrix(1.00, 0.00, -0.00, -1.00, 1392.2, 116.7)"> </text><text xml:space="preserve" font-family="Helvetica-Light,Helvetica" font-size="47.3" fill="#000000" transform="matrix(1.00, 0.00, -0.00, -1.00, 1405.4, 116.7)">R</text><text xml:space="preserve" font-family="Helvetica-Light,Helvetica" font-size="47.3" fill="#000000" transform="matrix(1.00, 0.00, -0.00, -1.00, 1437.0, 116.7)">u</text><text xml:space="preserve" font-family="Helvetica-Light,Helvetica" font-size="47.3" fill="#000000" transform="matrix(1.00, 0.00, -0.00, -1.00, 1463.3, 116.7)">s</text><text xml:space="preserve" font-family="Helvetica-Light,Helvetica" font-size="47.3" fill="#000000" transform="matrix(1.00, 0.00, -0.00, -1.00, 1486.9, 116.7)">t</text><text xml:space="preserve" font-family="Helvetica-Light,Helvetica" font-size="47.3" fill="#000000" transform="matrix(1.00, 0.00, -0.00, -1.00, 1500.1, 116.7)"> </text><text xml:space="preserve" font-family="Helvetica-Light,Helvetica" font-size="47.3" fill="#000000" transform="matrix(1.00, 0.00, -0.00, -1.00, 1513.2, 116.7)"> </text><text xml:space="preserve" font-family="Helvetica-Light,Helvetica" font-size="47.3" fill="#000000" transform="matrix(1.00, 0.00, -0.00, -1.00, 1526.4, 116.7)">c</text><text xml:space="preserve" font-family="Helvetica-Light,Helvetica" font-size="47.3" fill="#000000" transform="matrix(1.00, 0.00, -0.00, -1.00, 1552.7, 116.7)">o</text><text xml:space="preserve" font-family="Helvetica-Light,Helvetica" font-size="47.3" fill="#000000" transform="matrix(1.00, 0.00, -0.00, -1.00, 1579.0, 116.7)">m</text><text xml:space="preserve" font-family="Helvetica-Light,Helvetica" font-size="47.3" fill="#000000" transform="matrix(1.00, 0.00, -0.00, -1.00, 1618.4, 116.7)">p</text><text xml:space="preserve" font-family="Helvetica-Light,Helvetica" font-size="47.3" fill="#000000" transform="matrix(1.00, 0.00, -0.00, -1.00, 1647.3, 116.7)">i</text><text xml:space="preserve" font-family="Helvetica-Light,Helvetica" font-size="47.3" fill="#000000" transform="matrix(1.00, 0.00, -0.00, -1.00, 1657.8, 116.7)">l</text><text xml:space="preserve" font-family="Helvetica-Light,Helvetica" font-size="47.3" fill="#000000" transform="matrix(1.00, 0.00, -0.00, -1.00, 1668.3, 116.7)">e</text><text xml:space="preserve" font-family="Helvetica-Light,Helvetica" font-size="47.3" fill="#000000" transform="matrix(1.00, 0.00, -0.00, -1.00, 1694.7, 116.7)">r</text></g></svg>