<?xml version="1.0" encoding="UTF-8" standalone="no"?><svg xmlns="http://www.w3.org/2000/svg" xmlns:xlink="http://www.w3.org/1999/xlink" clip-rule="evenodd" stroke-miterlimit="10" viewBox="0 0 1920 1080"><desc>SVG generated by Keynote</desc><defs></defs><g transform="matrix(1.00, 0.00, -0.00, -1.00, 0.0, 1080.0)"><path d="M 0.0 1080.0 L 1920.0 1080.0 L 1920.0 0.0 L 0.0 0.0 Z M 0.0 1080.0 " fill="#FEFFFF"></path><text xml:space="preserve" font-family="Helvetica-Light,Helvetica" font-size="100.8" fill="#000000" transform="matrix(1.00, 0.00, -0.00, -1.00, 139.4, 877.2)">M</text><text xml:space="preserve" font-family="Helvetica-Light,Helvetica" font-size="100.8" fill="#000000" transform="matrix(1.00, 0.00, -0.00, -1.00, 223.4, 877.2)">i</text><text xml:space="preserve" font-family="Helvetica-Light,Helvetica" font-size="100.8" fill="#000000" transform="matrix(1.00, 0.00, -0.00, -1.00, 245.7, 877.2)">n</text><text xml:space="preserve" font-family="Helvetica-Light,Helvetica" font-size="100.8" fill="#000000" transform="matrix(1.00, 0.00, -0.00, -1.00, 301.8, 877.2)">i</text><text xml:space="preserve" font-family="Helvetica-Light,Helvetica" font-size="100.8" fill="#000000" transform="matrix(1.00, 0.00, -0.00, -1.00, 324.2, 877.2)">m</text><text xml:space="preserve" font-family="Helvetica-Light,Helvetica" font-size="100.8" fill="#000000" transform="matrix(1.00, 0.00, -0.00, -1.00, 408.1, 877.2)">a</text><text xml:space="preserve" font-family="Helvetica-Light,Helvetica" font-size="100.8" fill="#000000" transform="matrix(1.00, 0.00, -0.00, -1.00, 464.2, 877.2)">l</text><text xml:space="preserve" font-family="Helvetica-Light,Helvetica" font-size="100.8" fill="#000000" transform="matrix(1.00, 0.00, -0.00, -1.00, 486.5, 877.2)"> </text><text xml:space="preserve" font-family="Helvetica-Light,Helvetica" font-size="100.8" fill="#000000" transform="matrix(1.00, 0.00, -0.00, -1.00, 514.6, 877.2)">r</text><text xml:space="preserve" font-family="Helvetica-Light,Helvetica" font-size="100.8" fill="#000000" transform="matrix(1.00, 0.00, -0.00, -1.00, 548.1, 877.2)">u</text><text xml:space="preserve" font-family="Helvetica-Light,Helvetica" font-size="100.8" fill="#000000" transform="matrix(1.00, 0.00, -0.00, -1.00, 604.2, 877.2)">n</text><text xml:space="preserve" font-family="Helvetica-Light,Helvetica" font-size="100.8" fill="#000000" transform="matrix(1.00, 0.00, -0.00, -1.00, 660.2, 877.2)">t</text><text xml:space="preserve" font-family="Helvetica-Light,Helvetica" font-size="100.8" fill="#000000" transform="matrix(1.00, 0.00, -0.00, -1.00, 688.2, 877.2)">i</text><text xml:space="preserve" font-family="Helvetica-Light,Helvetica" font-size="100.8" fill="#000000" transform="matrix(1.00, 0.00, -0.00, -1.00, 710.6, 877.2)">m</text><text xml:space="preserve" font-family="Helvetica-Light,Helvetica" font-size="100.8" fill="#000000" transform="matrix(1.00, 0.00, -0.00, -1.00, 794.6, 877.2)">e</text><text xml:space="preserve" font-family="Helvetica-Light,Helvetica" font-size="100.8" fill="#000000" transform="matrix(1.00, 0.00, -0.00, -1.00, 850.6, 877.2)"> </text><text xml:space="preserve" font-family="Helvetica-Light,Helvetica" font-size="100.8" fill="#000000" transform="matrix(1.00, 0.00, -0.00, -1.00, 878.7, 877.2)">w</text><text xml:space="preserve" font-family="Helvetica-Light,Helvetica" font-size="100.8" fill="#000000" transform="matrix(1.00, 0.00, -0.00, -1.00, 951.4, 877.2)">i</text><text xml:space="preserve" font-family="Helvetica-Light,Helvetica" font-size="100.8" fill="#000000" transform="matrix(1.00, 0.00, -0.00, -1.00, 973.8, 877.2)">t</text><text xml:space="preserve" font-family="Helvetica-Light,Helvetica" font-size="100.8" fill="#000000" transform="matrix(1.00, 0.00, -0.00, -1.00, 1001.8, 877.2)">h</text><text xml:space="preserve" font-family="Helvetica-Light,Helvetica" font-size="100.8" fill="#000000" transform="matrix(1.00, 0.00, -0.00, -1.00, 1057.9, 877.2)"> </text><text xml:space="preserve" font-family="Helvetica-Light,Helvetica" font-size="100.8" fill="#000000" transform="matrix(1.00, 0.00, -0.00, -1.00, 1085.9, 877.2)">n</text><text xml:space="preserve" font-family="Helvetica-Light,Helvetica" font-size="100.8" fill="#000000" transform="matrix(1.00, 0.00, -0.00, -1.00, 1141.9, 877.2)">o</text><text xml:space="preserve" font-family="Helvetica-Light,Helvetica" font-size="100.8" fill="#000000" transform="matrix(1.00, 0.00, -0.00, -1.00, 1198.0, 877.2)"> </text><text xml:space="preserve" font-family="Helvetica-Light,Helvetica" font-size="100.8" fill="#000000" transform="matrix(1.00, 0.00, -0.00, -1.00, 1226.0, 877.2)">n</text><text xml:space="preserve" font-family="Helvetica-Light,Helvetica" font-size="100.8" fill="#000000" transform="matrix(1.00, 0.00, -0.00, -1.00, 1282.1, 877.2)">e</text><text xml:space="preserve" font-family="Helvetica-Light,Helvetica" font-size="100.8" fill="#000000" transform="matrix(1.00, 0.00, -0.00, -1.00, 1338.1, 877.2)">e</text><text xml:space="preserve" font-family="Helvetica-Light,Helvetica" font-size="100.8" fill="#000000" transform="matrix(1.00, 0.00, -0.00, -1.00, 1394.1, 877.2)">d</text><text xml:space="preserve" font-family="Helvetica-Light,Helvetica" font-size="100.8" fill="#000000" transform="matrix(1.00, 0.00, -0.00, -1.00, 1455.7, 877.2)"> </text><text xml:space="preserve" font-family="Helvetica-Light,Helvetica" font-size="100.8" fill="#000000" transform="matrix(1.00, 0.00, -0.00, -1.00, 1483.8, 877.2)">f</text><text xml:space="preserve" font-family="Helvetica-Light,Helvetica" font-size="100.8" fill="#000000" transform="matrix(1.00, 0.00, -0.00, -1.00, 1511.8, 877.2)">o</text><text xml:space="preserve" font-family="Helvetica-Light,Helvetica" font-size="100.8" fill="#000000" transform="matrix(1.00, 0.00, -0.00, -1.00, 1567.8, 877.2)">r</text><text xml:space="preserve" font-family="Helvetica-Light,Helvetica" font-size="100.8" fill="#000000" transform="matrix(1.00, 0.00, -0.00, -1.00, 1601.4, 877.2)"> </text><text xml:space="preserve" font-family="Helvetica-Light,Helvetica" font-size="100.8" fill="#000000" transform="matrix(1.00, 0.00, -0.00, -1.00, 1629.4, 877.2)">G</text><text xml:space="preserve" font-family="Helvetica-Light,Helvetica" font-size="100.8" fill="#000000" transform="matrix(1.00, 0.00, -0.00, -1.00, 1707.8, 877.2)">C</text><text xml:space="preserve" font-family="Helvetica-Light,Helvetica" font-size="30.4" fill="#000000" transform="matrix(1.00, 0.00, -0.00, -1.00, 137.0, 781.0)">•</text><text xml:space="preserve" font-family="Helvetica-Light,Helvetica" font-size="40.6" fill="#000000" transform="matrix(1.00, 0.00, -0.00, -1.00, 176.0, 777.3)">O</text><text xml:space="preserve" font-family="Helvetica-Light,Helvetica" font-size="40.6" fill="#000000" transform="matrix(1.00, 0.00, -0.00, -1.00, 207.6, 777.3)">w</text><text xml:space="preserve" font-family="Helvetica-Light,Helvetica" font-size="40.6" fill="#000000" transform="matrix(1.00, 0.00, -0.00, -1.00, 236.8, 777.3)">n</text><text xml:space="preserve" font-family="Helvetica-Light,Helvetica" font-size="40.6" fill="#000000" transform="matrix(1.00, 0.00, -0.00, -1.00, 259.4, 777.3)">e</text><text xml:space="preserve" font-family="Helvetica-Light,Helvetica" font-size="40.6" fill="#000000" transform="matrix(1.00, 0.00, -0.00, -1.00, 281.9, 777.3)">r</text><text xml:space="preserve" font-family="Helvetica-Light,Helvetica" font-size="40.6" fill="#000000" transform="matrix(1.00, 0.00, -0.00, -1.00, 295.4, 777.3)">s</text><text xml:space="preserve" font-family="Helvetica-Light,Helvetica" font-size="40.6" fill="#000000" transform="matrix(1.00, 0.00, -0.00, -1.00, 315.7, 777.3)">h</text><text xml:space="preserve" font-family="Helvetica-Light,Helvetica" font-size="40.6" fill="#000000" transform="matrix(1.00, 0.00, -0.00, -1.00, 338.3, 777.3)">i</text><text xml:space="preserve" font-family="Helvetica-Light,Helvetica" font-size="40.6" fill="#000000" transform="matrix(1.00, 0.00, -0.00, -1.00, 347.3, 777.3)">p</text><text xml:space="preserve" font-family="Helvetica-Light,Helvetica" font-size="40.6" fill="#000000" transform="matrix(1.00, 0.00, -0.00, -1.00, 372.1, 777.3)"> </text><text xml:space="preserve" font-family="Helvetica-Light,Helvetica" font-size="30.4" fill="#000000" transform="matrix(1.00, 0.00, -0.00, -1.00, 137.0, 687.0)">•</text><text xml:space="preserve" font-family="Helvetica-Light,Helvetica" font-size="40.6" fill="#000000" transform="matrix(1.00, 0.00, -0.00, -1.00, 176.0, 683.3)">M</text><text xml:space="preserve" font-family="Helvetica-Light,Helvetica" font-size="40.6" fill="#000000" transform="matrix(1.00, 0.00, -0.00, -1.00, 209.8, 683.3)">o</text><text xml:space="preserve" font-family="Helvetica-Light,Helvetica" font-size="40.6" fill="#000000" transform="matrix(1.00, 0.00, -0.00, -1.00, 232.3, 683.3)">v</text><text xml:space="preserve" font-family="Helvetica-Light,Helvetica" font-size="40.6" fill="#000000" transform="matrix(1.00, 0.00, -0.00, -1.00, 252.6, 683.3)">e</text><text xml:space="preserve" font-family="Helvetica-Light,Helvetica" font-size="40.6" fill="#000000" transform="matrix(1.00, 0.00, -0.00, -1.00, 275.2, 683.3)"> </text><text xml:space="preserve" font-family="Helvetica-Light,Helvetica" font-size="40.6" fill="#000000" transform="matrix(1.00, 0.00, -0.00, -1.00, 286.4, 683.3)">s</text><text xml:space="preserve" font-family="Helvetica-Light,Helvetica" font-size="40.6" fill="#000000" transform="matrix(1.00, 0.00, -0.00, -1.00, 306.7, 683.3)">e</text><text xml:space="preserve" font-family="Helvetica-Light,Helvetica" font-size="40.6" fill="#000000" transform="matrix(1.00, 0.00, -0.00, -1.00, 329.3, 683.3)">m</text><text xml:space="preserve" font-family="Helvetica-Light,Helvetica" font-size="40.6" fill="#000000" transform="matrix(1.00, 0.00, -0.00, -1.00, 363.1, 683.3)">a</text><text xml:space="preserve" font-family="Helvetica-Light,Helvetica" font-size="40.6" fill="#000000" transform="matrix(1.00, 0.00, -0.00, -1.00, 385.6, 683.3)">n</text><text xml:space="preserve" font-family="Helvetica-Light,Helvetica" font-size="40.6" fill="#000000" transform="matrix(1.00, 0.00, -0.00, -1.00, 408.2, 683.3)">t</text><text xml:space="preserve" font-family="Helvetica-Light,Helvetica" font-size="40.6" fill="#000000" transform="matrix(1.00, 0.00, -0.00, -1.00, 419.4, 683.3)">i</text><text xml:space="preserve" font-family="Helvetica-Light,Helvetica" font-size="40.6" fill="#000000" transform="matrix(1.00, 0.00, -0.00, -1.00, 428.4, 683.3)">c</text><text xml:space="preserve" font-family="Helvetica-Light,Helvetica" font-size="40.6" fill="#000000" transform="matrix(1.00, 0.00, -0.00, -1.00, 451.0, 683.3)"> </text><text xml:space="preserve" font-family="Helvetica-Light,Helvetica" font-size="30.4" fill="#000000" transform="matrix(1.00, 0.00, -0.00, -1.00, 137.0, 593.0)">•</text><text xml:space="preserve" font-family="Helvetica-Light,Helvetica" font-size="40.6" fill="#000000" transform="matrix(1.00, 0.00, -0.00, -1.00, 176.0, 589.3)">B</text><text xml:space="preserve" font-family="Helvetica-Light,Helvetica" font-size="40.6" fill="#000000" transform="matrix(1.00, 0.00, -0.00, -1.00, 203.1, 589.3)">o</text><text xml:space="preserve" font-family="Helvetica-Light,Helvetica" font-size="40.6" fill="#000000" transform="matrix(1.00, 0.00, -0.00, -1.00, 225.6, 589.3)">r</text><text xml:space="preserve" font-family="Helvetica-Light,Helvetica" font-size="40.6" fill="#000000" transform="matrix(1.00, 0.00, -0.00, -1.00, 239.1, 589.3)">r</text><text xml:space="preserve" font-family="Helvetica-Light,Helvetica" font-size="40.6" fill="#000000" transform="matrix(1.00, 0.00, -0.00, -1.00, 251.9, 589.3)">o</text><text xml:space="preserve" font-family="Helvetica-Light,Helvetica" font-size="40.6" fill="#000000" transform="matrix(1.00, 0.00, -0.00, -1.00, 274.4, 589.3)">w</text><text xml:space="preserve" font-family="Helvetica-Light,Helvetica" font-size="40.6" fill="#000000" transform="matrix(1.00, 0.00, -0.00, -1.00, 303.7, 589.3)">s</text><text xml:space="preserve" font-family="Helvetica-Light,Helvetica" font-size="40.6" fill="#000000" transform="matrix(1.00, 0.00, -0.00, -1.00, 324.0, 589.3)"> </text><text xml:space="preserve" font-family="Helvetica-Light,Helvetica" font-size="40.6" fill="#000000" transform="matrix(1.00, 0.00, -0.00, -1.00, 335.3, 589.3)">a</text><text xml:space="preserve" font-family="Helvetica-Light,Helvetica" font-size="40.6" fill="#000000" transform="matrix(1.00, 0.00, -0.00, -1.00, 357.8, 589.3)">n</text><text xml:space="preserve" font-family="Helvetica-Light,Helvetica" font-size="40.6" fill="#000000" transform="matrix(1.00, 0.00, -0.00, -1.00, 380.4, 589.3)">d</text><text xml:space="preserve" font-family="Helvetica-Light,Helvetica" font-size="40.6" fill="#000000" transform="matrix(1.00, 0.00, -0.00, -1.00, 405.2, 589.3)"> </text><text xml:space="preserve" font-family="Helvetica-Light,Helvetica" font-size="40.6" fill="#000000" transform="matrix(1.00, 0.00, -0.00, -1.00, 416.4, 589.3)">l</text><text xml:space="preserve" font-family="Helvetica-Light,Helvetica" font-size="40.6" fill="#000000" transform="matrix(1.00, 0.00, -0.00, -1.00, 425.4, 589.3)">i</text><text xml:space="preserve" font-family="Helvetica-Light,Helvetica" font-size="40.6" fill="#000000" transform="matrix(1.00, 0.00, -0.00, -1.00, 434.4, 589.3)">f</text><text xml:space="preserve" font-family="Helvetica-Light,Helvetica" font-size="40.6" fill="#000000" transform="matrix(1.00, 0.00, -0.00, -1.00, 445.7, 589.3)">e</text><text xml:space="preserve" font-family="Helvetica-Light,Helvetica" font-size="40.6" fill="#000000" transform="matrix(1.00, 0.00, -0.00, -1.00, 468.3, 589.3)">t</text><text xml:space="preserve" font-family="Helvetica-Light,Helvetica" font-size="40.6" fill="#000000" transform="matrix(1.00, 0.00, -0.00, -1.00, 479.6, 589.3)">i</text><text xml:space="preserve" font-family="Helvetica-Light,Helvetica" font-size="40.6" fill="#000000" transform="matrix(1.00, 0.00, -0.00, -1.00, 488.6, 589.3)">m</text><text xml:space="preserve" font-family="Helvetica-Light,Helvetica" font-size="40.6" fill="#000000" transform="matrix(1.00, 0.00, -0.00, -1.00, 522.3, 589.3)">e</text><text xml:space="preserve" font-family="Helvetica-Light,Helvetica" font-size="40.6" fill="#000000" transform="matrix(1.00, 0.00, -0.00, -1.00, 544.9, 589.3)">s</text><text xml:space="preserve" font-family="Helvetica-Light,Helvetica" font-size="40.6" fill="#000000" transform="matrix(1.00, 0.00, -0.00, -1.00, 565.2, 589.3)"> </text><text xml:space="preserve" font-family="Helvetica-Light,Helvetica" font-size="30.4" fill="#000000" transform="matrix(1.00, 0.00, -0.00, -1.00, 137.0, 498.9)">•</text><text xml:space="preserve" font-family="Helvetica-Light,Helvetica" font-size="40.6" fill="#000000" transform="matrix(1.00, 0.00, -0.00, -1.00, 176.0, 495.3)">R</text><text xml:space="preserve" font-family="Helvetica-Light,Helvetica" font-size="40.6" fill="#000000" transform="matrix(1.00, 0.00, -0.00, -1.00, 203.1, 495.3)">A</text><text xml:space="preserve" font-family="Helvetica-Light,Helvetica" font-size="40.6" fill="#000000" transform="matrix(1.00, 0.00, -0.00, -1.00, 230.1, 495.3)">I</text><text xml:space="preserve" font-family="Helvetica-Light,Helvetica" font-size="40.6" fill="#000000" transform="matrix(1.00, 0.00, -0.00, -1.00, 241.4, 495.3)">I</text><text xml:space="preserve" font-family="Helvetica-Light,Helvetica" font-size="40.6" fill="#000000" transform="matrix(1.00, 0.00, -0.00, -1.00, 252.7, 495.3)"> </text><text xml:space="preserve" font-family="Helvetica-Light,Helvetica" font-size="30.4" fill="#000000" transform="matrix(1.00, 0.00, -0.00, -1.00, 187.0, 404.9)">•</text><text xml:space="preserve" font-family="Helvetica-Light,Helvetica" font-size="40.6" fill="#000000" transform="matrix(1.00, 0.00, -0.00, -1.00, 226.0, 401.2)">m</text><text xml:space="preserve" font-family="Helvetica-Light,Helvetica" font-size="40.6" fill="#000000" transform="matrix(1.00, 0.00, -0.00, -1.00, 259.8, 401.2)">e</text><text xml:space="preserve" font-family="Helvetica-Light,Helvetica" font-size="40.6" fill="#000000" transform="matrix(1.00, 0.00, -0.00, -1.00, 282.3, 401.2)">m</text><text xml:space="preserve" font-family="Helvetica-Light,Helvetica" font-size="40.6" fill="#000000" transform="matrix(1.00, 0.00, -0.00, -1.00, 316.1, 401.2)">o</text><text xml:space="preserve" font-family="Helvetica-Light,Helvetica" font-size="40.6" fill="#000000" transform="matrix(1.00, 0.00, -0.00, -1.00, 338.7, 401.2)">r</text><text xml:space="preserve" font-family="Helvetica-Light,Helvetica" font-size="40.6" fill="#000000" transform="matrix(1.00, 0.00, -0.00, -1.00, 352.9, 401.2)">y</text><text xml:space="preserve" font-family="Helvetica-Light,Helvetica" font-size="40.6" fill="#000000" transform="matrix(1.00, 0.00, -0.00, -1.00, 373.2, 401.2)"> </text><text xml:space="preserve" font-family="Helvetica-Light,Helvetica" font-size="30.4" fill="#000000" transform="matrix(1.00, 0.00, -0.00, -1.00, 187.0, 310.9)">•</text><text xml:space="preserve" font-family="Helvetica-Light,Helvetica" font-size="40.6" fill="#000000" transform="matrix(1.00, 0.00, -0.00, -1.00, 226.0, 307.2)">t</text><text xml:space="preserve" font-family="Helvetica-Light,Helvetica" font-size="40.6" fill="#000000" transform="matrix(1.00, 0.00, -0.00, -1.00, 237.3, 307.2)">h</text><text xml:space="preserve" font-family="Helvetica-Light,Helvetica" font-size="40.6" fill="#000000" transform="matrix(1.00, 0.00, -0.00, -1.00, 259.8, 307.2)">r</text><text xml:space="preserve" font-family="Helvetica-Light,Helvetica" font-size="40.6" fill="#000000" transform="matrix(1.00, 0.00, -0.00, -1.00, 272.6, 307.2)">e</text><text xml:space="preserve" font-family="Helvetica-Light,Helvetica" font-size="40.6" fill="#000000" transform="matrix(1.00, 0.00, -0.00, -1.00, 295.2, 307.2)">a</text><text xml:space="preserve" font-family="Helvetica-Light,Helvetica" font-size="40.6" fill="#000000" transform="matrix(1.00, 0.00, -0.00, -1.00, 317.7, 307.2)">d</text><text xml:space="preserve" font-family="Helvetica-Light,Helvetica" font-size="40.6" fill="#000000" transform="matrix(1.00, 0.00, -0.00, -1.00, 342.5, 307.2)">s</text><text xml:space="preserve" font-family="Helvetica-Light,Helvetica" font-size="40.6" fill="#000000" transform="matrix(1.00, 0.00, -0.00, -1.00, 362.8, 307.2)"> </text><text xml:space="preserve" font-family="Helvetica-Light,Helvetica" font-size="30.4" fill="#000000" transform="matrix(1.00, 0.00, -0.00, -1.00, 187.0, 216.9)">•</text><text xml:space="preserve" font-family="Helvetica-Light,Helvetica" font-size="40.6" fill="#000000" transform="matrix(1.00, 0.00, -0.00, -1.00, 226.0, 213.2)">ﬁ</text><text xml:space="preserve" font-family="Helvetica-Light,Helvetica" font-size="40.6" fill="#000000" transform="matrix(1.00, 0.00, -0.00, -1.00, 246.3, 213.2)">l</text><text xml:space="preserve" font-family="Helvetica-Light,Helvetica" font-size="40.6" fill="#000000" transform="matrix(1.00, 0.00, -0.00, -1.00, 255.3, 213.2)">e</text><text xml:space="preserve" font-family="Helvetica-Light,Helvetica" font-size="40.6" fill="#000000" transform="matrix(1.00, 0.00, -0.00, -1.00, 277.8, 213.2)"> </text><text xml:space="preserve" font-family="Helvetica-Light,Helvetica" font-size="40.6" fill="#000000" transform="matrix(1.00, 0.00, -0.00, -1.00, 289.1, 213.2)">d</text><text xml:space="preserve" font-family="Helvetica-Light,Helvetica" font-size="40.6" fill="#000000" transform="matrix(1.00, 0.00, -0.00, -1.00, 313.9, 213.2)">e</text><text xml:space="preserve" font-family="Helvetica-Light,Helvetica" font-size="40.6" fill="#000000" transform="matrix(1.00, 0.00, -0.00, -1.00, 336.4, 213.2)">s</text><text xml:space="preserve" font-family="Helvetica-Light,Helvetica" font-size="40.6" fill="#000000" transform="matrix(1.00, 0.00, -0.00, -1.00, 356.7, 213.2)">c</text><text xml:space="preserve" font-family="Helvetica-Light,Helvetica" font-size="40.6" fill="#000000" transform="matrix(1.00, 0.00, -0.00, -1.00, 379.3, 213.2)">r</text><text xml:space="preserve" font-family="Helvetica-Light,Helvetica" font-size="40.6" fill="#000000" transform="matrix(1.00, 0.00, -0.00, -1.00, 392.8, 213.2)">i</text><text xml:space="preserve" font-family="Helvetica-Light,Helvetica" font-size="40.6" fill="#000000" transform="matrix(1.00, 0.00, -0.00, -1.00, 401.8, 213.2)">p</text><text xml:space="preserve" font-family="Helvetica-Light,Helvetica" font-size="40.6" fill="#000000" transform="matrix(1.00, 0.00, -0.00, -1.00, 426.6, 213.2)">t</text><text xml:space="preserve" font-family="Helvetica-Light,Helvetica" font-size="40.6" fill="#000000" transform="matrix(1.00, 0.00, -0.00, -1.00, 437.8, 213.2)">i</text><text xml:space="preserve" font-family="Helvetica-Light,Helvetica" font-size="40.6" fill="#000000" transform="matrix(1.00, 0.00, -0.00, -1.00, 446.8, 213.2)">o</text><text xml:space="preserve" font-family="Helvetica-Light,Helvetica" font-size="40.6" fill="#000000" transform="matrix(1.00, 0.00, -0.00, -1.00, 469.4, 213.2)">n</text><text xml:space="preserve" font-family="Helvetica-Light,Helvetica" font-size="40.6" fill="#000000" transform="matrix(1.00, 0.00, -0.00, -1.00, 492.0, 213.2)">s</text><text xml:space="preserve" font-family="Helvetica-Light,Helvetica" font-size="40.6" fill="#000000" transform="matrix(1.00, 0.00, -0.00, -1.00, 512.2, 213.2)"> </text><text xml:space="preserve" font-family="Helvetica-Light,Helvetica" font-size="30.4" fill="#000000" transform="matrix(1.00, 0.00, -0.00, -1.00, 187.0, 122.9)">•</text><text xml:space="preserve" font-family="Helvetica-Light,Helvetica" font-size="40.6" fill="#000000" transform="matrix(1.00, 0.00, -0.00, -1.00, 226.0, 119.2)">e</text><text xml:space="preserve" font-family="Helvetica-Light,Helvetica" font-size="40.6" fill="#000000" transform="matrix(1.00, 0.00, -0.00, -1.00, 248.6, 119.2)">t</text><text xml:space="preserve" font-family="Helvetica-Light,Helvetica" font-size="40.6" fill="#000000" transform="matrix(1.00, 0.00, -0.00, -1.00, 259.8, 119.2)">c</text><text xml:space="preserve" font-family="Helvetica-Light,Helvetica" font-size="40.6" fill="#000000" transform="matrix(1.00, 0.00, -0.00, -1.00, 282.4, 119.2)">.</text></g></svg>