<?xml version="1.0" encoding="UTF-8" standalone="no"?><svg xmlns="http://www.w3.org/2000/svg" xmlns:xlink="http://www.w3.org/1999/xlink" clip-rule="evenodd" stroke-miterlimit="4.00" viewBox="0 0 1920 1080"><desc>SVG generated by Keynote</desc><defs></defs><g transform="matrix(1.00, 0.00, -0.00, -1.00, 0.0, 1080.0)"><path d="M 0.0 1080.0 L 1920.0 1080.0 L 1920.0 0.0 L 0.0 0.0 Z M 0.0 1080.0 " fill="#F4F4F4"></path><text xml:space="preserve" font-family="Helvetica-Light" font-size="112.0" fill="#000000" transform="matrix(1.00, 0.00, -0.00, -1.00, 336.0, 874.0)">P</text><text xml:space="preserve" font-family="Helvetica-Light" font-size="112.0" fill="#000000" transform="matrix(1.00, 0.00, -0.00, -1.00, 404.4, 874.0)">r</text><text xml:space="preserve" font-family="Helvetica-Light" font-size="112.0" fill="#000000" transform="matrix(1.00, 0.00, -0.00, -1.00, 439.7, 874.0)">o</text><text xml:space="preserve" font-family="Helvetica-Light" font-size="112.0" fill="#000000" transform="matrix(1.00, 0.00, -0.00, -1.00, 502.0, 874.0)">d</text><text xml:space="preserve" font-family="Helvetica-Light" font-size="112.0" fill="#000000" transform="matrix(1.00, 0.00, -0.00, -1.00, 570.4, 874.0)">u</text><text xml:space="preserve" font-family="Helvetica-Light" font-size="112.0" fill="#000000" transform="matrix(1.00, 0.00, -0.00, -1.00, 632.7, 874.0)">c</text><text xml:space="preserve" font-family="Helvetica-Light" font-size="112.0" fill="#000000" transform="matrix(1.00, 0.00, -0.00, -1.00, 695.0, 874.0)">t</text><text xml:space="preserve" font-family="Helvetica-Light" font-size="112.0" fill="#000000" transform="matrix(1.00, 0.00, -0.00, -1.00, 726.1, 874.0)"> </text><text xml:space="preserve" font-family="Helvetica-Light" font-size="112.0" fill="#000000" transform="matrix(1.00, 0.00, -0.00, -1.00, 757.2, 874.0)">t</text><text xml:space="preserve" font-family="Helvetica-Light" font-size="112.0" fill="#000000" transform="matrix(1.00, 0.00, -0.00, -1.00, 788.4, 874.0)">y</text><text xml:space="preserve" font-family="Helvetica-Light" font-size="112.0" fill="#000000" transform="matrix(1.00, 0.00, -0.00, -1.00, 844.4, 874.0)">p</text><text xml:space="preserve" font-family="Helvetica-Light" font-size="112.0" fill="#000000" transform="matrix(1.00, 0.00, -0.00, -1.00, 912.8, 874.0)">e</text><text xml:space="preserve" font-family="Helvetica-Light" font-size="112.0" fill="#000000" transform="matrix(1.00, 0.00, -0.00, -1.00, 975.1, 874.0)">s</text><text xml:space="preserve" font-family="Helvetica-Light" font-size="112.0" fill="#000000" transform="matrix(1.00, 0.00, -0.00, -1.00, 1031.1, 874.0)"> </text><text xml:space="preserve" font-family="Helvetica-Light" font-size="112.0" fill="#000000" transform="matrix(1.00, 0.00, -0.00, -1.00, 1062.2, 874.0)">-</text><text xml:space="preserve" font-family="Helvetica-Light" font-size="112.0" fill="#000000" transform="matrix(1.00, 0.00, -0.00, -1.00, 1099.5, 874.0)"> </text><text xml:space="preserve" font-family="Helvetica-Light" font-size="112.0" fill="#000000" transform="matrix(1.00, 0.00, -0.00, -1.00, 1130.6, 874.0)">S</text><text xml:space="preserve" font-family="Helvetica-Light" font-size="112.0" fill="#000000" transform="matrix(1.00, 0.00, -0.00, -1.00, 1199.1, 874.0)">t</text><text xml:space="preserve" font-family="Helvetica-Light" font-size="112.0" fill="#000000" transform="matrix(1.00, 0.00, -0.00, -1.00, 1230.2, 874.0)">r</text><text xml:space="preserve" font-family="Helvetica-Light" font-size="112.0" fill="#000000" transform="matrix(1.00, 0.00, -0.00, -1.00, 1267.5, 874.0)">u</text><text xml:space="preserve" font-family="Helvetica-Light" font-size="112.0" fill="#000000" transform="matrix(1.00, 0.00, -0.00, -1.00, 1329.8, 874.0)">c</text><text xml:space="preserve" font-family="Helvetica-Light" font-size="112.0" fill="#000000" transform="matrix(1.00, 0.00, -0.00, -1.00, 1392.0, 874.0)">t</text><text xml:space="preserve" font-family="Helvetica-Light" font-size="112.0" fill="#000000" transform="matrix(1.00, 0.00, -0.00, -1.00, 1423.2, 874.0)">u</text><text xml:space="preserve" font-family="Helvetica-Light" font-size="112.0" fill="#000000" transform="matrix(1.00, 0.00, -0.00, -1.00, 1485.5, 874.0)">r</text><text xml:space="preserve" font-family="Helvetica-Light" font-size="112.0" fill="#000000" transform="matrix(1.00, 0.00, -0.00, -1.00, 1520.7, 874.0)">e</text><text xml:space="preserve" font-family="Helvetica-Light" font-size="39.0" fill="#000000" transform="matrix(1.00, 0.00, -0.00, -1.00, 137.0, 706.3)">•</text><text xml:space="preserve" font-family="Helvetica-Light" font-size="52.0" fill="#000000" transform="matrix(1.00, 0.00, -0.00, -1.00, 187.0, 702.0)">u</text><text xml:space="preserve" font-family="Helvetica-Light" font-size="52.0" fill="#000000" transform="matrix(1.00, 0.00, -0.00, -1.00, 215.9, 702.0)">p</text><text xml:space="preserve" font-family="Helvetica-Light" font-size="52.0" fill="#000000" transform="matrix(1.00, 0.00, -0.00, -1.00, 247.7, 702.0)">d</text><text xml:space="preserve" font-family="Helvetica-Light" font-size="52.0" fill="#000000" transform="matrix(1.00, 0.00, -0.00, -1.00, 279.5, 702.0)">a</text><text xml:space="preserve" font-family="Helvetica-Light" font-size="52.0" fill="#000000" transform="matrix(1.00, 0.00, -0.00, -1.00, 308.4, 702.0)">t</text><text xml:space="preserve" font-family="Helvetica-Light" font-size="52.0" fill="#000000" transform="matrix(1.00, 0.00, -0.00, -1.00, 322.8, 702.0)">e</text><text xml:space="preserve" font-family="Helvetica-Light" font-size="52.0" fill="#000000" transform="matrix(1.00, 0.00, -0.00, -1.00, 351.7, 702.0)"> </text><text xml:space="preserve" font-family="Helvetica-Light" font-size="52.0" fill="#000000" transform="matrix(1.00, 0.00, -0.00, -1.00, 366.2, 702.0)">s</text><text xml:space="preserve" font-family="Helvetica-Light" font-size="52.0" fill="#000000" transform="matrix(1.00, 0.00, -0.00, -1.00, 392.2, 702.0)">y</text><text xml:space="preserve" font-family="Helvetica-Light" font-size="52.0" fill="#000000" transform="matrix(1.00, 0.00, -0.00, -1.00, 418.2, 702.0)">n</text><text xml:space="preserve" font-family="Helvetica-Light" font-size="52.0" fill="#000000" transform="matrix(1.00, 0.00, -0.00, -1.00, 447.1, 702.0)">t</text><text xml:space="preserve" font-family="Helvetica-Light" font-size="52.0" fill="#000000" transform="matrix(1.00, 0.00, -0.00, -1.00, 461.6, 702.0)">a</text><text xml:space="preserve" font-family="Helvetica-Light" font-size="52.0" fill="#000000" transform="matrix(1.00, 0.00, -0.00, -1.00, 490.5, 702.0)">x</text><text xml:space="preserve" font-family="Helvetica-Light" font-size="52.0" fill="#000000" transform="matrix(1.00, 0.00, -0.00, -1.00, 516.5, 702.0)">:</text><text xml:space="preserve" font-family="Helvetica-Light" font-size="52.0" fill="#000000" transform="matrix(1.00, 0.00, -0.00, -1.00, 530.9, 702.0)"> </text><text xml:space="preserve" font-family="PragmataPro" font-size="52.0" fill="#000000" transform="matrix(1.00, 0.00, -0.00, -1.00, 545.4, 702.0)">.</text><text xml:space="preserve" font-family="PragmataPro" font-size="52.0" fill="#000000" transform="matrix(1.00, 0.00, -0.00, -1.00, 572.3, 702.0)">.</text><text xml:space="preserve" font-family="Helvetica-Light" font-size="52.0" fill="#000000" transform="matrix(1.00, 0.00, -0.00, -1.00, 599.2, 702.0)"> </text><text xml:space="preserve" font-family="Helvetica-Light" font-size="39.0" fill="#000000" transform="matrix(1.00, 0.00, -0.00, -1.00, 137.0, 592.0)">•</text><text xml:space="preserve" font-family="Helvetica-Light" font-size="52.0" fill="#000000" transform="matrix(1.00, 0.00, -0.00, -1.00, 187.0, 588.0)">u</text><text xml:space="preserve" font-family="Helvetica-Light" font-size="52.0" fill="#000000" transform="matrix(1.00, 0.00, -0.00, -1.00, 215.9, 588.0)">s</text><text xml:space="preserve" font-family="Helvetica-Light" font-size="52.0" fill="#000000" transform="matrix(1.00, 0.00, -0.00, -1.00, 241.9, 588.0)">e</text><text xml:space="preserve" font-family="Helvetica-Light" font-size="52.0" fill="#000000" transform="matrix(1.00, 0.00, -0.00, -1.00, 270.8, 588.0)">f</text><text xml:space="preserve" font-family="Helvetica-Light" font-size="52.0" fill="#000000" transform="matrix(1.00, 0.00, -0.00, -1.00, 285.3, 588.0)">u</text><text xml:space="preserve" font-family="Helvetica-Light" font-size="52.0" fill="#000000" transform="matrix(1.00, 0.00, -0.00, -1.00, 314.2, 588.0)">l</text><text xml:space="preserve" font-family="Helvetica-Light" font-size="52.0" fill="#000000" transform="matrix(1.00, 0.00, -0.00, -1.00, 325.7, 588.0)"> </text><text xml:space="preserve" font-family="Helvetica-Light" font-size="52.0" fill="#000000" transform="matrix(1.00, 0.00, -0.00, -1.00, 340.2, 588.0)">w</text><text xml:space="preserve" font-family="Helvetica-Light" font-size="52.0" fill="#000000" transform="matrix(1.00, 0.00, -0.00, -1.00, 377.7, 588.0)">h</text><text xml:space="preserve" font-family="Helvetica-Light" font-size="52.0" fill="#000000" transform="matrix(1.00, 0.00, -0.00, -1.00, 406.6, 588.0)">e</text><text xml:space="preserve" font-family="Helvetica-Light" font-size="52.0" fill="#000000" transform="matrix(1.00, 0.00, -0.00, -1.00, 435.6, 588.0)">n</text><text xml:space="preserve" font-family="Helvetica-Light" font-size="52.0" fill="#000000" transform="matrix(1.00, 0.00, -0.00, -1.00, 464.5, 588.0)"> </text><text xml:space="preserve" font-family="Helvetica-Light" font-size="52.0" fill="#000000" transform="matrix(1.00, 0.00, -0.00, -1.00, 478.9, 588.0)">w</text><text xml:space="preserve" font-family="Helvetica-Light" font-size="52.0" fill="#000000" transform="matrix(1.00, 0.00, -0.00, -1.00, 516.5, 588.0)">o</text><text xml:space="preserve" font-family="Helvetica-Light" font-size="52.0" fill="#000000" transform="matrix(1.00, 0.00, -0.00, -1.00, 545.4, 588.0)">r</text><text xml:space="preserve" font-family="Helvetica-Light" font-size="52.0" fill="#000000" transform="matrix(1.00, 0.00, -0.00, -1.00, 562.7, 588.0)">k</text><text xml:space="preserve" font-family="Helvetica-Light" font-size="52.0" fill="#000000" transform="matrix(1.00, 0.00, -0.00, -1.00, 588.7, 588.0)">i</text><text xml:space="preserve" font-family="Helvetica-Light" font-size="52.0" fill="#000000" transform="matrix(1.00, 0.00, -0.00, -1.00, 600.2, 588.0)">n</text><text xml:space="preserve" font-family="Helvetica-Light" font-size="52.0" fill="#000000" transform="matrix(1.00, 0.00, -0.00, -1.00, 629.2, 588.0)">g</text><text xml:space="preserve" font-family="Helvetica-Light" font-size="52.0" fill="#000000" transform="matrix(1.00, 0.00, -0.00, -1.00, 660.9, 588.0)"> </text><text xml:space="preserve" font-family="Helvetica-Light" font-size="52.0" fill="#000000" transform="matrix(1.00, 0.00, -0.00, -1.00, 675.4, 588.0)">w</text><text xml:space="preserve" font-family="Helvetica-Light" font-size="52.0" fill="#000000" transform="matrix(1.00, 0.00, -0.00, -1.00, 712.9, 588.0)">i</text><text xml:space="preserve" font-family="Helvetica-Light" font-size="52.0" fill="#000000" transform="matrix(1.00, 0.00, -0.00, -1.00, 724.5, 588.0)">t</text><text xml:space="preserve" font-family="Helvetica-Light" font-size="52.0" fill="#000000" transform="matrix(1.00, 0.00, -0.00, -1.00, 738.9, 588.0)">h</text><text xml:space="preserve" font-family="Helvetica-Light" font-size="52.0" fill="#000000" transform="matrix(1.00, 0.00, -0.00, -1.00, 767.8, 588.0)"> </text><text xml:space="preserve" font-family="Helvetica-Light" font-size="52.0" fill="#000000" transform="matrix(1.00, 0.00, -0.00, -1.00, 782.3, 588.0)">i</text><text xml:space="preserve" font-family="Helvetica-Light" font-size="52.0" fill="#000000" transform="matrix(1.00, 0.00, -0.00, -1.00, 793.8, 588.0)">m</text><text xml:space="preserve" font-family="Helvetica-Light" font-size="52.0" fill="#000000" transform="matrix(1.00, 0.00, -0.00, -1.00, 837.2, 588.0)">m</text><text xml:space="preserve" font-family="Helvetica-Light" font-size="52.0" fill="#000000" transform="matrix(1.00, 0.00, -0.00, -1.00, 880.5, 588.0)">u</text><text xml:space="preserve" font-family="Helvetica-Light" font-size="52.0" fill="#000000" transform="matrix(1.00, 0.00, -0.00, -1.00, 909.4, 588.0)">t</text><text xml:space="preserve" font-family="Helvetica-Light" font-size="52.0" fill="#000000" transform="matrix(1.00, 0.00, -0.00, -1.00, 923.8, 588.0)">a</text><text xml:space="preserve" font-family="Helvetica-Light" font-size="52.0" fill="#000000" transform="matrix(1.00, 0.00, -0.00, -1.00, 952.8, 588.0)">b</text><text xml:space="preserve" font-family="Helvetica-Light" font-size="52.0" fill="#000000" transform="matrix(1.00, 0.00, -0.00, -1.00, 984.5, 588.0)">l</text><text xml:space="preserve" font-family="Helvetica-Light" font-size="52.0" fill="#000000" transform="matrix(1.00, 0.00, -0.00, -1.00, 996.1, 588.0)">e</text><text xml:space="preserve" font-family="Helvetica-Light" font-size="52.0" fill="#000000" transform="matrix(1.00, 0.00, -0.00, -1.00, 1025.0, 588.0)"> </text><text xml:space="preserve" font-family="Helvetica-Light" font-size="52.0" fill="#000000" transform="matrix(1.00, 0.00, -0.00, -1.00, 1039.4, 588.0)">o</text><text xml:space="preserve" font-family="Helvetica-Light" font-size="52.0" fill="#000000" transform="matrix(1.00, 0.00, -0.00, -1.00, 1068.3, 588.0)">b</text><text xml:space="preserve" font-family="Helvetica-Light" font-size="52.0" fill="#000000" transform="matrix(1.00, 0.00, -0.00, -1.00, 1100.1, 588.0)">j</text><text xml:space="preserve" font-family="Helvetica-Light" font-size="52.0" fill="#000000" transform="matrix(1.00, 0.00, -0.00, -1.00, 1111.7, 588.0)">e</text><text xml:space="preserve" font-family="Helvetica-Light" font-size="52.0" fill="#000000" transform="matrix(1.00, 0.00, -0.00, -1.00, 1140.6, 588.0)">c</text><text xml:space="preserve" font-family="Helvetica-Light" font-size="52.0" fill="#000000" transform="matrix(1.00, 0.00, -0.00, -1.00, 1169.5, 588.0)">t</text><text xml:space="preserve" font-family="Helvetica-Light" font-size="52.0" fill="#000000" transform="matrix(1.00, 0.00, -0.00, -1.00, 1183.9, 588.0)">s</text><text xml:space="preserve" font-family="Helvetica-Light" font-size="52.0" fill="#000000" transform="matrix(1.00, 0.00, -0.00, -1.00, 1209.9, 588.0)"> </text><text xml:space="preserve" font-family="Helvetica-Light" font-size="52.0" fill="#000000" transform="matrix(1.00, 0.00, -0.00, -1.00, 1224.4, 588.0)">o</text><text xml:space="preserve" font-family="Helvetica-Light" font-size="52.0" fill="#000000" transform="matrix(1.00, 0.00, -0.00, -1.00, 1253.3, 588.0)">r</text><text xml:space="preserve" font-family="Helvetica-Light" font-size="52.0" fill="#000000" transform="matrix(1.00, 0.00, -0.00, -1.00, 1270.6, 588.0)"> </text><text xml:space="preserve" font-family="Helvetica-Light" font-size="52.0" fill="#000000" transform="matrix(1.00, 0.00, -0.00, -1.00, 1285.1, 588.0)">w</text><text xml:space="preserve" font-family="Helvetica-Light" font-size="52.0" fill="#000000" transform="matrix(1.00, 0.00, -0.00, -1.00, 1322.6, 588.0)">h</text><text xml:space="preserve" font-family="Helvetica-Light" font-size="52.0" fill="#000000" transform="matrix(1.00, 0.00, -0.00, -1.00, 1351.5, 588.0)">e</text><text xml:space="preserve" font-family="Helvetica-Light" font-size="52.0" fill="#000000" transform="matrix(1.00, 0.00, -0.00, -1.00, 1380.5, 588.0)">n</text><text xml:space="preserve" font-family="Helvetica-Light" font-size="52.0" fill="#000000" transform="matrix(1.00, 0.00, -0.00, -1.00, 1409.4, 588.0)"> </text><text xml:space="preserve" font-family="Helvetica-Light" font-size="52.0" fill="#000000" transform="matrix(1.00, 0.00, -0.00, -1.00, 1423.8, 588.0)">c</text><text xml:space="preserve" font-family="Helvetica-Light" font-size="52.0" fill="#000000" transform="matrix(1.00, 0.00, -0.00, -1.00, 1452.7, 588.0)">h</text><text xml:space="preserve" font-family="Helvetica-Light" font-size="52.0" fill="#000000" transform="matrix(1.00, 0.00, -0.00, -1.00, 1481.6, 588.0)">a</text><text xml:space="preserve" font-family="Helvetica-Light" font-size="52.0" fill="#000000" transform="matrix(1.00, 0.00, -0.00, -1.00, 1510.6, 588.0)">n</text><text xml:space="preserve" font-family="Helvetica-Light" font-size="52.0" fill="#000000" transform="matrix(1.00, 0.00, -0.00, -1.00, 1539.5, 588.0)">g</text><text xml:space="preserve" font-family="Helvetica-Light" font-size="52.0" fill="#000000" transform="matrix(1.00, 0.00, -0.00, -1.00, 1571.2, 588.0)">i</text><text xml:space="preserve" font-family="Helvetica-Light" font-size="52.0" fill="#000000" transform="matrix(1.00, 0.00, -0.00, -1.00, 1582.8, 588.0)">n</text><text xml:space="preserve" font-family="Helvetica-Light" font-size="52.0" fill="#000000" transform="matrix(1.00, 0.00, -0.00, -1.00, 1611.7, 588.0)">g</text><text xml:space="preserve" font-family="Helvetica-Light" font-size="52.0" fill="#000000" transform="matrix(1.00, 0.00, -0.00, -1.00, 1643.5, 588.0)"> </text><text xml:space="preserve" font-family="Helvetica-Light" font-size="52.0" fill="#000000" transform="matrix(1.00, 0.00, -0.00, -1.00, 187.0, 525.0)">d</text><text xml:space="preserve" font-family="Helvetica-Light" font-size="52.0" fill="#000000" transform="matrix(1.00, 0.00, -0.00, -1.00, 218.8, 525.0)">e</text><text xml:space="preserve" font-family="Helvetica-Light" font-size="52.0" fill="#000000" transform="matrix(1.00, 0.00, -0.00, -1.00, 247.7, 525.0)">f</text><text xml:space="preserve" font-family="Helvetica-Light" font-size="52.0" fill="#000000" transform="matrix(1.00, 0.00, -0.00, -1.00, 262.1, 525.0)">a</text><text xml:space="preserve" font-family="Helvetica-Light" font-size="52.0" fill="#000000" transform="matrix(1.00, 0.00, -0.00, -1.00, 291.1, 525.0)">u</text><text xml:space="preserve" font-family="Helvetica-Light" font-size="52.0" fill="#000000" transform="matrix(1.00, 0.00, -0.00, -1.00, 320.0, 525.0)">l</text><text xml:space="preserve" font-family="Helvetica-Light" font-size="52.0" fill="#000000" transform="matrix(1.00, 0.00, -0.00, -1.00, 331.5, 525.0)">t</text><text xml:space="preserve" font-family="Helvetica-Light" font-size="52.0" fill="#000000" transform="matrix(1.00, 0.00, -0.00, -1.00, 346.0, 525.0)"> </text><text xml:space="preserve" font-family="Helvetica-Light" font-size="52.0" fill="#000000" transform="matrix(1.00, 0.00, -0.00, -1.00, 360.4, 525.0)">v</text><text xml:space="preserve" font-family="Helvetica-Light" font-size="52.0" fill="#000000" transform="matrix(1.00, 0.00, -0.00, -1.00, 386.4, 525.0)">a</text><text xml:space="preserve" font-family="Helvetica-Light" font-size="52.0" fill="#000000" transform="matrix(1.00, 0.00, -0.00, -1.00, 415.3, 525.0)">l</text><text xml:space="preserve" font-family="Helvetica-Light" font-size="52.0" fill="#000000" transform="matrix(1.00, 0.00, -0.00, -1.00, 426.9, 525.0)">u</text><text xml:space="preserve" font-family="Helvetica-Light" font-size="52.0" fill="#000000" transform="matrix(1.00, 0.00, -0.00, -1.00, 455.8, 525.0)">e</text><text xml:space="preserve" font-family="Helvetica-Light" font-size="52.0" fill="#000000" transform="matrix(1.00, 0.00, -0.00, -1.00, 484.7, 525.0)">s</text><text xml:space="preserve" font-family="Helvetica-Light" font-size="52.0" fill="#000000" transform="matrix(1.00, 0.00, -0.00, -1.00, 510.7, 525.0)"> </text><text xml:space="preserve" font-family="Helvetica-Light" font-size="52.0" fill="#000000" transform="matrix(1.00, 0.00, -0.00, -1.00, 525.2, 525.0)">(</text><text xml:space="preserve" font-family="PragmataPro" font-size="52.0" fill="#000000" transform="matrix(1.00, 0.00, -0.00, -1.00, 542.5, 525.0)">D</text><text xml:space="preserve" font-family="PragmataPro" font-size="52.0" fill="#000000" transform="matrix(1.00, 0.00, -0.00, -1.00, 569.4, 525.0)">e</text><text xml:space="preserve" font-family="PragmataPro" font-size="52.0" fill="#000000" transform="matrix(1.00, 0.00, -0.00, -1.00, 596.3, 525.0)">f</text><text xml:space="preserve" font-family="PragmataPro" font-size="52.0" fill="#000000" transform="matrix(1.00, 0.00, -0.00, -1.00, 623.2, 525.0)">a</text><text xml:space="preserve" font-family="PragmataPro" font-size="52.0" fill="#000000" transform="matrix(1.00, 0.00, -0.00, -1.00, 650.0, 525.0)">u</text><text xml:space="preserve" font-family="PragmataPro" font-size="52.0" fill="#000000" transform="matrix(1.00, 0.00, -0.00, -1.00, 676.9, 525.0)">l</text><text xml:space="preserve" font-family="PragmataPro" font-size="52.0" fill="#000000" transform="matrix(1.00, 0.00, -0.00, -1.00, 703.8, 525.0)">t</text><text xml:space="preserve" font-family="Helvetica-Light" font-size="52.0" fill="#000000" transform="matrix(1.00, 0.00, -0.00, -1.00, 730.9, 525.0)"> </text><text xml:space="preserve" font-family="Helvetica-Light" font-size="52.0" fill="#000000" transform="matrix(1.00, 0.00, -0.00, -1.00, 745.3, 525.0)">t</text><text xml:space="preserve" font-family="Helvetica-Light" font-size="52.0" fill="#000000" transform="matrix(1.00, 0.00, -0.00, -1.00, 759.8, 525.0)">r</text><text xml:space="preserve" font-family="Helvetica-Light" font-size="52.0" fill="#000000" transform="matrix(1.00, 0.00, -0.00, -1.00, 777.1, 525.0)">a</text><text xml:space="preserve" font-family="Helvetica-Light" font-size="52.0" fill="#000000" transform="matrix(1.00, 0.00, -0.00, -1.00, 806.0, 525.0)">i</text><text xml:space="preserve" font-family="Helvetica-Light" font-size="52.0" fill="#000000" transform="matrix(1.00, 0.00, -0.00, -1.00, 817.6, 525.0)">t</text><text xml:space="preserve" font-family="Helvetica-Light" font-size="52.0" fill="#000000" transform="matrix(1.00, 0.00, -0.00, -1.00, 832.0, 525.0)">)</text><text xml:space="preserve" font-family="Courier" font-size="38.0" fill="#20677E" transform="matrix(1.00, 0.00, -0.00, -1.00, 137.0, 370.0)">s</text><text xml:space="preserve" font-family="Courier" font-size="38.0" fill="#20677E" transform="matrix(1.00, 0.00, -0.00, -1.00, 159.8, 370.0)">t</text><text xml:space="preserve" font-family="Courier" font-size="38.0" fill="#20677E" transform="matrix(1.00, 0.00, -0.00, -1.00, 182.6, 370.0)">r</text><text xml:space="preserve" font-family="Courier" font-size="38.0" fill="#20677E" transform="matrix(1.00, 0.00, -0.00, -1.00, 205.4, 370.0)">u</text><text xml:space="preserve" font-family="Courier" font-size="38.0" fill="#20677E" transform="matrix(1.00, 0.00, -0.00, -1.00, 228.2, 370.0)">c</text><text xml:space="preserve" font-family="Courier" font-size="38.0" fill="#20677E" transform="matrix(1.00, 0.00, -0.00, -1.00, 251.0, 370.0)">t</text><text xml:space="preserve" font-family="Courier" font-size="38.0" fill="#20677E" transform="matrix(1.00, 0.00, -0.00, -1.00, 273.8, 370.0)"> </text><text xml:space="preserve" font-family="Courier" font-size="38.0" fill="#404040" transform="matrix(1.00, 0.00, -0.00, -1.00, 296.6, 370.0)">P</text><text xml:space="preserve" font-family="Courier" font-size="38.0" fill="#404040" transform="matrix(1.00, 0.00, -0.00, -1.00, 319.4, 370.0)">o</text><text xml:space="preserve" font-family="Courier" font-size="38.0" fill="#404040" transform="matrix(1.00, 0.00, -0.00, -1.00, 342.2, 370.0)">i</text><text xml:space="preserve" font-family="Courier" font-size="38.0" fill="#404040" transform="matrix(1.00, 0.00, -0.00, -1.00, 365.0, 370.0)">n</text><text xml:space="preserve" font-family="Courier" font-size="38.0" fill="#404040" transform="matrix(1.00, 0.00, -0.00, -1.00, 387.9, 370.0)">t</text><text xml:space="preserve" font-family="Courier" font-size="38.0" fill="#404040" transform="matrix(1.00, 0.00, -0.00, -1.00, 410.7, 370.0)">3</text><text xml:space="preserve" font-family="Courier" font-size="38.0" fill="#404040" transform="matrix(1.00, 0.00, -0.00, -1.00, 433.5, 370.0)">d</text><text xml:space="preserve" font-family="Courier" font-size="38.0" fill="#404040" transform="matrix(1.00, 0.00, -0.00, -1.00, 456.3, 370.0)"> </text><text xml:space="preserve" font-family="Courier" font-size="38.0" fill="#404040" transform="matrix(1.00, 0.00, -0.00, -1.00, 479.1, 370.0)">{</text><text xml:space="preserve" font-family="Courier" font-size="38.0" fill="#404040" transform="matrix(1.00, 0.00, -0.00, -1.00, 173.0, 324.0)">x</text><text xml:space="preserve" font-family="Courier" font-size="38.0" fill="#404040" transform="matrix(1.00, 0.00, -0.00, -1.00, 195.8, 324.0)">:</text><text xml:space="preserve" font-family="Courier" font-size="38.0" fill="#404040" transform="matrix(1.00, 0.00, -0.00, -1.00, 218.6, 324.0)"> </text><text xml:space="preserve" font-family="Courier" font-size="38.0" fill="#BE511B" transform="matrix(1.00, 0.00, -0.00, -1.00, 241.4, 324.0)">i</text><text xml:space="preserve" font-family="Courier" font-size="38.0" fill="#BE511B" transform="matrix(1.00, 0.00, -0.00, -1.00, 264.2, 324.0)">3</text><text xml:space="preserve" font-family="Courier" font-size="38.0" fill="#BE511B" transform="matrix(1.00, 0.00, -0.00, -1.00, 287.0, 324.0)">2</text><text xml:space="preserve" font-family="Courier" font-size="38.0" fill="#404040" transform="matrix(1.00, 0.00, -0.00, -1.00, 309.8, 324.0)">,</text><text xml:space="preserve" font-family="Courier" font-size="38.0" fill="#404040" transform="matrix(1.00, 0.00, -0.00, -1.00, 173.0, 278.0)">y</text><text xml:space="preserve" font-family="Courier" font-size="38.0" fill="#404040" transform="matrix(1.00, 0.00, -0.00, -1.00, 195.8, 278.0)">:</text><text xml:space="preserve" font-family="Courier" font-size="38.0" fill="#404040" transform="matrix(1.00, 0.00, -0.00, -1.00, 218.6, 278.0)"> </text><text xml:space="preserve" font-family="Courier" font-size="38.0" fill="#BE511B" transform="matrix(1.00, 0.00, -0.00, -1.00, 241.4, 278.0)">i</text><text xml:space="preserve" font-family="Courier" font-size="38.0" fill="#BE511B" transform="matrix(1.00, 0.00, -0.00, -1.00, 264.2, 278.0)">3</text><text xml:space="preserve" font-family="Courier" font-size="38.0" fill="#BE511B" transform="matrix(1.00, 0.00, -0.00, -1.00, 287.0, 278.0)">2</text><text xml:space="preserve" font-family="Courier" font-size="38.0" fill="#404040" transform="matrix(1.00, 0.00, -0.00, -1.00, 309.8, 278.0)">,</text><text xml:space="preserve" font-family="Courier" font-size="38.0" fill="#404040" transform="matrix(1.00, 0.00, -0.00, -1.00, 173.0, 232.0)">z</text><text xml:space="preserve" font-family="Courier" font-size="38.0" fill="#404040" transform="matrix(1.00, 0.00, -0.00, -1.00, 195.8, 232.0)">:</text><text xml:space="preserve" font-family="Courier" font-size="38.0" fill="#404040" transform="matrix(1.00, 0.00, -0.00, -1.00, 218.6, 232.0)"> </text><text xml:space="preserve" font-family="Courier" font-size="38.0" fill="#BE511B" transform="matrix(1.00, 0.00, -0.00, -1.00, 241.4, 232.0)">i</text><text xml:space="preserve" font-family="Courier" font-size="38.0" fill="#BE511B" transform="matrix(1.00, 0.00, -0.00, -1.00, 264.2, 232.0)">3</text><text xml:space="preserve" font-family="Courier" font-size="38.0" fill="#BE511B" transform="matrix(1.00, 0.00, -0.00, -1.00, 287.0, 232.0)">2</text><text xml:space="preserve" font-family="Courier" font-size="38.0" fill="#404040" transform="matrix(1.00, 0.00, -0.00, -1.00, 309.8, 232.0)">,</text><text xml:space="preserve" font-family="Courier" font-size="38.0" fill="#404040" transform="matrix(1.00, 0.00, -0.00, -1.00, 137.0, 186.0)">}</text><text xml:space="preserve" font-family="Courier" font-size="38.0" fill="#20677E" transform="matrix(1.00, 0.00, -0.00, -1.00, 137.0, 94.0)">l</text><text xml:space="preserve" font-family="Courier" font-size="38.0" fill="#20677E" transform="matrix(1.00, 0.00, -0.00, -1.00, 159.8, 94.0)">e</text><text xml:space="preserve" font-family="Courier" font-size="38.0" fill="#20677E" transform="matrix(1.00, 0.00, -0.00, -1.00, 182.6, 94.0)">t</text><text xml:space="preserve" font-family="Courier" font-size="38.0" fill="#20677E" transform="matrix(1.00, 0.00, -0.00, -1.00, 205.4, 94.0)"> </text><text xml:space="preserve" font-family="Courier" font-size="38.0" fill="#404040" transform="matrix(1.00, 0.00, -0.00, -1.00, 228.2, 94.0)">o</text><text xml:space="preserve" font-family="Courier" font-size="38.0" fill="#404040" transform="matrix(1.00, 0.00, -0.00, -1.00, 251.0, 94.0)">r</text><text xml:space="preserve" font-family="Courier" font-size="38.0" fill="#404040" transform="matrix(1.00, 0.00, -0.00, -1.00, 273.8, 94.0)">i</text><text xml:space="preserve" font-family="Courier" font-size="38.0" fill="#404040" transform="matrix(1.00, 0.00, -0.00, -1.00, 296.6, 94.0)">g</text><text xml:space="preserve" font-family="Courier" font-size="38.0" fill="#404040" transform="matrix(1.00, 0.00, -0.00, -1.00, 319.4, 94.0)">i</text><text xml:space="preserve" font-family="Courier" font-size="38.0" fill="#404040" transform="matrix(1.00, 0.00, -0.00, -1.00, 342.3, 94.0)">n</text><text xml:space="preserve" font-family="Courier" font-size="38.0" fill="#404040" transform="matrix(1.00, 0.00, -0.00, -1.00, 365.1, 94.0)"> </text><text xml:space="preserve" font-family="Courier" font-size="38.0" fill="#404040" transform="matrix(1.00, 0.00, -0.00, -1.00, 387.9, 94.0)">=</text><text xml:space="preserve" font-family="Courier" font-size="38.0" fill="#404040" transform="matrix(1.00, 0.00, -0.00, -1.00, 410.7, 94.0)"> </text><text xml:space="preserve" font-family="Courier" font-size="38.0" fill="#404040" transform="matrix(1.00, 0.00, -0.00, -1.00, 433.5, 94.0)">P</text><text xml:space="preserve" font-family="Courier" font-size="38.0" fill="#404040" transform="matrix(1.00, 0.00, -0.00, -1.00, 456.3, 94.0)">o</text><text xml:space="preserve" font-family="Courier" font-size="38.0" fill="#404040" transform="matrix(1.00, 0.00, -0.00, -1.00, 479.1, 94.0)">i</text><text xml:space="preserve" font-family="Courier" font-size="38.0" fill="#404040" transform="matrix(1.00, 0.00, -0.00, -1.00, 501.9, 94.0)">n</text><text xml:space="preserve" font-family="Courier" font-size="38.0" fill="#404040" transform="matrix(1.00, 0.00, -0.00, -1.00, 524.7, 94.0)">t</text><text xml:space="preserve" font-family="Courier" font-size="38.0" fill="#404040" transform="matrix(1.00, 0.00, -0.00, -1.00, 547.5, 94.0)">3</text><text xml:space="preserve" font-family="Courier" font-size="38.0" fill="#404040" transform="matrix(1.00, 0.00, -0.00, -1.00, 570.3, 94.0)">d</text><text xml:space="preserve" font-family="Courier" font-size="38.0" fill="#404040" transform="matrix(1.00, 0.00, -0.00, -1.00, 593.1, 94.0)"> </text><text xml:space="preserve" font-family="Courier" font-size="38.0" fill="#404040" transform="matrix(1.00, 0.00, -0.00, -1.00, 615.9, 94.0)">{</text><text xml:space="preserve" font-family="Courier" font-size="38.0" fill="#404040" transform="matrix(1.00, 0.00, -0.00, -1.00, 638.8, 94.0)"> </text><text xml:space="preserve" font-family="Courier" font-size="38.0" fill="#404040" transform="matrix(1.00, 0.00, -0.00, -1.00, 661.6, 94.0)">x</text><text xml:space="preserve" font-family="Courier" font-size="38.0" fill="#404040" transform="matrix(1.00, 0.00, -0.00, -1.00, 684.4, 94.0)">:</text><text xml:space="preserve" font-family="Courier" font-size="38.0" fill="#404040" transform="matrix(1.00, 0.00, -0.00, -1.00, 707.2, 94.0)"> </text><text xml:space="preserve" font-family="Courier" font-size="38.0" fill="#7C50A3" transform="matrix(1.00, 0.00, -0.00, -1.00, 729.9, 94.0)">0</text><text xml:space="preserve" font-family="Courier" font-size="38.0" fill="#404040" transform="matrix(1.00, 0.00, -0.00, -1.00, 752.7, 94.0)">,</text><text xml:space="preserve" font-family="Courier" font-size="38.0" fill="#404040" transform="matrix(1.00, 0.00, -0.00, -1.00, 775.5, 94.0)"> </text><text xml:space="preserve" font-family="Courier" font-size="38.0" fill="#404040" transform="matrix(1.00, 0.00, -0.00, -1.00, 798.3, 94.0)">y</text><text xml:space="preserve" font-family="Courier" font-size="38.0" fill="#404040" transform="matrix(1.00, 0.00, -0.00, -1.00, 821.1, 94.0)">:</text><text xml:space="preserve" font-family="Courier" font-size="38.0" fill="#404040" transform="matrix(1.00, 0.00, -0.00, -1.00, 843.9, 94.0)"> </text><text xml:space="preserve" font-family="Courier" font-size="38.0" fill="#7C50A3" transform="matrix(1.00, 0.00, -0.00, -1.00, 866.7, 94.0)">0</text><text xml:space="preserve" font-family="Courier" font-size="38.0" fill="#404040" transform="matrix(1.00, 0.00, -0.00, -1.00, 889.5, 94.0)">,</text><text xml:space="preserve" font-family="Courier" font-size="38.0" fill="#404040" transform="matrix(1.00, 0.00, -0.00, -1.00, 912.3, 94.0)"> </text><text xml:space="preserve" font-family="Courier" font-size="38.0" fill="#404040" transform="matrix(1.00, 0.00, -0.00, -1.00, 935.1, 94.0)">z</text><text xml:space="preserve" font-family="Courier" font-size="38.0" fill="#404040" transform="matrix(1.00, 0.00, -0.00, -1.00, 957.9, 94.0)">:</text><text xml:space="preserve" font-family="Courier" font-size="38.0" fill="#404040" transform="matrix(1.00, 0.00, -0.00, -1.00, 980.8, 94.0)"> </text><text xml:space="preserve" font-family="Courier" font-size="38.0" fill="#7C50A3" transform="matrix(1.00, 0.00, -0.00, -1.00, 1003.5, 94.0)">0</text><text xml:space="preserve" font-family="Courier" font-size="38.0" fill="#7C50A3" transform="matrix(1.00, 0.00, -0.00, -1.00, 1026.3, 94.0)"> </text><text xml:space="preserve" font-family="Courier" font-size="38.0" fill="#404040" transform="matrix(1.00, 0.00, -0.00, -1.00, 1049.1, 94.0)">}</text><text xml:space="preserve" font-family="Courier" font-size="38.0" fill="#404040" transform="matrix(1.00, 0.00, -0.00, -1.00, 1072.0, 94.0)">;</text><text xml:space="preserve" font-family="Courier" font-size="38.0" fill="#20677E" transform="matrix(1.00, 0.00, -0.00, -1.00, 137.0, 48.0)">l</text><text xml:space="preserve" font-family="Courier" font-size="38.0" fill="#20677E" transform="matrix(1.00, 0.00, -0.00, -1.00, 159.8, 48.0)">e</text><text xml:space="preserve" font-family="Courier" font-size="38.0" fill="#20677E" transform="matrix(1.00, 0.00, -0.00, -1.00, 182.6, 48.0)">t</text><text xml:space="preserve" font-family="Courier" font-size="38.0" fill="#20677E" transform="matrix(1.00, 0.00, -0.00, -1.00, 205.4, 48.0)"> </text><text xml:space="preserve" font-family="Courier" font-size="38.0" fill="#404040" transform="matrix(1.00, 0.00, -0.00, -1.00, 228.2, 48.0)">p</text><text xml:space="preserve" font-family="Courier" font-size="38.0" fill="#404040" transform="matrix(1.00, 0.00, -0.00, -1.00, 251.0, 48.0)">o</text><text xml:space="preserve" font-family="Courier" font-size="38.0" fill="#404040" transform="matrix(1.00, 0.00, -0.00, -1.00, 273.8, 48.0)">i</text><text xml:space="preserve" font-family="Courier" font-size="38.0" fill="#404040" transform="matrix(1.00, 0.00, -0.00, -1.00, 296.6, 48.0)">n</text><text xml:space="preserve" font-family="Courier" font-size="38.0" fill="#404040" transform="matrix(1.00, 0.00, -0.00, -1.00, 319.4, 48.0)">t</text><text xml:space="preserve" font-family="Courier" font-size="38.0" fill="#404040" transform="matrix(1.00, 0.00, -0.00, -1.00, 342.3, 48.0)"> </text><text xml:space="preserve" font-family="Courier" font-size="38.0" fill="#404040" transform="matrix(1.00, 0.00, -0.00, -1.00, 365.1, 48.0)">=</text><text xml:space="preserve" font-family="Courier" font-size="38.0" fill="#404040" transform="matrix(1.00, 0.00, -0.00, -1.00, 387.9, 48.0)"> </text><text xml:space="preserve" font-family="Courier" font-size="38.0" fill="#404040" transform="matrix(1.00, 0.00, -0.00, -1.00, 410.7, 48.0)">P</text><text xml:space="preserve" font-family="Courier" font-size="38.0" fill="#404040" transform="matrix(1.00, 0.00, -0.00, -1.00, 433.5, 48.0)">o</text><text xml:space="preserve" font-family="Courier" font-size="38.0" fill="#404040" transform="matrix(1.00, 0.00, -0.00, -1.00, 456.3, 48.0)">i</text><text xml:space="preserve" font-family="Courier" font-size="38.0" fill="#404040" transform="matrix(1.00, 0.00, -0.00, -1.00, 479.1, 48.0)">n</text><text xml:space="preserve" font-family="Courier" font-size="38.0" fill="#404040" transform="matrix(1.00, 0.00, -0.00, -1.00, 501.9, 48.0)">t</text><text xml:space="preserve" font-family="Courier" font-size="38.0" fill="#404040" transform="matrix(1.00, 0.00, -0.00, -1.00, 524.7, 48.0)">3</text><text xml:space="preserve" font-family="Courier" font-size="38.0" fill="#404040" transform="matrix(1.00, 0.00, -0.00, -1.00, 547.5, 48.0)">d</text><text xml:space="preserve" font-family="Courier" font-size="38.0" fill="#404040" transform="matrix(1.00, 0.00, -0.00, -1.00, 570.3, 48.0)"> </text><text xml:space="preserve" font-family="Courier" font-size="38.0" fill="#404040" transform="matrix(1.00, 0.00, -0.00, -1.00, 593.1, 48.0)">{</text><text xml:space="preserve" font-family="Courier" font-size="38.0" fill="#404040" transform="matrix(1.00, 0.00, -0.00, -1.00, 615.9, 48.0)"> </text><text xml:space="preserve" font-family="Courier" font-size="38.0" fill="#404040" transform="matrix(1.00, 0.00, -0.00, -1.00, 638.8, 48.0)">z</text><text xml:space="preserve" font-family="Courier" font-size="38.0" fill="#404040" transform="matrix(1.00, 0.00, -0.00, -1.00, 661.6, 48.0)">:</text><text xml:space="preserve" font-family="Courier" font-size="38.0" fill="#404040" transform="matrix(1.00, 0.00, -0.00, -1.00, 684.4, 48.0)"> </text><text xml:space="preserve" font-family="Courier" font-size="38.0" fill="#7C50A3" transform="matrix(1.00, 0.00, -0.00, -1.00, 707.1, 48.0)">1</text><text xml:space="preserve" font-family="Courier" font-size="38.0" fill="#404040" transform="matrix(1.00, 0.00, -0.00, -1.00, 729.9, 48.0)">,</text><text xml:space="preserve" font-family="Courier" font-size="38.0" fill="#404040" transform="matrix(1.00, 0.00, -0.00, -1.00, 752.7, 48.0)"> </text><text xml:space="preserve" font-family="Courier" font-size="38.0" fill="#404040" transform="matrix(1.00, 0.00, -0.00, -1.00, 775.5, 48.0)">x</text><text xml:space="preserve" font-family="Courier" font-size="38.0" fill="#404040" transform="matrix(1.00, 0.00, -0.00, -1.00, 798.3, 48.0)">:</text><text xml:space="preserve" font-family="Courier" font-size="38.0" fill="#404040" transform="matrix(1.00, 0.00, -0.00, -1.00, 821.1, 48.0)"> </text><text xml:space="preserve" font-family="Courier" font-size="38.0" fill="#7C50A3" transform="matrix(1.00, 0.00, -0.00, -1.00, 843.9, 48.0)">2</text><text xml:space="preserve" font-family="Courier" font-size="38.0" fill="#404040" transform="matrix(1.00, 0.00, -0.00, -1.00, 866.7, 48.0)">,</text><text xml:space="preserve" font-family="Courier" font-size="38.0" fill="#404040" transform="matrix(1.00, 0.00, -0.00, -1.00, 889.5, 48.0)"> </text><text xml:space="preserve" font-family="Courier" font-size="38.0" fill="#404040" transform="matrix(1.00, 0.00, -0.00, -1.00, 912.3, 48.0)">.</text><text xml:space="preserve" font-family="Courier" font-size="38.0" fill="#404040" transform="matrix(1.00, 0.00, -0.00, -1.00, 935.1, 48.0)">.</text><text xml:space="preserve" font-family="Courier" font-size="38.0" fill="#404040" transform="matrix(1.00, 0.00, -0.00, -1.00, 957.9, 48.0)"> </text><text xml:space="preserve" font-family="Courier" font-size="38.0" fill="#404040" transform="matrix(1.00, 0.00, -0.00, -1.00, 980.8, 48.0)">o</text><text xml:space="preserve" font-family="Courier" font-size="38.0" fill="#404040" transform="matrix(1.00, 0.00, -0.00, -1.00, 1003.6, 48.0)">r</text><text xml:space="preserve" font-family="Courier" font-size="38.0" fill="#404040" transform="matrix(1.00, 0.00, -0.00, -1.00, 1026.4, 48.0)">i</text><text xml:space="preserve" font-family="Courier" font-size="38.0" fill="#404040" transform="matrix(1.00, 0.00, -0.00, -1.00, 1049.2, 48.0)">g</text><text xml:space="preserve" font-family="Courier" font-size="38.0" fill="#404040" transform="matrix(1.00, 0.00, -0.00, -1.00, 1072.0, 48.0)">i</text><text xml:space="preserve" font-family="Courier" font-size="38.0" fill="#404040" transform="matrix(1.00, 0.00, -0.00, -1.00, 1094.8, 48.0)">n</text><text xml:space="preserve" font-family="Courier" font-size="38.0" fill="#404040" transform="matrix(1.00, 0.00, -0.00, -1.00, 1117.6, 48.0)"> </text><text xml:space="preserve" font-family="Courier" font-size="38.0" fill="#404040" transform="matrix(1.00, 0.00, -0.00, -1.00, 1140.4, 48.0)">}</text><text xml:space="preserve" font-family="Courier" font-size="38.0" fill="#404040" transform="matrix(1.00, 0.00, -0.00, -1.00, 1163.2, 48.0)">;</text></g></svg>