<?xml version="1.0" encoding="UTF-8" standalone="no"?><svg xmlns="http://www.w3.org/2000/svg" xmlns:xlink="http://www.w3.org/1999/xlink" clip-rule="evenodd" stroke-miterlimit="4.00" viewBox="0 0 1920 1080"><desc>SVG generated by Keynote</desc><defs></defs><g transform="matrix(1.00, 0.00, -0.00, -1.00, 0.0, 1080.0)"><path d="M 0.0 1080.0 L 1920.0 1080.0 L 1920.0 0.0 L 0.0 0.0 Z M 0.0 1080.0 " fill="#F4F4F4"></path><text xml:space="preserve" font-family="Helvetica-Light" font-size="112.0" fill="#000000" transform="matrix(1.00, 0.00, -0.00, -1.00, 272.0, 874.0)">P</text><text xml:space="preserve" font-family="Helvetica-Light" font-size="112.0" fill="#000000" transform="matrix(1.00, 0.00, -0.00, -1.00, 340.4, 874.0)">r</text><text xml:space="preserve" font-family="Helvetica-Light" font-size="112.0" fill="#000000" transform="matrix(1.00, 0.00, -0.00, -1.00, 375.7, 874.0)">o</text><text xml:space="preserve" font-family="Helvetica-Light" font-size="112.0" fill="#000000" transform="matrix(1.00, 0.00, -0.00, -1.00, 438.0, 874.0)">d</text><text xml:space="preserve" font-family="Helvetica-Light" font-size="112.0" fill="#000000" transform="matrix(1.00, 0.00, -0.00, -1.00, 506.4, 874.0)">u</text><text xml:space="preserve" font-family="Helvetica-Light" font-size="112.0" fill="#000000" transform="matrix(1.00, 0.00, -0.00, -1.00, 568.7, 874.0)">c</text><text xml:space="preserve" font-family="Helvetica-Light" font-size="112.0" fill="#000000" transform="matrix(1.00, 0.00, -0.00, -1.00, 631.0, 874.0)">t</text><text xml:space="preserve" font-family="Helvetica-Light" font-size="112.0" fill="#000000" transform="matrix(1.00, 0.00, -0.00, -1.00, 662.1, 874.0)"> </text><text xml:space="preserve" font-family="Helvetica-Light" font-size="112.0" fill="#000000" transform="matrix(1.00, 0.00, -0.00, -1.00, 693.2, 874.0)">t</text><text xml:space="preserve" font-family="Helvetica-Light" font-size="112.0" fill="#000000" transform="matrix(1.00, 0.00, -0.00, -1.00, 724.4, 874.0)">y</text><text xml:space="preserve" font-family="Helvetica-Light" font-size="112.0" fill="#000000" transform="matrix(1.00, 0.00, -0.00, -1.00, 780.4, 874.0)">p</text><text xml:space="preserve" font-family="Helvetica-Light" font-size="112.0" fill="#000000" transform="matrix(1.00, 0.00, -0.00, -1.00, 848.8, 874.0)">e</text><text xml:space="preserve" font-family="Helvetica-Light" font-size="112.0" fill="#000000" transform="matrix(1.00, 0.00, -0.00, -1.00, 911.1, 874.0)">s</text><text xml:space="preserve" font-family="Helvetica-Light" font-size="112.0" fill="#000000" transform="matrix(1.00, 0.00, -0.00, -1.00, 967.1, 874.0)"> </text><text xml:space="preserve" font-family="Helvetica-Light" font-size="112.0" fill="#000000" transform="matrix(1.00, 0.00, -0.00, -1.00, 998.2, 874.0)">-</text><text xml:space="preserve" font-family="Helvetica-Light" font-size="112.0" fill="#000000" transform="matrix(1.00, 0.00, -0.00, -1.00, 1035.5, 874.0)"> </text><text xml:space="preserve" font-family="Helvetica-Light" font-size="112.0" fill="#000000" transform="matrix(1.00, 0.00, -0.00, -1.00, 1066.6, 874.0)">T</text><text xml:space="preserve" font-family="Helvetica-Light" font-size="112.0" fill="#000000" transform="matrix(1.00, 0.00, -0.00, -1.00, 1118.6, 874.0)">u</text><text xml:space="preserve" font-family="Helvetica-Light" font-size="112.0" fill="#000000" transform="matrix(1.00, 0.00, -0.00, -1.00, 1180.9, 874.0)">p</text><text xml:space="preserve" font-family="Helvetica-Light" font-size="112.0" fill="#000000" transform="matrix(1.00, 0.00, -0.00, -1.00, 1249.3, 874.0)">l</text><text xml:space="preserve" font-family="Helvetica-Light" font-size="112.0" fill="#000000" transform="matrix(1.00, 0.00, -0.00, -1.00, 1274.2, 874.0)">e</text><text xml:space="preserve" font-family="Helvetica-Light" font-size="112.0" fill="#000000" transform="matrix(1.00, 0.00, -0.00, -1.00, 1336.4, 874.0)"> </text><text xml:space="preserve" font-family="Helvetica-Light" font-size="112.0" fill="#000000" transform="matrix(1.00, 0.00, -0.00, -1.00, 1367.6, 874.0)">s</text><text xml:space="preserve" font-family="Helvetica-Light" font-size="112.0" fill="#000000" transform="matrix(1.00, 0.00, -0.00, -1.00, 1423.6, 874.0)">t</text><text xml:space="preserve" font-family="Helvetica-Light" font-size="112.0" fill="#000000" transform="matrix(1.00, 0.00, -0.00, -1.00, 1454.7, 874.0)">r</text><text xml:space="preserve" font-family="Helvetica-Light" font-size="112.0" fill="#000000" transform="matrix(1.00, 0.00, -0.00, -1.00, 1492.0, 874.0)">u</text><text xml:space="preserve" font-family="Helvetica-Light" font-size="112.0" fill="#000000" transform="matrix(1.00, 0.00, -0.00, -1.00, 1554.3, 874.0)">c</text><text xml:space="preserve" font-family="Helvetica-Light" font-size="112.0" fill="#000000" transform="matrix(1.00, 0.00, -0.00, -1.00, 1616.6, 874.0)">t</text><text xml:space="preserve" font-family="Helvetica-Light" font-size="39.0" fill="#000000" transform="matrix(1.00, 0.00, -0.00, -1.00, 137.0, 675.3)">•</text><text xml:space="preserve" font-family="Helvetica-Light" font-size="52.0" fill="#000000" transform="matrix(1.00, 0.00, -0.00, -1.00, 187.0, 671.0)">h</text><text xml:space="preserve" font-family="Helvetica-Light" font-size="52.0" fill="#000000" transform="matrix(1.00, 0.00, -0.00, -1.00, 215.9, 671.0)">y</text><text xml:space="preserve" font-family="Helvetica-Light" font-size="52.0" fill="#000000" transform="matrix(1.00, 0.00, -0.00, -1.00, 241.9, 671.0)">b</text><text xml:space="preserve" font-family="Helvetica-Light" font-size="52.0" fill="#000000" transform="matrix(1.00, 0.00, -0.00, -1.00, 273.7, 671.0)">r</text><text xml:space="preserve" font-family="Helvetica-Light" font-size="52.0" fill="#000000" transform="matrix(1.00, 0.00, -0.00, -1.00, 291.0, 671.0)">i</text><text xml:space="preserve" font-family="Helvetica-Light" font-size="52.0" fill="#000000" transform="matrix(1.00, 0.00, -0.00, -1.00, 302.5, 671.0)">d</text><text xml:space="preserve" font-family="Helvetica-Light" font-size="52.0" fill="#000000" transform="matrix(1.00, 0.00, -0.00, -1.00, 334.3, 671.0)"> </text><text xml:space="preserve" font-family="Helvetica-Light" font-size="52.0" fill="#000000" transform="matrix(1.00, 0.00, -0.00, -1.00, 348.8, 671.0)">b</text><text xml:space="preserve" font-family="Helvetica-Light" font-size="52.0" fill="#000000" transform="matrix(1.00, 0.00, -0.00, -1.00, 380.5, 671.0)">e</text><text xml:space="preserve" font-family="Helvetica-Light" font-size="52.0" fill="#000000" transform="matrix(1.00, 0.00, -0.00, -1.00, 409.5, 671.0)">t</text><text xml:space="preserve" font-family="Helvetica-Light" font-size="52.0" fill="#000000" transform="matrix(1.00, 0.00, -0.00, -1.00, 423.9, 671.0)">w</text><text xml:space="preserve" font-family="Helvetica-Light" font-size="52.0" fill="#000000" transform="matrix(1.00, 0.00, -0.00, -1.00, 461.5, 671.0)">e</text><text xml:space="preserve" font-family="Helvetica-Light" font-size="52.0" fill="#000000" transform="matrix(1.00, 0.00, -0.00, -1.00, 490.4, 671.0)">e</text><text xml:space="preserve" font-family="Helvetica-Light" font-size="52.0" fill="#000000" transform="matrix(1.00, 0.00, -0.00, -1.00, 519.3, 671.0)">n</text><text xml:space="preserve" font-family="Helvetica-Light" font-size="52.0" fill="#000000" transform="matrix(1.00, 0.00, -0.00, -1.00, 548.2, 671.0)"> </text><text xml:space="preserve" font-family="Helvetica-Light" font-size="52.0" fill="#000000" transform="matrix(1.00, 0.00, -0.00, -1.00, 562.6, 671.0)">a</text><text xml:space="preserve" font-family="Helvetica-Light" font-size="52.0" fill="#000000" transform="matrix(1.00, 0.00, -0.00, -1.00, 591.6, 671.0)"> </text><text xml:space="preserve" font-family="PragmataPro" font-size="52.0" fill="#000000" transform="matrix(1.00, 0.00, -0.00, -1.00, 606.0, 671.0)">t</text><text xml:space="preserve" font-family="PragmataPro" font-size="52.0" fill="#000000" transform="matrix(1.00, 0.00, -0.00, -1.00, 632.9, 671.0)">u</text><text xml:space="preserve" font-family="PragmataPro" font-size="52.0" fill="#000000" transform="matrix(1.00, 0.00, -0.00, -1.00, 659.8, 671.0)">p</text><text xml:space="preserve" font-family="PragmataPro" font-size="52.0" fill="#000000" transform="matrix(1.00, 0.00, -0.00, -1.00, 686.7, 671.0)">l</text><text xml:space="preserve" font-family="PragmataPro" font-size="52.0" fill="#000000" transform="matrix(1.00, 0.00, -0.00, -1.00, 713.6, 671.0)">e</text><text xml:space="preserve" font-family="Helvetica-Light" font-size="52.0" fill="#000000" transform="matrix(1.00, 0.00, -0.00, -1.00, 740.6, 671.0)"> </text><text xml:space="preserve" font-family="Helvetica-Light" font-size="52.0" fill="#000000" transform="matrix(1.00, 0.00, -0.00, -1.00, 755.0, 671.0)">a</text><text xml:space="preserve" font-family="Helvetica-Light" font-size="52.0" fill="#000000" transform="matrix(1.00, 0.00, -0.00, -1.00, 784.0, 671.0)">n</text><text xml:space="preserve" font-family="Helvetica-Light" font-size="52.0" fill="#000000" transform="matrix(1.00, 0.00, -0.00, -1.00, 812.9, 671.0)">d</text><text xml:space="preserve" font-family="Helvetica-Light" font-size="52.0" fill="#000000" transform="matrix(1.00, 0.00, -0.00, -1.00, 844.6, 671.0)"> </text><text xml:space="preserve" font-family="Helvetica-Light" font-size="52.0" fill="#000000" transform="matrix(1.00, 0.00, -0.00, -1.00, 859.1, 671.0)">a</text><text xml:space="preserve" font-family="Helvetica-Light" font-size="52.0" fill="#000000" transform="matrix(1.00, 0.00, -0.00, -1.00, 888.0, 671.0)"> </text><text xml:space="preserve" font-family="PragmataPro" font-size="52.0" fill="#000000" transform="matrix(1.00, 0.00, -0.00, -1.00, 902.5, 671.0)">s</text><text xml:space="preserve" font-family="PragmataPro" font-size="52.0" fill="#000000" transform="matrix(1.00, 0.00, -0.00, -1.00, 929.4, 671.0)">t</text><text xml:space="preserve" font-family="PragmataPro" font-size="52.0" fill="#000000" transform="matrix(1.00, 0.00, -0.00, -1.00, 956.2, 671.0)">r</text><text xml:space="preserve" font-family="PragmataPro" font-size="52.0" fill="#000000" transform="matrix(1.00, 0.00, -0.00, -1.00, 983.1, 671.0)">u</text><text xml:space="preserve" font-family="PragmataPro" font-size="52.0" fill="#000000" transform="matrix(1.00, 0.00, -0.00, -1.00, 1010.0, 671.0)">c</text><text xml:space="preserve" font-family="PragmataPro" font-size="52.0" fill="#000000" transform="matrix(1.00, 0.00, -0.00, -1.00, 1036.9, 671.0)">t</text><text xml:space="preserve" font-family="Helvetica-Light" font-size="52.0" fill="#000000" transform="matrix(1.00, 0.00, -0.00, -1.00, 1063.9, 671.0)"> </text><text xml:space="preserve" font-family="Helvetica-Light" font-size="39.0" fill="#000000" transform="matrix(1.00, 0.00, -0.00, -1.00, 137.0, 561.0)">•</text><text xml:space="preserve" font-family="Helvetica-Light" font-size="52.0" fill="#000000" transform="matrix(1.00, 0.00, -0.00, -1.00, 187.0, 557.0)">i</text><text xml:space="preserve" font-family="Helvetica-Light" font-size="52.0" fill="#000000" transform="matrix(1.00, 0.00, -0.00, -1.00, 198.5, 557.0)">t</text><text xml:space="preserve" font-family="Helvetica-Light" font-size="52.0" fill="#000000" transform="matrix(1.00, 0.00, -0.00, -1.00, 213.0, 557.0)"> </text><text xml:space="preserve" font-family="Helvetica-Light" font-size="52.0" fill="#000000" transform="matrix(1.00, 0.00, -0.00, -1.00, 227.5, 557.0)">h</text><text xml:space="preserve" font-family="Helvetica-Light" font-size="52.0" fill="#000000" transform="matrix(1.00, 0.00, -0.00, -1.00, 256.4, 557.0)">a</text><text xml:space="preserve" font-family="Helvetica-Light" font-size="52.0" fill="#000000" transform="matrix(1.00, 0.00, -0.00, -1.00, 285.3, 557.0)">s</text><text xml:space="preserve" font-family="Helvetica-Light" font-size="52.0" fill="#000000" transform="matrix(1.00, 0.00, -0.00, -1.00, 311.3, 557.0)"> </text><text xml:space="preserve" font-family="Helvetica-Light" font-size="52.0" fill="#000000" transform="matrix(1.00, 0.00, -0.00, -1.00, 325.7, 557.0)">u</text><text xml:space="preserve" font-family="Helvetica-Light" font-size="52.0" fill="#000000" transform="matrix(1.00, 0.00, -0.00, -1.00, 354.6, 557.0)">n</text><text xml:space="preserve" font-family="Helvetica-Light" font-size="52.0" fill="#000000" transform="matrix(1.00, 0.00, -0.00, -1.00, 383.6, 557.0)">i</text><text xml:space="preserve" font-family="Helvetica-Light" font-size="52.0" fill="#000000" transform="matrix(1.00, 0.00, -0.00, -1.00, 395.1, 557.0)">q</text><text xml:space="preserve" font-family="Helvetica-Light" font-size="52.0" fill="#000000" transform="matrix(1.00, 0.00, -0.00, -1.00, 426.9, 557.0)">u</text><text xml:space="preserve" font-family="Helvetica-Light" font-size="52.0" fill="#000000" transform="matrix(1.00, 0.00, -0.00, -1.00, 455.8, 557.0)">e</text><text xml:space="preserve" font-family="Helvetica-Light" font-size="52.0" fill="#000000" transform="matrix(1.00, 0.00, -0.00, -1.00, 484.7, 557.0)"> </text><text xml:space="preserve" font-family="Helvetica-Light" font-size="52.0" fill="#000000" transform="matrix(1.00, 0.00, -0.00, -1.00, 499.2, 557.0)">n</text><text xml:space="preserve" font-family="Helvetica-Light" font-size="52.0" fill="#000000" transform="matrix(1.00, 0.00, -0.00, -1.00, 528.1, 557.0)">a</text><text xml:space="preserve" font-family="Helvetica-Light" font-size="52.0" fill="#000000" transform="matrix(1.00, 0.00, -0.00, -1.00, 557.0, 557.0)">m</text><text xml:space="preserve" font-family="Helvetica-Light" font-size="52.0" fill="#000000" transform="matrix(1.00, 0.00, -0.00, -1.00, 600.3, 557.0)">e</text><text xml:space="preserve" font-family="Helvetica-Light" font-size="52.0" fill="#000000" transform="matrix(1.00, 0.00, -0.00, -1.00, 629.2, 557.0)"> </text><text xml:space="preserve" font-family="Helvetica-Light" font-size="52.0" fill="#000000" transform="matrix(1.00, 0.00, -0.00, -1.00, 643.7, 557.0)">l</text><text xml:space="preserve" font-family="Helvetica-Light" font-size="52.0" fill="#000000" transform="matrix(1.00, 0.00, -0.00, -1.00, 655.2, 557.0)">i</text><text xml:space="preserve" font-family="Helvetica-Light" font-size="52.0" fill="#000000" transform="matrix(1.00, 0.00, -0.00, -1.00, 666.8, 557.0)">k</text><text xml:space="preserve" font-family="Helvetica-Light" font-size="52.0" fill="#000000" transform="matrix(1.00, 0.00, -0.00, -1.00, 692.8, 557.0)">e</text><text xml:space="preserve" font-family="Helvetica-Light" font-size="52.0" fill="#000000" transform="matrix(1.00, 0.00, -0.00, -1.00, 721.7, 557.0)"> </text><text xml:space="preserve" font-family="Helvetica-Light" font-size="52.0" fill="#000000" transform="matrix(1.00, 0.00, -0.00, -1.00, 736.1, 557.0)">s</text><text xml:space="preserve" font-family="Helvetica-Light" font-size="52.0" fill="#000000" transform="matrix(1.00, 0.00, -0.00, -1.00, 762.1, 557.0)">t</text><text xml:space="preserve" font-family="Helvetica-Light" font-size="52.0" fill="#000000" transform="matrix(1.00, 0.00, -0.00, -1.00, 776.6, 557.0)">r</text><text xml:space="preserve" font-family="Helvetica-Light" font-size="52.0" fill="#000000" transform="matrix(1.00, 0.00, -0.00, -1.00, 793.9, 557.0)">u</text><text xml:space="preserve" font-family="Helvetica-Light" font-size="52.0" fill="#000000" transform="matrix(1.00, 0.00, -0.00, -1.00, 822.8, 557.0)">c</text><text xml:space="preserve" font-family="Helvetica-Light" font-size="52.0" fill="#000000" transform="matrix(1.00, 0.00, -0.00, -1.00, 851.7, 557.0)">t</text><text xml:space="preserve" font-family="Helvetica-Light" font-size="52.0" fill="#000000" transform="matrix(1.00, 0.00, -0.00, -1.00, 866.2, 557.0)"> </text><text xml:space="preserve" font-family="Helvetica-Light" font-size="52.0" fill="#000000" transform="matrix(1.00, 0.00, -0.00, -1.00, 880.6, 557.0)">a</text><text xml:space="preserve" font-family="Helvetica-Light" font-size="52.0" fill="#000000" transform="matrix(1.00, 0.00, -0.00, -1.00, 909.5, 557.0)">n</text><text xml:space="preserve" font-family="Helvetica-Light" font-size="52.0" fill="#000000" transform="matrix(1.00, 0.00, -0.00, -1.00, 938.5, 557.0)">d</text><text xml:space="preserve" font-family="Helvetica-Light" font-size="52.0" fill="#000000" transform="matrix(1.00, 0.00, -0.00, -1.00, 970.2, 557.0)"> </text><text xml:space="preserve" font-family="Helvetica-Light" font-size="52.0" fill="#000000" transform="matrix(1.00, 0.00, -0.00, -1.00, 984.7, 557.0)">u</text><text xml:space="preserve" font-family="Helvetica-Light" font-size="52.0" fill="#000000" transform="matrix(1.00, 0.00, -0.00, -1.00, 1013.6, 557.0)">n</text><text xml:space="preserve" font-family="Helvetica-Light" font-size="52.0" fill="#000000" transform="matrix(1.00, 0.00, -0.00, -1.00, 1042.5, 557.0)">n</text><text xml:space="preserve" font-family="Helvetica-Light" font-size="52.0" fill="#000000" transform="matrix(1.00, 0.00, -0.00, -1.00, 1071.4, 557.0)">a</text><text xml:space="preserve" font-family="Helvetica-Light" font-size="52.0" fill="#000000" transform="matrix(1.00, 0.00, -0.00, -1.00, 1100.3, 557.0)">m</text><text xml:space="preserve" font-family="Helvetica-Light" font-size="52.0" fill="#000000" transform="matrix(1.00, 0.00, -0.00, -1.00, 1143.6, 557.0)">e</text><text xml:space="preserve" font-family="Helvetica-Light" font-size="52.0" fill="#000000" transform="matrix(1.00, 0.00, -0.00, -1.00, 1172.6, 557.0)">d</text><text xml:space="preserve" font-family="Helvetica-Light" font-size="52.0" fill="#000000" transform="matrix(1.00, 0.00, -0.00, -1.00, 1204.3, 557.0)"> </text><text xml:space="preserve" font-family="Helvetica-Light" font-size="52.0" fill="#000000" transform="matrix(1.00, 0.00, -0.00, -1.00, 1218.8, 557.0)">ﬁ</text><text xml:space="preserve" font-family="Helvetica-Light" font-size="52.0" fill="#000000" transform="matrix(1.00, 0.00, -0.00, -1.00, 1244.8, 557.0)">e</text><text xml:space="preserve" font-family="Helvetica-Light" font-size="52.0" fill="#000000" transform="matrix(1.00, 0.00, -0.00, -1.00, 1273.7, 557.0)">l</text><text xml:space="preserve" font-family="Helvetica-Light" font-size="52.0" fill="#000000" transform="matrix(1.00, 0.00, -0.00, -1.00, 1285.2, 557.0)">d</text><text xml:space="preserve" font-family="Helvetica-Light" font-size="52.0" fill="#000000" transform="matrix(1.00, 0.00, -0.00, -1.00, 1317.0, 557.0)">s</text><text xml:space="preserve" font-family="Helvetica-Light" font-size="52.0" fill="#000000" transform="matrix(1.00, 0.00, -0.00, -1.00, 1343.0, 557.0)"> </text><text xml:space="preserve" font-family="Helvetica-Light" font-size="52.0" fill="#000000" transform="matrix(1.00, 0.00, -0.00, -1.00, 1357.5, 557.0)">l</text><text xml:space="preserve" font-family="Helvetica-Light" font-size="52.0" fill="#000000" transform="matrix(1.00, 0.00, -0.00, -1.00, 1369.0, 557.0)">i</text><text xml:space="preserve" font-family="Helvetica-Light" font-size="52.0" fill="#000000" transform="matrix(1.00, 0.00, -0.00, -1.00, 1380.6, 557.0)">k</text><text xml:space="preserve" font-family="Helvetica-Light" font-size="52.0" fill="#000000" transform="matrix(1.00, 0.00, -0.00, -1.00, 1406.6, 557.0)">e</text><text xml:space="preserve" font-family="Helvetica-Light" font-size="52.0" fill="#000000" transform="matrix(1.00, 0.00, -0.00, -1.00, 1435.5, 557.0)"> </text><text xml:space="preserve" font-family="Helvetica-Light" font-size="52.0" fill="#000000" transform="matrix(1.00, 0.00, -0.00, -1.00, 1449.9, 557.0)">t</text><text xml:space="preserve" font-family="Helvetica-Light" font-size="52.0" fill="#000000" transform="matrix(1.00, 0.00, -0.00, -1.00, 1464.4, 557.0)">u</text><text xml:space="preserve" font-family="Helvetica-Light" font-size="52.0" fill="#000000" transform="matrix(1.00, 0.00, -0.00, -1.00, 1493.3, 557.0)">p</text><text xml:space="preserve" font-family="Helvetica-Light" font-size="52.0" fill="#000000" transform="matrix(1.00, 0.00, -0.00, -1.00, 1525.1, 557.0)">l</text><text xml:space="preserve" font-family="Helvetica-Light" font-size="52.0" fill="#000000" transform="matrix(1.00, 0.00, -0.00, -1.00, 1536.6, 557.0)">e</text><text xml:space="preserve" font-family="Courier" font-size="38.0" fill="#20677E" transform="matrix(1.00, 0.00, -0.00, -1.00, 137.0, 301.0)">s</text><text xml:space="preserve" font-family="Courier" font-size="38.0" fill="#20677E" transform="matrix(1.00, 0.00, -0.00, -1.00, 159.8, 301.0)">t</text><text xml:space="preserve" font-family="Courier" font-size="38.0" fill="#20677E" transform="matrix(1.00, 0.00, -0.00, -1.00, 182.6, 301.0)">r</text><text xml:space="preserve" font-family="Courier" font-size="38.0" fill="#20677E" transform="matrix(1.00, 0.00, -0.00, -1.00, 205.4, 301.0)">u</text><text xml:space="preserve" font-family="Courier" font-size="38.0" fill="#20677E" transform="matrix(1.00, 0.00, -0.00, -1.00, 228.2, 301.0)">c</text><text xml:space="preserve" font-family="Courier" font-size="38.0" fill="#20677E" transform="matrix(1.00, 0.00, -0.00, -1.00, 251.0, 301.0)">t</text><text xml:space="preserve" font-family="Courier" font-size="38.0" fill="#20677E" transform="matrix(1.00, 0.00, -0.00, -1.00, 273.8, 301.0)"> </text><text xml:space="preserve" font-family="Courier" font-size="38.0" fill="#404040" transform="matrix(1.00, 0.00, -0.00, -1.00, 296.6, 301.0)">C</text><text xml:space="preserve" font-family="Courier" font-size="38.0" fill="#404040" transform="matrix(1.00, 0.00, -0.00, -1.00, 319.4, 301.0)">o</text><text xml:space="preserve" font-family="Courier" font-size="38.0" fill="#404040" transform="matrix(1.00, 0.00, -0.00, -1.00, 342.2, 301.0)">l</text><text xml:space="preserve" font-family="Courier" font-size="38.0" fill="#404040" transform="matrix(1.00, 0.00, -0.00, -1.00, 365.0, 301.0)">o</text><text xml:space="preserve" font-family="Courier" font-size="38.0" fill="#404040" transform="matrix(1.00, 0.00, -0.00, -1.00, 387.9, 301.0)">r</text><text xml:space="preserve" font-family="Courier" font-size="38.0" fill="#404040" transform="matrix(1.00, 0.00, -0.00, -1.00, 410.7, 301.0)">(</text><text xml:space="preserve" font-family="Courier" font-size="38.0" fill="#BE511B" transform="matrix(1.00, 0.00, -0.00, -1.00, 433.4, 301.0)">i</text><text xml:space="preserve" font-family="Courier" font-size="38.0" fill="#BE511B" transform="matrix(1.00, 0.00, -0.00, -1.00, 456.3, 301.0)">3</text><text xml:space="preserve" font-family="Courier" font-size="38.0" fill="#BE511B" transform="matrix(1.00, 0.00, -0.00, -1.00, 479.1, 301.0)">2</text><text xml:space="preserve" font-family="Courier" font-size="38.0" fill="#404040" transform="matrix(1.00, 0.00, -0.00, -1.00, 501.9, 301.0)">,</text><text xml:space="preserve" font-family="Courier" font-size="38.0" fill="#404040" transform="matrix(1.00, 0.00, -0.00, -1.00, 524.7, 301.0)"> </text><text xml:space="preserve" font-family="Courier" font-size="38.0" fill="#BE511B" transform="matrix(1.00, 0.00, -0.00, -1.00, 547.5, 301.0)">i</text><text xml:space="preserve" font-family="Courier" font-size="38.0" fill="#BE511B" transform="matrix(1.00, 0.00, -0.00, -1.00, 570.3, 301.0)">3</text><text xml:space="preserve" font-family="Courier" font-size="38.0" fill="#BE511B" transform="matrix(1.00, 0.00, -0.00, -1.00, 593.1, 301.0)">2</text><text xml:space="preserve" font-family="Courier" font-size="38.0" fill="#404040" transform="matrix(1.00, 0.00, -0.00, -1.00, 615.9, 301.0)">,</text><text xml:space="preserve" font-family="Courier" font-size="38.0" fill="#404040" transform="matrix(1.00, 0.00, -0.00, -1.00, 638.7, 301.0)"> </text><text xml:space="preserve" font-family="Courier" font-size="38.0" fill="#BE511B" transform="matrix(1.00, 0.00, -0.00, -1.00, 661.5, 301.0)">i</text><text xml:space="preserve" font-family="Courier" font-size="38.0" fill="#BE511B" transform="matrix(1.00, 0.00, -0.00, -1.00, 684.3, 301.0)">3</text><text xml:space="preserve" font-family="Courier" font-size="38.0" fill="#BE511B" transform="matrix(1.00, 0.00, -0.00, -1.00, 707.1, 301.0)">2</text><text xml:space="preserve" font-family="Courier" font-size="38.0" fill="#404040" transform="matrix(1.00, 0.00, -0.00, -1.00, 729.9, 301.0)">)</text><text xml:space="preserve" font-family="Courier" font-size="38.0" fill="#404040" transform="matrix(1.00, 0.00, -0.00, -1.00, 752.7, 301.0)">;</text><text xml:space="preserve" font-family="Courier" font-size="38.0" fill="#20677E" transform="matrix(1.00, 0.00, -0.00, -1.00, 137.0, 255.0)">s</text><text xml:space="preserve" font-family="Courier" font-size="38.0" fill="#20677E" transform="matrix(1.00, 0.00, -0.00, -1.00, 159.8, 255.0)">t</text><text xml:space="preserve" font-family="Courier" font-size="38.0" fill="#20677E" transform="matrix(1.00, 0.00, -0.00, -1.00, 182.6, 255.0)">r</text><text xml:space="preserve" font-family="Courier" font-size="38.0" fill="#20677E" transform="matrix(1.00, 0.00, -0.00, -1.00, 205.4, 255.0)">u</text><text xml:space="preserve" font-family="Courier" font-size="38.0" fill="#20677E" transform="matrix(1.00, 0.00, -0.00, -1.00, 228.2, 255.0)">c</text><text xml:space="preserve" font-family="Courier" font-size="38.0" fill="#20677E" transform="matrix(1.00, 0.00, -0.00, -1.00, 251.0, 255.0)">t</text><text xml:space="preserve" font-family="Courier" font-size="38.0" fill="#20677E" transform="matrix(1.00, 0.00, -0.00, -1.00, 273.8, 255.0)"> </text><text xml:space="preserve" font-family="Courier" font-size="38.0" fill="#404040" transform="matrix(1.00, 0.00, -0.00, -1.00, 296.6, 255.0)">P</text><text xml:space="preserve" font-family="Courier" font-size="38.0" fill="#404040" transform="matrix(1.00, 0.00, -0.00, -1.00, 319.4, 255.0)">o</text><text xml:space="preserve" font-family="Courier" font-size="38.0" fill="#404040" transform="matrix(1.00, 0.00, -0.00, -1.00, 342.2, 255.0)">i</text><text xml:space="preserve" font-family="Courier" font-size="38.0" fill="#404040" transform="matrix(1.00, 0.00, -0.00, -1.00, 365.0, 255.0)">n</text><text xml:space="preserve" font-family="Courier" font-size="38.0" fill="#404040" transform="matrix(1.00, 0.00, -0.00, -1.00, 387.9, 255.0)">t</text><text xml:space="preserve" font-family="Courier" font-size="38.0" fill="#404040" transform="matrix(1.00, 0.00, -0.00, -1.00, 410.7, 255.0)">(</text><text xml:space="preserve" font-family="Courier" font-size="38.0" fill="#BE511B" transform="matrix(1.00, 0.00, -0.00, -1.00, 433.4, 255.0)">i</text><text xml:space="preserve" font-family="Courier" font-size="38.0" fill="#BE511B" transform="matrix(1.00, 0.00, -0.00, -1.00, 456.3, 255.0)">3</text><text xml:space="preserve" font-family="Courier" font-size="38.0" fill="#BE511B" transform="matrix(1.00, 0.00, -0.00, -1.00, 479.1, 255.0)">2</text><text xml:space="preserve" font-family="Courier" font-size="38.0" fill="#404040" transform="matrix(1.00, 0.00, -0.00, -1.00, 501.9, 255.0)">,</text><text xml:space="preserve" font-family="Courier" font-size="38.0" fill="#404040" transform="matrix(1.00, 0.00, -0.00, -1.00, 524.7, 255.0)"> </text><text xml:space="preserve" font-family="Courier" font-size="38.0" fill="#BE511B" transform="matrix(1.00, 0.00, -0.00, -1.00, 547.5, 255.0)">i</text><text xml:space="preserve" font-family="Courier" font-size="38.0" fill="#BE511B" transform="matrix(1.00, 0.00, -0.00, -1.00, 570.3, 255.0)">3</text><text xml:space="preserve" font-family="Courier" font-size="38.0" fill="#BE511B" transform="matrix(1.00, 0.00, -0.00, -1.00, 593.1, 255.0)">2</text><text xml:space="preserve" font-family="Courier" font-size="38.0" fill="#404040" transform="matrix(1.00, 0.00, -0.00, -1.00, 615.9, 255.0)">,</text><text xml:space="preserve" font-family="Courier" font-size="38.0" fill="#404040" transform="matrix(1.00, 0.00, -0.00, -1.00, 638.7, 255.0)"> </text><text xml:space="preserve" font-family="Courier" font-size="38.0" fill="#BE511B" transform="matrix(1.00, 0.00, -0.00, -1.00, 661.5, 255.0)">i</text><text xml:space="preserve" font-family="Courier" font-size="38.0" fill="#BE511B" transform="matrix(1.00, 0.00, -0.00, -1.00, 684.3, 255.0)">3</text><text xml:space="preserve" font-family="Courier" font-size="38.0" fill="#BE511B" transform="matrix(1.00, 0.00, -0.00, -1.00, 707.1, 255.0)">2</text><text xml:space="preserve" font-family="Courier" font-size="38.0" fill="#404040" transform="matrix(1.00, 0.00, -0.00, -1.00, 729.9, 255.0)">)</text><text xml:space="preserve" font-family="Courier" font-size="38.0" fill="#404040" transform="matrix(1.00, 0.00, -0.00, -1.00, 752.7, 255.0)">;</text><text xml:space="preserve" font-family="Courier" font-size="38.0" fill="#20677E" transform="matrix(1.00, 0.00, -0.00, -1.00, 137.0, 163.0)">l</text><text xml:space="preserve" font-family="Courier" font-size="38.0" fill="#20677E" transform="matrix(1.00, 0.00, -0.00, -1.00, 159.8, 163.0)">e</text><text xml:space="preserve" font-family="Courier" font-size="38.0" fill="#20677E" transform="matrix(1.00, 0.00, -0.00, -1.00, 182.6, 163.0)">t</text><text xml:space="preserve" font-family="Courier" font-size="38.0" fill="#20677E" transform="matrix(1.00, 0.00, -0.00, -1.00, 205.4, 163.0)"> </text><text xml:space="preserve" font-family="Courier" font-size="38.0" fill="#404040" transform="matrix(1.00, 0.00, -0.00, -1.00, 228.2, 163.0)">b</text><text xml:space="preserve" font-family="Courier" font-size="38.0" fill="#404040" transform="matrix(1.00, 0.00, -0.00, -1.00, 251.0, 163.0)">l</text><text xml:space="preserve" font-family="Courier" font-size="38.0" fill="#404040" transform="matrix(1.00, 0.00, -0.00, -1.00, 273.8, 163.0)">a</text><text xml:space="preserve" font-family="Courier" font-size="38.0" fill="#404040" transform="matrix(1.00, 0.00, -0.00, -1.00, 296.6, 163.0)">c</text><text xml:space="preserve" font-family="Courier" font-size="38.0" fill="#404040" transform="matrix(1.00, 0.00, -0.00, -1.00, 319.4, 163.0)">k</text><text xml:space="preserve" font-family="Courier" font-size="38.0" fill="#20677E" transform="matrix(1.00, 0.00, -0.00, -1.00, 342.2, 163.0)"> </text><text xml:space="preserve" font-family="Courier" font-size="38.0" fill="#20677E" transform="matrix(1.00, 0.00, -0.00, -1.00, 365.0, 163.0)">=</text><text xml:space="preserve" font-family="Courier" font-size="38.0" fill="#20677E" transform="matrix(1.00, 0.00, -0.00, -1.00, 387.8, 163.0)"> </text><text xml:space="preserve" font-family="Courier" font-size="38.0" fill="#404040" transform="matrix(1.00, 0.00, -0.00, -1.00, 410.6, 163.0)">C</text><text xml:space="preserve" font-family="Courier" font-size="38.0" fill="#404040" transform="matrix(1.00, 0.00, -0.00, -1.00, 433.5, 163.0)">o</text><text xml:space="preserve" font-family="Courier" font-size="38.0" fill="#404040" transform="matrix(1.00, 0.00, -0.00, -1.00, 456.3, 163.0)">l</text><text xml:space="preserve" font-family="Courier" font-size="38.0" fill="#404040" transform="matrix(1.00, 0.00, -0.00, -1.00, 479.1, 163.0)">o</text><text xml:space="preserve" font-family="Courier" font-size="38.0" fill="#404040" transform="matrix(1.00, 0.00, -0.00, -1.00, 501.9, 163.0)">r</text><text xml:space="preserve" font-family="Courier" font-size="38.0" fill="#20677E" transform="matrix(1.00, 0.00, -0.00, -1.00, 524.7, 163.0)">(</text><text xml:space="preserve" font-family="Courier" font-size="38.0" fill="#7C50A3" transform="matrix(1.00, 0.00, -0.00, -1.00, 547.5, 163.0)">0</text><text xml:space="preserve" font-family="Courier" font-size="38.0" fill="#20677E" transform="matrix(1.00, 0.00, -0.00, -1.00, 570.3, 163.0)">,</text><text xml:space="preserve" font-family="Courier" font-size="38.0" fill="#20677E" transform="matrix(1.00, 0.00, -0.00, -1.00, 593.1, 163.0)"> </text><text xml:space="preserve" font-family="Courier" font-size="38.0" fill="#7C50A3" transform="matrix(1.00, 0.00, -0.00, -1.00, 615.9, 163.0)">0</text><text xml:space="preserve" font-family="Courier" font-size="38.0" fill="#20677E" transform="matrix(1.00, 0.00, -0.00, -1.00, 638.7, 163.0)">,</text><text xml:space="preserve" font-family="Courier" font-size="38.0" fill="#20677E" transform="matrix(1.00, 0.00, -0.00, -1.00, 661.5, 163.0)"> </text><text xml:space="preserve" font-family="Courier" font-size="38.0" fill="#7C50A3" transform="matrix(1.00, 0.00, -0.00, -1.00, 684.3, 163.0)">0</text><text xml:space="preserve" font-family="Courier" font-size="38.0" fill="#20677E" transform="matrix(1.00, 0.00, -0.00, -1.00, 707.1, 163.0)">)</text><text xml:space="preserve" font-family="Courier" font-size="38.0" fill="#20677E" transform="matrix(1.00, 0.00, -0.00, -1.00, 729.9, 163.0)">;</text><text xml:space="preserve" font-family="Courier" font-size="38.0" fill="#20677E" transform="matrix(1.00, 0.00, -0.00, -1.00, 137.0, 117.0)">l</text><text xml:space="preserve" font-family="Courier" font-size="38.0" fill="#20677E" transform="matrix(1.00, 0.00, -0.00, -1.00, 159.8, 117.0)">e</text><text xml:space="preserve" font-family="Courier" font-size="38.0" fill="#20677E" transform="matrix(1.00, 0.00, -0.00, -1.00, 182.6, 117.0)">t</text><text xml:space="preserve" font-family="Courier" font-size="38.0" fill="#20677E" transform="matrix(1.00, 0.00, -0.00, -1.00, 205.4, 117.0)"> </text><text xml:space="preserve" font-family="Courier" font-size="38.0" fill="#404040" transform="matrix(1.00, 0.00, -0.00, -1.00, 228.2, 117.0)">o</text><text xml:space="preserve" font-family="Courier" font-size="38.0" fill="#404040" transform="matrix(1.00, 0.00, -0.00, -1.00, 251.0, 117.0)">r</text><text xml:space="preserve" font-family="Courier" font-size="38.0" fill="#404040" transform="matrix(1.00, 0.00, -0.00, -1.00, 273.8, 117.0)">i</text><text xml:space="preserve" font-family="Courier" font-size="38.0" fill="#404040" transform="matrix(1.00, 0.00, -0.00, -1.00, 296.6, 117.0)">g</text><text xml:space="preserve" font-family="Courier" font-size="38.0" fill="#404040" transform="matrix(1.00, 0.00, -0.00, -1.00, 319.4, 117.0)">i</text><text xml:space="preserve" font-family="Courier" font-size="38.0" fill="#404040" transform="matrix(1.00, 0.00, -0.00, -1.00, 342.3, 117.0)">n</text><text xml:space="preserve" font-family="Courier" font-size="38.0" fill="#404040" transform="matrix(1.00, 0.00, -0.00, -1.00, 365.1, 117.0)"> </text><text xml:space="preserve" font-family="Courier" font-size="38.0" fill="#404040" transform="matrix(1.00, 0.00, -0.00, -1.00, 387.9, 117.0)">=</text><text xml:space="preserve" font-family="Courier" font-size="38.0" fill="#404040" transform="matrix(1.00, 0.00, -0.00, -1.00, 410.7, 117.0)"> </text><text xml:space="preserve" font-family="Courier" font-size="38.0" fill="#404040" transform="matrix(1.00, 0.00, -0.00, -1.00, 433.5, 117.0)">P</text><text xml:space="preserve" font-family="Courier" font-size="38.0" fill="#404040" transform="matrix(1.00, 0.00, -0.00, -1.00, 456.3, 117.0)">o</text><text xml:space="preserve" font-family="Courier" font-size="38.0" fill="#404040" transform="matrix(1.00, 0.00, -0.00, -1.00, 479.1, 117.0)">i</text><text xml:space="preserve" font-family="Courier" font-size="38.0" fill="#404040" transform="matrix(1.00, 0.00, -0.00, -1.00, 501.9, 117.0)">n</text><text xml:space="preserve" font-family="Courier" font-size="38.0" fill="#404040" transform="matrix(1.00, 0.00, -0.00, -1.00, 524.7, 117.0)">t</text><text xml:space="preserve" font-family="Courier" font-size="38.0" fill="#404040" transform="matrix(1.00, 0.00, -0.00, -1.00, 547.5, 117.0)">(</text><text xml:space="preserve" font-family="Courier" font-size="38.0" fill="#7C50A3" transform="matrix(1.00, 0.00, -0.00, -1.00, 570.3, 117.0)">0</text><text xml:space="preserve" font-family="Courier" font-size="38.0" fill="#404040" transform="matrix(1.00, 0.00, -0.00, -1.00, 593.1, 117.0)">,</text><text xml:space="preserve" font-family="Courier" font-size="38.0" fill="#404040" transform="matrix(1.00, 0.00, -0.00, -1.00, 615.9, 117.0)"> </text><text xml:space="preserve" font-family="Courier" font-size="38.0" fill="#7C50A3" transform="matrix(1.00, 0.00, -0.00, -1.00, 638.7, 117.0)">0</text><text xml:space="preserve" font-family="Courier" font-size="38.0" fill="#404040" transform="matrix(1.00, 0.00, -0.00, -1.00, 661.5, 117.0)">,</text><text xml:space="preserve" font-family="Courier" font-size="38.0" fill="#404040" transform="matrix(1.00, 0.00, -0.00, -1.00, 684.3, 117.0)"> </text><text xml:space="preserve" font-family="Courier" font-size="38.0" fill="#7C50A3" transform="matrix(1.00, 0.00, -0.00, -1.00, 707.1, 117.0)">0</text><text xml:space="preserve" font-family="Courier" font-size="38.0" fill="#404040" transform="matrix(1.00, 0.00, -0.00, -1.00, 729.9, 117.0)">)</text><text xml:space="preserve" font-family="Courier" font-size="38.0" fill="#404040" transform="matrix(1.00, 0.00, -0.00, -1.00, 752.7, 117.0)">;</text></g></svg>