<?xml version="1.0" encoding="UTF-8" standalone="no"?><svg xmlns="http://www.w3.org/2000/svg" xmlns:xlink="http://www.w3.org/1999/xlink" clip-rule="evenodd" stroke-miterlimit="4.00" viewBox="0 0 1920 1080"><desc>SVG generated by Keynote</desc><defs></defs><g transform="matrix(1.00, 0.00, -0.00, -1.00, 0.0, 1080.0)"><path d="M 0.0 1080.0 L 1920.0 1080.0 L 1920.0 0.0 L 0.0 0.0 Z M 0.0 1080.0 " fill="#F4F4F4"></path><text xml:space="preserve" font-family="Helvetica-Light" font-size="112.0" fill="#000000" transform="matrix(1.00, 0.00, -0.00, -1.00, 533.0, 874.0)">P</text><text xml:space="preserve" font-family="Helvetica-Light" font-size="112.0" fill="#000000" transform="matrix(1.00, 0.00, -0.00, -1.00, 601.4, 874.0)">a</text><text xml:space="preserve" font-family="Helvetica-Light" font-size="112.0" fill="#000000" transform="matrix(1.00, 0.00, -0.00, -1.00, 663.7, 874.0)">t</text><text xml:space="preserve" font-family="Helvetica-Light" font-size="112.0" fill="#000000" transform="matrix(1.00, 0.00, -0.00, -1.00, 694.8, 874.0)">t</text><text xml:space="preserve" font-family="Helvetica-Light" font-size="112.0" fill="#000000" transform="matrix(1.00, 0.00, -0.00, -1.00, 726.0, 874.0)">e</text><text xml:space="preserve" font-family="Helvetica-Light" font-size="112.0" fill="#000000" transform="matrix(1.00, 0.00, -0.00, -1.00, 788.2, 874.0)">r</text><text xml:space="preserve" font-family="Helvetica-Light" font-size="112.0" fill="#000000" transform="matrix(1.00, 0.00, -0.00, -1.00, 827.6, 874.0)">n</text><text xml:space="preserve" font-family="Helvetica-Light" font-size="112.0" fill="#000000" transform="matrix(1.00, 0.00, -0.00, -1.00, 889.8, 874.0)"> </text><text xml:space="preserve" font-family="Helvetica-Light" font-size="112.0" fill="#000000" transform="matrix(1.00, 0.00, -0.00, -1.00, 921.0, 874.0)">m</text><text xml:space="preserve" font-family="Helvetica-Light" font-size="112.0" fill="#000000" transform="matrix(1.00, 0.00, -0.00, -1.00, 1014.3, 874.0)">a</text><text xml:space="preserve" font-family="Helvetica-Light" font-size="112.0" fill="#000000" transform="matrix(1.00, 0.00, -0.00, -1.00, 1076.5, 874.0)">t</text><text xml:space="preserve" font-family="Helvetica-Light" font-size="112.0" fill="#000000" transform="matrix(1.00, 0.00, -0.00, -1.00, 1107.7, 874.0)">c</text><text xml:space="preserve" font-family="Helvetica-Light" font-size="112.0" fill="#000000" transform="matrix(1.00, 0.00, -0.00, -1.00, 1169.9, 874.0)">h</text><text xml:space="preserve" font-family="Helvetica-Light" font-size="112.0" fill="#000000" transform="matrix(1.00, 0.00, -0.00, -1.00, 1232.2, 874.0)">i</text><text xml:space="preserve" font-family="Helvetica-Light" font-size="112.0" fill="#000000" transform="matrix(1.00, 0.00, -0.00, -1.00, 1257.1, 874.0)">n</text><text xml:space="preserve" font-family="Helvetica-Light" font-size="112.0" fill="#000000" transform="matrix(1.00, 0.00, -0.00, -1.00, 1319.4, 874.0)">g</text><text xml:space="preserve" font-family="Helvetica-Light" font-size="33.9" fill="#000000" transform="matrix(1.00, 0.00, -0.00, -1.00, 137.0, 780.3)">•</text><text xml:space="preserve" font-family="Helvetica-Light" font-size="45.2" fill="#000000" transform="matrix(1.00, 0.00, -0.00, -1.00, 181.0, 776.0)">c</text><text xml:space="preserve" font-family="Helvetica-Light" font-size="45.2" fill="#000000" transform="matrix(1.00, 0.00, -0.00, -1.00, 206.2, 776.0)">a</text><text xml:space="preserve" font-family="Helvetica-Light" font-size="45.2" fill="#000000" transform="matrix(1.00, 0.00, -0.00, -1.00, 231.3, 776.0)">n</text><text xml:space="preserve" font-family="Helvetica-Light" font-size="45.2" fill="#000000" transform="matrix(1.00, 0.00, -0.00, -1.00, 256.5, 776.0)"> </text><text xml:space="preserve" font-family="Helvetica-Light" font-size="45.2" fill="#000000" transform="matrix(1.00, 0.00, -0.00, -1.00, 269.0, 776.0)">m</text><text xml:space="preserve" font-family="Helvetica-Light" font-size="45.2" fill="#000000" transform="matrix(1.00, 0.00, -0.00, -1.00, 306.7, 776.0)">a</text><text xml:space="preserve" font-family="Helvetica-Light" font-size="45.2" fill="#000000" transform="matrix(1.00, 0.00, -0.00, -1.00, 331.9, 776.0)">t</text><text xml:space="preserve" font-family="Helvetica-Light" font-size="45.2" fill="#000000" transform="matrix(1.00, 0.00, -0.00, -1.00, 344.5, 776.0)">c</text><text xml:space="preserve" font-family="Helvetica-Light" font-size="45.2" fill="#000000" transform="matrix(1.00, 0.00, -0.00, -1.00, 369.6, 776.0)">h</text><text xml:space="preserve" font-family="Helvetica-Light" font-size="45.2" fill="#000000" transform="matrix(1.00, 0.00, -0.00, -1.00, 394.8, 776.0)"> </text><text xml:space="preserve" font-family="Helvetica-Light" font-size="45.2" fill="#000000" transform="matrix(1.00, 0.00, -0.00, -1.00, 407.3, 776.0)">s</text><text xml:space="preserve" font-family="Helvetica-Light" font-size="45.2" fill="#000000" transform="matrix(1.00, 0.00, -0.00, -1.00, 430.0, 776.0)">i</text><text xml:space="preserve" font-family="Helvetica-Light" font-size="45.2" fill="#000000" transform="matrix(1.00, 0.00, -0.00, -1.00, 440.0, 776.0)">n</text><text xml:space="preserve" font-family="Helvetica-Light" font-size="45.2" fill="#000000" transform="matrix(1.00, 0.00, -0.00, -1.00, 465.2, 776.0)">g</text><text xml:space="preserve" font-family="Helvetica-Light" font-size="45.2" fill="#000000" transform="matrix(1.00, 0.00, -0.00, -1.00, 492.8, 776.0)">l</text><text xml:space="preserve" font-family="Helvetica-Light" font-size="45.2" fill="#000000" transform="matrix(1.00, 0.00, -0.00, -1.00, 502.8, 776.0)">e</text><text xml:space="preserve" font-family="Helvetica-Light" font-size="45.2" fill="#000000" transform="matrix(1.00, 0.00, -0.00, -1.00, 528.0, 776.0)"> </text><text xml:space="preserve" font-family="Helvetica-Light" font-size="45.2" fill="#000000" transform="matrix(1.00, 0.00, -0.00, -1.00, 540.6, 776.0)">p</text><text xml:space="preserve" font-family="Helvetica-Light" font-size="45.2" fill="#000000" transform="matrix(1.00, 0.00, -0.00, -1.00, 568.2, 776.0)">a</text><text xml:space="preserve" font-family="Helvetica-Light" font-size="45.2" fill="#000000" transform="matrix(1.00, 0.00, -0.00, -1.00, 593.4, 776.0)">t</text><text xml:space="preserve" font-family="Helvetica-Light" font-size="45.2" fill="#000000" transform="matrix(1.00, 0.00, -0.00, -1.00, 605.9, 776.0)">t</text><text xml:space="preserve" font-family="Helvetica-Light" font-size="45.2" fill="#000000" transform="matrix(1.00, 0.00, -0.00, -1.00, 618.5, 776.0)">e</text><text xml:space="preserve" font-family="Helvetica-Light" font-size="45.2" fill="#000000" transform="matrix(1.00, 0.00, -0.00, -1.00, 643.7, 776.0)">r</text><text xml:space="preserve" font-family="Helvetica-Light" font-size="45.2" fill="#000000" transform="matrix(1.00, 0.00, -0.00, -1.00, 659.5, 776.0)">n</text><text xml:space="preserve" font-family="Helvetica-Light" font-size="45.2" fill="#000000" transform="matrix(1.00, 0.00, -0.00, -1.00, 684.7, 776.0)"> </text><text xml:space="preserve" font-family="Helvetica-Light" font-size="33.9" fill="#000000" transform="matrix(1.00, 0.00, -0.00, -1.00, 137.0, 681.1)">•</text><text xml:space="preserve" font-family="Helvetica-Light" font-size="45.2" fill="#000000" transform="matrix(1.00, 0.00, -0.00, -1.00, 181.0, 677.0)">m</text><text xml:space="preserve" font-family="Helvetica-Light" font-size="45.2" fill="#000000" transform="matrix(1.00, 0.00, -0.00, -1.00, 218.7, 677.0)">u</text><text xml:space="preserve" font-family="Helvetica-Light" font-size="45.2" fill="#000000" transform="matrix(1.00, 0.00, -0.00, -1.00, 243.8, 677.0)">l</text><text xml:space="preserve" font-family="Helvetica-Light" font-size="45.2" fill="#000000" transform="matrix(1.00, 0.00, -0.00, -1.00, 253.9, 677.0)">t</text><text xml:space="preserve" font-family="Helvetica-Light" font-size="45.2" fill="#000000" transform="matrix(1.00, 0.00, -0.00, -1.00, 266.5, 677.0)">i</text><text xml:space="preserve" font-family="Helvetica-Light" font-size="45.2" fill="#000000" transform="matrix(1.00, 0.00, -0.00, -1.00, 276.5, 677.0)">p</text><text xml:space="preserve" font-family="Helvetica-Light" font-size="45.2" fill="#000000" transform="matrix(1.00, 0.00, -0.00, -1.00, 304.1, 677.0)">l</text><text xml:space="preserve" font-family="Helvetica-Light" font-size="45.2" fill="#000000" transform="matrix(1.00, 0.00, -0.00, -1.00, 314.2, 677.0)">e</text><text xml:space="preserve" font-family="Helvetica-Light" font-size="45.2" fill="#000000" transform="matrix(1.00, 0.00, -0.00, -1.00, 339.3, 677.0)"> </text><text xml:space="preserve" font-family="Helvetica-Light" font-size="45.2" fill="#000000" transform="matrix(1.00, 0.00, -0.00, -1.00, 351.9, 677.0)">p</text><text xml:space="preserve" font-family="Helvetica-Light" font-size="45.2" fill="#000000" transform="matrix(1.00, 0.00, -0.00, -1.00, 379.6, 677.0)">a</text><text xml:space="preserve" font-family="Helvetica-Light" font-size="45.2" fill="#000000" transform="matrix(1.00, 0.00, -0.00, -1.00, 404.7, 677.0)">t</text><text xml:space="preserve" font-family="Helvetica-Light" font-size="45.2" fill="#000000" transform="matrix(1.00, 0.00, -0.00, -1.00, 417.3, 677.0)">t</text><text xml:space="preserve" font-family="Helvetica-Light" font-size="45.2" fill="#000000" transform="matrix(1.00, 0.00, -0.00, -1.00, 429.9, 677.0)">e</text><text xml:space="preserve" font-family="Helvetica-Light" font-size="45.2" fill="#000000" transform="matrix(1.00, 0.00, -0.00, -1.00, 455.0, 677.0)">r</text><text xml:space="preserve" font-family="Helvetica-Light" font-size="45.2" fill="#000000" transform="matrix(1.00, 0.00, -0.00, -1.00, 470.9, 677.0)">n</text><text xml:space="preserve" font-family="Helvetica-Light" font-size="45.2" fill="#000000" transform="matrix(1.00, 0.00, -0.00, -1.00, 496.1, 677.0)">s</text><text xml:space="preserve" font-family="Helvetica-Light" font-size="45.2" fill="#000000" transform="matrix(1.00, 0.00, -0.00, -1.00, 518.7, 677.0)"> </text><text xml:space="preserve" font-family="Helvetica-Light" font-size="45.2" fill="#000000" transform="matrix(1.00, 0.00, -0.00, -1.00, 531.2, 677.0)">w</text><text xml:space="preserve" font-family="Helvetica-Light" font-size="45.2" fill="#000000" transform="matrix(1.00, 0.00, -0.00, -1.00, 563.9, 677.0)">i</text><text xml:space="preserve" font-family="Helvetica-Light" font-size="45.2" fill="#000000" transform="matrix(1.00, 0.00, -0.00, -1.00, 574.0, 677.0)">t</text><text xml:space="preserve" font-family="Helvetica-Light" font-size="45.2" fill="#000000" transform="matrix(1.00, 0.00, -0.00, -1.00, 586.5, 677.0)">h</text><text xml:space="preserve" font-family="Helvetica-Light" font-size="45.2" fill="#000000" transform="matrix(1.00, 0.00, -0.00, -1.00, 611.7, 677.0)"> </text><text xml:space="preserve" font-family="PragmataPro" font-size="45.2" fill="#000000" transform="matrix(1.00, 0.00, -0.00, -1.00, 624.3, 677.0)">|</text><text xml:space="preserve" font-family="Helvetica-Light" font-size="45.2" fill="#000000" transform="matrix(1.00, 0.00, -0.00, -1.00, 647.7, 677.0)"> </text><text xml:space="preserve" font-family="Helvetica-Light" font-size="45.2" fill="#000000" transform="matrix(1.00, 0.00, -0.00, -1.00, 660.3, 677.0)">(</text><text xml:space="preserve" font-family="Helvetica-Light" font-size="45.2" fill="#000000" transform="matrix(1.00, 0.00, -0.00, -1.00, 675.3, 677.0)">o</text><text xml:space="preserve" font-family="Helvetica-Light" font-size="45.2" fill="#000000" transform="matrix(1.00, 0.00, -0.00, -1.00, 700.5, 677.0)">r</text><text xml:space="preserve" font-family="Helvetica-Light" font-size="45.2" fill="#000000" transform="matrix(1.00, 0.00, -0.00, -1.00, 715.5, 677.0)">)</text><text xml:space="preserve" font-family="Helvetica-Light" font-size="45.2" fill="#000000" transform="matrix(1.00, 0.00, -0.00, -1.00, 730.6, 677.0)"> </text><text xml:space="preserve" font-family="Helvetica-Light" font-size="33.9" fill="#000000" transform="matrix(1.00, 0.00, -0.00, -1.00, 137.0, 581.8)">•</text><text xml:space="preserve" font-family="Helvetica-Light" font-size="45.2" fill="#000000" transform="matrix(1.00, 0.00, -0.00, -1.00, 181.0, 578.0)">r</text><text xml:space="preserve" font-family="Helvetica-Light" font-size="45.2" fill="#000000" transform="matrix(1.00, 0.00, -0.00, -1.00, 196.1, 578.0)">a</text><text xml:space="preserve" font-family="Helvetica-Light" font-size="45.2" fill="#000000" transform="matrix(1.00, 0.00, -0.00, -1.00, 221.2, 578.0)">n</text><text xml:space="preserve" font-family="Helvetica-Light" font-size="45.2" fill="#000000" transform="matrix(1.00, 0.00, -0.00, -1.00, 246.4, 578.0)">g</text><text xml:space="preserve" font-family="Helvetica-Light" font-size="45.2" fill="#000000" transform="matrix(1.00, 0.00, -0.00, -1.00, 274.0, 578.0)">e</text><text xml:space="preserve" font-family="Helvetica-Light" font-size="45.2" fill="#000000" transform="matrix(1.00, 0.00, -0.00, -1.00, 299.2, 578.0)">s</text><text xml:space="preserve" font-family="Helvetica-Light" font-size="45.2" fill="#000000" transform="matrix(1.00, 0.00, -0.00, -1.00, 321.8, 578.0)"> </text><text xml:space="preserve" font-family="Helvetica-Light" font-size="45.2" fill="#000000" transform="matrix(1.00, 0.00, -0.00, -1.00, 334.4, 578.0)">w</text><text xml:space="preserve" font-family="Helvetica-Light" font-size="45.2" fill="#000000" transform="matrix(1.00, 0.00, -0.00, -1.00, 367.0, 578.0)">i</text><text xml:space="preserve" font-family="Helvetica-Light" font-size="45.2" fill="#000000" transform="matrix(1.00, 0.00, -0.00, -1.00, 377.1, 578.0)">t</text><text xml:space="preserve" font-family="Helvetica-Light" font-size="45.2" fill="#000000" transform="matrix(1.00, 0.00, -0.00, -1.00, 389.6, 578.0)">h</text><text xml:space="preserve" font-family="Helvetica-Light" font-size="45.2" fill="#000000" transform="matrix(1.00, 0.00, -0.00, -1.00, 414.8, 578.0)"> </text><text xml:space="preserve" font-family="PragmataPro" font-size="45.2" fill="#000000" transform="matrix(1.00, 0.00, -0.00, -1.00, 427.4, 578.0)">…</text><text xml:space="preserve" font-family="PragmataPro" font-size="45.2" fill="#000000" transform="matrix(1.00, 0.00, -0.00, -1.00, 450.8, 578.0)"> </text><text xml:space="preserve" font-family="Helvetica-Light" font-size="33.9" fill="#000000" transform="matrix(1.00, 0.00, -0.00, -1.00, 137.0, 482.6)">•</text><text xml:space="preserve" font-family="Helvetica-Light" font-size="45.2" fill="#000000" transform="matrix(1.00, 0.00, -0.00, -1.00, 181.0, 479.0)">p</text><text xml:space="preserve" font-family="Helvetica-Light" font-size="45.2" fill="#000000" transform="matrix(1.00, 0.00, -0.00, -1.00, 208.6, 479.0)">a</text><text xml:space="preserve" font-family="Helvetica-Light" font-size="45.2" fill="#000000" transform="matrix(1.00, 0.00, -0.00, -1.00, 233.8, 479.0)">t</text><text xml:space="preserve" font-family="Helvetica-Light" font-size="45.2" fill="#000000" transform="matrix(1.00, 0.00, -0.00, -1.00, 246.4, 479.0)">t</text><text xml:space="preserve" font-family="Helvetica-Light" font-size="45.2" fill="#000000" transform="matrix(1.00, 0.00, -0.00, -1.00, 258.9, 479.0)">e</text><text xml:space="preserve" font-family="Helvetica-Light" font-size="45.2" fill="#000000" transform="matrix(1.00, 0.00, -0.00, -1.00, 284.1, 479.0)">r</text><text xml:space="preserve" font-family="Helvetica-Light" font-size="45.2" fill="#000000" transform="matrix(1.00, 0.00, -0.00, -1.00, 300.0, 479.0)">n</text><text xml:space="preserve" font-family="Helvetica-Light" font-size="45.2" fill="#000000" transform="matrix(1.00, 0.00, -0.00, -1.00, 325.1, 479.0)">s</text><text xml:space="preserve" font-family="Helvetica-Light" font-size="45.2" fill="#000000" transform="matrix(1.00, 0.00, -0.00, -1.00, 347.8, 479.0)"> </text><text xml:space="preserve" font-family="Helvetica-Light" font-size="45.2" fill="#000000" transform="matrix(1.00, 0.00, -0.00, -1.00, 360.3, 479.0)">w</text><text xml:space="preserve" font-family="Helvetica-Light" font-size="45.2" fill="#000000" transform="matrix(1.00, 0.00, -0.00, -1.00, 393.0, 479.0)">i</text><text xml:space="preserve" font-family="Helvetica-Light" font-size="45.2" fill="#000000" transform="matrix(1.00, 0.00, -0.00, -1.00, 403.0, 479.0)">t</text><text xml:space="preserve" font-family="Helvetica-Light" font-size="45.2" fill="#000000" transform="matrix(1.00, 0.00, -0.00, -1.00, 415.6, 479.0)">h</text><text xml:space="preserve" font-family="Helvetica-Light" font-size="45.2" fill="#000000" transform="matrix(1.00, 0.00, -0.00, -1.00, 440.8, 479.0)"> </text><text xml:space="preserve" font-family="PragmataPro" font-size="45.2" fill="#000000" transform="matrix(1.00, 0.00, -0.00, -1.00, 453.3, 479.0)">_</text><text xml:space="preserve" font-family="Helvetica-Light" font-size="45.2" fill="#000000" transform="matrix(1.00, 0.00, -0.00, -1.00, 476.8, 479.0)"> </text><text xml:space="preserve" font-family="Helvetica-Light" font-size="45.2" fill="#000000" transform="matrix(1.00, 0.00, -0.00, -1.00, 489.3, 479.0)">p</text><text xml:space="preserve" font-family="Helvetica-Light" font-size="45.2" fill="#000000" transform="matrix(1.00, 0.00, -0.00, -1.00, 517.0, 479.0)">l</text><text xml:space="preserve" font-family="Helvetica-Light" font-size="45.2" fill="#000000" transform="matrix(1.00, 0.00, -0.00, -1.00, 527.0, 479.0)">a</text><text xml:space="preserve" font-family="Helvetica-Light" font-size="45.2" fill="#000000" transform="matrix(1.00, 0.00, -0.00, -1.00, 552.2, 479.0)">c</text><text xml:space="preserve" font-family="Helvetica-Light" font-size="45.2" fill="#000000" transform="matrix(1.00, 0.00, -0.00, -1.00, 577.3, 479.0)">e</text><text xml:space="preserve" font-family="Helvetica-Light" font-size="45.2" fill="#000000" transform="matrix(1.00, 0.00, -0.00, -1.00, 602.5, 479.0)">h</text><text xml:space="preserve" font-family="Helvetica-Light" font-size="45.2" fill="#000000" transform="matrix(1.00, 0.00, -0.00, -1.00, 627.6, 479.0)">o</text><text xml:space="preserve" font-family="Helvetica-Light" font-size="45.2" fill="#000000" transform="matrix(1.00, 0.00, -0.00, -1.00, 652.8, 479.0)">l</text><text xml:space="preserve" font-family="Helvetica-Light" font-size="45.2" fill="#000000" transform="matrix(1.00, 0.00, -0.00, -1.00, 662.8, 479.0)">d</text><text xml:space="preserve" font-family="Helvetica-Light" font-size="45.2" fill="#000000" transform="matrix(1.00, 0.00, -0.00, -1.00, 690.5, 479.0)">e</text><text xml:space="preserve" font-family="Helvetica-Light" font-size="45.2" fill="#000000" transform="matrix(1.00, 0.00, -0.00, -1.00, 715.6, 479.0)">r</text><text xml:space="preserve" font-family="Courier" font-size="38.0" fill="#20677E" transform="matrix(1.00, 0.00, -0.00, -1.00, 137.0, 349.0)">l</text><text xml:space="preserve" font-family="Courier" font-size="38.0" fill="#20677E" transform="matrix(1.00, 0.00, -0.00, -1.00, 159.8, 349.0)">e</text><text xml:space="preserve" font-family="Courier" font-size="38.0" fill="#20677E" transform="matrix(1.00, 0.00, -0.00, -1.00, 182.6, 349.0)">t</text><text xml:space="preserve" font-family="Courier" font-size="38.0" fill="#20677E" transform="matrix(1.00, 0.00, -0.00, -1.00, 205.4, 349.0)"> </text><text xml:space="preserve" font-family="Courier" font-size="38.0" fill="#404040" transform="matrix(1.00, 0.00, -0.00, -1.00, 228.2, 349.0)">x</text><text xml:space="preserve" font-family="Courier" font-size="38.0" fill="#404040" transform="matrix(1.00, 0.00, -0.00, -1.00, 251.0, 349.0)"> </text><text xml:space="preserve" font-family="Courier" font-size="38.0" fill="#404040" transform="matrix(1.00, 0.00, -0.00, -1.00, 273.8, 349.0)">=</text><text xml:space="preserve" font-family="Courier" font-size="38.0" fill="#404040" transform="matrix(1.00, 0.00, -0.00, -1.00, 296.6, 349.0)"> </text><text xml:space="preserve" font-family="Courier" font-size="38.0" fill="#7C50A3" transform="matrix(1.00, 0.00, -0.00, -1.00, 319.4, 349.0)">3</text><text xml:space="preserve" font-family="Courier" font-size="38.0" fill="#404040" transform="matrix(1.00, 0.00, -0.00, -1.00, 342.2, 349.0)">;</text><text xml:space="preserve" font-family="Courier" font-size="38.0" fill="#20677E" transform="matrix(1.00, 0.00, -0.00, -1.00, 137.0, 303.0)">m</text><text xml:space="preserve" font-family="Courier" font-size="38.0" fill="#20677E" transform="matrix(1.00, 0.00, -0.00, -1.00, 159.8, 303.0)">a</text><text xml:space="preserve" font-family="Courier" font-size="38.0" fill="#20677E" transform="matrix(1.00, 0.00, -0.00, -1.00, 182.6, 303.0)">t</text><text xml:space="preserve" font-family="Courier" font-size="38.0" fill="#20677E" transform="matrix(1.00, 0.00, -0.00, -1.00, 205.4, 303.0)">c</text><text xml:space="preserve" font-family="Courier" font-size="38.0" fill="#20677E" transform="matrix(1.00, 0.00, -0.00, -1.00, 228.2, 303.0)">h</text><text xml:space="preserve" font-family="Courier" font-size="38.0" fill="#20677E" transform="matrix(1.00, 0.00, -0.00, -1.00, 251.0, 303.0)"> </text><text xml:space="preserve" font-family="Courier" font-size="38.0" fill="#404040" transform="matrix(1.00, 0.00, -0.00, -1.00, 273.8, 303.0)">x</text><text xml:space="preserve" font-family="Courier" font-size="38.0" fill="#404040" transform="matrix(1.00, 0.00, -0.00, -1.00, 296.6, 303.0)"> </text><text xml:space="preserve" font-family="Courier" font-size="38.0" fill="#404040" transform="matrix(1.00, 0.00, -0.00, -1.00, 319.4, 303.0)">{</text><text xml:space="preserve" font-family="Courier" font-size="38.0" fill="#7C50A3" transform="matrix(1.00, 0.00, -0.00, -1.00, 173.0, 257.0)">1</text><text xml:space="preserve" font-family="Courier" font-size="38.0" fill="#7C50A3" transform="matrix(1.00, 0.00, -0.00, -1.00, 195.8, 257.0)"> </text><text xml:space="preserve" font-family="Courier" font-size="38.0" fill="#7C50A3" transform="matrix(1.00, 0.00, -0.00, -1.00, 218.6, 257.0)"> </text><text xml:space="preserve" font-family="Courier" font-size="38.0" fill="#7C50A3" transform="matrix(1.00, 0.00, -0.00, -1.00, 241.4, 257.0)"> </text><text xml:space="preserve" font-family="Courier" font-size="38.0" fill="#7C50A3" transform="matrix(1.00, 0.00, -0.00, -1.00, 264.2, 257.0)"> </text><text xml:space="preserve" font-family="Courier" font-size="38.0" fill="#7C50A3" transform="matrix(1.00, 0.00, -0.00, -1.00, 287.0, 257.0)"> </text><text xml:space="preserve" font-family="Courier" font-size="38.0" fill="#7C50A3" transform="matrix(1.00, 0.00, -0.00, -1.00, 309.8, 257.0)"> </text><text xml:space="preserve" font-family="Courier" font-size="38.0" fill="#7C50A3" transform="matrix(1.00, 0.00, -0.00, -1.00, 332.7, 257.0)"> </text><text xml:space="preserve" font-family="Courier" font-size="38.0" fill="#7C50A3" transform="matrix(1.00, 0.00, -0.00, -1.00, 355.5, 257.0)"> </text><text xml:space="preserve" font-family="Courier" font-size="38.0" fill="#7C50A3" transform="matrix(1.00, 0.00, -0.00, -1.00, 378.3, 257.0)"> </text><text xml:space="preserve" font-family="Courier" font-size="38.0" fill="#404040" transform="matrix(1.00, 0.00, -0.00, -1.00, 401.0, 257.0)">=</text><text xml:space="preserve" font-family="Courier" font-size="38.0" fill="#404040" transform="matrix(1.00, 0.00, -0.00, -1.00, 423.8, 257.0)">&gt;</text><text xml:space="preserve" font-family="Courier" font-size="38.0" fill="#404040" transform="matrix(1.00, 0.00, -0.00, -1.00, 446.7, 257.0)"> </text><text xml:space="preserve" font-family="Courier" font-size="38.0" fill="#9A3A65" transform="matrix(1.00, 0.00, -0.00, -1.00, 469.4, 257.0)">p</text><text xml:space="preserve" font-family="Courier" font-size="38.0" fill="#9A3A65" transform="matrix(1.00, 0.00, -0.00, -1.00, 492.3, 257.0)">r</text><text xml:space="preserve" font-family="Courier" font-size="38.0" fill="#9A3A65" transform="matrix(1.00, 0.00, -0.00, -1.00, 515.1, 257.0)">i</text><text xml:space="preserve" font-family="Courier" font-size="38.0" fill="#9A3A65" transform="matrix(1.00, 0.00, -0.00, -1.00, 537.9, 257.0)">n</text><text xml:space="preserve" font-family="Courier" font-size="38.0" fill="#9A3A65" transform="matrix(1.00, 0.00, -0.00, -1.00, 560.7, 257.0)">t</text><text xml:space="preserve" font-family="Courier" font-size="38.0" fill="#9A3A65" transform="matrix(1.00, 0.00, -0.00, -1.00, 583.5, 257.0)">l</text><text xml:space="preserve" font-family="Courier" font-size="38.0" fill="#9A3A65" transform="matrix(1.00, 0.00, -0.00, -1.00, 606.3, 257.0)">n</text><text xml:space="preserve" font-family="Courier" font-size="38.0" fill="#9A3A65" transform="matrix(1.00, 0.00, -0.00, -1.00, 629.1, 257.0)">!</text><text xml:space="preserve" font-family="Courier" font-size="38.0" fill="#404040" transform="matrix(1.00, 0.00, -0.00, -1.00, 651.9, 257.0)">(</text><text xml:space="preserve" font-family="Courier" font-size="38.0" fill="#637F37" transform="matrix(1.00, 0.00, -0.00, -1.00, 674.7, 257.0)">"</text><text xml:space="preserve" font-family="Courier" font-size="38.0" fill="#637F37" transform="matrix(1.00, 0.00, -0.00, -1.00, 697.5, 257.0)">o</text><text xml:space="preserve" font-family="Courier" font-size="38.0" fill="#637F37" transform="matrix(1.00, 0.00, -0.00, -1.00, 720.3, 257.0)">n</text><text xml:space="preserve" font-family="Courier" font-size="38.0" fill="#637F37" transform="matrix(1.00, 0.00, -0.00, -1.00, 743.1, 257.0)">e</text><text xml:space="preserve" font-family="Courier" font-size="38.0" fill="#637F37" transform="matrix(1.00, 0.00, -0.00, -1.00, 765.9, 257.0)">"</text><text xml:space="preserve" font-family="Courier" font-size="38.0" fill="#404040" transform="matrix(1.00, 0.00, -0.00, -1.00, 788.7, 257.0)">)</text><text xml:space="preserve" font-family="Courier" font-size="38.0" fill="#7C50A3" transform="matrix(1.00, 0.00, -0.00, -1.00, 173.0, 211.0)">2</text><text xml:space="preserve" font-family="Courier" font-size="38.0" fill="#7C50A3" transform="matrix(1.00, 0.00, -0.00, -1.00, 195.8, 211.0)"> </text><text xml:space="preserve" font-family="Courier" font-size="38.0" fill="#404040" transform="matrix(1.00, 0.00, -0.00, -1.00, 218.6, 211.0)">|</text><text xml:space="preserve" font-family="Courier" font-size="38.0" fill="#404040" transform="matrix(1.00, 0.00, -0.00, -1.00, 241.4, 211.0)"> </text><text xml:space="preserve" font-family="Courier" font-size="38.0" fill="#7C50A3" transform="matrix(1.00, 0.00, -0.00, -1.00, 264.2, 211.0)">3</text><text xml:space="preserve" font-family="Courier" font-size="38.0" fill="#7C50A3" transform="matrix(1.00, 0.00, -0.00, -1.00, 287.0, 211.0)"> </text><text xml:space="preserve" font-family="Courier" font-size="38.0" fill="#7C50A3" transform="matrix(1.00, 0.00, -0.00, -1.00, 309.8, 211.0)"> </text><text xml:space="preserve" font-family="Courier" font-size="38.0" fill="#7C50A3" transform="matrix(1.00, 0.00, -0.00, -1.00, 332.6, 211.0)"> </text><text xml:space="preserve" font-family="Courier" font-size="38.0" fill="#7C50A3" transform="matrix(1.00, 0.00, -0.00, -1.00, 355.4, 211.0)"> </text><text xml:space="preserve" font-family="Courier" font-size="38.0" fill="#7C50A3" transform="matrix(1.00, 0.00, -0.00, -1.00, 378.3, 211.0)"> </text><text xml:space="preserve" font-family="Courier" font-size="38.0" fill="#404040" transform="matrix(1.00, 0.00, -0.00, -1.00, 401.0, 211.0)">=</text><text xml:space="preserve" font-family="Courier" font-size="38.0" fill="#404040" transform="matrix(1.00, 0.00, -0.00, -1.00, 423.8, 211.0)">&gt;</text><text xml:space="preserve" font-family="Courier" font-size="38.0" fill="#404040" transform="matrix(1.00, 0.00, -0.00, -1.00, 446.7, 211.0)"> </text><text xml:space="preserve" font-family="Courier" font-size="38.0" fill="#9A3A65" transform="matrix(1.00, 0.00, -0.00, -1.00, 469.4, 211.0)">p</text><text xml:space="preserve" font-family="Courier" font-size="38.0" fill="#9A3A65" transform="matrix(1.00, 0.00, -0.00, -1.00, 492.3, 211.0)">r</text><text xml:space="preserve" font-family="Courier" font-size="38.0" fill="#9A3A65" transform="matrix(1.00, 0.00, -0.00, -1.00, 515.1, 211.0)">i</text><text xml:space="preserve" font-family="Courier" font-size="38.0" fill="#9A3A65" transform="matrix(1.00, 0.00, -0.00, -1.00, 537.9, 211.0)">n</text><text xml:space="preserve" font-family="Courier" font-size="38.0" fill="#9A3A65" transform="matrix(1.00, 0.00, -0.00, -1.00, 560.7, 211.0)">t</text><text xml:space="preserve" font-family="Courier" font-size="38.0" fill="#9A3A65" transform="matrix(1.00, 0.00, -0.00, -1.00, 583.5, 211.0)">l</text><text xml:space="preserve" font-family="Courier" font-size="38.0" fill="#9A3A65" transform="matrix(1.00, 0.00, -0.00, -1.00, 606.3, 211.0)">n</text><text xml:space="preserve" font-family="Courier" font-size="38.0" fill="#9A3A65" transform="matrix(1.00, 0.00, -0.00, -1.00, 629.1, 211.0)">!</text><text xml:space="preserve" font-family="Courier" font-size="38.0" fill="#404040" transform="matrix(1.00, 0.00, -0.00, -1.00, 651.9, 211.0)">(</text><text xml:space="preserve" font-family="Courier" font-size="38.0" fill="#637F37" transform="matrix(1.00, 0.00, -0.00, -1.00, 674.7, 211.0)">"</text><text xml:space="preserve" font-family="Courier" font-size="38.0" fill="#637F37" transform="matrix(1.00, 0.00, -0.00, -1.00, 697.5, 211.0)">t</text><text xml:space="preserve" font-family="Courier" font-size="38.0" fill="#637F37" transform="matrix(1.00, 0.00, -0.00, -1.00, 720.3, 211.0)">w</text><text xml:space="preserve" font-family="Courier" font-size="38.0" fill="#637F37" transform="matrix(1.00, 0.00, -0.00, -1.00, 743.1, 211.0)">o</text><text xml:space="preserve" font-family="Courier" font-size="38.0" fill="#637F37" transform="matrix(1.00, 0.00, -0.00, -1.00, 765.9, 211.0)"> </text><text xml:space="preserve" font-family="Courier" font-size="38.0" fill="#637F37" transform="matrix(1.00, 0.00, -0.00, -1.00, 788.7, 211.0)">o</text><text xml:space="preserve" font-family="Courier" font-size="38.0" fill="#637F37" transform="matrix(1.00, 0.00, -0.00, -1.00, 811.5, 211.0)">r</text><text xml:space="preserve" font-family="Courier" font-size="38.0" fill="#637F37" transform="matrix(1.00, 0.00, -0.00, -1.00, 834.3, 211.0)"> </text><text xml:space="preserve" font-family="Courier" font-size="38.0" fill="#637F37" transform="matrix(1.00, 0.00, -0.00, -1.00, 857.1, 211.0)">t</text><text xml:space="preserve" font-family="Courier" font-size="38.0" fill="#637F37" transform="matrix(1.00, 0.00, -0.00, -1.00, 879.9, 211.0)">h</text><text xml:space="preserve" font-family="Courier" font-size="38.0" fill="#637F37" transform="matrix(1.00, 0.00, -0.00, -1.00, 902.8, 211.0)">r</text><text xml:space="preserve" font-family="Courier" font-size="38.0" fill="#637F37" transform="matrix(1.00, 0.00, -0.00, -1.00, 925.6, 211.0)">e</text><text xml:space="preserve" font-family="Courier" font-size="38.0" fill="#637F37" transform="matrix(1.00, 0.00, -0.00, -1.00, 948.4, 211.0)">e</text><text xml:space="preserve" font-family="Courier" font-size="38.0" fill="#637F37" transform="matrix(1.00, 0.00, -0.00, -1.00, 971.2, 211.0)">"</text><text xml:space="preserve" font-family="Courier" font-size="38.0" fill="#404040" transform="matrix(1.00, 0.00, -0.00, -1.00, 993.9, 211.0)">)</text><text xml:space="preserve" font-family="Courier" font-size="38.0" fill="#404040" transform="matrix(1.00, 0.00, -0.00, -1.00, 1016.7, 211.0)">,</text><text xml:space="preserve" font-family="Courier" font-size="38.0" fill="#7C50A3" transform="matrix(1.00, 0.00, -0.00, -1.00, 173.0, 165.0)">4</text><text xml:space="preserve" font-family="Courier" font-size="38.0" fill="#7C50A3" transform="matrix(1.00, 0.00, -0.00, -1.00, 195.8, 165.0)"> </text><text xml:space="preserve" font-family="Courier" font-size="38.0" fill="#404040" transform="matrix(1.00, 0.00, -0.00, -1.00, 218.6, 165.0)">.</text><text xml:space="preserve" font-family="Courier" font-size="38.0" fill="#404040" transform="matrix(1.00, 0.00, -0.00, -1.00, 241.4, 165.0)">.</text><text xml:space="preserve" font-family="Courier" font-size="38.0" fill="#404040" transform="matrix(1.00, 0.00, -0.00, -1.00, 264.2, 165.0)">.</text><text xml:space="preserve" font-family="Courier" font-size="38.0" fill="#404040" transform="matrix(1.00, 0.00, -0.00, -1.00, 287.0, 165.0)"> </text><text xml:space="preserve" font-family="Courier" font-size="38.0" fill="#7C50A3" transform="matrix(1.00, 0.00, -0.00, -1.00, 309.8, 165.0)">1</text><text xml:space="preserve" font-family="Courier" font-size="38.0" fill="#7C50A3" transform="matrix(1.00, 0.00, -0.00, -1.00, 332.6, 165.0)">0</text><text xml:space="preserve" font-family="Courier" font-size="38.0" fill="#7C50A3" transform="matrix(1.00, 0.00, -0.00, -1.00, 355.4, 165.0)"> </text><text xml:space="preserve" font-family="Courier" font-size="38.0" fill="#7C50A3" transform="matrix(1.00, 0.00, -0.00, -1.00, 378.2, 165.0)"> </text><text xml:space="preserve" font-family="Courier" font-size="38.0" fill="#404040" transform="matrix(1.00, 0.00, -0.00, -1.00, 401.0, 165.0)">=</text><text xml:space="preserve" font-family="Courier" font-size="38.0" fill="#404040" transform="matrix(1.00, 0.00, -0.00, -1.00, 423.8, 165.0)">&gt;</text><text xml:space="preserve" font-family="Courier" font-size="38.0" fill="#404040" transform="matrix(1.00, 0.00, -0.00, -1.00, 446.7, 165.0)"> </text><text xml:space="preserve" font-family="Courier" font-size="38.0" fill="#9A3A65" transform="matrix(1.00, 0.00, -0.00, -1.00, 469.4, 165.0)">p</text><text xml:space="preserve" font-family="Courier" font-size="38.0" fill="#9A3A65" transform="matrix(1.00, 0.00, -0.00, -1.00, 492.3, 165.0)">r</text><text xml:space="preserve" font-family="Courier" font-size="38.0" fill="#9A3A65" transform="matrix(1.00, 0.00, -0.00, -1.00, 515.1, 165.0)">i</text><text xml:space="preserve" font-family="Courier" font-size="38.0" fill="#9A3A65" transform="matrix(1.00, 0.00, -0.00, -1.00, 537.9, 165.0)">n</text><text xml:space="preserve" font-family="Courier" font-size="38.0" fill="#9A3A65" transform="matrix(1.00, 0.00, -0.00, -1.00, 560.7, 165.0)">t</text><text xml:space="preserve" font-family="Courier" font-size="38.0" fill="#9A3A65" transform="matrix(1.00, 0.00, -0.00, -1.00, 583.5, 165.0)">l</text><text xml:space="preserve" font-family="Courier" font-size="38.0" fill="#9A3A65" transform="matrix(1.00, 0.00, -0.00, -1.00, 606.3, 165.0)">n</text><text xml:space="preserve" font-family="Courier" font-size="38.0" fill="#9A3A65" transform="matrix(1.00, 0.00, -0.00, -1.00, 629.1, 165.0)">!</text><text xml:space="preserve" font-family="Courier" font-size="38.0" fill="#404040" transform="matrix(1.00, 0.00, -0.00, -1.00, 651.9, 165.0)">(</text><text xml:space="preserve" font-family="Courier" font-size="38.0" fill="#637F37" transform="matrix(1.00, 0.00, -0.00, -1.00, 674.7, 165.0)">"</text><text xml:space="preserve" font-family="Courier" font-size="38.0" fill="#637F37" transform="matrix(1.00, 0.00, -0.00, -1.00, 697.5, 165.0)">f</text><text xml:space="preserve" font-family="Courier" font-size="38.0" fill="#637F37" transform="matrix(1.00, 0.00, -0.00, -1.00, 720.3, 165.0)">o</text><text xml:space="preserve" font-family="Courier" font-size="38.0" fill="#637F37" transform="matrix(1.00, 0.00, -0.00, -1.00, 743.1, 165.0)">u</text><text xml:space="preserve" font-family="Courier" font-size="38.0" fill="#637F37" transform="matrix(1.00, 0.00, -0.00, -1.00, 765.9, 165.0)">r</text><text xml:space="preserve" font-family="Courier" font-size="38.0" fill="#637F37" transform="matrix(1.00, 0.00, -0.00, -1.00, 788.7, 165.0)"> </text><text xml:space="preserve" font-family="Courier" font-size="38.0" fill="#637F37" transform="matrix(1.00, 0.00, -0.00, -1.00, 811.5, 165.0)">t</text><text xml:space="preserve" font-family="Courier" font-size="38.0" fill="#637F37" transform="matrix(1.00, 0.00, -0.00, -1.00, 834.3, 165.0)">o</text><text xml:space="preserve" font-family="Courier" font-size="38.0" fill="#637F37" transform="matrix(1.00, 0.00, -0.00, -1.00, 857.1, 165.0)"> </text><text xml:space="preserve" font-family="Courier" font-size="38.0" fill="#637F37" transform="matrix(1.00, 0.00, -0.00, -1.00, 879.9, 165.0)">t</text><text xml:space="preserve" font-family="Courier" font-size="38.0" fill="#637F37" transform="matrix(1.00, 0.00, -0.00, -1.00, 902.8, 165.0)">e</text><text xml:space="preserve" font-family="Courier" font-size="38.0" fill="#637F37" transform="matrix(1.00, 0.00, -0.00, -1.00, 925.6, 165.0)">n</text><text xml:space="preserve" font-family="Courier" font-size="38.0" fill="#637F37" transform="matrix(1.00, 0.00, -0.00, -1.00, 948.4, 165.0)">"</text><text xml:space="preserve" font-family="Courier" font-size="38.0" fill="#404040" transform="matrix(1.00, 0.00, -0.00, -1.00, 971.1, 165.0)">)</text><text xml:space="preserve" font-family="Courier" font-size="38.0" fill="#404040" transform="matrix(1.00, 0.00, -0.00, -1.00, 993.9, 165.0)">,</text><text xml:space="preserve" font-family="Courier" font-size="38.0" fill="#404040" transform="matrix(1.00, 0.00, -0.00, -1.00, 173.0, 119.0)">_</text><text xml:space="preserve" font-family="Courier" font-size="38.0" fill="#404040" transform="matrix(1.00, 0.00, -0.00, -1.00, 195.8, 119.0)"> </text><text xml:space="preserve" font-family="Courier" font-size="38.0" fill="#404040" transform="matrix(1.00, 0.00, -0.00, -1.00, 218.6, 119.0)"> </text><text xml:space="preserve" font-family="Courier" font-size="38.0" fill="#404040" transform="matrix(1.00, 0.00, -0.00, -1.00, 241.4, 119.0)"> </text><text xml:space="preserve" font-family="Courier" font-size="38.0" fill="#404040" transform="matrix(1.00, 0.00, -0.00, -1.00, 264.2, 119.0)"> </text><text xml:space="preserve" font-family="Courier" font-size="38.0" fill="#404040" transform="matrix(1.00, 0.00, -0.00, -1.00, 287.0, 119.0)"> </text><text xml:space="preserve" font-family="Courier" font-size="38.0" fill="#404040" transform="matrix(1.00, 0.00, -0.00, -1.00, 309.8, 119.0)"> </text><text xml:space="preserve" font-family="Courier" font-size="38.0" fill="#404040" transform="matrix(1.00, 0.00, -0.00, -1.00, 332.7, 119.0)"> </text><text xml:space="preserve" font-family="Courier" font-size="38.0" fill="#404040" transform="matrix(1.00, 0.00, -0.00, -1.00, 355.5, 119.0)"> </text><text xml:space="preserve" font-family="Courier" font-size="38.0" fill="#404040" transform="matrix(1.00, 0.00, -0.00, -1.00, 378.3, 119.0)"> </text><text xml:space="preserve" font-family="Courier" font-size="38.0" fill="#404040" transform="matrix(1.00, 0.00, -0.00, -1.00, 401.1, 119.0)">=</text><text xml:space="preserve" font-family="Courier" font-size="38.0" fill="#404040" transform="matrix(1.00, 0.00, -0.00, -1.00, 423.9, 119.0)">&gt;</text><text xml:space="preserve" font-family="Courier" font-size="38.0" fill="#404040" transform="matrix(1.00, 0.00, -0.00, -1.00, 446.7, 119.0)"> </text><text xml:space="preserve" font-family="Courier" font-size="38.0" fill="#9A3A65" transform="matrix(1.00, 0.00, -0.00, -1.00, 469.4, 119.0)">p</text><text xml:space="preserve" font-family="Courier" font-size="38.0" fill="#9A3A65" transform="matrix(1.00, 0.00, -0.00, -1.00, 492.3, 119.0)">r</text><text xml:space="preserve" font-family="Courier" font-size="38.0" fill="#9A3A65" transform="matrix(1.00, 0.00, -0.00, -1.00, 515.1, 119.0)">i</text><text xml:space="preserve" font-family="Courier" font-size="38.0" fill="#9A3A65" transform="matrix(1.00, 0.00, -0.00, -1.00, 537.9, 119.0)">n</text><text xml:space="preserve" font-family="Courier" font-size="38.0" fill="#9A3A65" transform="matrix(1.00, 0.00, -0.00, -1.00, 560.7, 119.0)">t</text><text xml:space="preserve" font-family="Courier" font-size="38.0" fill="#9A3A65" transform="matrix(1.00, 0.00, -0.00, -1.00, 583.5, 119.0)">l</text><text xml:space="preserve" font-family="Courier" font-size="38.0" fill="#9A3A65" transform="matrix(1.00, 0.00, -0.00, -1.00, 606.3, 119.0)">n</text><text xml:space="preserve" font-family="Courier" font-size="38.0" fill="#9A3A65" transform="matrix(1.00, 0.00, -0.00, -1.00, 629.1, 119.0)">!</text><text xml:space="preserve" font-family="Courier" font-size="38.0" fill="#404040" transform="matrix(1.00, 0.00, -0.00, -1.00, 651.9, 119.0)">(</text><text xml:space="preserve" font-family="Courier" font-size="38.0" fill="#637F37" transform="matrix(1.00, 0.00, -0.00, -1.00, 674.7, 119.0)">"</text><text xml:space="preserve" font-family="Courier" font-size="38.0" fill="#637F37" transform="matrix(1.00, 0.00, -0.00, -1.00, 697.5, 119.0)">s</text><text xml:space="preserve" font-family="Courier" font-size="38.0" fill="#637F37" transform="matrix(1.00, 0.00, -0.00, -1.00, 720.3, 119.0)">o</text><text xml:space="preserve" font-family="Courier" font-size="38.0" fill="#637F37" transform="matrix(1.00, 0.00, -0.00, -1.00, 743.1, 119.0)">m</text><text xml:space="preserve" font-family="Courier" font-size="38.0" fill="#637F37" transform="matrix(1.00, 0.00, -0.00, -1.00, 765.9, 119.0)">e</text><text xml:space="preserve" font-family="Courier" font-size="38.0" fill="#637F37" transform="matrix(1.00, 0.00, -0.00, -1.00, 788.7, 119.0)">t</text><text xml:space="preserve" font-family="Courier" font-size="38.0" fill="#637F37" transform="matrix(1.00, 0.00, -0.00, -1.00, 811.5, 119.0)">h</text><text xml:space="preserve" font-family="Courier" font-size="38.0" fill="#637F37" transform="matrix(1.00, 0.00, -0.00, -1.00, 834.3, 119.0)">i</text><text xml:space="preserve" font-family="Courier" font-size="38.0" fill="#637F37" transform="matrix(1.00, 0.00, -0.00, -1.00, 857.1, 119.0)">n</text><text xml:space="preserve" font-family="Courier" font-size="38.0" fill="#637F37" transform="matrix(1.00, 0.00, -0.00, -1.00, 879.9, 119.0)">g</text><text xml:space="preserve" font-family="Courier" font-size="38.0" fill="#637F37" transform="matrix(1.00, 0.00, -0.00, -1.00, 902.8, 119.0)"> </text><text xml:space="preserve" font-family="Courier" font-size="38.0" fill="#637F37" transform="matrix(1.00, 0.00, -0.00, -1.00, 925.6, 119.0)">e</text><text xml:space="preserve" font-family="Courier" font-size="38.0" fill="#637F37" transform="matrix(1.00, 0.00, -0.00, -1.00, 948.4, 119.0)">l</text><text xml:space="preserve" font-family="Courier" font-size="38.0" fill="#637F37" transform="matrix(1.00, 0.00, -0.00, -1.00, 971.2, 119.0)">s</text><text xml:space="preserve" font-family="Courier" font-size="38.0" fill="#637F37" transform="matrix(1.00, 0.00, -0.00, -1.00, 994.0, 119.0)">e</text><text xml:space="preserve" font-family="Courier" font-size="38.0" fill="#637F37" transform="matrix(1.00, 0.00, -0.00, -1.00, 1016.8, 119.0)">"</text><text xml:space="preserve" font-family="Courier" font-size="38.0" fill="#404040" transform="matrix(1.00, 0.00, -0.00, -1.00, 1039.5, 119.0)">)</text><text xml:space="preserve" font-family="Courier" font-size="38.0" fill="#404040" transform="matrix(1.00, 0.00, -0.00, -1.00, 1062.3, 119.0)">,</text><text xml:space="preserve" font-family="Courier" font-size="38.0" fill="#404040" transform="matrix(1.00, 0.00, -0.00, -1.00, 137.0, 73.0)">}</text><text xml:space="preserve" font-family="Courier" font-size="38.0" fill="#404040" transform="matrix(1.00, 0.00, -0.00, -1.00, 159.8, 73.0)">;</text><text xml:space="preserve" font-family="Courier" font-size="38.0" fill="#404040" transform="matrix(1.00, 0.00, -0.00, -1.00, 182.6, 73.0)"> </text><text xml:space="preserve" font-family="Courier" font-size="38.0" fill="#78868C" transform="matrix(1.00, 0.00, -0.00, -1.00, 205.4, 73.0)">/</text><text xml:space="preserve" font-family="Courier" font-size="38.0" fill="#78868C" transform="matrix(1.00, 0.00, -0.00, -1.00, 228.2, 73.0)">/</text><text xml:space="preserve" font-family="Courier" font-size="38.0" fill="#78868C" transform="matrix(1.00, 0.00, -0.00, -1.00, 251.0, 73.0)"> </text><text xml:space="preserve" font-family="Courier" font-size="38.0" fill="#78868C" transform="matrix(1.00, 0.00, -0.00, -1.00, 273.8, 73.0)">p</text><text xml:space="preserve" font-family="Courier" font-size="38.0" fill="#78868C" transform="matrix(1.00, 0.00, -0.00, -1.00, 296.6, 73.0)">r</text><text xml:space="preserve" font-family="Courier" font-size="38.0" fill="#78868C" transform="matrix(1.00, 0.00, -0.00, -1.00, 319.4, 73.0)">i</text><text xml:space="preserve" font-family="Courier" font-size="38.0" fill="#78868C" transform="matrix(1.00, 0.00, -0.00, -1.00, 342.3, 73.0)">n</text><text xml:space="preserve" font-family="Courier" font-size="38.0" fill="#78868C" transform="matrix(1.00, 0.00, -0.00, -1.00, 365.1, 73.0)">t</text><text xml:space="preserve" font-family="Courier" font-size="38.0" fill="#78868C" transform="matrix(1.00, 0.00, -0.00, -1.00, 387.9, 73.0)">s</text><text xml:space="preserve" font-family="Courier" font-size="38.0" fill="#78868C" transform="matrix(1.00, 0.00, -0.00, -1.00, 410.7, 73.0)"> </text><text xml:space="preserve" font-family="Courier" font-size="38.0" fill="#78868C" transform="matrix(1.00, 0.00, -0.00, -1.00, 433.5, 73.0)">'</text><text xml:space="preserve" font-family="Courier" font-size="38.0" fill="#78868C" transform="matrix(1.00, 0.00, -0.00, -1.00, 456.3, 73.0)">t</text><text xml:space="preserve" font-family="Courier" font-size="38.0" fill="#78868C" transform="matrix(1.00, 0.00, -0.00, -1.00, 479.1, 73.0)">w</text><text xml:space="preserve" font-family="Courier" font-size="38.0" fill="#78868C" transform="matrix(1.00, 0.00, -0.00, -1.00, 501.9, 73.0)">o</text><text xml:space="preserve" font-family="Courier" font-size="38.0" fill="#78868C" transform="matrix(1.00, 0.00, -0.00, -1.00, 524.7, 73.0)"> </text><text xml:space="preserve" font-family="Courier" font-size="38.0" fill="#78868C" transform="matrix(1.00, 0.00, -0.00, -1.00, 547.5, 73.0)">o</text><text xml:space="preserve" font-family="Courier" font-size="38.0" fill="#78868C" transform="matrix(1.00, 0.00, -0.00, -1.00, 570.3, 73.0)">r</text><text xml:space="preserve" font-family="Courier" font-size="38.0" fill="#78868C" transform="matrix(1.00, 0.00, -0.00, -1.00, 593.1, 73.0)"> </text><text xml:space="preserve" font-family="Courier" font-size="38.0" fill="#78868C" transform="matrix(1.00, 0.00, -0.00, -1.00, 615.9, 73.0)">t</text><text xml:space="preserve" font-family="Courier" font-size="38.0" fill="#78868C" transform="matrix(1.00, 0.00, -0.00, -1.00, 638.8, 73.0)">h</text><text xml:space="preserve" font-family="Courier" font-size="38.0" fill="#78868C" transform="matrix(1.00, 0.00, -0.00, -1.00, 661.6, 73.0)">r</text><text xml:space="preserve" font-family="Courier" font-size="38.0" fill="#78868C" transform="matrix(1.00, 0.00, -0.00, -1.00, 684.4, 73.0)">e</text><text xml:space="preserve" font-family="Courier" font-size="38.0" fill="#78868C" transform="matrix(1.00, 0.00, -0.00, -1.00, 707.2, 73.0)">e</text><text xml:space="preserve" font-family="Courier" font-size="38.0" fill="#78868C" transform="matrix(1.00, 0.00, -0.00, -1.00, 730.0, 73.0)">'</text></g></svg>