<?xml version="1.0" encoding="UTF-8" standalone="no"?><svg xmlns="http://www.w3.org/2000/svg" xmlns:xlink="http://www.w3.org/1999/xlink" clip-rule="evenodd" stroke-miterlimit="4.00" viewBox="0 0 1920 1080"><desc>SVG generated by Keynote</desc><defs></defs><g transform="matrix(1.00, 0.00, -0.00, -1.00, 0.0, 1080.0)"><path d="M 0.0 1080.0 L 1920.0 1080.0 L 1920.0 0.0 L 0.0 0.0 Z M 0.0 1080.0 " fill="#FEFFFF"></path><text xml:space="preserve" font-family="Helvetica-Light" font-size="112.0" fill="#000000" transform="matrix(1.00, 0.00, -0.00, -1.00, 257.0, 874.0)">E</text><text xml:space="preserve" font-family="Helvetica-Light" font-size="112.0" fill="#000000" transform="matrix(1.00, 0.00, -0.00, -1.00, 325.4, 874.0)">a</text><text xml:space="preserve" font-family="Helvetica-Light" font-size="112.0" fill="#000000" transform="matrix(1.00, 0.00, -0.00, -1.00, 387.7, 874.0)">r</text><text xml:space="preserve" font-family="Helvetica-Light" font-size="112.0" fill="#000000" transform="matrix(1.00, 0.00, -0.00, -1.00, 425.0, 874.0)">l</text><text xml:space="preserve" font-family="Helvetica-Light" font-size="112.0" fill="#000000" transform="matrix(1.00, 0.00, -0.00, -1.00, 449.9, 874.0)">y</text><text xml:space="preserve" font-family="Helvetica-Light" font-size="112.0" fill="#000000" transform="matrix(1.00, 0.00, -0.00, -1.00, 505.9, 874.0)"> </text><text xml:space="preserve" font-family="Helvetica-Light" font-size="112.0" fill="#000000" transform="matrix(1.00, 0.00, -0.00, -1.00, 537.0, 874.0)">r</text><text xml:space="preserve" font-family="Helvetica-Light" font-size="112.0" fill="#000000" transform="matrix(1.00, 0.00, -0.00, -1.00, 572.3, 874.0)">e</text><text xml:space="preserve" font-family="Helvetica-Light" font-size="112.0" fill="#000000" transform="matrix(1.00, 0.00, -0.00, -1.00, 634.6, 874.0)">t</text><text xml:space="preserve" font-family="Helvetica-Light" font-size="112.0" fill="#000000" transform="matrix(1.00, 0.00, -0.00, -1.00, 665.7, 874.0)">u</text><text xml:space="preserve" font-family="Helvetica-Light" font-size="112.0" fill="#000000" transform="matrix(1.00, 0.00, -0.00, -1.00, 728.0, 874.0)">r</text><text xml:space="preserve" font-family="Helvetica-Light" font-size="112.0" fill="#000000" transform="matrix(1.00, 0.00, -0.00, -1.00, 767.3, 874.0)">n</text><text xml:space="preserve" font-family="Helvetica-Light" font-size="112.0" fill="#000000" transform="matrix(1.00, 0.00, -0.00, -1.00, 829.5, 874.0)">s</text><text xml:space="preserve" font-family="Helvetica-Light" font-size="112.0" fill="#000000" transform="matrix(1.00, 0.00, -0.00, -1.00, 885.5, 874.0)"> </text><text xml:space="preserve" font-family="Helvetica-Light" font-size="112.0" fill="#000000" transform="matrix(1.00, 0.00, -0.00, -1.00, 916.7, 874.0)">w</text><text xml:space="preserve" font-family="Helvetica-Light" font-size="112.0" fill="#000000" transform="matrix(1.00, 0.00, -0.00, -1.00, 997.5, 874.0)">i</text><text xml:space="preserve" font-family="Helvetica-Light" font-size="112.0" fill="#000000" transform="matrix(1.00, 0.00, -0.00, -1.00, 1022.4, 874.0)">t</text><text xml:space="preserve" font-family="Helvetica-Light" font-size="112.0" fill="#000000" transform="matrix(1.00, 0.00, -0.00, -1.00, 1053.5, 874.0)">h</text><text xml:space="preserve" font-family="Helvetica-Light" font-size="112.0" fill="#000000" transform="matrix(1.00, 0.00, -0.00, -1.00, 1115.8, 874.0)"> </text><text xml:space="preserve" font-family="Helvetica-Light" font-size="112.0" fill="#000000" transform="matrix(1.00, 0.00, -0.00, -1.00, 1147.0, 874.0)">s</text><text xml:space="preserve" font-family="Helvetica-Light" font-size="112.0" fill="#000000" transform="matrix(1.00, 0.00, -0.00, -1.00, 1203.0, 874.0)">u</text><text xml:space="preserve" font-family="Helvetica-Light" font-size="112.0" fill="#000000" transform="matrix(1.00, 0.00, -0.00, -1.00, 1265.2, 874.0)">m</text><text xml:space="preserve" font-family="Helvetica-Light" font-size="112.0" fill="#000000" transform="matrix(1.00, 0.00, -0.00, -1.00, 1358.5, 874.0)"> </text><text xml:space="preserve" font-family="Helvetica-Light" font-size="112.0" fill="#000000" transform="matrix(1.00, 0.00, -0.00, -1.00, 1389.7, 874.0)">t</text><text xml:space="preserve" font-family="Helvetica-Light" font-size="112.0" fill="#000000" transform="matrix(1.00, 0.00, -0.00, -1.00, 1420.8, 874.0)">y</text><text xml:space="preserve" font-family="Helvetica-Light" font-size="112.0" fill="#000000" transform="matrix(1.00, 0.00, -0.00, -1.00, 1476.8, 874.0)">p</text><text xml:space="preserve" font-family="Helvetica-Light" font-size="112.0" fill="#000000" transform="matrix(1.00, 0.00, -0.00, -1.00, 1545.2, 874.0)">e</text><text xml:space="preserve" font-family="Helvetica-Light" font-size="112.0" fill="#000000" transform="matrix(1.00, 0.00, -0.00, -1.00, 1607.5, 874.0)">s</text><text xml:space="preserve" font-family="Helvetica-Light" font-size="39.0" fill="#000000" transform="matrix(1.00, 0.00, -0.00, -1.00, 137.0, 689.5)">•</text><text xml:space="preserve" font-family="Helvetica-Light" font-size="52.0" fill="#000000" transform="matrix(1.00, 0.00, -0.00, -1.00, 187.0, 685.0)">U</text><text xml:space="preserve" font-family="Helvetica-Light" font-size="52.0" fill="#000000" transform="matrix(1.00, 0.00, -0.00, -1.00, 224.5, 685.0)">s</text><text xml:space="preserve" font-family="Helvetica-Light" font-size="52.0" fill="#000000" transform="matrix(1.00, 0.00, -0.00, -1.00, 250.5, 685.0)">e</text><text xml:space="preserve" font-family="Helvetica-Light" font-size="52.0" fill="#000000" transform="matrix(1.00, 0.00, -0.00, -1.00, 279.5, 685.0)">d</text><text xml:space="preserve" font-family="Helvetica-Light" font-size="52.0" fill="#000000" transform="matrix(1.00, 0.00, -0.00, -1.00, 311.2, 685.0)"> </text><text xml:space="preserve" font-family="Helvetica-Light" font-size="52.0" fill="#000000" transform="matrix(1.00, 0.00, -0.00, -1.00, 325.7, 685.0)">i</text><text xml:space="preserve" font-family="Helvetica-Light" font-size="52.0" fill="#000000" transform="matrix(1.00, 0.00, -0.00, -1.00, 337.2, 685.0)">n</text><text xml:space="preserve" font-family="Helvetica-Light" font-size="52.0" fill="#000000" transform="matrix(1.00, 0.00, -0.00, -1.00, 366.1, 685.0)"> </text><text xml:space="preserve" font-family="Helvetica-Light" font-size="52.0" fill="#000000" transform="matrix(1.00, 0.00, -0.00, -1.00, 380.6, 685.0)">f</text><text xml:space="preserve" font-family="Helvetica-Light" font-size="52.0" fill="#000000" transform="matrix(1.00, 0.00, -0.00, -1.00, 395.1, 685.0)">u</text><text xml:space="preserve" font-family="Helvetica-Light" font-size="52.0" fill="#000000" transform="matrix(1.00, 0.00, -0.00, -1.00, 424.0, 685.0)">n</text><text xml:space="preserve" font-family="Helvetica-Light" font-size="52.0" fill="#000000" transform="matrix(1.00, 0.00, -0.00, -1.00, 452.9, 685.0)">c</text><text xml:space="preserve" font-family="Helvetica-Light" font-size="52.0" fill="#000000" transform="matrix(1.00, 0.00, -0.00, -1.00, 481.8, 685.0)">t</text><text xml:space="preserve" font-family="Helvetica-Light" font-size="52.0" fill="#000000" transform="matrix(1.00, 0.00, -0.00, -1.00, 496.2, 685.0)">i</text><text xml:space="preserve" font-family="Helvetica-Light" font-size="52.0" fill="#000000" transform="matrix(1.00, 0.00, -0.00, -1.00, 507.8, 685.0)">o</text><text xml:space="preserve" font-family="Helvetica-Light" font-size="52.0" fill="#000000" transform="matrix(1.00, 0.00, -0.00, -1.00, 536.7, 685.0)">n</text><text xml:space="preserve" font-family="Helvetica-Light" font-size="52.0" fill="#000000" transform="matrix(1.00, 0.00, -0.00, -1.00, 565.6, 685.0)">a</text><text xml:space="preserve" font-family="Helvetica-Light" font-size="52.0" fill="#000000" transform="matrix(1.00, 0.00, -0.00, -1.00, 594.5, 685.0)">l</text><text xml:space="preserve" font-family="Helvetica-Light" font-size="52.0" fill="#000000" transform="matrix(1.00, 0.00, -0.00, -1.00, 606.1, 685.0)"> </text><text xml:space="preserve" font-family="Helvetica-Light" font-size="52.0" fill="#000000" transform="matrix(1.00, 0.00, -0.00, -1.00, 620.5, 685.0)">p</text><text xml:space="preserve" font-family="Helvetica-Light" font-size="52.0" fill="#000000" transform="matrix(1.00, 0.00, -0.00, -1.00, 652.3, 685.0)">r</text><text xml:space="preserve" font-family="Helvetica-Light" font-size="52.0" fill="#000000" transform="matrix(1.00, 0.00, -0.00, -1.00, 668.7, 685.0)">o</text><text xml:space="preserve" font-family="Helvetica-Light" font-size="52.0" fill="#000000" transform="matrix(1.00, 0.00, -0.00, -1.00, 697.6, 685.0)">g</text><text xml:space="preserve" font-family="Helvetica-Light" font-size="52.0" fill="#000000" transform="matrix(1.00, 0.00, -0.00, -1.00, 729.4, 685.0)">r</text><text xml:space="preserve" font-family="Helvetica-Light" font-size="52.0" fill="#000000" transform="matrix(1.00, 0.00, -0.00, -1.00, 746.7, 685.0)">a</text><text xml:space="preserve" font-family="Helvetica-Light" font-size="52.0" fill="#000000" transform="matrix(1.00, 0.00, -0.00, -1.00, 775.6, 685.0)">m</text><text xml:space="preserve" font-family="Helvetica-Light" font-size="52.0" fill="#000000" transform="matrix(1.00, 0.00, -0.00, -1.00, 818.9, 685.0)">m</text><text xml:space="preserve" font-family="Helvetica-Light" font-size="52.0" fill="#000000" transform="matrix(1.00, 0.00, -0.00, -1.00, 862.2, 685.0)">i</text><text xml:space="preserve" font-family="Helvetica-Light" font-size="52.0" fill="#000000" transform="matrix(1.00, 0.00, -0.00, -1.00, 873.8, 685.0)">n</text><text xml:space="preserve" font-family="Helvetica-Light" font-size="52.0" fill="#000000" transform="matrix(1.00, 0.00, -0.00, -1.00, 902.7, 685.0)">g</text><text xml:space="preserve" font-family="Helvetica-Light" font-size="52.0" fill="#000000" transform="matrix(1.00, 0.00, -0.00, -1.00, 934.4, 685.0)"> </text><text xml:space="preserve" font-family="Helvetica-Light" font-size="52.0" fill="#000000" transform="matrix(1.00, 0.00, -0.00, -1.00, 948.9, 685.0)">l</text><text xml:space="preserve" font-family="Helvetica-Light" font-size="52.0" fill="#000000" transform="matrix(1.00, 0.00, -0.00, -1.00, 960.4, 685.0)">a</text><text xml:space="preserve" font-family="Helvetica-Light" font-size="52.0" fill="#000000" transform="matrix(1.00, 0.00, -0.00, -1.00, 989.4, 685.0)">n</text><text xml:space="preserve" font-family="Helvetica-Light" font-size="52.0" fill="#000000" transform="matrix(1.00, 0.00, -0.00, -1.00, 1018.3, 685.0)">g</text><text xml:space="preserve" font-family="Helvetica-Light" font-size="52.0" fill="#000000" transform="matrix(1.00, 0.00, -0.00, -1.00, 1050.0, 685.0)">u</text><text xml:space="preserve" font-family="Helvetica-Light" font-size="52.0" fill="#000000" transform="matrix(1.00, 0.00, -0.00, -1.00, 1079.0, 685.0)">a</text><text xml:space="preserve" font-family="Helvetica-Light" font-size="52.0" fill="#000000" transform="matrix(1.00, 0.00, -0.00, -1.00, 1107.9, 685.0)">g</text><text xml:space="preserve" font-family="Helvetica-Light" font-size="52.0" fill="#000000" transform="matrix(1.00, 0.00, -0.00, -1.00, 1139.6, 685.0)">e</text><text xml:space="preserve" font-family="Helvetica-Light" font-size="52.0" fill="#000000" transform="matrix(1.00, 0.00, -0.00, -1.00, 1168.6, 685.0)">s</text><text xml:space="preserve" font-family="Helvetica-Light" font-size="52.0" fill="#000000" transform="matrix(1.00, 0.00, -0.00, -1.00, 1194.6, 685.0)"> </text><text xml:space="preserve" font-family="Helvetica-Light" font-size="39.0" fill="#000000" transform="matrix(1.00, 0.00, -0.00, -1.00, 137.0, 568.5)">•</text><text xml:space="preserve" font-family="Helvetica-Light" font-size="52.0" fill="#000000" transform="matrix(1.00, 0.00, -0.00, -1.00, 187.0, 564.0)">S</text><text xml:space="preserve" font-family="Helvetica-Light" font-size="52.0" fill="#000000" transform="matrix(1.00, 0.00, -0.00, -1.00, 218.8, 564.0)">u</text><text xml:space="preserve" font-family="Helvetica-Light" font-size="52.0" fill="#000000" transform="matrix(1.00, 0.00, -0.00, -1.00, 247.7, 564.0)">m</text><text xml:space="preserve" font-family="Helvetica-Light" font-size="52.0" fill="#000000" transform="matrix(1.00, 0.00, -0.00, -1.00, 291.0, 564.0)"> </text><text xml:space="preserve" font-family="Helvetica-Light" font-size="52.0" fill="#000000" transform="matrix(1.00, 0.00, -0.00, -1.00, 305.5, 564.0)">t</text><text xml:space="preserve" font-family="Helvetica-Light" font-size="52.0" fill="#000000" transform="matrix(1.00, 0.00, -0.00, -1.00, 319.9, 564.0)">y</text><text xml:space="preserve" font-family="Helvetica-Light" font-size="52.0" fill="#000000" transform="matrix(1.00, 0.00, -0.00, -1.00, 345.9, 564.0)">p</text><text xml:space="preserve" font-family="Helvetica-Light" font-size="52.0" fill="#000000" transform="matrix(1.00, 0.00, -0.00, -1.00, 377.7, 564.0)">e</text><text xml:space="preserve" font-family="Helvetica-Light" font-size="52.0" fill="#000000" transform="matrix(1.00, 0.00, -0.00, -1.00, 406.6, 564.0)">s</text><text xml:space="preserve" font-family="Helvetica-Light" font-size="52.0" fill="#000000" transform="matrix(1.00, 0.00, -0.00, -1.00, 432.6, 564.0)"> </text><text xml:space="preserve" font-family="Helvetica-Light" font-size="52.0" fill="#000000" transform="matrix(1.00, 0.00, -0.00, -1.00, 447.1, 564.0)">u</text><text xml:space="preserve" font-family="Helvetica-Light" font-size="52.0" fill="#000000" transform="matrix(1.00, 0.00, -0.00, -1.00, 476.0, 564.0)">s</text><text xml:space="preserve" font-family="Helvetica-Light" font-size="52.0" fill="#000000" transform="matrix(1.00, 0.00, -0.00, -1.00, 502.0, 564.0)">e</text><text xml:space="preserve" font-family="Helvetica-Light" font-size="52.0" fill="#000000" transform="matrix(1.00, 0.00, -0.00, -1.00, 530.9, 564.0)">d</text><text xml:space="preserve" font-family="Helvetica-Light" font-size="52.0" fill="#000000" transform="matrix(1.00, 0.00, -0.00, -1.00, 562.6, 564.0)"> </text><text xml:space="preserve" font-family="Helvetica-Light" font-size="52.0" fill="#000000" transform="matrix(1.00, 0.00, -0.00, -1.00, 577.1, 564.0)">t</text><text xml:space="preserve" font-family="Helvetica-Light" font-size="52.0" fill="#000000" transform="matrix(1.00, 0.00, -0.00, -1.00, 591.6, 564.0)">o</text><text xml:space="preserve" font-family="Helvetica-Light" font-size="52.0" fill="#000000" transform="matrix(1.00, 0.00, -0.00, -1.00, 620.5, 564.0)"> </text><text xml:space="preserve" font-family="Helvetica-Light" font-size="52.0" fill="#000000" transform="matrix(1.00, 0.00, -0.00, -1.00, 634.9, 564.0)">c</text><text xml:space="preserve" font-family="Helvetica-Light" font-size="52.0" fill="#000000" transform="matrix(1.00, 0.00, -0.00, -1.00, 663.8, 564.0)">a</text><text xml:space="preserve" font-family="Helvetica-Light" font-size="52.0" fill="#000000" transform="matrix(1.00, 0.00, -0.00, -1.00, 692.8, 564.0)">r</text><text xml:space="preserve" font-family="Helvetica-Light" font-size="52.0" fill="#000000" transform="matrix(1.00, 0.00, -0.00, -1.00, 710.1, 564.0)">r</text><text xml:space="preserve" font-family="Helvetica-Light" font-size="52.0" fill="#000000" transform="matrix(1.00, 0.00, -0.00, -1.00, 728.3, 564.0)">y</text><text xml:space="preserve" font-family="Helvetica-Light" font-size="52.0" fill="#000000" transform="matrix(1.00, 0.00, -0.00, -1.00, 754.3, 564.0)"> </text><text xml:space="preserve" font-family="Helvetica-Light" font-size="52.0" fill="#000000" transform="matrix(1.00, 0.00, -0.00, -1.00, 768.8, 564.0)">r</text><text xml:space="preserve" font-family="Helvetica-Light" font-size="52.0" fill="#000000" transform="matrix(1.00, 0.00, -0.00, -1.00, 785.2, 564.0)">e</text><text xml:space="preserve" font-family="Helvetica-Light" font-size="52.0" fill="#000000" transform="matrix(1.00, 0.00, -0.00, -1.00, 814.1, 564.0)">s</text><text xml:space="preserve" font-family="Helvetica-Light" font-size="52.0" fill="#000000" transform="matrix(1.00, 0.00, -0.00, -1.00, 840.1, 564.0)">u</text><text xml:space="preserve" font-family="Helvetica-Light" font-size="52.0" fill="#000000" transform="matrix(1.00, 0.00, -0.00, -1.00, 869.0, 564.0)">l</text><text xml:space="preserve" font-family="Helvetica-Light" font-size="52.0" fill="#000000" transform="matrix(1.00, 0.00, -0.00, -1.00, 880.5, 564.0)">t</text><text xml:space="preserve" font-family="Helvetica-Light" font-size="52.0" fill="#000000" transform="matrix(1.00, 0.00, -0.00, -1.00, 895.0, 564.0)"> </text><text xml:space="preserve" font-family="Helvetica-Light" font-size="52.0" fill="#000000" transform="matrix(1.00, 0.00, -0.00, -1.00, 909.4, 564.0)">v</text><text xml:space="preserve" font-family="Helvetica-Light" font-size="52.0" fill="#000000" transform="matrix(1.00, 0.00, -0.00, -1.00, 935.4, 564.0)">a</text><text xml:space="preserve" font-family="Helvetica-Light" font-size="52.0" fill="#000000" transform="matrix(1.00, 0.00, -0.00, -1.00, 964.3, 564.0)">l</text><text xml:space="preserve" font-family="Helvetica-Light" font-size="52.0" fill="#000000" transform="matrix(1.00, 0.00, -0.00, -1.00, 975.9, 564.0)">u</text><text xml:space="preserve" font-family="Helvetica-Light" font-size="52.0" fill="#000000" transform="matrix(1.00, 0.00, -0.00, -1.00, 1004.8, 564.0)">e</text><text xml:space="preserve" font-family="Helvetica-Light" font-size="52.0" fill="#000000" transform="matrix(1.00, 0.00, -0.00, -1.00, 1033.7, 564.0)"> </text><text xml:space="preserve" font-family="Helvetica-Light" font-size="52.0" fill="#000000" transform="matrix(1.00, 0.00, -0.00, -1.00, 1048.2, 564.0)">o</text><text xml:space="preserve" font-family="Helvetica-Light" font-size="52.0" fill="#000000" transform="matrix(1.00, 0.00, -0.00, -1.00, 1077.1, 564.0)">r</text><text xml:space="preserve" font-family="Helvetica-Light" font-size="52.0" fill="#000000" transform="matrix(1.00, 0.00, -0.00, -1.00, 1094.4, 564.0)"> </text><text xml:space="preserve" font-family="Helvetica-Light" font-size="52.0" fill="#000000" transform="matrix(1.00, 0.00, -0.00, -1.00, 1108.9, 564.0)">e</text><text xml:space="preserve" font-family="Helvetica-Light" font-size="52.0" fill="#000000" transform="matrix(1.00, 0.00, -0.00, -1.00, 1137.8, 564.0)">r</text><text xml:space="preserve" font-family="Helvetica-Light" font-size="52.0" fill="#000000" transform="matrix(1.00, 0.00, -0.00, -1.00, 1155.1, 564.0)">r</text><text xml:space="preserve" font-family="Helvetica-Light" font-size="52.0" fill="#000000" transform="matrix(1.00, 0.00, -0.00, -1.00, 1171.5, 564.0)">o</text><text xml:space="preserve" font-family="Helvetica-Light" font-size="52.0" fill="#000000" transform="matrix(1.00, 0.00, -0.00, -1.00, 1200.4, 564.0)">r</text><text xml:space="preserve" font-family="Helvetica-Light" font-size="52.0" fill="#000000" transform="matrix(1.00, 0.00, -0.00, -1.00, 1217.7, 564.0)"> </text><text xml:space="preserve" font-family="Helvetica-Light" font-size="39.0" fill="#000000" transform="matrix(1.00, 0.00, -0.00, -1.00, 137.0, 447.5)">•</text><text xml:space="preserve" font-family="Helvetica-Light" font-size="52.0" fill="#000000" transform="matrix(1.00, 0.00, -0.00, -1.00, 187.0, 443.0)">C</text><text xml:space="preserve" font-family="Helvetica-Light" font-size="52.0" fill="#000000" transform="matrix(1.00, 0.00, -0.00, -1.00, 224.5, 443.0)">h</text><text xml:space="preserve" font-family="Helvetica-Light" font-size="52.0" fill="#000000" transform="matrix(1.00, 0.00, -0.00, -1.00, 253.5, 443.0)">a</text><text xml:space="preserve" font-family="Helvetica-Light" font-size="52.0" fill="#000000" transform="matrix(1.00, 0.00, -0.00, -1.00, 282.4, 443.0)">i</text><text xml:space="preserve" font-family="Helvetica-Light" font-size="52.0" fill="#000000" transform="matrix(1.00, 0.00, -0.00, -1.00, 293.9, 443.0)">n</text><text xml:space="preserve" font-family="Helvetica-Light" font-size="52.0" fill="#000000" transform="matrix(1.00, 0.00, -0.00, -1.00, 322.8, 443.0)">e</text><text xml:space="preserve" font-family="Helvetica-Light" font-size="52.0" fill="#000000" transform="matrix(1.00, 0.00, -0.00, -1.00, 351.7, 443.0)">d</text><text xml:space="preserve" font-family="Helvetica-Light" font-size="52.0" fill="#000000" transform="matrix(1.00, 0.00, -0.00, -1.00, 383.5, 443.0)"> </text><text xml:space="preserve" font-family="Helvetica-Light" font-size="52.0" fill="#000000" transform="matrix(1.00, 0.00, -0.00, -1.00, 398.0, 443.0)">s</text><text xml:space="preserve" font-family="Helvetica-Light" font-size="52.0" fill="#000000" transform="matrix(1.00, 0.00, -0.00, -1.00, 424.0, 443.0)">e</text><text xml:space="preserve" font-family="Helvetica-Light" font-size="52.0" fill="#000000" transform="matrix(1.00, 0.00, -0.00, -1.00, 452.9, 443.0)">r</text><text xml:space="preserve" font-family="Helvetica-Light" font-size="52.0" fill="#000000" transform="matrix(1.00, 0.00, -0.00, -1.00, 470.2, 443.0)">i</text><text xml:space="preserve" font-family="Helvetica-Light" font-size="52.0" fill="#000000" transform="matrix(1.00, 0.00, -0.00, -1.00, 481.7, 443.0)">e</text><text xml:space="preserve" font-family="Helvetica-Light" font-size="52.0" fill="#000000" transform="matrix(1.00, 0.00, -0.00, -1.00, 510.6, 443.0)">s</text><text xml:space="preserve" font-family="Helvetica-Light" font-size="52.0" fill="#000000" transform="matrix(1.00, 0.00, -0.00, -1.00, 536.6, 443.0)"> </text><text xml:space="preserve" font-family="Helvetica-Light" font-size="52.0" fill="#000000" transform="matrix(1.00, 0.00, -0.00, -1.00, 551.1, 443.0)">o</text><text xml:space="preserve" font-family="Helvetica-Light" font-size="52.0" fill="#000000" transform="matrix(1.00, 0.00, -0.00, -1.00, 580.0, 443.0)">f</text><text xml:space="preserve" font-family="Helvetica-Light" font-size="52.0" fill="#000000" transform="matrix(1.00, 0.00, -0.00, -1.00, 594.5, 443.0)"> </text><text xml:space="preserve" font-family="Helvetica-Light" font-size="52.0" fill="#000000" transform="matrix(1.00, 0.00, -0.00, -1.00, 608.9, 443.0)">o</text><text xml:space="preserve" font-family="Helvetica-Light" font-size="52.0" fill="#000000" transform="matrix(1.00, 0.00, -0.00, -1.00, 637.8, 443.0)">p</text><text xml:space="preserve" font-family="Helvetica-Light" font-size="52.0" fill="#000000" transform="matrix(1.00, 0.00, -0.00, -1.00, 669.6, 443.0)">e</text><text xml:space="preserve" font-family="Helvetica-Light" font-size="52.0" fill="#000000" transform="matrix(1.00, 0.00, -0.00, -1.00, 698.5, 443.0)">r</text><text xml:space="preserve" font-family="Helvetica-Light" font-size="52.0" fill="#000000" transform="matrix(1.00, 0.00, -0.00, -1.00, 715.8, 443.0)">a</text><text xml:space="preserve" font-family="Helvetica-Light" font-size="52.0" fill="#000000" transform="matrix(1.00, 0.00, -0.00, -1.00, 744.8, 443.0)">t</text><text xml:space="preserve" font-family="Helvetica-Light" font-size="52.0" fill="#000000" transform="matrix(1.00, 0.00, -0.00, -1.00, 759.2, 443.0)">i</text><text xml:space="preserve" font-family="Helvetica-Light" font-size="52.0" fill="#000000" transform="matrix(1.00, 0.00, -0.00, -1.00, 770.8, 443.0)">o</text><text xml:space="preserve" font-family="Helvetica-Light" font-size="52.0" fill="#000000" transform="matrix(1.00, 0.00, -0.00, -1.00, 799.7, 443.0)">n</text><text xml:space="preserve" font-family="Helvetica-Light" font-size="52.0" fill="#000000" transform="matrix(1.00, 0.00, -0.00, -1.00, 828.6, 443.0)">s</text><text xml:space="preserve" font-family="Helvetica-Light" font-size="52.0" fill="#000000" transform="matrix(1.00, 0.00, -0.00, -1.00, 854.6, 443.0)"> </text><text xml:space="preserve" font-family="Helvetica-Light" font-size="52.0" fill="#000000" transform="matrix(1.00, 0.00, -0.00, -1.00, 869.0, 443.0)">t</text><text xml:space="preserve" font-family="Helvetica-Light" font-size="52.0" fill="#000000" transform="matrix(1.00, 0.00, -0.00, -1.00, 883.5, 443.0)">h</text><text xml:space="preserve" font-family="Helvetica-Light" font-size="52.0" fill="#000000" transform="matrix(1.00, 0.00, -0.00, -1.00, 912.4, 443.0)">a</text><text xml:space="preserve" font-family="Helvetica-Light" font-size="52.0" fill="#000000" transform="matrix(1.00, 0.00, -0.00, -1.00, 941.3, 443.0)">t</text><text xml:space="preserve" font-family="Helvetica-Light" font-size="52.0" fill="#000000" transform="matrix(1.00, 0.00, -0.00, -1.00, 955.8, 443.0)"> </text><text xml:space="preserve" font-family="Helvetica-Light" font-size="52.0" fill="#000000" transform="matrix(1.00, 0.00, -0.00, -1.00, 970.2, 443.0)">c</text><text xml:space="preserve" font-family="Helvetica-Light" font-size="52.0" fill="#000000" transform="matrix(1.00, 0.00, -0.00, -1.00, 999.1, 443.0)">a</text><text xml:space="preserve" font-family="Helvetica-Light" font-size="52.0" fill="#000000" transform="matrix(1.00, 0.00, -0.00, -1.00, 1028.0, 443.0)">n</text><text xml:space="preserve" font-family="Helvetica-Light" font-size="52.0" fill="#000000" transform="matrix(1.00, 0.00, -0.00, -1.00, 1057.0, 443.0)"> </text><text xml:space="preserve" font-family="Helvetica-Light" font-size="52.0" fill="#000000" transform="matrix(1.00, 0.00, -0.00, -1.00, 1071.4, 443.0)">f</text><text xml:space="preserve" font-family="Helvetica-Light" font-size="52.0" fill="#000000" transform="matrix(1.00, 0.00, -0.00, -1.00, 1085.9, 443.0)">a</text><text xml:space="preserve" font-family="Helvetica-Light" font-size="52.0" fill="#000000" transform="matrix(1.00, 0.00, -0.00, -1.00, 1114.8, 443.0)">i</text><text xml:space="preserve" font-family="Helvetica-Light" font-size="52.0" fill="#000000" transform="matrix(1.00, 0.00, -0.00, -1.00, 1126.3, 443.0)">l</text><text xml:space="preserve" font-family="Helvetica-Light" font-size="52.0" fill="#000000" transform="matrix(1.00, 0.00, -0.00, -1.00, 1137.9, 443.0)"> </text><text xml:space="preserve" font-family="Helvetica-Light" font-size="39.0" fill="#000000" transform="matrix(1.00, 0.00, -0.00, -1.00, 137.0, 326.5)">•</text><text xml:space="preserve" font-family="Helvetica-Light" font-size="52.0" fill="#000000" transform="matrix(1.00, 0.00, -0.00, -1.00, 187.0, 322.0)">B</text><text xml:space="preserve" font-family="Helvetica-Light" font-size="52.0" fill="#000000" transform="matrix(1.00, 0.00, -0.00, -1.00, 221.7, 322.0)">a</text><text xml:space="preserve" font-family="Helvetica-Light" font-size="52.0" fill="#000000" transform="matrix(1.00, 0.00, -0.00, -1.00, 250.6, 322.0)">i</text><text xml:space="preserve" font-family="Helvetica-Light" font-size="52.0" fill="#000000" transform="matrix(1.00, 0.00, -0.00, -1.00, 262.1, 322.0)">l</text><text xml:space="preserve" font-family="Helvetica-Light" font-size="52.0" fill="#000000" transform="matrix(1.00, 0.00, -0.00, -1.00, 273.7, 322.0)"> </text><text xml:space="preserve" font-family="Helvetica-Light" font-size="52.0" fill="#000000" transform="matrix(1.00, 0.00, -0.00, -1.00, 288.1, 322.0)">o</text><text xml:space="preserve" font-family="Helvetica-Light" font-size="52.0" fill="#000000" transform="matrix(1.00, 0.00, -0.00, -1.00, 317.1, 322.0)">u</text><text xml:space="preserve" font-family="Helvetica-Light" font-size="52.0" fill="#000000" transform="matrix(1.00, 0.00, -0.00, -1.00, 346.0, 322.0)">t</text><text xml:space="preserve" font-family="Helvetica-Light" font-size="52.0" fill="#000000" transform="matrix(1.00, 0.00, -0.00, -1.00, 360.4, 322.0)"> </text><text xml:space="preserve" font-family="Helvetica-Light" font-size="52.0" fill="#000000" transform="matrix(1.00, 0.00, -0.00, -1.00, 374.9, 322.0)">a</text><text xml:space="preserve" font-family="Helvetica-Light" font-size="52.0" fill="#000000" transform="matrix(1.00, 0.00, -0.00, -1.00, 403.8, 322.0)">s</text><text xml:space="preserve" font-family="Helvetica-Light" font-size="52.0" fill="#000000" transform="matrix(1.00, 0.00, -0.00, -1.00, 429.8, 322.0)"> </text><text xml:space="preserve" font-family="Helvetica-Light" font-size="52.0" fill="#000000" transform="matrix(1.00, 0.00, -0.00, -1.00, 444.2, 322.0)">s</text><text xml:space="preserve" font-family="Helvetica-Light" font-size="52.0" fill="#000000" transform="matrix(1.00, 0.00, -0.00, -1.00, 470.2, 322.0)">o</text><text xml:space="preserve" font-family="Helvetica-Light" font-size="52.0" fill="#000000" transform="matrix(1.00, 0.00, -0.00, -1.00, 499.2, 322.0)">o</text><text xml:space="preserve" font-family="Helvetica-Light" font-size="52.0" fill="#000000" transform="matrix(1.00, 0.00, -0.00, -1.00, 528.1, 322.0)">n</text><text xml:space="preserve" font-family="Helvetica-Light" font-size="52.0" fill="#000000" transform="matrix(1.00, 0.00, -0.00, -1.00, 557.0, 322.0)"> </text><text xml:space="preserve" font-family="Helvetica-Light" font-size="52.0" fill="#000000" transform="matrix(1.00, 0.00, -0.00, -1.00, 571.4, 322.0)">a</text><text xml:space="preserve" font-family="Helvetica-Light" font-size="52.0" fill="#000000" transform="matrix(1.00, 0.00, -0.00, -1.00, 600.3, 322.0)">s</text><text xml:space="preserve" font-family="Helvetica-Light" font-size="52.0" fill="#000000" transform="matrix(1.00, 0.00, -0.00, -1.00, 626.3, 322.0)"> </text><text xml:space="preserve" font-family="Helvetica-Light" font-size="52.0" fill="#000000" transform="matrix(1.00, 0.00, -0.00, -1.00, 640.8, 322.0)">e</text><text xml:space="preserve" font-family="Helvetica-Light" font-size="52.0" fill="#000000" transform="matrix(1.00, 0.00, -0.00, -1.00, 669.7, 322.0)">r</text><text xml:space="preserve" font-family="Helvetica-Light" font-size="52.0" fill="#000000" transform="matrix(1.00, 0.00, -0.00, -1.00, 687.0, 322.0)">r</text><text xml:space="preserve" font-family="Helvetica-Light" font-size="52.0" fill="#000000" transform="matrix(1.00, 0.00, -0.00, -1.00, 703.4, 322.0)">o</text><text xml:space="preserve" font-family="Helvetica-Light" font-size="52.0" fill="#000000" transform="matrix(1.00, 0.00, -0.00, -1.00, 732.3, 322.0)">r</text><text xml:space="preserve" font-family="Helvetica-Light" font-size="52.0" fill="#000000" transform="matrix(1.00, 0.00, -0.00, -1.00, 749.6, 322.0)"> </text><text xml:space="preserve" font-family="Helvetica-Light" font-size="52.0" fill="#000000" transform="matrix(1.00, 0.00, -0.00, -1.00, 764.1, 322.0)">w</text><text xml:space="preserve" font-family="Helvetica-Light" font-size="52.0" fill="#000000" transform="matrix(1.00, 0.00, -0.00, -1.00, 801.6, 322.0)">a</text><text xml:space="preserve" font-family="Helvetica-Light" font-size="52.0" fill="#000000" transform="matrix(1.00, 0.00, -0.00, -1.00, 830.6, 322.0)">s</text><text xml:space="preserve" font-family="Helvetica-Light" font-size="52.0" fill="#000000" transform="matrix(1.00, 0.00, -0.00, -1.00, 856.6, 322.0)"> </text><text xml:space="preserve" font-family="Helvetica-Light" font-size="52.0" fill="#000000" transform="matrix(1.00, 0.00, -0.00, -1.00, 871.0, 322.0)">e</text><text xml:space="preserve" font-family="Helvetica-Light" font-size="52.0" fill="#000000" transform="matrix(1.00, 0.00, -0.00, -1.00, 899.9, 322.0)">n</text><text xml:space="preserve" font-family="Helvetica-Light" font-size="52.0" fill="#000000" transform="matrix(1.00, 0.00, -0.00, -1.00, 928.8, 322.0)">c</text><text xml:space="preserve" font-family="Helvetica-Light" font-size="52.0" fill="#000000" transform="matrix(1.00, 0.00, -0.00, -1.00, 957.7, 322.0)">o</text><text xml:space="preserve" font-family="Helvetica-Light" font-size="52.0" fill="#000000" transform="matrix(1.00, 0.00, -0.00, -1.00, 986.7, 322.0)">u</text><text xml:space="preserve" font-family="Helvetica-Light" font-size="52.0" fill="#000000" transform="matrix(1.00, 0.00, -0.00, -1.00, 1015.6, 322.0)">n</text><text xml:space="preserve" font-family="Helvetica-Light" font-size="52.0" fill="#000000" transform="matrix(1.00, 0.00, -0.00, -1.00, 1044.5, 322.0)">t</text><text xml:space="preserve" font-family="Helvetica-Light" font-size="52.0" fill="#000000" transform="matrix(1.00, 0.00, -0.00, -1.00, 1058.9, 322.0)">e</text><text xml:space="preserve" font-family="Helvetica-Light" font-size="52.0" fill="#000000" transform="matrix(1.00, 0.00, -0.00, -1.00, 1087.8, 322.0)">r</text><text xml:space="preserve" font-family="Helvetica-Light" font-size="52.0" fill="#000000" transform="matrix(1.00, 0.00, -0.00, -1.00, 1104.2, 322.0)">e</text><text xml:space="preserve" font-family="Helvetica-Light" font-size="52.0" fill="#000000" transform="matrix(1.00, 0.00, -0.00, -1.00, 1133.1, 322.0)">d</text><text xml:space="preserve" font-family="Helvetica-Light" font-size="52.0" fill="#000000" transform="matrix(1.00, 0.00, -0.00, -1.00, 1164.9, 322.0)"> </text><text xml:space="preserve" font-family="Helvetica-Light" font-size="39.0" fill="#000000" transform="matrix(1.00, 0.00, -0.00, -1.00, 137.0, 205.5)">•</text><text xml:space="preserve" font-family="Helvetica-Light" font-size="52.0" fill="#000000" transform="matrix(1.00, 0.00, -0.00, -1.00, 187.0, 201.0)">P</text><text xml:space="preserve" font-family="Helvetica-Light" font-size="52.0" fill="#000000" transform="matrix(1.00, 0.00, -0.00, -1.00, 218.8, 201.0)">a</text><text xml:space="preserve" font-family="Helvetica-Light" font-size="52.0" fill="#000000" transform="matrix(1.00, 0.00, -0.00, -1.00, 247.7, 201.0)">t</text><text xml:space="preserve" font-family="Helvetica-Light" font-size="52.0" fill="#000000" transform="matrix(1.00, 0.00, -0.00, -1.00, 262.1, 201.0)">t</text><text xml:space="preserve" font-family="Helvetica-Light" font-size="52.0" fill="#000000" transform="matrix(1.00, 0.00, -0.00, -1.00, 276.6, 201.0)">e</text><text xml:space="preserve" font-family="Helvetica-Light" font-size="52.0" fill="#000000" transform="matrix(1.00, 0.00, -0.00, -1.00, 305.5, 201.0)">r</text><text xml:space="preserve" font-family="Helvetica-Light" font-size="52.0" fill="#000000" transform="matrix(1.00, 0.00, -0.00, -1.00, 323.8, 201.0)">n</text><text xml:space="preserve" font-family="Helvetica-Light" font-size="52.0" fill="#000000" transform="matrix(1.00, 0.00, -0.00, -1.00, 352.7, 201.0)"> </text><text xml:space="preserve" font-family="Helvetica-Light" font-size="52.0" fill="#000000" transform="matrix(1.00, 0.00, -0.00, -1.00, 367.1, 201.0)">m</text><text xml:space="preserve" font-family="Helvetica-Light" font-size="52.0" fill="#000000" transform="matrix(1.00, 0.00, -0.00, -1.00, 410.4, 201.0)">a</text><text xml:space="preserve" font-family="Helvetica-Light" font-size="52.0" fill="#000000" transform="matrix(1.00, 0.00, -0.00, -1.00, 439.4, 201.0)">t</text><text xml:space="preserve" font-family="Helvetica-Light" font-size="52.0" fill="#000000" transform="matrix(1.00, 0.00, -0.00, -1.00, 453.8, 201.0)">c</text><text xml:space="preserve" font-family="Helvetica-Light" font-size="52.0" fill="#000000" transform="matrix(1.00, 0.00, -0.00, -1.00, 482.7, 201.0)">h</text><text xml:space="preserve" font-family="Helvetica-Light" font-size="52.0" fill="#000000" transform="matrix(1.00, 0.00, -0.00, -1.00, 511.6, 201.0)">i</text><text xml:space="preserve" font-family="Helvetica-Light" font-size="52.0" fill="#000000" transform="matrix(1.00, 0.00, -0.00, -1.00, 523.2, 201.0)">n</text><text xml:space="preserve" font-family="Helvetica-Light" font-size="52.0" fill="#000000" transform="matrix(1.00, 0.00, -0.00, -1.00, 552.1, 201.0)">g</text><text xml:space="preserve" font-family="Helvetica-Light" font-size="52.0" fill="#000000" transform="matrix(1.00, 0.00, -0.00, -1.00, 583.9, 201.0)"> </text><text xml:space="preserve" font-family="Helvetica-Light" font-size="52.0" fill="#000000" transform="matrix(1.00, 0.00, -0.00, -1.00, 598.3, 201.0)">t</text><text xml:space="preserve" font-family="Helvetica-Light" font-size="52.0" fill="#000000" transform="matrix(1.00, 0.00, -0.00, -1.00, 612.8, 201.0)">o</text><text xml:space="preserve" font-family="Helvetica-Light" font-size="52.0" fill="#000000" transform="matrix(1.00, 0.00, -0.00, -1.00, 641.7, 201.0)"> </text><text xml:space="preserve" font-family="Helvetica-Light" font-size="52.0" fill="#000000" transform="matrix(1.00, 0.00, -0.00, -1.00, 656.1, 201.0)">b</text><text xml:space="preserve" font-family="Helvetica-Light" font-size="52.0" fill="#000000" transform="matrix(1.00, 0.00, -0.00, -1.00, 687.9, 201.0)">r</text><text xml:space="preserve" font-family="Helvetica-Light" font-size="52.0" fill="#000000" transform="matrix(1.00, 0.00, -0.00, -1.00, 705.2, 201.0)">a</text><text xml:space="preserve" font-family="Helvetica-Light" font-size="52.0" fill="#000000" transform="matrix(1.00, 0.00, -0.00, -1.00, 734.1, 201.0)">n</text><text xml:space="preserve" font-family="Helvetica-Light" font-size="52.0" fill="#000000" transform="matrix(1.00, 0.00, -0.00, -1.00, 763.1, 201.0)">c</text><text xml:space="preserve" font-family="Helvetica-Light" font-size="52.0" fill="#000000" transform="matrix(1.00, 0.00, -0.00, -1.00, 792.0, 201.0)">h</text><text xml:space="preserve" font-family="Helvetica-Light" font-size="52.0" fill="#000000" transform="matrix(1.00, 0.00, -0.00, -1.00, 820.9, 201.0)"> </text><text xml:space="preserve" font-family="Helvetica-Light" font-size="52.0" fill="#000000" transform="matrix(1.00, 0.00, -0.00, -1.00, 835.3, 201.0)">o</text><text xml:space="preserve" font-family="Helvetica-Light" font-size="52.0" fill="#000000" transform="matrix(1.00, 0.00, -0.00, -1.00, 864.2, 201.0)">n</text><text xml:space="preserve" font-family="Helvetica-Light" font-size="52.0" fill="#000000" transform="matrix(1.00, 0.00, -0.00, -1.00, 893.2, 201.0)"> </text><text xml:space="preserve" font-family="Helvetica-Light" font-size="52.0" fill="#000000" transform="matrix(1.00, 0.00, -0.00, -1.00, 907.6, 201.0)">r</text><text xml:space="preserve" font-family="Helvetica-Light" font-size="52.0" fill="#000000" transform="matrix(1.00, 0.00, -0.00, -1.00, 924.0, 201.0)">e</text><text xml:space="preserve" font-family="Helvetica-Light" font-size="52.0" fill="#000000" transform="matrix(1.00, 0.00, -0.00, -1.00, 952.9, 201.0)">s</text><text xml:space="preserve" font-family="Helvetica-Light" font-size="52.0" fill="#000000" transform="matrix(1.00, 0.00, -0.00, -1.00, 978.9, 201.0)">u</text><text xml:space="preserve" font-family="Helvetica-Light" font-size="52.0" fill="#000000" transform="matrix(1.00, 0.00, -0.00, -1.00, 1007.8, 201.0)">l</text><text xml:space="preserve" font-family="Helvetica-Light" font-size="52.0" fill="#000000" transform="matrix(1.00, 0.00, -0.00, -1.00, 1019.4, 201.0)">t</text><text xml:space="preserve" font-family="Helvetica-Light" font-size="52.0" fill="#000000" transform="matrix(1.00, 0.00, -0.00, -1.00, 1033.8, 201.0)"> </text><text xml:space="preserve" font-family="Helvetica-Light" font-size="52.0" fill="#000000" transform="matrix(1.00, 0.00, -0.00, -1.00, 1048.3, 201.0)">v</text><text xml:space="preserve" font-family="Helvetica-Light" font-size="52.0" fill="#000000" transform="matrix(1.00, 0.00, -0.00, -1.00, 1074.3, 201.0)">a</text><text xml:space="preserve" font-family="Helvetica-Light" font-size="52.0" fill="#000000" transform="matrix(1.00, 0.00, -0.00, -1.00, 1103.2, 201.0)">l</text><text xml:space="preserve" font-family="Helvetica-Light" font-size="52.0" fill="#000000" transform="matrix(1.00, 0.00, -0.00, -1.00, 1114.7, 201.0)">u</text><text xml:space="preserve" font-family="Helvetica-Light" font-size="52.0" fill="#000000" transform="matrix(1.00, 0.00, -0.00, -1.00, 1143.6, 201.0)">e</text><text xml:space="preserve" font-family="Helvetica-Light" font-size="52.0" fill="#000000" transform="matrix(1.00, 0.00, -0.00, -1.00, 1172.6, 201.0)"> </text><text xml:space="preserve" font-family="Helvetica-Light" font-size="52.0" fill="#000000" transform="matrix(1.00, 0.00, -0.00, -1.00, 1187.0, 201.0)">o</text><text xml:space="preserve" font-family="Helvetica-Light" font-size="52.0" fill="#000000" transform="matrix(1.00, 0.00, -0.00, -1.00, 1215.9, 201.0)">r</text><text xml:space="preserve" font-family="Helvetica-Light" font-size="52.0" fill="#000000" transform="matrix(1.00, 0.00, -0.00, -1.00, 1233.2, 201.0)"> </text><text xml:space="preserve" font-family="Helvetica-Light" font-size="52.0" fill="#000000" transform="matrix(1.00, 0.00, -0.00, -1.00, 1247.7, 201.0)">e</text><text xml:space="preserve" font-family="Helvetica-Light" font-size="52.0" fill="#000000" transform="matrix(1.00, 0.00, -0.00, -1.00, 1276.6, 201.0)">r</text><text xml:space="preserve" font-family="Helvetica-Light" font-size="52.0" fill="#000000" transform="matrix(1.00, 0.00, -0.00, -1.00, 1293.9, 201.0)">r</text><text xml:space="preserve" font-family="Helvetica-Light" font-size="52.0" fill="#000000" transform="matrix(1.00, 0.00, -0.00, -1.00, 1310.3, 201.0)">o</text><text xml:space="preserve" font-family="Helvetica-Light" font-size="52.0" fill="#000000" transform="matrix(1.00, 0.00, -0.00, -1.00, 1339.2, 201.0)">r</text></g></svg>