<?xml version="1.0" encoding="UTF-8" standalone="no"?><svg xmlns="http://www.w3.org/2000/svg" xmlns:xlink="http://www.w3.org/1999/xlink" clip-rule="evenodd" stroke-miterlimit="4.00" viewBox="0 0 1920 1080"><desc>SVG generated by Keynote</desc><defs></defs><g transform="matrix(1.00, 0.00, -0.00, -1.00, 0.0, 1080.0)"><path d="M 0.0 1080.0 L 1920.0 1080.0 L 1920.0 0.0 L 0.0 0.0 Z M 0.0 1080.0 " fill="#FEFFFF"></path><text xml:space="preserve" font-family="Helvetica-Light" font-size="112.0" fill="#000000" transform="matrix(1.00, 0.00, -0.00, -1.00, 683.0, 874.0)">T</text><text xml:space="preserve" font-family="Helvetica-Light" font-size="112.0" fill="#000000" transform="matrix(1.00, 0.00, -0.00, -1.00, 745.3, 874.0)">h</text><text xml:space="preserve" font-family="Helvetica-Light" font-size="112.0" fill="#000000" transform="matrix(1.00, 0.00, -0.00, -1.00, 807.5, 874.0)">a</text><text xml:space="preserve" font-family="Helvetica-Light" font-size="112.0" fill="#000000" transform="matrix(1.00, 0.00, -0.00, -1.00, 869.8, 874.0)">n</text><text xml:space="preserve" font-family="Helvetica-Light" font-size="112.0" fill="#000000" transform="matrix(1.00, 0.00, -0.00, -1.00, 932.1, 874.0)">k</text><text xml:space="preserve" font-family="Helvetica-Light" font-size="112.0" fill="#000000" transform="matrix(1.00, 0.00, -0.00, -1.00, 988.1, 874.0)"> </text><text xml:space="preserve" font-family="Helvetica-Light" font-size="112.0" fill="#000000" transform="matrix(1.00, 0.00, -0.00, -1.00, 1019.2, 874.0)">y</text><text xml:space="preserve" font-family="Helvetica-Light" font-size="112.0" fill="#000000" transform="matrix(1.00, 0.00, -0.00, -1.00, 1075.2, 874.0)">o</text><text xml:space="preserve" font-family="Helvetica-Light" font-size="112.0" fill="#000000" transform="matrix(1.00, 0.00, -0.00, -1.00, 1137.5, 874.0)">u</text><text xml:space="preserve" font-family="Helvetica-Light" font-size="112.0" fill="#000000" transform="matrix(1.00, 0.00, -0.00, -1.00, 1199.8, 874.0)">!</text><text xml:space="preserve" font-family="Helvetica-Light" font-size="98.0" fill="#000000" transform="matrix(1.00, 0.00, -0.00, -1.00, 829.0, 504.0)">Q</text><text xml:space="preserve" font-family="Helvetica-Light" font-size="98.0" fill="#000000" transform="matrix(1.00, 0.00, -0.00, -1.00, 905.2, 504.0)"> </text><text xml:space="preserve" font-family="Helvetica-Light" font-size="98.0" fill="#000000" transform="matrix(1.00, 0.00, -0.00, -1.00, 932.5, 504.0)">&amp;</text><text xml:space="preserve" font-family="Helvetica-Light" font-size="98.0" fill="#000000" transform="matrix(1.00, 0.00, -0.00, -1.00, 997.9, 504.0)"> </text><text xml:space="preserve" font-family="Helvetica-Light" font-size="98.0" fill="#000000" transform="matrix(1.00, 0.00, -0.00, -1.00, 1025.1, 504.0)">A</text></g></svg>