<?xml version="1.0" encoding="UTF-8" standalone="no"?><svg xmlns="http://www.w3.org/2000/svg" xmlns:xlink="http://www.w3.org/1999/xlink" clip-rule="evenodd" stroke-miterlimit="10" viewBox="0 0 1920 1080"><desc>SVG generated by Keynote</desc><defs></defs><g transform="matrix(1.00, 0.00, -0.00, -1.00, 0.0, 1080.0)"><path d="M 0.0 1080.0 L 1920.0 1080.0 L 1920.0 0.0 L 0.0 0.0 Z M 0.0 1080.0 " fill="#FEFFFF"></path><text xml:space="preserve" font-family="Helvetica-Light,Helvetica" font-size="112.0" fill="#000000" transform="matrix(1.00, 0.00, -0.00, -1.00, 285.7, 873.8)">6</text><text xml:space="preserve" font-family="Helvetica-Light,Helvetica" font-size="112.0" fill="#000000" transform="matrix(1.00, 0.00, -0.00, -1.00, 348.0, 873.8)">-</text><text xml:space="preserve" font-family="Helvetica-Light,Helvetica" font-size="112.0" fill="#000000" transform="matrix(1.00, 0.00, -0.00, -1.00, 385.3, 873.8)">w</text><text xml:space="preserve" font-family="Helvetica-Light,Helvetica" font-size="112.0" fill="#000000" transform="matrix(1.00, 0.00, -0.00, -1.00, 466.1, 873.8)">e</text><text xml:space="preserve" font-family="Helvetica-Light,Helvetica" font-size="112.0" fill="#000000" transform="matrix(1.00, 0.00, -0.00, -1.00, 528.4, 873.8)">e</text><text xml:space="preserve" font-family="Helvetica-Light,Helvetica" font-size="112.0" fill="#000000" transform="matrix(1.00, 0.00, -0.00, -1.00, 590.7, 873.8)">k</text><text xml:space="preserve" font-family="Helvetica-Light,Helvetica" font-size="112.0" fill="#000000" transform="matrix(1.00, 0.00, -0.00, -1.00, 646.7, 873.8)"> </text><text xml:space="preserve" font-family="Helvetica-Light,Helvetica" font-size="112.0" fill="#000000" transform="matrix(1.00, 0.00, -0.00, -1.00, 677.8, 873.8)">r</text><text xml:space="preserve" font-family="Helvetica-Light,Helvetica" font-size="112.0" fill="#000000" transform="matrix(1.00, 0.00, -0.00, -1.00, 713.1, 873.8)">e</text><text xml:space="preserve" font-family="Helvetica-Light,Helvetica" font-size="112.0" fill="#000000" transform="matrix(1.00, 0.00, -0.00, -1.00, 775.4, 873.8)">l</text><text xml:space="preserve" font-family="Helvetica-Light,Helvetica" font-size="112.0" fill="#000000" transform="matrix(1.00, 0.00, -0.00, -1.00, 800.2, 873.8)">e</text><text xml:space="preserve" font-family="Helvetica-Light,Helvetica" font-size="112.0" fill="#000000" transform="matrix(1.00, 0.00, -0.00, -1.00, 862.5, 873.8)">a</text><text xml:space="preserve" font-family="Helvetica-Light,Helvetica" font-size="112.0" fill="#000000" transform="matrix(1.00, 0.00, -0.00, -1.00, 924.8, 873.8)">s</text><text xml:space="preserve" font-family="Helvetica-Light,Helvetica" font-size="112.0" fill="#000000" transform="matrix(1.00, 0.00, -0.00, -1.00, 980.8, 873.8)">e</text><text xml:space="preserve" font-family="Helvetica-Light,Helvetica" font-size="112.0" fill="#000000" transform="matrix(1.00, 0.00, -0.00, -1.00, 1043.0, 873.8)"> </text><text xml:space="preserve" font-family="Helvetica-Light,Helvetica" font-size="112.0" fill="#000000" transform="matrix(1.00, 0.00, -0.00, -1.00, 1074.2, 873.8)">t</text><text xml:space="preserve" font-family="Helvetica-Light,Helvetica" font-size="112.0" fill="#000000" transform="matrix(1.00, 0.00, -0.00, -1.00, 1105.3, 873.8)">r</text><text xml:space="preserve" font-family="Helvetica-Light,Helvetica" font-size="112.0" fill="#000000" transform="matrix(1.00, 0.00, -0.00, -1.00, 1142.6, 873.8)">a</text><text xml:space="preserve" font-family="Helvetica-Light,Helvetica" font-size="112.0" fill="#000000" transform="matrix(1.00, 0.00, -0.00, -1.00, 1204.9, 873.8)">i</text><text xml:space="preserve" font-family="Helvetica-Light,Helvetica" font-size="112.0" fill="#000000" transform="matrix(1.00, 0.00, -0.00, -1.00, 1229.8, 873.8)">n</text><text xml:space="preserve" font-family="Helvetica-Light,Helvetica" font-size="112.0" fill="#000000" transform="matrix(1.00, 0.00, -0.00, -1.00, 1292.0, 873.8)"> </text><text xml:space="preserve" font-family="Helvetica-Light,Helvetica" font-size="112.0" fill="#000000" transform="matrix(1.00, 0.00, -0.00, -1.00, 1323.2, 873.8)">m</text><text xml:space="preserve" font-family="Helvetica-Light,Helvetica" font-size="112.0" fill="#000000" transform="matrix(1.00, 0.00, -0.00, -1.00, 1416.5, 873.8)">o</text><text xml:space="preserve" font-family="Helvetica-Light,Helvetica" font-size="112.0" fill="#000000" transform="matrix(1.00, 0.00, -0.00, -1.00, 1478.7, 873.8)">d</text><text xml:space="preserve" font-family="Helvetica-Light,Helvetica" font-size="112.0" fill="#000000" transform="matrix(1.00, 0.00, -0.00, -1.00, 1547.2, 873.8)">e</text><text xml:space="preserve" font-family="Helvetica-Light,Helvetica" font-size="112.0" fill="#000000" transform="matrix(1.00, 0.00, -0.00, -1.00, 1609.4, 873.8)">l</text><text xml:space="preserve" font-family="Helvetica-Light,Helvetica" font-size="112.0" fill="#000000" transform="matrix(1.00, 0.00, -0.00, -1.00, 1634.3, 873.8)"> </text><text xml:space="preserve" font-family="Helvetica-Light,Helvetica" font-size="35.5" fill="#000000" transform="matrix(1.00, 0.00, -0.00, -1.00, 137.0, 779.2)">•</text><text xml:space="preserve" font-family="Helvetica-Light,Helvetica" font-size="47.3" fill="#000000" transform="matrix(1.00, 0.00, -0.00, -1.00, 182.5, 774.9)">R</text><text xml:space="preserve" font-family="Helvetica-Light,Helvetica" font-size="47.3" fill="#000000" transform="matrix(1.00, 0.00, -0.00, -1.00, 214.1, 774.9)">e</text><text xml:space="preserve" font-family="Helvetica-Light,Helvetica" font-size="47.3" fill="#000000" transform="matrix(1.00, 0.00, -0.00, -1.00, 240.4, 774.9)">l</text><text xml:space="preserve" font-family="Helvetica-Light,Helvetica" font-size="47.3" fill="#000000" transform="matrix(1.00, 0.00, -0.00, -1.00, 250.9, 774.9)">e</text><text xml:space="preserve" font-family="Helvetica-Light,Helvetica" font-size="47.3" fill="#000000" transform="matrix(1.00, 0.00, -0.00, -1.00, 277.2, 774.9)">a</text><text xml:space="preserve" font-family="Helvetica-Light,Helvetica" font-size="47.3" fill="#000000" transform="matrix(1.00, 0.00, -0.00, -1.00, 303.5, 774.9)">s</text><text xml:space="preserve" font-family="Helvetica-Light,Helvetica" font-size="47.3" fill="#000000" transform="matrix(1.00, 0.00, -0.00, -1.00, 327.2, 774.9)">e</text><text xml:space="preserve" font-family="Helvetica-Light,Helvetica" font-size="47.3" fill="#000000" transform="matrix(1.00, 0.00, -0.00, -1.00, 353.5, 774.9)"> </text><text xml:space="preserve" font-family="Helvetica-Light,Helvetica" font-size="47.3" fill="#000000" transform="matrix(1.00, 0.00, -0.00, -1.00, 366.6, 774.9)">c</text><text xml:space="preserve" font-family="Helvetica-Light,Helvetica" font-size="47.3" fill="#000000" transform="matrix(1.00, 0.00, -0.00, -1.00, 392.9, 774.9)">h</text><text xml:space="preserve" font-family="Helvetica-Light,Helvetica" font-size="47.3" fill="#000000" transform="matrix(1.00, 0.00, -0.00, -1.00, 419.2, 774.9)">a</text><text xml:space="preserve" font-family="Helvetica-Light,Helvetica" font-size="47.3" fill="#000000" transform="matrix(1.00, 0.00, -0.00, -1.00, 445.6, 774.9)">n</text><text xml:space="preserve" font-family="Helvetica-Light,Helvetica" font-size="47.3" fill="#000000" transform="matrix(1.00, 0.00, -0.00, -1.00, 471.9, 774.9)">n</text><text xml:space="preserve" font-family="Helvetica-Light,Helvetica" font-size="47.3" fill="#000000" transform="matrix(1.00, 0.00, -0.00, -1.00, 498.2, 774.9)">e</text><text xml:space="preserve" font-family="Helvetica-Light,Helvetica" font-size="47.3" fill="#000000" transform="matrix(1.00, 0.00, -0.00, -1.00, 524.5, 774.9)">l</text><text xml:space="preserve" font-family="Helvetica-Light,Helvetica" font-size="47.3" fill="#000000" transform="matrix(1.00, 0.00, -0.00, -1.00, 535.0, 774.9)">s</text><text xml:space="preserve" font-family="Helvetica-Light,Helvetica" font-size="47.3" fill="#000000" transform="matrix(1.00, 0.00, -0.00, -1.00, 558.6, 774.9)"> </text><text xml:space="preserve" font-family="Helvetica-Light,Helvetica" font-size="35.5" fill="#000000" transform="matrix(1.00, 0.00, -0.00, -1.00, 187.0, 669.5)">•</text><text xml:space="preserve" font-family="Helvetica-Light,Helvetica" font-size="47.3" fill="#000000" transform="matrix(1.00, 0.00, -0.00, -1.00, 232.5, 665.2)">n</text><text xml:space="preserve" font-family="Helvetica-Light,Helvetica" font-size="47.3" fill="#000000" transform="matrix(1.00, 0.00, -0.00, -1.00, 258.8, 665.2)">i</text><text xml:space="preserve" font-family="Helvetica-Light,Helvetica" font-size="47.3" fill="#000000" transform="matrix(1.00, 0.00, -0.00, -1.00, 269.3, 665.2)">g</text><text xml:space="preserve" font-family="Helvetica-Light,Helvetica" font-size="47.3" fill="#000000" transform="matrix(1.00, 0.00, -0.00, -1.00, 298.2, 665.2)">h</text><text xml:space="preserve" font-family="Helvetica-Light,Helvetica" font-size="47.3" fill="#000000" transform="matrix(1.00, 0.00, -0.00, -1.00, 324.5, 665.2)">t</text><text xml:space="preserve" font-family="Helvetica-Light,Helvetica" font-size="47.3" fill="#000000" transform="matrix(1.00, 0.00, -0.00, -1.00, 337.7, 665.2)">l</text><text xml:space="preserve" font-family="Helvetica-Light,Helvetica" font-size="47.3" fill="#000000" transform="matrix(1.00, 0.00, -0.00, -1.00, 348.2, 665.2)">y</text><text xml:space="preserve" font-family="Helvetica-Light,Helvetica" font-size="47.3" fill="#000000" transform="matrix(1.00, 0.00, -0.00, -1.00, 371.9, 665.2)"> </text><text xml:space="preserve" font-family="Helvetica-Light,Helvetica" font-size="47.3" fill="#000000" transform="matrix(1.00, 0.00, -0.00, -1.00, 385.0, 665.2)">-</text><text xml:space="preserve" font-family="Helvetica-Light,Helvetica" font-size="47.3" fill="#000000" transform="matrix(1.00, 0.00, -0.00, -1.00, 400.8, 665.2)"> </text><text xml:space="preserve" font-family="Helvetica-Light,Helvetica" font-size="47.3" fill="#000000" transform="matrix(1.00, 0.00, -0.00, -1.00, 413.9, 665.2)">“</text><text xml:space="preserve" font-family="Helvetica-Light,Helvetica" font-size="47.3" fill="#000000" transform="matrix(1.00, 0.00, -0.00, -1.00, 432.3, 665.2)">o</text><text xml:space="preserve" font-family="Helvetica-Light,Helvetica" font-size="47.3" fill="#000000" transform="matrix(1.00, 0.00, -0.00, -1.00, 458.6, 665.2)">p</text><text xml:space="preserve" font-family="Helvetica-Light,Helvetica" font-size="47.3" fill="#000000" transform="matrix(1.00, 0.00, -0.00, -1.00, 487.6, 665.2)">t</text><text xml:space="preserve" font-family="Helvetica-Light,Helvetica" font-size="47.3" fill="#000000" transform="matrix(1.00, 0.00, -0.00, -1.00, 500.7, 665.2)"> </text><text xml:space="preserve" font-family="Helvetica-Light,Helvetica" font-size="47.3" fill="#000000" transform="matrix(1.00, 0.00, -0.00, -1.00, 513.9, 665.2)">i</text><text xml:space="preserve" font-family="Helvetica-Light,Helvetica" font-size="47.3" fill="#000000" transform="matrix(1.00, 0.00, -0.00, -1.00, 524.4, 665.2)">n</text><text xml:space="preserve" font-family="Helvetica-Light,Helvetica" font-size="47.3" fill="#000000" transform="matrix(1.00, 0.00, -0.00, -1.00, 550.7, 665.2)">”</text><text xml:space="preserve" font-family="Helvetica-Light,Helvetica" font-size="47.3" fill="#000000" transform="matrix(1.00, 0.00, -0.00, -1.00, 569.1, 665.2)"> </text><text xml:space="preserve" font-family="Helvetica-Light,Helvetica" font-size="47.3" fill="#000000" transform="matrix(1.00, 0.00, -0.00, -1.00, 582.2, 665.2)">t</text><text xml:space="preserve" font-family="Helvetica-Light,Helvetica" font-size="47.3" fill="#000000" transform="matrix(1.00, 0.00, -0.00, -1.00, 595.4, 665.2)">o</text><text xml:space="preserve" font-family="Helvetica-Light,Helvetica" font-size="47.3" fill="#000000" transform="matrix(1.00, 0.00, -0.00, -1.00, 621.7, 665.2)"> </text><text xml:space="preserve" font-family="Helvetica-Light,Helvetica" font-size="47.3" fill="#000000" transform="matrix(1.00, 0.00, -0.00, -1.00, 634.9, 665.2)">t</text><text xml:space="preserve" font-family="Helvetica-Light,Helvetica" font-size="47.3" fill="#000000" transform="matrix(1.00, 0.00, -0.00, -1.00, 648.0, 665.2)">h</text><text xml:space="preserve" font-family="Helvetica-Light,Helvetica" font-size="47.3" fill="#000000" transform="matrix(1.00, 0.00, -0.00, -1.00, 674.3, 665.2)">e</text><text xml:space="preserve" font-family="Helvetica-Light,Helvetica" font-size="47.3" fill="#000000" transform="matrix(1.00, 0.00, -0.00, -1.00, 700.6, 665.2)"> </text><text xml:space="preserve" font-family="Helvetica-Light,Helvetica" font-size="47.3" fill="#000000" transform="matrix(1.00, 0.00, -0.00, -1.00, 713.8, 665.2)">i</text><text xml:space="preserve" font-family="Helvetica-Light,Helvetica" font-size="47.3" fill="#000000" transform="matrix(1.00, 0.00, -0.00, -1.00, 724.3, 665.2)">n</text><text xml:space="preserve" font-family="Helvetica-Light,Helvetica" font-size="47.3" fill="#000000" transform="matrix(1.00, 0.00, -0.00, -1.00, 750.6, 665.2)">s</text><text xml:space="preserve" font-family="Helvetica-Light,Helvetica" font-size="47.3" fill="#000000" transform="matrix(1.00, 0.00, -0.00, -1.00, 774.3, 665.2)">t</text><text xml:space="preserve" font-family="Helvetica-Light,Helvetica" font-size="47.3" fill="#000000" transform="matrix(1.00, 0.00, -0.00, -1.00, 787.4, 665.2)">a</text><text xml:space="preserve" font-family="Helvetica-Light,Helvetica" font-size="47.3" fill="#000000" transform="matrix(1.00, 0.00, -0.00, -1.00, 813.7, 665.2)">b</text><text xml:space="preserve" font-family="Helvetica-Light,Helvetica" font-size="47.3" fill="#000000" transform="matrix(1.00, 0.00, -0.00, -1.00, 842.6, 665.2)">i</text><text xml:space="preserve" font-family="Helvetica-Light,Helvetica" font-size="47.3" fill="#000000" transform="matrix(1.00, 0.00, -0.00, -1.00, 853.1, 665.2)">l</text><text xml:space="preserve" font-family="Helvetica-Light,Helvetica" font-size="47.3" fill="#000000" transform="matrix(1.00, 0.00, -0.00, -1.00, 863.7, 665.2)">i</text><text xml:space="preserve" font-family="Helvetica-Light,Helvetica" font-size="47.3" fill="#000000" transform="matrix(1.00, 0.00, -0.00, -1.00, 874.2, 665.2)">t</text><text xml:space="preserve" font-family="Helvetica-Light,Helvetica" font-size="47.3" fill="#000000" transform="matrix(1.00, 0.00, -0.00, -1.00, 887.3, 665.2)">y</text><text xml:space="preserve" font-family="Helvetica-Light,Helvetica" font-size="47.3" fill="#000000" transform="matrix(1.00, 0.00, -0.00, -1.00, 911.0, 665.2)"> </text><text xml:space="preserve" font-family="Helvetica-Light,Helvetica" font-size="35.5" fill="#000000" transform="matrix(1.00, 0.00, -0.00, -1.00, 187.0, 559.8)">•</text><text xml:space="preserve" font-family="Helvetica-Light,Helvetica" font-size="47.3" fill="#000000" transform="matrix(1.00, 0.00, -0.00, -1.00, 232.5, 555.5)">b</text><text xml:space="preserve" font-family="Helvetica-Light,Helvetica" font-size="47.3" fill="#000000" transform="matrix(1.00, 0.00, -0.00, -1.00, 261.4, 555.5)">e</text><text xml:space="preserve" font-family="Helvetica-Light,Helvetica" font-size="47.3" fill="#000000" transform="matrix(1.00, 0.00, -0.00, -1.00, 287.7, 555.5)">t</text><text xml:space="preserve" font-family="Helvetica-Light,Helvetica" font-size="47.3" fill="#000000" transform="matrix(1.00, 0.00, -0.00, -1.00, 300.9, 555.5)">a</text><text xml:space="preserve" font-family="Helvetica-Light,Helvetica" font-size="47.3" fill="#000000" transform="matrix(1.00, 0.00, -0.00, -1.00, 327.2, 555.5)"> </text><text xml:space="preserve" font-family="Helvetica-Light,Helvetica" font-size="35.5" fill="#000000" transform="matrix(1.00, 0.00, -0.00, -1.00, 187.0, 450.1)">•</text><text xml:space="preserve" font-family="Helvetica-Light,Helvetica" font-size="47.3" fill="#000000" transform="matrix(1.00, 0.00, -0.00, -1.00, 232.5, 445.8)">s</text><text xml:space="preserve" font-family="Helvetica-Light,Helvetica" font-size="47.3" fill="#000000" transform="matrix(1.00, 0.00, -0.00, -1.00, 256.2, 445.8)">t</text><text xml:space="preserve" font-family="Helvetica-Light,Helvetica" font-size="47.3" fill="#000000" transform="matrix(1.00, 0.00, -0.00, -1.00, 269.3, 445.8)">a</text><text xml:space="preserve" font-family="Helvetica-Light,Helvetica" font-size="47.3" fill="#000000" transform="matrix(1.00, 0.00, -0.00, -1.00, 295.6, 445.8)">b</text><text xml:space="preserve" font-family="Helvetica-Light,Helvetica" font-size="47.3" fill="#000000" transform="matrix(1.00, 0.00, -0.00, -1.00, 324.5, 445.8)">l</text><text xml:space="preserve" font-family="Helvetica-Light,Helvetica" font-size="47.3" fill="#000000" transform="matrix(1.00, 0.00, -0.00, -1.00, 335.0, 445.8)">e</text><text xml:space="preserve" font-family="Helvetica-Light,Helvetica" font-size="47.3" fill="#000000" transform="matrix(1.00, 0.00, -0.00, -1.00, 361.4, 445.8)"> </text><text xml:space="preserve" font-family="Helvetica-Light,Helvetica" font-size="35.5" fill="#000000" transform="matrix(1.00, 0.00, -0.00, -1.00, 137.0, 340.4)">•</text><text xml:space="preserve" font-family="Helvetica-Light,Helvetica" font-size="47.3" fill="#000000" transform="matrix(1.00, 0.00, -0.00, -1.00, 182.5, 336.1)">S</text><text xml:space="preserve" font-family="Helvetica-Light,Helvetica" font-size="47.3" fill="#000000" transform="matrix(1.00, 0.00, -0.00, -1.00, 211.4, 336.1)">t</text><text xml:space="preserve" font-family="Helvetica-Light,Helvetica" font-size="47.3" fill="#000000" transform="matrix(1.00, 0.00, -0.00, -1.00, 224.6, 336.1)">a</text><text xml:space="preserve" font-family="Helvetica-Light,Helvetica" font-size="47.3" fill="#000000" transform="matrix(1.00, 0.00, -0.00, -1.00, 250.9, 336.1)">b</text><text xml:space="preserve" font-family="Helvetica-Light,Helvetica" font-size="47.3" fill="#000000" transform="matrix(1.00, 0.00, -0.00, -1.00, 279.8, 336.1)">i</text><text xml:space="preserve" font-family="Helvetica-Light,Helvetica" font-size="47.3" fill="#000000" transform="matrix(1.00, 0.00, -0.00, -1.00, 290.3, 336.1)">l</text><text xml:space="preserve" font-family="Helvetica-Light,Helvetica" font-size="47.3" fill="#000000" transform="matrix(1.00, 0.00, -0.00, -1.00, 300.8, 336.1)">i</text><text xml:space="preserve" font-family="Helvetica-Light,Helvetica" font-size="47.3" fill="#000000" transform="matrix(1.00, 0.00, -0.00, -1.00, 311.3, 336.1)">t</text><text xml:space="preserve" font-family="Helvetica-Light,Helvetica" font-size="47.3" fill="#000000" transform="matrix(1.00, 0.00, -0.00, -1.00, 324.5, 336.1)">y</text><text xml:space="preserve" font-family="Helvetica-Light,Helvetica" font-size="47.3" fill="#000000" transform="matrix(1.00, 0.00, -0.00, -1.00, 348.1, 336.1)"> </text><text xml:space="preserve" font-family="Helvetica-Light,Helvetica" font-size="35.5" fill="#000000" transform="matrix(1.00, 0.00, -0.00, -1.00, 187.0, 230.7)">•</text><text xml:space="preserve" font-family="Helvetica-Light,Helvetica" font-size="47.3" fill="#000000" transform="matrix(1.00, 0.00, -0.00, -1.00, 232.5, 226.4)">f</text><text xml:space="preserve" font-family="Helvetica-Light,Helvetica" font-size="47.3" fill="#000000" transform="matrix(1.00, 0.00, -0.00, -1.00, 245.7, 226.4)">e</text><text xml:space="preserve" font-family="Helvetica-Light,Helvetica" font-size="47.3" fill="#000000" transform="matrix(1.00, 0.00, -0.00, -1.00, 272.0, 226.4)">a</text><text xml:space="preserve" font-family="Helvetica-Light,Helvetica" font-size="47.3" fill="#000000" transform="matrix(1.00, 0.00, -0.00, -1.00, 298.3, 226.4)">t</text><text xml:space="preserve" font-family="Helvetica-Light,Helvetica" font-size="47.3" fill="#000000" transform="matrix(1.00, 0.00, -0.00, -1.00, 311.4, 226.4)">u</text><text xml:space="preserve" font-family="Helvetica-Light,Helvetica" font-size="47.3" fill="#000000" transform="matrix(1.00, 0.00, -0.00, -1.00, 337.7, 226.4)">r</text><text xml:space="preserve" font-family="Helvetica-Light,Helvetica" font-size="47.3" fill="#000000" transform="matrix(1.00, 0.00, -0.00, -1.00, 352.6, 226.4)">e</text><text xml:space="preserve" font-family="Helvetica-Light,Helvetica" font-size="47.3" fill="#000000" transform="matrix(1.00, 0.00, -0.00, -1.00, 379.0, 226.4)"> </text><text xml:space="preserve" font-family="Helvetica-Light,Helvetica" font-size="47.3" fill="#000000" transform="matrix(1.00, 0.00, -0.00, -1.00, 392.1, 226.4)">g</text><text xml:space="preserve" font-family="Helvetica-Light,Helvetica" font-size="47.3" fill="#000000" transform="matrix(1.00, 0.00, -0.00, -1.00, 421.0, 226.4)">a</text><text xml:space="preserve" font-family="Helvetica-Light,Helvetica" font-size="47.3" fill="#000000" transform="matrix(1.00, 0.00, -0.00, -1.00, 447.3, 226.4)">t</text><text xml:space="preserve" font-family="Helvetica-Light,Helvetica" font-size="47.3" fill="#000000" transform="matrix(1.00, 0.00, -0.00, -1.00, 460.5, 226.4)">e</text><text xml:space="preserve" font-family="Helvetica-Light,Helvetica" font-size="47.3" fill="#000000" transform="matrix(1.00, 0.00, -0.00, -1.00, 486.8, 226.4)">s</text><text xml:space="preserve" font-family="Helvetica-Light,Helvetica" font-size="47.3" fill="#000000" transform="matrix(1.00, 0.00, -0.00, -1.00, 510.5, 226.4)"> </text><text xml:space="preserve" font-family="Helvetica-Light,Helvetica" font-size="35.5" fill="#000000" transform="matrix(1.00, 0.00, -0.00, -1.00, 187.0, 121.0)">•</text><text xml:space="preserve" font-family="Helvetica-Light,Helvetica" font-size="47.3" fill="#000000" transform="matrix(1.00, 0.00, -0.00, -1.00, 232.5, 116.7)">s</text><text xml:space="preserve" font-family="Helvetica-Light,Helvetica" font-size="47.3" fill="#000000" transform="matrix(1.00, 0.00, -0.00, -1.00, 256.2, 116.7)">t</text><text xml:space="preserve" font-family="Helvetica-Light,Helvetica" font-size="47.3" fill="#000000" transform="matrix(1.00, 0.00, -0.00, -1.00, 269.3, 116.7)">a</text><text xml:space="preserve" font-family="Helvetica-Light,Helvetica" font-size="47.3" fill="#000000" transform="matrix(1.00, 0.00, -0.00, -1.00, 295.6, 116.7)">b</text><text xml:space="preserve" font-family="Helvetica-Light,Helvetica" font-size="47.3" fill="#000000" transform="matrix(1.00, 0.00, -0.00, -1.00, 324.5, 116.7)">i</text><text xml:space="preserve" font-family="Helvetica-Light,Helvetica" font-size="47.3" fill="#000000" transform="matrix(1.00, 0.00, -0.00, -1.00, 335.0, 116.7)">l</text><text xml:space="preserve" font-family="Helvetica-Light,Helvetica" font-size="47.3" fill="#000000" transform="matrix(1.00, 0.00, -0.00, -1.00, 345.5, 116.7)">i</text><text xml:space="preserve" font-family="Helvetica-Light,Helvetica" font-size="47.3" fill="#000000" transform="matrix(1.00, 0.00, -0.00, -1.00, 356.1, 116.7)">t</text><text xml:space="preserve" font-family="Helvetica-Light,Helvetica" font-size="47.3" fill="#000000" transform="matrix(1.00, 0.00, -0.00, -1.00, 369.2, 116.7)">y</text><text xml:space="preserve" font-family="Helvetica-Light,Helvetica" font-size="47.3" fill="#000000" transform="matrix(1.00, 0.00, -0.00, -1.00, 392.9, 116.7)"> </text><text xml:space="preserve" font-family="Helvetica-Light,Helvetica" font-size="47.3" fill="#000000" transform="matrix(1.00, 0.00, -0.00, -1.00, 406.0, 116.7)">a</text><text xml:space="preserve" font-family="Helvetica-Light,Helvetica" font-size="47.3" fill="#000000" transform="matrix(1.00, 0.00, -0.00, -1.00, 432.3, 116.7)">t</text><text xml:space="preserve" font-family="Helvetica-Light,Helvetica" font-size="47.3" fill="#000000" transform="matrix(1.00, 0.00, -0.00, -1.00, 445.5, 116.7)">t</text><text xml:space="preserve" font-family="Helvetica-Light,Helvetica" font-size="47.3" fill="#000000" transform="matrix(1.00, 0.00, -0.00, -1.00, 458.6, 116.7)">r</text><text xml:space="preserve" font-family="Helvetica-Light,Helvetica" font-size="47.3" fill="#000000" transform="matrix(1.00, 0.00, -0.00, -1.00, 474.4, 116.7)">i</text><text xml:space="preserve" font-family="Helvetica-Light,Helvetica" font-size="47.3" fill="#000000" transform="matrix(1.00, 0.00, -0.00, -1.00, 484.9, 116.7)">b</text><text xml:space="preserve" font-family="Helvetica-Light,Helvetica" font-size="47.3" fill="#000000" transform="matrix(1.00, 0.00, -0.00, -1.00, 513.8, 116.7)">u</text><text xml:space="preserve" font-family="Helvetica-Light,Helvetica" font-size="47.3" fill="#000000" transform="matrix(1.00, 0.00, -0.00, -1.00, 540.1, 116.7)">t</text><text xml:space="preserve" font-family="Helvetica-Light,Helvetica" font-size="47.3" fill="#000000" transform="matrix(1.00, 0.00, -0.00, -1.00, 553.3, 116.7)">e</text><text xml:space="preserve" font-family="Helvetica-Light,Helvetica" font-size="47.3" fill="#000000" transform="matrix(1.00, 0.00, -0.00, -1.00, 579.6, 116.7)">s</text></g></svg>