<?xml version="1.0" encoding="UTF-8" standalone="no"?><svg xmlns="http://www.w3.org/2000/svg" xmlns:xlink="http://www.w3.org/1999/xlink" clip-rule="evenodd" stroke-miterlimit="10" viewBox="0 0 1920 1080"><desc>SVG generated by Keynote</desc><defs></defs><g transform="matrix(1.00, 0.00, -0.00, -1.00, 0.0, 1080.0)"><path d="M 0.0 1080.0 L 1920.0 1080.0 L 1920.0 0.0 L 0.0 0.0 Z M 0.0 1080.0 " fill="#FEFFFF"></path><text xml:space="preserve" font-family="Helvetica-Light,Helvetica" font-size="112.0" fill="#000000" transform="matrix(1.00, 0.00, -0.00, -1.00, 449.7, 873.8)">E</text><text xml:space="preserve" font-family="Helvetica-Light,Helvetica" font-size="112.0" fill="#000000" transform="matrix(1.00, 0.00, -0.00, -1.00, 518.2, 873.8)">x</text><text xml:space="preserve" font-family="Helvetica-Light,Helvetica" font-size="112.0" fill="#000000" transform="matrix(1.00, 0.00, -0.00, -1.00, 574.2, 873.8)">a</text><text xml:space="preserve" font-family="Helvetica-Light,Helvetica" font-size="112.0" fill="#000000" transform="matrix(1.00, 0.00, -0.00, -1.00, 636.4, 873.8)">m</text><text xml:space="preserve" font-family="Helvetica-Light,Helvetica" font-size="112.0" fill="#000000" transform="matrix(1.00, 0.00, -0.00, -1.00, 729.7, 873.8)">p</text><text xml:space="preserve" font-family="Helvetica-Light,Helvetica" font-size="112.0" fill="#000000" transform="matrix(1.00, 0.00, -0.00, -1.00, 798.2, 873.8)">l</text><text xml:space="preserve" font-family="Helvetica-Light,Helvetica" font-size="112.0" fill="#000000" transform="matrix(1.00, 0.00, -0.00, -1.00, 823.0, 873.8)">e</text><text xml:space="preserve" font-family="Helvetica-Light,Helvetica" font-size="112.0" fill="#000000" transform="matrix(1.00, 0.00, -0.00, -1.00, 885.3, 873.8)"> </text><text xml:space="preserve" font-family="Helvetica-Light,Helvetica" font-size="112.0" fill="#000000" transform="matrix(1.00, 0.00, -0.00, -1.00, 916.4, 873.8)">C</text><text xml:space="preserve" font-family="Helvetica-Light,Helvetica" font-size="112.0" fill="#000000" transform="matrix(1.00, 0.00, -0.00, -1.00, 997.3, 873.8)">a</text><text xml:space="preserve" font-family="Helvetica-Light,Helvetica" font-size="112.0" fill="#000000" transform="matrix(1.00, 0.00, -0.00, -1.00, 1059.6, 873.8)">r</text><text xml:space="preserve" font-family="Helvetica-Light,Helvetica" font-size="112.0" fill="#000000" transform="matrix(1.00, 0.00, -0.00, -1.00, 1096.9, 873.8)">g</text><text xml:space="preserve" font-family="Helvetica-Light,Helvetica" font-size="112.0" fill="#000000" transform="matrix(1.00, 0.00, -0.00, -1.00, 1165.3, 873.8)">o</text><text xml:space="preserve" font-family="Helvetica-Light,Helvetica" font-size="112.0" fill="#000000" transform="matrix(1.00, 0.00, -0.00, -1.00, 1227.6, 873.8)">.</text><text xml:space="preserve" font-family="Helvetica-Light,Helvetica" font-size="112.0" fill="#000000" transform="matrix(1.00, 0.00, -0.00, -1.00, 1258.7, 873.8)">t</text><text xml:space="preserve" font-family="Helvetica-Light,Helvetica" font-size="112.0" fill="#000000" transform="matrix(1.00, 0.00, -0.00, -1.00, 1289.8, 873.8)">o</text><text xml:space="preserve" font-family="Helvetica-Light,Helvetica" font-size="112.0" fill="#000000" transform="matrix(1.00, 0.00, -0.00, -1.00, 1352.1, 873.8)">m</text><text xml:space="preserve" font-family="Helvetica-Light,Helvetica" font-size="112.0" fill="#000000" transform="matrix(1.00, 0.00, -0.00, -1.00, 1445.4, 873.8)">l</text><image xlink:href="../../5ACD218B-358D-488F-B616-4C94FF091946/assets/07B395DA58915CE6E115DB895920D4D8.png" width="1682.00" height="753.00" transform="matrix(1.00, 0.00, -0.00, -1.00, 119.0, 837.0)" opacity="0.50"></image><path d="M 133.0 825.0 L 1787.0 825.0 L 1787.0 100.0 L 133.0 100.0 Z M 133.0 825.0 " fill="#FEFFFE"></path><image xlink:href="../../5ACD218B-358D-488F-B616-4C94FF091946/assets/18D564B8FBACB674C707A16ACBF1C413.png" width="1676.00" height="747.00" transform="matrix(1.00, 0.00, -0.00, 1.00, 122.0, 89.0)"></image><g><clipPath id="clip0x608000cb9500"><path d="M 128.9 101.0 L 1791.1 101.0 L 1791.1 829.1 L 128.9 829.1 Z M 128.9 101.0 "></path></clipPath><g clip-path="url(#clip0x608000cb9500)"><text xml:space="preserve" font-family="PragmataPro,PragmataPro" font-size="32.0" fill="#323232" transform="matrix(1.00, 0.00, -0.00, -1.00, 138.0, 789.9)">[</text><text xml:space="preserve" font-family="PragmataPro,PragmataPro" font-size="32.0" fill="#795DA3" transform="matrix(1.00, 0.00, -0.00, -1.00, 154.6, 789.9)">p</text><text xml:space="preserve" font-family="PragmataPro,PragmataPro" font-size="32.0" fill="#795DA3" transform="matrix(1.00, 0.00, -0.00, -1.00, 171.1, 789.9)">a</text><text xml:space="preserve" font-family="PragmataPro,PragmataPro" font-size="32.0" fill="#795DA3" transform="matrix(1.00, 0.00, -0.00, -1.00, 187.7, 789.9)">c</text><text xml:space="preserve" font-family="PragmataPro,PragmataPro" font-size="32.0" fill="#795DA3" transform="matrix(1.00, 0.00, -0.00, -1.00, 204.2, 789.9)">k</text><text xml:space="preserve" font-family="PragmataPro,PragmataPro" font-size="32.0" fill="#795DA3" transform="matrix(1.00, 0.00, -0.00, -1.00, 220.8, 789.9)">a</text><text xml:space="preserve" font-family="PragmataPro,PragmataPro" font-size="32.0" fill="#795DA3" transform="matrix(1.00, 0.00, -0.00, -1.00, 237.3, 789.9)">g</text><text xml:space="preserve" font-family="PragmataPro,PragmataPro" font-size="32.0" fill="#795DA3" transform="matrix(1.00, 0.00, -0.00, -1.00, 253.9, 789.9)">e</text><text xml:space="preserve" font-family="PragmataPro,PragmataPro" font-size="32.0" fill="#323232" transform="matrix(1.00, 0.00, -0.00, -1.00, 270.5, 789.9)">]</text><text xml:space="preserve" font-family="PragmataPro,PragmataPro" font-size="32.0" fill="#323232" transform="matrix(1.00, 0.00, -0.00, -1.00, 287.0, 789.9)"> </text><text xml:space="preserve" font-family="PragmataPro,PragmataPro" font-size="32.0" fill="#323232" transform="matrix(1.00, 0.00, -0.00, -1.00, 138.0, 753.9)">n</text><text xml:space="preserve" font-family="PragmataPro,PragmataPro" font-size="32.0" fill="#323232" transform="matrix(1.00, 0.00, -0.00, -1.00, 154.5, 753.9)">a</text><text xml:space="preserve" font-family="PragmataPro,PragmataPro" font-size="32.0" fill="#323232" transform="matrix(1.00, 0.00, -0.00, -1.00, 171.1, 753.9)">m</text><text xml:space="preserve" font-family="PragmataPro,PragmataPro" font-size="32.0" fill="#323232" transform="matrix(1.00, 0.00, -0.00, -1.00, 187.6, 753.9)">e</text><text xml:space="preserve" font-family="PragmataPro,PragmataPro" font-size="32.0" fill="#323232" transform="matrix(1.00, 0.00, -0.00, -1.00, 204.2, 753.9)"> </text><text xml:space="preserve" font-family="PragmataPro,PragmataPro" font-size="32.0" fill="#323232" transform="matrix(1.00, 0.00, -0.00, -1.00, 220.7, 753.9)">=</text><text xml:space="preserve" font-family="PragmataPro,PragmataPro" font-size="32.0" fill="#323232" transform="matrix(1.00, 0.00, -0.00, -1.00, 237.3, 753.9)"> </text><text xml:space="preserve" font-family="PragmataPro,PragmataPro" font-size="32.0" fill="#183690" transform="matrix(1.00, 0.00, -0.00, -1.00, 253.9, 753.9)">"</text><text xml:space="preserve" font-family="PragmataPro,PragmataPro" font-size="32.0" fill="#183690" transform="matrix(1.00, 0.00, -0.00, -1.00, 270.5, 753.9)">h</text><text xml:space="preserve" font-family="PragmataPro,PragmataPro" font-size="32.0" fill="#183690" transform="matrix(1.00, 0.00, -0.00, -1.00, 287.0, 753.9)">e</text><text xml:space="preserve" font-family="PragmataPro,PragmataPro" font-size="32.0" fill="#183690" transform="matrix(1.00, 0.00, -0.00, -1.00, 303.6, 753.9)">l</text><text xml:space="preserve" font-family="PragmataPro,PragmataPro" font-size="32.0" fill="#183690" transform="matrix(1.00, 0.00, -0.00, -1.00, 320.1, 753.9)">l</text><text xml:space="preserve" font-family="PragmataPro,PragmataPro" font-size="32.0" fill="#183690" transform="matrix(1.00, 0.00, -0.00, -1.00, 336.7, 753.9)">o</text><text xml:space="preserve" font-family="PragmataPro,PragmataPro" font-size="32.0" fill="#183690" transform="matrix(1.00, 0.00, -0.00, -1.00, 353.2, 753.9)">-</text><text xml:space="preserve" font-family="PragmataPro,PragmataPro" font-size="32.0" fill="#183690" transform="matrix(1.00, 0.00, -0.00, -1.00, 369.8, 753.9)">w</text><text xml:space="preserve" font-family="PragmataPro,PragmataPro" font-size="32.0" fill="#183690" transform="matrix(1.00, 0.00, -0.00, -1.00, 386.3, 753.9)">o</text><text xml:space="preserve" font-family="PragmataPro,PragmataPro" font-size="32.0" fill="#183690" transform="matrix(1.00, 0.00, -0.00, -1.00, 402.9, 753.9)">r</text><text xml:space="preserve" font-family="PragmataPro,PragmataPro" font-size="32.0" fill="#183690" transform="matrix(1.00, 0.00, -0.00, -1.00, 419.4, 753.9)">l</text><text xml:space="preserve" font-family="PragmataPro,PragmataPro" font-size="32.0" fill="#183690" transform="matrix(1.00, 0.00, -0.00, -1.00, 436.0, 753.9)">d</text><text xml:space="preserve" font-family="PragmataPro,PragmataPro" font-size="32.0" fill="#183690" transform="matrix(1.00, 0.00, -0.00, -1.00, 452.5, 753.9)">"</text><text xml:space="preserve" font-family="PragmataPro,PragmataPro" font-size="32.0" fill="#323232" transform="matrix(1.00, 0.00, -0.00, -1.00, 469.2, 753.9)"> </text><text xml:space="preserve" font-family="PragmataPro,PragmataPro" font-size="32.0" fill="#323232" transform="matrix(1.00, 0.00, -0.00, -1.00, 138.0, 717.9)">v</text><text xml:space="preserve" font-family="PragmataPro,PragmataPro" font-size="32.0" fill="#323232" transform="matrix(1.00, 0.00, -0.00, -1.00, 154.5, 717.9)">e</text><text xml:space="preserve" font-family="PragmataPro,PragmataPro" font-size="32.0" fill="#323232" transform="matrix(1.00, 0.00, -0.00, -1.00, 171.1, 717.9)">r</text><text xml:space="preserve" font-family="PragmataPro,PragmataPro" font-size="32.0" fill="#323232" transform="matrix(1.00, 0.00, -0.00, -1.00, 187.6, 717.9)">s</text><text xml:space="preserve" font-family="PragmataPro,PragmataPro" font-size="32.0" fill="#323232" transform="matrix(1.00, 0.00, -0.00, -1.00, 204.2, 717.9)">i</text><text xml:space="preserve" font-family="PragmataPro,PragmataPro" font-size="32.0" fill="#323232" transform="matrix(1.00, 0.00, -0.00, -1.00, 220.7, 717.9)">o</text><text xml:space="preserve" font-family="PragmataPro,PragmataPro" font-size="32.0" fill="#323232" transform="matrix(1.00, 0.00, -0.00, -1.00, 237.3, 717.9)">n</text><text xml:space="preserve" font-family="PragmataPro,PragmataPro" font-size="32.0" fill="#323232" transform="matrix(1.00, 0.00, -0.00, -1.00, 253.8, 717.9)"> </text><text xml:space="preserve" font-family="PragmataPro,PragmataPro" font-size="32.0" fill="#323232" transform="matrix(1.00, 0.00, -0.00, -1.00, 270.4, 717.9)">=</text><text xml:space="preserve" font-family="PragmataPro,PragmataPro" font-size="32.0" fill="#323232" transform="matrix(1.00, 0.00, -0.00, -1.00, 286.9, 717.9)"> </text><text xml:space="preserve" font-family="PragmataPro,PragmataPro" font-size="32.0" fill="#183690" transform="matrix(1.00, 0.00, -0.00, -1.00, 303.6, 717.9)">"</text><text xml:space="preserve" font-family="PragmataPro,PragmataPro" font-size="32.0" fill="#183690" transform="matrix(1.00, 0.00, -0.00, -1.00, 320.2, 717.9)">0</text><text xml:space="preserve" font-family="PragmataPro,PragmataPro" font-size="32.0" fill="#183690" transform="matrix(1.00, 0.00, -0.00, -1.00, 336.7, 717.9)">.</text><text xml:space="preserve" font-family="PragmataPro,PragmataPro" font-size="32.0" fill="#183690" transform="matrix(1.00, 0.00, -0.00, -1.00, 353.3, 717.9)">1</text><text xml:space="preserve" font-family="PragmataPro,PragmataPro" font-size="32.0" fill="#183690" transform="matrix(1.00, 0.00, -0.00, -1.00, 369.8, 717.9)">.</text><text xml:space="preserve" font-family="PragmataPro,PragmataPro" font-size="32.0" fill="#183690" transform="matrix(1.00, 0.00, -0.00, -1.00, 386.4, 717.9)">0</text><text xml:space="preserve" font-family="PragmataPro,PragmataPro" font-size="32.0" fill="#183690" transform="matrix(1.00, 0.00, -0.00, -1.00, 402.9, 717.9)">"</text><text xml:space="preserve" font-family="PragmataPro,PragmataPro" font-size="32.0" fill="#323232" transform="matrix(1.00, 0.00, -0.00, -1.00, 419.6, 717.9)"> </text><text xml:space="preserve" font-family="PragmataPro,PragmataPro" font-size="32.0" fill="#323232" transform="matrix(1.00, 0.00, -0.00, -1.00, 138.0, 681.9)">a</text><text xml:space="preserve" font-family="PragmataPro,PragmataPro" font-size="32.0" fill="#323232" transform="matrix(1.00, 0.00, -0.00, -1.00, 154.5, 681.9)">u</text><text xml:space="preserve" font-family="PragmataPro,PragmataPro" font-size="32.0" fill="#323232" transform="matrix(1.00, 0.00, -0.00, -1.00, 171.1, 681.9)">t</text><text xml:space="preserve" font-family="PragmataPro,PragmataPro" font-size="32.0" fill="#323232" transform="matrix(1.00, 0.00, -0.00, -1.00, 187.6, 681.9)">h</text><text xml:space="preserve" font-family="PragmataPro,PragmataPro" font-size="32.0" fill="#323232" transform="matrix(1.00, 0.00, -0.00, -1.00, 204.2, 681.9)">o</text><text xml:space="preserve" font-family="PragmataPro,PragmataPro" font-size="32.0" fill="#323232" transform="matrix(1.00, 0.00, -0.00, -1.00, 220.7, 681.9)">r</text><text xml:space="preserve" font-family="PragmataPro,PragmataPro" font-size="32.0" fill="#323232" transform="matrix(1.00, 0.00, -0.00, -1.00, 237.3, 681.9)">s</text><text xml:space="preserve" font-family="PragmataPro,PragmataPro" font-size="32.0" fill="#323232" transform="matrix(1.00, 0.00, -0.00, -1.00, 253.8, 681.9)"> </text><text xml:space="preserve" font-family="PragmataPro,PragmataPro" font-size="32.0" fill="#323232" transform="matrix(1.00, 0.00, -0.00, -1.00, 270.4, 681.9)">=</text><text xml:space="preserve" font-family="PragmataPro,PragmataPro" font-size="32.0" fill="#323232" transform="matrix(1.00, 0.00, -0.00, -1.00, 286.9, 681.9)"> </text><text xml:space="preserve" font-family="PragmataPro,PragmataPro" font-size="32.0" fill="#323232" transform="matrix(1.00, 0.00, -0.00, -1.00, 303.5, 681.9)">[</text><text xml:space="preserve" font-family="PragmataPro,PragmataPro" font-size="32.0" fill="#183690" transform="matrix(1.00, 0.00, -0.00, -1.00, 320.2, 681.9)">"</text><text xml:space="preserve" font-family="PragmataPro,PragmataPro" font-size="32.0" fill="#183690" transform="matrix(1.00, 0.00, -0.00, -1.00, 336.7, 681.9)">J</text><text xml:space="preserve" font-family="PragmataPro,PragmataPro" font-size="32.0" fill="#183690" transform="matrix(1.00, 0.00, -0.00, -1.00, 353.3, 681.9)">a</text><text xml:space="preserve" font-family="PragmataPro,PragmataPro" font-size="32.0" fill="#183690" transform="matrix(1.00, 0.00, -0.00, -1.00, 369.8, 681.9)">k</text><text xml:space="preserve" font-family="PragmataPro,PragmataPro" font-size="32.0" fill="#183690" transform="matrix(1.00, 0.00, -0.00, -1.00, 386.4, 681.9)">u</text><text xml:space="preserve" font-family="PragmataPro,PragmataPro" font-size="32.0" fill="#183690" transform="matrix(1.00, 0.00, -0.00, -1.00, 402.9, 681.9)">b</text><text xml:space="preserve" font-family="PragmataPro,PragmataPro" font-size="32.0" fill="#183690" transform="matrix(1.00, 0.00, -0.00, -1.00, 419.5, 681.9)"> </text><text xml:space="preserve" font-family="PragmataPro,PragmataPro" font-size="32.0" fill="#183690" transform="matrix(1.00, 0.00, -0.00, -1.00, 436.0, 681.9)">P</text><text xml:space="preserve" font-family="PragmataPro,PragmataPro" font-size="32.0" fill="#183690" transform="matrix(1.00, 0.00, -0.00, -1.00, 452.6, 681.9)">a</text><text xml:space="preserve" font-family="PragmataPro,PragmataPro" font-size="32.0" fill="#183690" transform="matrix(1.00, 0.00, -0.00, -1.00, 469.1, 681.9)">s</text><text xml:space="preserve" font-family="PragmataPro,PragmataPro" font-size="32.0" fill="#183690" transform="matrix(1.00, 0.00, -0.00, -1.00, 485.7, 681.9)">t</text><text xml:space="preserve" font-family="PragmataPro,PragmataPro" font-size="32.0" fill="#183690" transform="matrix(1.00, 0.00, -0.00, -1.00, 502.2, 681.9)">u</text><text xml:space="preserve" font-family="PragmataPro,PragmataPro" font-size="32.0" fill="#183690" transform="matrix(1.00, 0.00, -0.00, -1.00, 518.8, 681.9)">s</text><text xml:space="preserve" font-family="PragmataPro,PragmataPro" font-size="32.0" fill="#183690" transform="matrix(1.00, 0.00, -0.00, -1.00, 535.3, 681.9)">z</text><text xml:space="preserve" font-family="PragmataPro,PragmataPro" font-size="32.0" fill="#183690" transform="matrix(1.00, 0.00, -0.00, -1.00, 551.9, 681.9)">e</text><text xml:space="preserve" font-family="PragmataPro,PragmataPro" font-size="32.0" fill="#183690" transform="matrix(1.00, 0.00, -0.00, -1.00, 568.4, 681.9)">k</text><text xml:space="preserve" font-family="PragmataPro,PragmataPro" font-size="32.0" fill="#183690" transform="matrix(1.00, 0.00, -0.00, -1.00, 585.0, 681.9)"> </text><text xml:space="preserve" font-family="PragmataPro,PragmataPro" font-size="32.0" fill="#183690" transform="matrix(1.00, 0.00, -0.00, -1.00, 601.5, 681.9)">&lt;</text><text xml:space="preserve" font-family="PragmataPro,PragmataPro" font-size="32.0" fill="#183690" transform="matrix(1.00, 0.00, -0.00, -1.00, 618.1, 681.9)">j</text><text xml:space="preserve" font-family="PragmataPro,PragmataPro" font-size="32.0" fill="#183690" transform="matrix(1.00, 0.00, -0.00, -1.00, 634.6, 681.9)">p</text><text xml:space="preserve" font-family="PragmataPro,PragmataPro" font-size="32.0" fill="#183690" transform="matrix(1.00, 0.00, -0.00, -1.00, 651.2, 681.9)">a</text><text xml:space="preserve" font-family="PragmataPro,PragmataPro" font-size="32.0" fill="#183690" transform="matrix(1.00, 0.00, -0.00, -1.00, 667.7, 681.9)">s</text><text xml:space="preserve" font-family="PragmataPro,PragmataPro" font-size="32.0" fill="#183690" transform="matrix(1.00, 0.00, -0.00, -1.00, 684.3, 681.9)">t</text><text xml:space="preserve" font-family="PragmataPro,PragmataPro" font-size="32.0" fill="#183690" transform="matrix(1.00, 0.00, -0.00, -1.00, 700.8, 681.9)">u</text><text xml:space="preserve" font-family="PragmataPro,PragmataPro" font-size="32.0" fill="#183690" transform="matrix(1.00, 0.00, -0.00, -1.00, 717.4, 681.9)">s</text><text xml:space="preserve" font-family="PragmataPro,PragmataPro" font-size="32.0" fill="#183690" transform="matrix(1.00, 0.00, -0.00, -1.00, 733.9, 681.9)">z</text><text xml:space="preserve" font-family="PragmataPro,PragmataPro" font-size="32.0" fill="#183690" transform="matrix(1.00, 0.00, -0.00, -1.00, 750.5, 681.9)">e</text><text xml:space="preserve" font-family="PragmataPro,PragmataPro" font-size="32.0" fill="#183690" transform="matrix(1.00, 0.00, -0.00, -1.00, 767.0, 681.9)">k</text><text xml:space="preserve" font-family="PragmataPro,PragmataPro" font-size="32.0" fill="#183690" transform="matrix(1.00, 0.00, -0.00, -1.00, 783.6, 681.9)">@</text><text xml:space="preserve" font-family="PragmataPro,PragmataPro" font-size="32.0" fill="#183690" transform="matrix(1.00, 0.00, -0.00, -1.00, 800.1, 681.9)">g</text><text xml:space="preserve" font-family="PragmataPro,PragmataPro" font-size="32.0" fill="#183690" transform="matrix(1.00, 0.00, -0.00, -1.00, 816.7, 681.9)">m</text><text xml:space="preserve" font-family="PragmataPro,PragmataPro" font-size="32.0" fill="#183690" transform="matrix(1.00, 0.00, -0.00, -1.00, 833.2, 681.9)">a</text><text xml:space="preserve" font-family="PragmataPro,PragmataPro" font-size="32.0" fill="#183690" transform="matrix(1.00, 0.00, -0.00, -1.00, 849.8, 681.9)">i</text><text xml:space="preserve" font-family="PragmataPro,PragmataPro" font-size="32.0" fill="#183690" transform="matrix(1.00, 0.00, -0.00, -1.00, 866.3, 681.9)">l</text><text xml:space="preserve" font-family="PragmataPro,PragmataPro" font-size="32.0" fill="#183690" transform="matrix(1.00, 0.00, -0.00, -1.00, 882.9, 681.9)">.</text><text xml:space="preserve" font-family="PragmataPro,PragmataPro" font-size="32.0" fill="#183690" transform="matrix(1.00, 0.00, -0.00, -1.00, 899.4, 681.9)">c</text><text xml:space="preserve" font-family="PragmataPro,PragmataPro" font-size="32.0" fill="#183690" transform="matrix(1.00, 0.00, -0.00, -1.00, 916.0, 681.9)">o</text><text xml:space="preserve" font-family="PragmataPro,PragmataPro" font-size="32.0" fill="#183690" transform="matrix(1.00, 0.00, -0.00, -1.00, 932.5, 681.9)">m</text><text xml:space="preserve" font-family="PragmataPro,PragmataPro" font-size="32.0" fill="#183690" transform="matrix(1.00, 0.00, -0.00, -1.00, 949.1, 681.9)">&gt;</text><text xml:space="preserve" font-family="PragmataPro,PragmataPro" font-size="32.0" fill="#183690" transform="matrix(1.00, 0.00, -0.00, -1.00, 965.6, 681.9)">"</text><text xml:space="preserve" font-family="PragmataPro,PragmataPro" font-size="32.0" fill="#323232" transform="matrix(1.00, 0.00, -0.00, -1.00, 982.7, 681.9)">]</text><text xml:space="preserve" font-family="PragmataPro,PragmataPro" font-size="32.0" fill="#323232" transform="matrix(1.00, 0.00, -0.00, -1.00, 999.2, 681.9)"> </text><text xml:space="preserve" font-family="PragmataPro,PragmataPro" font-size="32.0" fill="#323232" transform="matrix(1.00, 0.00, -0.00, -1.00, 138.0, 609.9)">[</text><text xml:space="preserve" font-family="PragmataPro,PragmataPro" font-size="32.0" fill="#795DA3" transform="matrix(1.00, 0.00, -0.00, -1.00, 154.6, 609.9)">d</text><text xml:space="preserve" font-family="PragmataPro,PragmataPro" font-size="32.0" fill="#795DA3" transform="matrix(1.00, 0.00, -0.00, -1.00, 171.1, 609.9)">e</text><text xml:space="preserve" font-family="PragmataPro,PragmataPro" font-size="32.0" fill="#795DA3" transform="matrix(1.00, 0.00, -0.00, -1.00, 187.7, 609.9)">p</text><text xml:space="preserve" font-family="PragmataPro,PragmataPro" font-size="32.0" fill="#795DA3" transform="matrix(1.00, 0.00, -0.00, -1.00, 204.2, 609.9)">e</text><text xml:space="preserve" font-family="PragmataPro,PragmataPro" font-size="32.0" fill="#795DA3" transform="matrix(1.00, 0.00, -0.00, -1.00, 220.8, 609.9)">n</text><text xml:space="preserve" font-family="PragmataPro,PragmataPro" font-size="32.0" fill="#795DA3" transform="matrix(1.00, 0.00, -0.00, -1.00, 237.3, 609.9)">d</text><text xml:space="preserve" font-family="PragmataPro,PragmataPro" font-size="32.0" fill="#795DA3" transform="matrix(1.00, 0.00, -0.00, -1.00, 253.9, 609.9)">e</text><text xml:space="preserve" font-family="PragmataPro,PragmataPro" font-size="32.0" fill="#795DA3" transform="matrix(1.00, 0.00, -0.00, -1.00, 270.4, 609.9)">n</text><text xml:space="preserve" font-family="PragmataPro,PragmataPro" font-size="32.0" fill="#795DA3" transform="matrix(1.00, 0.00, -0.00, -1.00, 287.0, 609.9)">c</text><text xml:space="preserve" font-family="PragmataPro,PragmataPro" font-size="32.0" fill="#795DA3" transform="matrix(1.00, 0.00, -0.00, -1.00, 303.5, 609.9)">i</text><text xml:space="preserve" font-family="PragmataPro,PragmataPro" font-size="32.0" fill="#795DA3" transform="matrix(1.00, 0.00, -0.00, -1.00, 320.1, 609.9)">e</text><text xml:space="preserve" font-family="PragmataPro,PragmataPro" font-size="32.0" fill="#795DA3" transform="matrix(1.00, 0.00, -0.00, -1.00, 336.6, 609.9)">s</text><text xml:space="preserve" font-family="PragmataPro,PragmataPro" font-size="32.0" fill="#323232" transform="matrix(1.00, 0.00, -0.00, -1.00, 353.3, 609.9)">]</text><text xml:space="preserve" font-family="PragmataPro,PragmataPro" font-size="32.0" fill="#795DA3" transform="matrix(1.00, 0.00, -0.00, -1.00, 369.9, 609.9)"> </text><text xml:space="preserve" font-family="PragmataPro,PragmataPro" font-size="32.0" fill="#323232" transform="matrix(1.00, 0.00, -0.00, -1.00, 138.0, 573.9)">c</text><text xml:space="preserve" font-family="PragmataPro,PragmataPro" font-size="32.0" fill="#323232" transform="matrix(1.00, 0.00, -0.00, -1.00, 154.5, 573.9)">l</text><text xml:space="preserve" font-family="PragmataPro,PragmataPro" font-size="32.0" fill="#323232" transform="matrix(1.00, 0.00, -0.00, -1.00, 171.1, 573.9)">a</text><text xml:space="preserve" font-family="PragmataPro,PragmataPro" font-size="32.0" fill="#323232" transform="matrix(1.00, 0.00, -0.00, -1.00, 187.6, 573.9)">p</text><text xml:space="preserve" font-family="PragmataPro,PragmataPro" font-size="32.0" fill="#323232" transform="matrix(1.00, 0.00, -0.00, -1.00, 204.2, 573.9)"> </text><text xml:space="preserve" font-family="PragmataPro,PragmataPro" font-size="32.0" fill="#323232" transform="matrix(1.00, 0.00, -0.00, -1.00, 220.7, 573.9)">=</text><text xml:space="preserve" font-family="PragmataPro,PragmataPro" font-size="32.0" fill="#323232" transform="matrix(1.00, 0.00, -0.00, -1.00, 237.3, 573.9)"> </text><text xml:space="preserve" font-family="PragmataPro,PragmataPro" font-size="32.0" fill="#183690" transform="matrix(1.00, 0.00, -0.00, -1.00, 253.9, 573.9)">"</text><text xml:space="preserve" font-family="PragmataPro,PragmataPro" font-size="32.0" fill="#183690" transform="matrix(1.00, 0.00, -0.00, -1.00, 270.5, 573.9)">~</text><text xml:space="preserve" font-family="PragmataPro,PragmataPro" font-size="32.0" fill="#183690" transform="matrix(1.00, 0.00, -0.00, -1.00, 287.0, 573.9)">1</text><text xml:space="preserve" font-family="PragmataPro,PragmataPro" font-size="32.0" fill="#183690" transform="matrix(1.00, 0.00, -0.00, -1.00, 303.6, 573.9)">.</text><text xml:space="preserve" font-family="PragmataPro,PragmataPro" font-size="32.0" fill="#183690" transform="matrix(1.00, 0.00, -0.00, -1.00, 320.1, 573.9)">3</text><text xml:space="preserve" font-family="PragmataPro,PragmataPro" font-size="32.0" fill="#183690" transform="matrix(1.00, 0.00, -0.00, -1.00, 336.7, 573.9)">"</text><text xml:space="preserve" font-family="PragmataPro,PragmataPro" font-size="32.0" fill="#323232" transform="matrix(1.00, 0.00, -0.00, -1.00, 353.3, 573.9)"> </text><text xml:space="preserve" font-family="PragmataPro,PragmataPro" font-size="32.0" fill="#323232" transform="matrix(1.00, 0.00, -0.00, -1.00, 138.0, 537.9)">r</text><text xml:space="preserve" font-family="PragmataPro,PragmataPro" font-size="32.0" fill="#323232" transform="matrix(1.00, 0.00, -0.00, -1.00, 154.5, 537.9)">e</text><text xml:space="preserve" font-family="PragmataPro,PragmataPro" font-size="32.0" fill="#323232" transform="matrix(1.00, 0.00, -0.00, -1.00, 171.1, 537.9)">g</text><text xml:space="preserve" font-family="PragmataPro,PragmataPro" font-size="32.0" fill="#323232" transform="matrix(1.00, 0.00, -0.00, -1.00, 187.6, 537.9)">e</text><text xml:space="preserve" font-family="PragmataPro,PragmataPro" font-size="32.0" fill="#323232" transform="matrix(1.00, 0.00, -0.00, -1.00, 204.2, 537.9)">x</text><text xml:space="preserve" font-family="PragmataPro,PragmataPro" font-size="32.0" fill="#323232" transform="matrix(1.00, 0.00, -0.00, -1.00, 220.7, 537.9)"> </text><text xml:space="preserve" font-family="PragmataPro,PragmataPro" font-size="32.0" fill="#323232" transform="matrix(1.00, 0.00, -0.00, -1.00, 237.3, 537.9)">=</text><text xml:space="preserve" font-family="PragmataPro,PragmataPro" font-size="32.0" fill="#323232" transform="matrix(1.00, 0.00, -0.00, -1.00, 253.8, 537.9)"> </text><text xml:space="preserve" font-family="PragmataPro,PragmataPro" font-size="32.0" fill="#183690" transform="matrix(1.00, 0.00, -0.00, -1.00, 270.5, 537.9)">"</text><text xml:space="preserve" font-family="PragmataPro,PragmataPro" font-size="32.0" fill="#183690" transform="matrix(1.00, 0.00, -0.00, -1.00, 287.0, 537.9)">~</text><text xml:space="preserve" font-family="PragmataPro,PragmataPro" font-size="32.0" fill="#183690" transform="matrix(1.00, 0.00, -0.00, -1.00, 303.6, 537.9)">0</text><text xml:space="preserve" font-family="PragmataPro,PragmataPro" font-size="32.0" fill="#183690" transform="matrix(1.00, 0.00, -0.00, -1.00, 320.1, 537.9)">.</text><text xml:space="preserve" font-family="PragmataPro,PragmataPro" font-size="32.0" fill="#183690" transform="matrix(1.00, 0.00, -0.00, -1.00, 336.7, 537.9)">1</text><text xml:space="preserve" font-family="PragmataPro,PragmataPro" font-size="32.0" fill="#183690" transform="matrix(1.00, 0.00, -0.00, -1.00, 353.2, 537.9)">"</text></g></g></g></svg>