<?xml version="1.0" encoding="UTF-8" standalone="no"?><svg xmlns="http://www.w3.org/2000/svg" xmlns:xlink="http://www.w3.org/1999/xlink" clip-rule="evenodd" stroke-miterlimit="10" viewBox="0 0 1920 1080"><desc>SVG generated by Keynote</desc><defs></defs><g transform="matrix(1.00, 0.00, -0.00, -1.00, 0.0, 1080.0)"><path d="M 0.0 1080.0 L 1920.0 1080.0 L 1920.0 0.0 L 0.0 0.0 Z M 0.0 1080.0 " fill="#FEFFFF"></path><text xml:space="preserve" font-family="Helvetica-Light,Helvetica" font-size="112.0" fill="#000000" transform="matrix(1.00, 0.00, -0.00, -1.00, 494.2, 873.8)">V</text><text xml:space="preserve" font-family="Helvetica-Light,Helvetica" font-size="112.0" fill="#000000" transform="matrix(1.00, 0.00, -0.00, -1.00, 560.7, 873.8)">i</text><text xml:space="preserve" font-family="Helvetica-Light,Helvetica" font-size="112.0" fill="#000000" transform="matrix(1.00, 0.00, -0.00, -1.00, 585.5, 873.8)">b</text><text xml:space="preserve" font-family="Helvetica-Light,Helvetica" font-size="112.0" fill="#000000" transform="matrix(1.00, 0.00, -0.00, -1.00, 654.0, 873.8)">r</text><text xml:space="preserve" font-family="Helvetica-Light,Helvetica" font-size="112.0" fill="#000000" transform="matrix(1.00, 0.00, -0.00, -1.00, 691.3, 873.8)">a</text><text xml:space="preserve" font-family="Helvetica-Light,Helvetica" font-size="112.0" fill="#000000" transform="matrix(1.00, 0.00, -0.00, -1.00, 753.5, 873.8)">n</text><text xml:space="preserve" font-family="Helvetica-Light,Helvetica" font-size="112.0" fill="#000000" transform="matrix(1.00, 0.00, -0.00, -1.00, 815.8, 873.8)">t</text><text xml:space="preserve" font-family="Helvetica-Light,Helvetica" font-size="112.0" fill="#000000" transform="matrix(1.00, 0.00, -0.00, -1.00, 846.9, 873.8)"> </text><text xml:space="preserve" font-family="Helvetica-Light,Helvetica" font-size="112.0" fill="#000000" transform="matrix(1.00, 0.00, -0.00, -1.00, 878.1, 873.8)">c</text><text xml:space="preserve" font-family="Helvetica-Light,Helvetica" font-size="112.0" fill="#000000" transform="matrix(1.00, 0.00, -0.00, -1.00, 940.3, 873.8)">o</text><text xml:space="preserve" font-family="Helvetica-Light,Helvetica" font-size="112.0" fill="#000000" transform="matrix(1.00, 0.00, -0.00, -1.00, 1002.6, 873.8)">m</text><text xml:space="preserve" font-family="Helvetica-Light,Helvetica" font-size="112.0" fill="#000000" transform="matrix(1.00, 0.00, -0.00, -1.00, 1095.9, 873.8)">m</text><text xml:space="preserve" font-family="Helvetica-Light,Helvetica" font-size="112.0" fill="#000000" transform="matrix(1.00, 0.00, -0.00, -1.00, 1189.2, 873.8)">u</text><text xml:space="preserve" font-family="Helvetica-Light,Helvetica" font-size="112.0" fill="#000000" transform="matrix(1.00, 0.00, -0.00, -1.00, 1251.5, 873.8)">n</text><text xml:space="preserve" font-family="Helvetica-Light,Helvetica" font-size="112.0" fill="#000000" transform="matrix(1.00, 0.00, -0.00, -1.00, 1313.8, 873.8)">i</text><text xml:space="preserve" font-family="Helvetica-Light,Helvetica" font-size="112.0" fill="#000000" transform="matrix(1.00, 0.00, -0.00, -1.00, 1338.6, 873.8)">t</text><text xml:space="preserve" font-family="Helvetica-Light,Helvetica" font-size="112.0" fill="#000000" transform="matrix(1.00, 0.00, -0.00, -1.00, 1369.8, 873.8)">y</text><text xml:space="preserve" font-family="Helvetica-Light,Helvetica" font-size="26.9" fill="#000000" transform="matrix(1.00, 0.00, -0.00, -1.00, 137.0, 787.7)">•</text><text xml:space="preserve" font-family="Helvetica-Light,Helvetica" font-size="35.9" fill="#000000" transform="matrix(1.00, 0.00, -0.00, -1.00, 171.5, 784.3)">M</text><text xml:space="preserve" font-family="Helvetica-Light,Helvetica" font-size="35.9" fill="#000000" transform="matrix(1.00, 0.00, -0.00, -1.00, 201.4, 784.3)">e</text><text xml:space="preserve" font-family="Helvetica-Light,Helvetica" font-size="35.9" fill="#000000" transform="matrix(1.00, 0.00, -0.00, -1.00, 221.3, 784.3)">e</text><text xml:space="preserve" font-family="Helvetica-Light,Helvetica" font-size="35.9" fill="#000000" transform="matrix(1.00, 0.00, -0.00, -1.00, 241.3, 784.3)">t</text><text xml:space="preserve" font-family="Helvetica-Light,Helvetica" font-size="35.9" fill="#000000" transform="matrix(1.00, 0.00, -0.00, -1.00, 251.3, 784.3)">u</text><text xml:space="preserve" font-family="Helvetica-Light,Helvetica" font-size="35.9" fill="#000000" transform="matrix(1.00, 0.00, -0.00, -1.00, 271.2, 784.3)">p</text><text xml:space="preserve" font-family="Helvetica-Light,Helvetica" font-size="35.9" fill="#000000" transform="matrix(1.00, 0.00, -0.00, -1.00, 293.1, 784.3)">s</text><text xml:space="preserve" font-family="Helvetica-Light,Helvetica" font-size="35.9" fill="#000000" transform="matrix(1.00, 0.00, -0.00, -1.00, 311.1, 784.3)"> </text><text xml:space="preserve" font-family="Helvetica-Light,Helvetica" font-size="26.9" fill="#000000" transform="matrix(1.00, 0.00, -0.00, -1.00, 137.0, 704.0)">•</text><text xml:space="preserve" font-family="Helvetica-Light,Helvetica" font-size="35.9" fill="#000000" transform="matrix(1.00, 0.00, -0.00, -1.00, 171.5, 700.5)">G</text><text xml:space="preserve" font-family="Helvetica-Light,Helvetica" font-size="35.9" fill="#000000" transform="matrix(1.00, 0.00, -0.00, -1.00, 199.4, 700.5)">i</text><text xml:space="preserve" font-family="Helvetica-Light,Helvetica" font-size="35.9" fill="#000000" transform="matrix(1.00, 0.00, -0.00, -1.00, 207.4, 700.5)">t</text><text xml:space="preserve" font-family="Helvetica-Light,Helvetica" font-size="35.9" fill="#000000" transform="matrix(1.00, 0.00, -0.00, -1.00, 217.4, 700.5)">h</text><text xml:space="preserve" font-family="Helvetica-Light,Helvetica" font-size="35.9" fill="#000000" transform="matrix(1.00, 0.00, -0.00, -1.00, 237.3, 700.5)">u</text><text xml:space="preserve" font-family="Helvetica-Light,Helvetica" font-size="35.9" fill="#000000" transform="matrix(1.00, 0.00, -0.00, -1.00, 257.3, 700.5)">b</text><text xml:space="preserve" font-family="Helvetica-Light,Helvetica" font-size="35.9" fill="#000000" transform="matrix(1.00, 0.00, -0.00, -1.00, 279.2, 700.5)"> </text><text xml:space="preserve" font-family="Helvetica-Light,Helvetica" font-size="26.9" fill="#000000" transform="matrix(1.00, 0.00, -0.00, -1.00, 137.0, 620.3)">•</text><text xml:space="preserve" font-family="Helvetica-Light,Helvetica" font-size="35.9" fill="#000000" transform="matrix(1.00, 0.00, -0.00, -1.00, 171.5, 616.8)">M</text><text xml:space="preserve" font-family="Helvetica-Light,Helvetica" font-size="35.9" fill="#000000" transform="matrix(1.00, 0.00, -0.00, -1.00, 201.4, 616.8)">o</text><text xml:space="preserve" font-family="Helvetica-Light,Helvetica" font-size="35.9" fill="#000000" transform="matrix(1.00, 0.00, -0.00, -1.00, 221.3, 616.8)">z</text><text xml:space="preserve" font-family="Helvetica-Light,Helvetica" font-size="35.9" fill="#000000" transform="matrix(1.00, 0.00, -0.00, -1.00, 239.3, 616.8)">i</text><text xml:space="preserve" font-family="Helvetica-Light,Helvetica" font-size="35.9" fill="#000000" transform="matrix(1.00, 0.00, -0.00, -1.00, 247.2, 616.8)">l</text><text xml:space="preserve" font-family="Helvetica-Light,Helvetica" font-size="35.9" fill="#000000" transform="matrix(1.00, 0.00, -0.00, -1.00, 255.2, 616.8)">l</text><text xml:space="preserve" font-family="Helvetica-Light,Helvetica" font-size="35.9" fill="#000000" transform="matrix(1.00, 0.00, -0.00, -1.00, 263.2, 616.8)">a</text><text xml:space="preserve" font-family="Helvetica-Light,Helvetica" font-size="35.9" fill="#000000" transform="matrix(1.00, 0.00, -0.00, -1.00, 283.1, 616.8)"> </text><text xml:space="preserve" font-family="Helvetica-Light,Helvetica" font-size="26.9" fill="#000000" transform="matrix(1.00, 0.00, -0.00, -1.00, 137.0, 536.6)">•</text><text xml:space="preserve" font-family="Helvetica-Light,Helvetica" font-size="35.9" fill="#000000" transform="matrix(1.00, 0.00, -0.00, -1.00, 171.5, 533.1)">R</text><text xml:space="preserve" font-family="Helvetica-Light,Helvetica" font-size="35.9" fill="#000000" transform="matrix(1.00, 0.00, -0.00, -1.00, 195.4, 533.1)">e</text><text xml:space="preserve" font-family="Helvetica-Light,Helvetica" font-size="35.9" fill="#000000" transform="matrix(1.00, 0.00, -0.00, -1.00, 215.4, 533.1)">d</text><text xml:space="preserve" font-family="Helvetica-Light,Helvetica" font-size="35.9" fill="#000000" transform="matrix(1.00, 0.00, -0.00, -1.00, 237.3, 533.1)">i</text><text xml:space="preserve" font-family="Helvetica-Light,Helvetica" font-size="35.9" fill="#000000" transform="matrix(1.00, 0.00, -0.00, -1.00, 245.3, 533.1)">t</text><text xml:space="preserve" font-family="Helvetica-Light,Helvetica" font-size="35.9" fill="#000000" transform="matrix(1.00, 0.00, -0.00, -1.00, 255.2, 533.1)"> </text><text xml:space="preserve" font-family="Helvetica-Light,Helvetica" font-size="35.9" fill="#000000" transform="matrix(1.00, 0.00, -0.00, -1.00, 265.2, 533.1)">s</text><text xml:space="preserve" font-family="Helvetica-Light,Helvetica" font-size="35.9" fill="#000000" transform="matrix(1.00, 0.00, -0.00, -1.00, 283.2, 533.1)">u</text><text xml:space="preserve" font-family="Helvetica-Light,Helvetica" font-size="35.9" fill="#000000" transform="matrix(1.00, 0.00, -0.00, -1.00, 303.1, 533.1)">b</text><text xml:space="preserve" font-family="Helvetica-Light,Helvetica" font-size="35.9" fill="#000000" transform="matrix(1.00, 0.00, -0.00, -1.00, 325.0, 533.1)">r</text><text xml:space="preserve" font-family="Helvetica-Light,Helvetica" font-size="35.9" fill="#000000" transform="matrix(1.00, 0.00, -0.00, -1.00, 336.3, 533.1)">e</text><text xml:space="preserve" font-family="Helvetica-Light,Helvetica" font-size="35.9" fill="#000000" transform="matrix(1.00, 0.00, -0.00, -1.00, 356.3, 533.1)">d</text><text xml:space="preserve" font-family="Helvetica-Light,Helvetica" font-size="35.9" fill="#000000" transform="matrix(1.00, 0.00, -0.00, -1.00, 378.2, 533.1)">d</text><text xml:space="preserve" font-family="Helvetica-Light,Helvetica" font-size="35.9" fill="#000000" transform="matrix(1.00, 0.00, -0.00, -1.00, 400.1, 533.1)">i</text><text xml:space="preserve" font-family="Helvetica-Light,Helvetica" font-size="35.9" fill="#000000" transform="matrix(1.00, 0.00, -0.00, -1.00, 408.1, 533.1)">t</text><text xml:space="preserve" font-family="Helvetica-Light,Helvetica" font-size="35.9" fill="#000000" transform="matrix(1.00, 0.00, -0.00, -1.00, 418.1, 533.1)"> </text><text xml:space="preserve" font-family="Helvetica-Light,Helvetica" font-size="26.9" fill="#000000" transform="matrix(1.00, 0.00, -0.00, -1.00, 137.0, 452.8)">•</text><text xml:space="preserve" font-family="Helvetica-Light,Helvetica" font-size="35.9" fill="#000000" transform="matrix(1.00, 0.00, -0.00, -1.00, 171.5, 449.4)">I</text><text xml:space="preserve" font-family="Helvetica-Light,Helvetica" font-size="35.9" fill="#000000" transform="matrix(1.00, 0.00, -0.00, -1.00, 181.5, 449.4)">I</text><text xml:space="preserve" font-family="Helvetica-Light,Helvetica" font-size="35.9" fill="#000000" transform="matrix(1.00, 0.00, -0.00, -1.00, 191.4, 449.4)">R</text><text xml:space="preserve" font-family="Helvetica-Light,Helvetica" font-size="35.9" fill="#000000" transform="matrix(1.00, 0.00, -0.00, -1.00, 215.4, 449.4)">C</text><text xml:space="preserve" font-family="Helvetica-Light,Helvetica" font-size="35.9" fill="#000000" transform="matrix(1.00, 0.00, -0.00, -1.00, 241.3, 449.4)"> </text><text xml:space="preserve" font-family="Helvetica-Light,Helvetica" font-size="26.9" fill="#000000" transform="matrix(1.00, 0.00, -0.00, -1.00, 137.0, 369.1)">•</text><text xml:space="preserve" font-family="Helvetica-Light,Helvetica" font-size="35.9" fill="#000000" transform="matrix(1.00, 0.00, -0.00, -1.00, 171.5, 365.7)">T</text><text xml:space="preserve" font-family="Helvetica-Light,Helvetica" font-size="35.9" fill="#000000" transform="matrix(1.00, 0.00, -0.00, -1.00, 188.4, 365.7)">w</text><text xml:space="preserve" font-family="Helvetica-Light,Helvetica" font-size="35.9" fill="#000000" transform="matrix(1.00, 0.00, -0.00, -1.00, 214.3, 365.7)">i</text><text xml:space="preserve" font-family="Helvetica-Light,Helvetica" font-size="35.9" fill="#000000" transform="matrix(1.00, 0.00, -0.00, -1.00, 222.3, 365.7)">t</text><text xml:space="preserve" font-family="Helvetica-Light,Helvetica" font-size="35.9" fill="#000000" transform="matrix(1.00, 0.00, -0.00, -1.00, 232.3, 365.7)">t</text><text xml:space="preserve" font-family="Helvetica-Light,Helvetica" font-size="35.9" fill="#000000" transform="matrix(1.00, 0.00, -0.00, -1.00, 242.3, 365.7)">e</text><text xml:space="preserve" font-family="Helvetica-Light,Helvetica" font-size="35.9" fill="#000000" transform="matrix(1.00, 0.00, -0.00, -1.00, 262.2, 365.7)">r</text><text xml:space="preserve" font-family="Helvetica-Light,Helvetica" font-size="35.9" fill="#000000" transform="matrix(1.00, 0.00, -0.00, -1.00, 274.2, 365.7)"> </text><text xml:space="preserve" font-family="Helvetica-Light,Helvetica" font-size="26.9" fill="#000000" transform="matrix(1.00, 0.00, -0.00, -1.00, 137.0, 285.4)">•</text><text xml:space="preserve" font-family="Helvetica-Light,Helvetica" font-size="35.9" fill="#000000" transform="matrix(1.00, 0.00, -0.00, -1.00, 171.5, 282.0)">U</text><text xml:space="preserve" font-family="Helvetica-Light,Helvetica" font-size="35.9" fill="#000000" transform="matrix(1.00, 0.00, -0.00, -1.00, 197.4, 282.0)">s</text><text xml:space="preserve" font-family="Helvetica-Light,Helvetica" font-size="35.9" fill="#000000" transform="matrix(1.00, 0.00, -0.00, -1.00, 215.3, 282.0)">e</text><text xml:space="preserve" font-family="Helvetica-Light,Helvetica" font-size="35.9" fill="#000000" transform="matrix(1.00, 0.00, -0.00, -1.00, 235.3, 282.0)">r</text><text xml:space="preserve" font-family="Helvetica-Light,Helvetica" font-size="35.9" fill="#000000" transform="matrix(1.00, 0.00, -0.00, -1.00, 247.2, 282.0)">s</text><text xml:space="preserve" font-family="Helvetica-Light,Helvetica" font-size="35.9" fill="#000000" transform="matrix(1.00, 0.00, -0.00, -1.00, 265.2, 282.0)"> </text><text xml:space="preserve" font-family="Helvetica-Light,Helvetica" font-size="35.9" fill="#000000" transform="matrix(1.00, 0.00, -0.00, -1.00, 275.2, 282.0)">f</text><text xml:space="preserve" font-family="Helvetica-Light,Helvetica" font-size="35.9" fill="#000000" transform="matrix(1.00, 0.00, -0.00, -1.00, 285.1, 282.0)">o</text><text xml:space="preserve" font-family="Helvetica-Light,Helvetica" font-size="35.9" fill="#000000" transform="matrix(1.00, 0.00, -0.00, -1.00, 305.1, 282.0)">r</text><text xml:space="preserve" font-family="Helvetica-Light,Helvetica" font-size="35.9" fill="#000000" transform="matrix(1.00, 0.00, -0.00, -1.00, 317.0, 282.0)">u</text><text xml:space="preserve" font-family="Helvetica-Light,Helvetica" font-size="35.9" fill="#000000" transform="matrix(1.00, 0.00, -0.00, -1.00, 337.0, 282.0)">m</text><text xml:space="preserve" font-family="Helvetica-Light,Helvetica" font-size="35.9" fill="#000000" transform="matrix(1.00, 0.00, -0.00, -1.00, 366.9, 282.0)"> </text><text xml:space="preserve" font-family="Helvetica-Light,Helvetica" font-size="26.9" fill="#000000" transform="matrix(1.00, 0.00, -0.00, -1.00, 137.0, 201.7)">•</text><text xml:space="preserve" font-family="Helvetica-Light,Helvetica" font-size="35.9" fill="#000000" transform="matrix(1.00, 0.00, -0.00, -1.00, 171.5, 198.3)">R</text><text xml:space="preserve" font-family="Helvetica-Light,Helvetica" font-size="35.9" fill="#000000" transform="matrix(1.00, 0.00, -0.00, -1.00, 195.4, 198.3)">u</text><text xml:space="preserve" font-family="Helvetica-Light,Helvetica" font-size="35.9" fill="#000000" transform="matrix(1.00, 0.00, -0.00, -1.00, 215.4, 198.3)">s</text><text xml:space="preserve" font-family="Helvetica-Light,Helvetica" font-size="35.9" fill="#000000" transform="matrix(1.00, 0.00, -0.00, -1.00, 233.3, 198.3)">t</text><text xml:space="preserve" font-family="Helvetica-Light,Helvetica" font-size="35.9" fill="#000000" transform="matrix(1.00, 0.00, -0.00, -1.00, 243.3, 198.3)"> </text><text xml:space="preserve" font-family="Helvetica-Light,Helvetica" font-size="35.9" fill="#000000" transform="matrix(1.00, 0.00, -0.00, -1.00, 253.3, 198.3)">I</text><text xml:space="preserve" font-family="Helvetica-Light,Helvetica" font-size="35.9" fill="#000000" transform="matrix(1.00, 0.00, -0.00, -1.00, 263.2, 198.3)">n</text><text xml:space="preserve" font-family="Helvetica-Light,Helvetica" font-size="35.9" fill="#000000" transform="matrix(1.00, 0.00, -0.00, -1.00, 283.2, 198.3)">t</text><text xml:space="preserve" font-family="Helvetica-Light,Helvetica" font-size="35.9" fill="#000000" transform="matrix(1.00, 0.00, -0.00, -1.00, 293.2, 198.3)">e</text><text xml:space="preserve" font-family="Helvetica-Light,Helvetica" font-size="35.9" fill="#000000" transform="matrix(1.00, 0.00, -0.00, -1.00, 313.1, 198.3)">r</text><text xml:space="preserve" font-family="Helvetica-Light,Helvetica" font-size="35.9" fill="#000000" transform="matrix(1.00, 0.00, -0.00, -1.00, 325.7, 198.3)">n</text><text xml:space="preserve" font-family="Helvetica-Light,Helvetica" font-size="35.9" fill="#000000" transform="matrix(1.00, 0.00, -0.00, -1.00, 345.7, 198.3)">a</text><text xml:space="preserve" font-family="Helvetica-Light,Helvetica" font-size="35.9" fill="#000000" transform="matrix(1.00, 0.00, -0.00, -1.00, 365.6, 198.3)">l</text><text xml:space="preserve" font-family="Helvetica-Light,Helvetica" font-size="35.9" fill="#000000" transform="matrix(1.00, 0.00, -0.00, -1.00, 373.6, 198.3)">s</text><text xml:space="preserve" font-family="Helvetica-Light,Helvetica" font-size="35.9" fill="#000000" transform="matrix(1.00, 0.00, -0.00, -1.00, 391.5, 198.3)"> </text><text xml:space="preserve" font-family="Helvetica-Light,Helvetica" font-size="35.9" fill="#000000" transform="matrix(1.00, 0.00, -0.00, -1.00, 401.5, 198.3)">f</text><text xml:space="preserve" font-family="Helvetica-Light,Helvetica" font-size="35.9" fill="#000000" transform="matrix(1.00, 0.00, -0.00, -1.00, 411.5, 198.3)">o</text><text xml:space="preserve" font-family="Helvetica-Light,Helvetica" font-size="35.9" fill="#000000" transform="matrix(1.00, 0.00, -0.00, -1.00, 431.4, 198.3)">r</text><text xml:space="preserve" font-family="Helvetica-Light,Helvetica" font-size="35.9" fill="#000000" transform="matrix(1.00, 0.00, -0.00, -1.00, 443.4, 198.3)">u</text><text xml:space="preserve" font-family="Helvetica-Light,Helvetica" font-size="35.9" fill="#000000" transform="matrix(1.00, 0.00, -0.00, -1.00, 463.3, 198.3)">m</text><text xml:space="preserve" font-family="Helvetica-Light,Helvetica" font-size="35.9" fill="#000000" transform="matrix(1.00, 0.00, -0.00, -1.00, 493.2, 198.3)"> </text><text xml:space="preserve" font-family="Helvetica-Light,Helvetica" font-size="26.9" fill="#000000" transform="matrix(1.00, 0.00, -0.00, -1.00, 137.0, 118.0)">•</text><text xml:space="preserve" font-family="Helvetica-Light,Helvetica" font-size="35.9" fill="#000000" transform="matrix(1.00, 0.00, -0.00, -1.00, 171.5, 114.6)">S</text><text xml:space="preserve" font-family="Helvetica-Light,Helvetica" font-size="35.9" fill="#000000" transform="matrix(1.00, 0.00, -0.00, -1.00, 193.4, 114.6)">t</text><text xml:space="preserve" font-family="Helvetica-Light,Helvetica" font-size="35.9" fill="#000000" transform="matrix(1.00, 0.00, -0.00, -1.00, 203.4, 114.6)">a</text><text xml:space="preserve" font-family="Helvetica-Light,Helvetica" font-size="35.9" fill="#000000" transform="matrix(1.00, 0.00, -0.00, -1.00, 223.3, 114.6)">c</text><text xml:space="preserve" font-family="Helvetica-Light,Helvetica" font-size="35.9" fill="#000000" transform="matrix(1.00, 0.00, -0.00, -1.00, 243.3, 114.6)">k</text><text xml:space="preserve" font-family="Helvetica-Light,Helvetica" font-size="35.9" fill="#000000" transform="matrix(1.00, 0.00, -0.00, -1.00, 261.2, 114.6)"> </text><text xml:space="preserve" font-family="Helvetica-Light,Helvetica" font-size="35.9" fill="#000000" transform="matrix(1.00, 0.00, -0.00, -1.00, 271.2, 114.6)">O</text><text xml:space="preserve" font-family="Helvetica-Light,Helvetica" font-size="35.9" fill="#000000" transform="matrix(1.00, 0.00, -0.00, -1.00, 299.1, 114.6)">v</text><text xml:space="preserve" font-family="Helvetica-Light,Helvetica" font-size="35.9" fill="#000000" transform="matrix(1.00, 0.00, -0.00, -1.00, 317.1, 114.6)">e</text><text xml:space="preserve" font-family="Helvetica-Light,Helvetica" font-size="35.9" fill="#000000" transform="matrix(1.00, 0.00, -0.00, -1.00, 337.0, 114.6)">r</text><text xml:space="preserve" font-family="Helvetica-Light,Helvetica" font-size="35.9" fill="#000000" transform="matrix(1.00, 0.00, -0.00, -1.00, 349.6, 114.6)">ﬂ</text><text xml:space="preserve" font-family="Helvetica-Light,Helvetica" font-size="35.9" fill="#000000" transform="matrix(1.00, 0.00, -0.00, -1.00, 367.5, 114.6)">o</text><text xml:space="preserve" font-family="Helvetica-Light,Helvetica" font-size="35.9" fill="#000000" transform="matrix(1.00, 0.00, -0.00, -1.00, 387.5, 114.6)">w</text></g></svg>