<?xml version="1.0" encoding="UTF-8" standalone="no"?><svg xmlns="http://www.w3.org/2000/svg" xmlns:xlink="http://www.w3.org/1999/xlink" clip-rule="evenodd" stroke-miterlimit="10" viewBox="0 0 1920 1080"><desc>SVG generated by Keynote</desc><defs></defs><g transform="matrix(1.00, 0.00, -0.00, -1.00, 0.0, 1080.0)"><path d="M 0.0 1080.0 L 1920.0 1080.0 L 1920.0 0.0 L 0.0 0.0 Z M 0.0 1080.0 " fill="#FEFFFF"></path><text xml:space="preserve" font-family="Helvetica-Light,Helvetica" font-size="112.0" fill="#000000" transform="matrix(1.00, 0.00, -0.00, -1.00, 277.4, 873.8)">G</text><text xml:space="preserve" font-family="Helvetica-Light,Helvetica" font-size="112.0" fill="#000000" transform="matrix(1.00, 0.00, -0.00, -1.00, 364.6, 873.8)">u</text><text xml:space="preserve" font-family="Helvetica-Light,Helvetica" font-size="112.0" fill="#000000" transform="matrix(1.00, 0.00, -0.00, -1.00, 426.8, 873.8)">a</text><text xml:space="preserve" font-family="Helvetica-Light,Helvetica" font-size="112.0" fill="#000000" transform="matrix(1.00, 0.00, -0.00, -1.00, 489.1, 873.8)">r</text><text xml:space="preserve" font-family="Helvetica-Light,Helvetica" font-size="112.0" fill="#000000" transform="matrix(1.00, 0.00, -0.00, -1.00, 526.4, 873.8)">a</text><text xml:space="preserve" font-family="Helvetica-Light,Helvetica" font-size="112.0" fill="#000000" transform="matrix(1.00, 0.00, -0.00, -1.00, 588.7, 873.8)">n</text><text xml:space="preserve" font-family="Helvetica-Light,Helvetica" font-size="112.0" fill="#000000" transform="matrix(1.00, 0.00, -0.00, -1.00, 650.9, 873.8)">t</text><text xml:space="preserve" font-family="Helvetica-Light,Helvetica" font-size="112.0" fill="#000000" transform="matrix(1.00, 0.00, -0.00, -1.00, 682.1, 873.8)">e</text><text xml:space="preserve" font-family="Helvetica-Light,Helvetica" font-size="112.0" fill="#000000" transform="matrix(1.00, 0.00, -0.00, -1.00, 744.3, 873.8)">e</text><text xml:space="preserve" font-family="Helvetica-Light,Helvetica" font-size="112.0" fill="#000000" transform="matrix(1.00, 0.00, -0.00, -1.00, 806.6, 873.8)">d</text><text xml:space="preserve" font-family="Helvetica-Light,Helvetica" font-size="112.0" fill="#000000" transform="matrix(1.00, 0.00, -0.00, -1.00, 875.0, 873.8)"> </text><text xml:space="preserve" font-family="Helvetica-Light,Helvetica" font-size="112.0" fill="#000000" transform="matrix(1.00, 0.00, -0.00, -1.00, 906.2, 873.8)">m</text><text xml:space="preserve" font-family="Helvetica-Light,Helvetica" font-size="112.0" fill="#000000" transform="matrix(1.00, 0.00, -0.00, -1.00, 999.5, 873.8)">e</text><text xml:space="preserve" font-family="Helvetica-Light,Helvetica" font-size="112.0" fill="#000000" transform="matrix(1.00, 0.00, -0.00, -1.00, 1061.8, 873.8)">m</text><text xml:space="preserve" font-family="Helvetica-Light,Helvetica" font-size="112.0" fill="#000000" transform="matrix(1.00, 0.00, -0.00, -1.00, 1155.0, 873.8)">o</text><text xml:space="preserve" font-family="Helvetica-Light,Helvetica" font-size="112.0" fill="#000000" transform="matrix(1.00, 0.00, -0.00, -1.00, 1217.3, 873.8)">r</text><text xml:space="preserve" font-family="Helvetica-Light,Helvetica" font-size="112.0" fill="#000000" transform="matrix(1.00, 0.00, -0.00, -1.00, 1256.6, 873.8)">y</text><text xml:space="preserve" font-family="Helvetica-Light,Helvetica" font-size="112.0" fill="#000000" transform="matrix(1.00, 0.00, -0.00, -1.00, 1312.6, 873.8)"> </text><text xml:space="preserve" font-family="Helvetica-Light,Helvetica" font-size="112.0" fill="#000000" transform="matrix(1.00, 0.00, -0.00, -1.00, 1343.8, 873.8)">s</text><text xml:space="preserve" font-family="Helvetica-Light,Helvetica" font-size="112.0" fill="#000000" transform="matrix(1.00, 0.00, -0.00, -1.00, 1399.8, 873.8)">a</text><text xml:space="preserve" font-family="Helvetica-Light,Helvetica" font-size="112.0" fill="#000000" transform="matrix(1.00, 0.00, -0.00, -1.00, 1462.0, 873.8)">f</text><text xml:space="preserve" font-family="Helvetica-Light,Helvetica" font-size="112.0" fill="#000000" transform="matrix(1.00, 0.00, -0.00, -1.00, 1493.2, 873.8)">e</text><text xml:space="preserve" font-family="Helvetica-Light,Helvetica" font-size="112.0" fill="#000000" transform="matrix(1.00, 0.00, -0.00, -1.00, 1555.4, 873.8)">t</text><text xml:space="preserve" font-family="Helvetica-Light,Helvetica" font-size="112.0" fill="#000000" transform="matrix(1.00, 0.00, -0.00, -1.00, 1586.6, 873.8)">y</text><text xml:space="preserve" font-family="Helvetica-Light,Helvetica" font-size="30.4" fill="#000000" transform="matrix(1.00, 0.00, -0.00, -1.00, 137.0, 781.0)">•</text><text xml:space="preserve" font-family="Helvetica-Light,Helvetica" font-size="40.6" fill="#000000" transform="matrix(1.00, 0.00, -0.00, -1.00, 176.0, 777.3)">D</text><text xml:space="preserve" font-family="Helvetica-Light,Helvetica" font-size="40.6" fill="#000000" transform="matrix(1.00, 0.00, -0.00, -1.00, 205.3, 777.3)">e</text><text xml:space="preserve" font-family="Helvetica-Light,Helvetica" font-size="40.6" fill="#000000" transform="matrix(1.00, 0.00, -0.00, -1.00, 227.8, 777.3)">r</text><text xml:space="preserve" font-family="Helvetica-Light,Helvetica" font-size="40.6" fill="#000000" transform="matrix(1.00, 0.00, -0.00, -1.00, 240.6, 777.3)">e</text><text xml:space="preserve" font-family="Helvetica-Light,Helvetica" font-size="40.6" fill="#000000" transform="matrix(1.00, 0.00, -0.00, -1.00, 263.2, 777.3)">f</text><text xml:space="preserve" font-family="Helvetica-Light,Helvetica" font-size="40.6" fill="#000000" transform="matrix(1.00, 0.00, -0.00, -1.00, 274.4, 777.3)">e</text><text xml:space="preserve" font-family="Helvetica-Light,Helvetica" font-size="40.6" fill="#000000" transform="matrix(1.00, 0.00, -0.00, -1.00, 297.0, 777.3)">r</text><text xml:space="preserve" font-family="Helvetica-Light,Helvetica" font-size="40.6" fill="#000000" transform="matrix(1.00, 0.00, -0.00, -1.00, 309.8, 777.3)">e</text><text xml:space="preserve" font-family="Helvetica-Light,Helvetica" font-size="40.6" fill="#000000" transform="matrix(1.00, 0.00, -0.00, -1.00, 332.3, 777.3)">n</text><text xml:space="preserve" font-family="Helvetica-Light,Helvetica" font-size="40.6" fill="#000000" transform="matrix(1.00, 0.00, -0.00, -1.00, 354.9, 777.3)">c</text><text xml:space="preserve" font-family="Helvetica-Light,Helvetica" font-size="40.6" fill="#000000" transform="matrix(1.00, 0.00, -0.00, -1.00, 377.4, 777.3)">i</text><text xml:space="preserve" font-family="Helvetica-Light,Helvetica" font-size="40.6" fill="#000000" transform="matrix(1.00, 0.00, -0.00, -1.00, 386.4, 777.3)">n</text><text xml:space="preserve" font-family="Helvetica-Light,Helvetica" font-size="40.6" fill="#000000" transform="matrix(1.00, 0.00, -0.00, -1.00, 409.0, 777.3)">g</text><text xml:space="preserve" font-family="Helvetica-Light,Helvetica" font-size="40.6" fill="#000000" transform="matrix(1.00, 0.00, -0.00, -1.00, 433.8, 777.3)"> </text><text xml:space="preserve" font-family="Helvetica-Light,Helvetica" font-size="40.6" fill="#000000" transform="matrix(1.00, 0.00, -0.00, -1.00, 445.0, 777.3)">n</text><text xml:space="preserve" font-family="Helvetica-Light,Helvetica" font-size="40.6" fill="#000000" transform="matrix(1.00, 0.00, -0.00, -1.00, 467.6, 777.3)">u</text><text xml:space="preserve" font-family="Helvetica-Light,Helvetica" font-size="40.6" fill="#000000" transform="matrix(1.00, 0.00, -0.00, -1.00, 490.1, 777.3)">l</text><text xml:space="preserve" font-family="Helvetica-Light,Helvetica" font-size="40.6" fill="#000000" transform="matrix(1.00, 0.00, -0.00, -1.00, 499.1, 777.3)">l</text><text xml:space="preserve" font-family="Helvetica-Light,Helvetica" font-size="40.6" fill="#000000" transform="matrix(1.00, 0.00, -0.00, -1.00, 508.1, 777.3)"> </text><text xml:space="preserve" font-family="Helvetica-Light,Helvetica" font-size="40.6" fill="#000000" transform="matrix(1.00, 0.00, -0.00, -1.00, 519.4, 777.3)">o</text><text xml:space="preserve" font-family="Helvetica-Light,Helvetica" font-size="40.6" fill="#000000" transform="matrix(1.00, 0.00, -0.00, -1.00, 542.0, 777.3)">r</text><text xml:space="preserve" font-family="Helvetica-Light,Helvetica" font-size="40.6" fill="#000000" transform="matrix(1.00, 0.00, -0.00, -1.00, 555.5, 777.3)"> </text><text xml:space="preserve" font-family="Helvetica-Light,Helvetica" font-size="40.6" fill="#000000" transform="matrix(1.00, 0.00, -0.00, -1.00, 566.8, 777.3)">d</text><text xml:space="preserve" font-family="Helvetica-Light,Helvetica" font-size="40.6" fill="#000000" transform="matrix(1.00, 0.00, -0.00, -1.00, 591.5, 777.3)">a</text><text xml:space="preserve" font-family="Helvetica-Light,Helvetica" font-size="40.6" fill="#000000" transform="matrix(1.00, 0.00, -0.00, -1.00, 614.1, 777.3)">n</text><text xml:space="preserve" font-family="Helvetica-Light,Helvetica" font-size="40.6" fill="#000000" transform="matrix(1.00, 0.00, -0.00, -1.00, 636.6, 777.3)">g</text><text xml:space="preserve" font-family="Helvetica-Light,Helvetica" font-size="40.6" fill="#000000" transform="matrix(1.00, 0.00, -0.00, -1.00, 661.4, 777.3)">l</text><text xml:space="preserve" font-family="Helvetica-Light,Helvetica" font-size="40.6" fill="#000000" transform="matrix(1.00, 0.00, -0.00, -1.00, 670.4, 777.3)">i</text><text xml:space="preserve" font-family="Helvetica-Light,Helvetica" font-size="40.6" fill="#000000" transform="matrix(1.00, 0.00, -0.00, -1.00, 679.4, 777.3)">n</text><text xml:space="preserve" font-family="Helvetica-Light,Helvetica" font-size="40.6" fill="#000000" transform="matrix(1.00, 0.00, -0.00, -1.00, 702.0, 777.3)">g</text><text xml:space="preserve" font-family="Helvetica-Light,Helvetica" font-size="40.6" fill="#000000" transform="matrix(1.00, 0.00, -0.00, -1.00, 726.8, 777.3)"> </text><text xml:space="preserve" font-family="Helvetica-Light,Helvetica" font-size="40.6" fill="#000000" transform="matrix(1.00, 0.00, -0.00, -1.00, 738.0, 777.3)">p</text><text xml:space="preserve" font-family="Helvetica-Light,Helvetica" font-size="40.6" fill="#000000" transform="matrix(1.00, 0.00, -0.00, -1.00, 762.8, 777.3)">o</text><text xml:space="preserve" font-family="Helvetica-Light,Helvetica" font-size="40.6" fill="#000000" transform="matrix(1.00, 0.00, -0.00, -1.00, 785.4, 777.3)">i</text><text xml:space="preserve" font-family="Helvetica-Light,Helvetica" font-size="40.6" fill="#000000" transform="matrix(1.00, 0.00, -0.00, -1.00, 794.4, 777.3)">n</text><text xml:space="preserve" font-family="Helvetica-Light,Helvetica" font-size="40.6" fill="#000000" transform="matrix(1.00, 0.00, -0.00, -1.00, 816.9, 777.3)">t</text><text xml:space="preserve" font-family="Helvetica-Light,Helvetica" font-size="40.6" fill="#000000" transform="matrix(1.00, 0.00, -0.00, -1.00, 828.2, 777.3)">e</text><text xml:space="preserve" font-family="Helvetica-Light,Helvetica" font-size="40.6" fill="#000000" transform="matrix(1.00, 0.00, -0.00, -1.00, 850.8, 777.3)">r</text><text xml:space="preserve" font-family="Helvetica-Light,Helvetica" font-size="40.6" fill="#000000" transform="matrix(1.00, 0.00, -0.00, -1.00, 864.3, 777.3)">s</text><text xml:space="preserve" font-family="Helvetica-Light,Helvetica" font-size="40.6" fill="#000000" transform="matrix(1.00, 0.00, -0.00, -1.00, 884.5, 777.3)"> </text><text xml:space="preserve" font-family="Helvetica-Light,Helvetica" font-size="30.4" fill="#000000" transform="matrix(1.00, 0.00, -0.00, -1.00, 137.0, 687.0)">•</text><text xml:space="preserve" font-family="Helvetica-Light,Helvetica" font-size="40.6" fill="#000000" transform="matrix(1.00, 0.00, -0.00, -1.00, 176.0, 683.3)">R</text><text xml:space="preserve" font-family="Helvetica-Light,Helvetica" font-size="40.6" fill="#000000" transform="matrix(1.00, 0.00, -0.00, -1.00, 203.1, 683.3)">e</text><text xml:space="preserve" font-family="Helvetica-Light,Helvetica" font-size="40.6" fill="#000000" transform="matrix(1.00, 0.00, -0.00, -1.00, 225.6, 683.3)">a</text><text xml:space="preserve" font-family="Helvetica-Light,Helvetica" font-size="40.6" fill="#000000" transform="matrix(1.00, 0.00, -0.00, -1.00, 248.2, 683.3)">d</text><text xml:space="preserve" font-family="Helvetica-Light,Helvetica" font-size="40.6" fill="#000000" transform="matrix(1.00, 0.00, -0.00, -1.00, 272.9, 683.3)">i</text><text xml:space="preserve" font-family="Helvetica-Light,Helvetica" font-size="40.6" fill="#000000" transform="matrix(1.00, 0.00, -0.00, -1.00, 281.9, 683.3)">n</text><text xml:space="preserve" font-family="Helvetica-Light,Helvetica" font-size="40.6" fill="#000000" transform="matrix(1.00, 0.00, -0.00, -1.00, 304.5, 683.3)">g</text><text xml:space="preserve" font-family="Helvetica-Light,Helvetica" font-size="40.6" fill="#000000" transform="matrix(1.00, 0.00, -0.00, -1.00, 329.3, 683.3)"> </text><text xml:space="preserve" font-family="Helvetica-Light,Helvetica" font-size="40.6" fill="#000000" transform="matrix(1.00, 0.00, -0.00, -1.00, 340.6, 683.3)">u</text><text xml:space="preserve" font-family="Helvetica-Light,Helvetica" font-size="40.6" fill="#000000" transform="matrix(1.00, 0.00, -0.00, -1.00, 363.1, 683.3)">n</text><text xml:space="preserve" font-family="Helvetica-Light,Helvetica" font-size="40.6" fill="#000000" transform="matrix(1.00, 0.00, -0.00, -1.00, 385.7, 683.3)">i</text><text xml:space="preserve" font-family="Helvetica-Light,Helvetica" font-size="40.6" fill="#000000" transform="matrix(1.00, 0.00, -0.00, -1.00, 394.7, 683.3)">n</text><text xml:space="preserve" font-family="Helvetica-Light,Helvetica" font-size="40.6" fill="#000000" transform="matrix(1.00, 0.00, -0.00, -1.00, 417.2, 683.3)">i</text><text xml:space="preserve" font-family="Helvetica-Light,Helvetica" font-size="40.6" fill="#000000" transform="matrix(1.00, 0.00, -0.00, -1.00, 426.2, 683.3)">t</text><text xml:space="preserve" font-family="Helvetica-Light,Helvetica" font-size="40.6" fill="#000000" transform="matrix(1.00, 0.00, -0.00, -1.00, 437.5, 683.3)">i</text><text xml:space="preserve" font-family="Helvetica-Light,Helvetica" font-size="40.6" fill="#000000" transform="matrix(1.00, 0.00, -0.00, -1.00, 446.5, 683.3)">a</text><text xml:space="preserve" font-family="Helvetica-Light,Helvetica" font-size="40.6" fill="#000000" transform="matrix(1.00, 0.00, -0.00, -1.00, 469.0, 683.3)">l</text><text xml:space="preserve" font-family="Helvetica-Light,Helvetica" font-size="40.6" fill="#000000" transform="matrix(1.00, 0.00, -0.00, -1.00, 478.1, 683.3)">i</text><text xml:space="preserve" font-family="Helvetica-Light,Helvetica" font-size="40.6" fill="#000000" transform="matrix(1.00, 0.00, -0.00, -1.00, 487.1, 683.3)">s</text><text xml:space="preserve" font-family="Helvetica-Light,Helvetica" font-size="40.6" fill="#000000" transform="matrix(1.00, 0.00, -0.00, -1.00, 507.3, 683.3)">e</text><text xml:space="preserve" font-family="Helvetica-Light,Helvetica" font-size="40.6" fill="#000000" transform="matrix(1.00, 0.00, -0.00, -1.00, 529.9, 683.3)">d</text><text xml:space="preserve" font-family="Helvetica-Light,Helvetica" font-size="40.6" fill="#000000" transform="matrix(1.00, 0.00, -0.00, -1.00, 554.7, 683.3)"> </text><text xml:space="preserve" font-family="Helvetica-Light,Helvetica" font-size="40.6" fill="#000000" transform="matrix(1.00, 0.00, -0.00, -1.00, 565.9, 683.3)">m</text><text xml:space="preserve" font-family="Helvetica-Light,Helvetica" font-size="40.6" fill="#000000" transform="matrix(1.00, 0.00, -0.00, -1.00, 599.7, 683.3)">e</text><text xml:space="preserve" font-family="Helvetica-Light,Helvetica" font-size="40.6" fill="#000000" transform="matrix(1.00, 0.00, -0.00, -1.00, 622.3, 683.3)">m</text><text xml:space="preserve" font-family="Helvetica-Light,Helvetica" font-size="40.6" fill="#000000" transform="matrix(1.00, 0.00, -0.00, -1.00, 656.1, 683.3)">o</text><text xml:space="preserve" font-family="Helvetica-Light,Helvetica" font-size="40.6" fill="#000000" transform="matrix(1.00, 0.00, -0.00, -1.00, 678.6, 683.3)">r</text><text xml:space="preserve" font-family="Helvetica-Light,Helvetica" font-size="40.6" fill="#000000" transform="matrix(1.00, 0.00, -0.00, -1.00, 692.9, 683.3)">y</text><text xml:space="preserve" font-family="Helvetica-Light,Helvetica" font-size="40.6" fill="#000000" transform="matrix(1.00, 0.00, -0.00, -1.00, 713.1, 683.3)"> </text><text xml:space="preserve" font-family="Helvetica-Light,Helvetica" font-size="30.4" fill="#000000" transform="matrix(1.00, 0.00, -0.00, -1.00, 137.0, 593.0)">•</text><text xml:space="preserve" font-family="Helvetica-Light,Helvetica" font-size="40.6" fill="#000000" transform="matrix(1.00, 0.00, -0.00, -1.00, 176.0, 589.3)">B</text><text xml:space="preserve" font-family="Helvetica-Light,Helvetica" font-size="40.6" fill="#000000" transform="matrix(1.00, 0.00, -0.00, -1.00, 203.1, 589.3)">r</text><text xml:space="preserve" font-family="Helvetica-Light,Helvetica" font-size="40.6" fill="#000000" transform="matrix(1.00, 0.00, -0.00, -1.00, 215.8, 589.3)">e</text><text xml:space="preserve" font-family="Helvetica-Light,Helvetica" font-size="40.6" fill="#000000" transform="matrix(1.00, 0.00, -0.00, -1.00, 238.4, 589.3)">a</text><text xml:space="preserve" font-family="Helvetica-Light,Helvetica" font-size="40.6" fill="#000000" transform="matrix(1.00, 0.00, -0.00, -1.00, 260.9, 589.3)">k</text><text xml:space="preserve" font-family="Helvetica-Light,Helvetica" font-size="40.6" fill="#000000" transform="matrix(1.00, 0.00, -0.00, -1.00, 281.2, 589.3)">i</text><text xml:space="preserve" font-family="Helvetica-Light,Helvetica" font-size="40.6" fill="#000000" transform="matrix(1.00, 0.00, -0.00, -1.00, 290.2, 589.3)">n</text><text xml:space="preserve" font-family="Helvetica-Light,Helvetica" font-size="40.6" fill="#000000" transform="matrix(1.00, 0.00, -0.00, -1.00, 312.8, 589.3)">g</text><text xml:space="preserve" font-family="Helvetica-Light,Helvetica" font-size="40.6" fill="#000000" transform="matrix(1.00, 0.00, -0.00, -1.00, 337.6, 589.3)"> </text><text xml:space="preserve" font-family="Helvetica-Light,Helvetica" font-size="40.6" fill="#000000" transform="matrix(1.00, 0.00, -0.00, -1.00, 348.8, 589.3)">t</text><text xml:space="preserve" font-family="Helvetica-Light,Helvetica" font-size="40.6" fill="#000000" transform="matrix(1.00, 0.00, -0.00, -1.00, 360.1, 589.3)">h</text><text xml:space="preserve" font-family="Helvetica-Light,Helvetica" font-size="40.6" fill="#000000" transform="matrix(1.00, 0.00, -0.00, -1.00, 382.7, 589.3)">e</text><text xml:space="preserve" font-family="Helvetica-Light,Helvetica" font-size="40.6" fill="#000000" transform="matrix(1.00, 0.00, -0.00, -1.00, 405.2, 589.3)"> </text><text xml:space="preserve" font-family="Helvetica-Light,Helvetica" font-size="40.6" fill="#000000" transform="matrix(1.00, 0.00, -0.00, -1.00, 416.5, 589.3)">p</text><text xml:space="preserve" font-family="Helvetica-Light,Helvetica" font-size="40.6" fill="#000000" transform="matrix(1.00, 0.00, -0.00, -1.00, 441.3, 589.3)">o</text><text xml:space="preserve" font-family="Helvetica-Light,Helvetica" font-size="40.6" fill="#000000" transform="matrix(1.00, 0.00, -0.00, -1.00, 463.8, 589.3)">i</text><text xml:space="preserve" font-family="Helvetica-Light,Helvetica" font-size="40.6" fill="#000000" transform="matrix(1.00, 0.00, -0.00, -1.00, 472.8, 589.3)">n</text><text xml:space="preserve" font-family="Helvetica-Light,Helvetica" font-size="40.6" fill="#000000" transform="matrix(1.00, 0.00, -0.00, -1.00, 495.4, 589.3)">t</text><text xml:space="preserve" font-family="Helvetica-Light,Helvetica" font-size="40.6" fill="#000000" transform="matrix(1.00, 0.00, -0.00, -1.00, 506.6, 589.3)">e</text><text xml:space="preserve" font-family="Helvetica-Light,Helvetica" font-size="40.6" fill="#000000" transform="matrix(1.00, 0.00, -0.00, -1.00, 529.2, 589.3)">r</text><text xml:space="preserve" font-family="Helvetica-Light,Helvetica" font-size="40.6" fill="#000000" transform="matrix(1.00, 0.00, -0.00, -1.00, 542.7, 589.3)"> </text><text xml:space="preserve" font-family="Helvetica-Light,Helvetica" font-size="40.6" fill="#000000" transform="matrix(1.00, 0.00, -0.00, -1.00, 554.0, 589.3)">a</text><text xml:space="preserve" font-family="Helvetica-Light,Helvetica" font-size="40.6" fill="#000000" transform="matrix(1.00, 0.00, -0.00, -1.00, 576.5, 589.3)">l</text><text xml:space="preserve" font-family="Helvetica-Light,Helvetica" font-size="40.6" fill="#000000" transform="matrix(1.00, 0.00, -0.00, -1.00, 585.5, 589.3)">i</text><text xml:space="preserve" font-family="Helvetica-Light,Helvetica" font-size="40.6" fill="#000000" transform="matrix(1.00, 0.00, -0.00, -1.00, 594.5, 589.3)">a</text><text xml:space="preserve" font-family="Helvetica-Light,Helvetica" font-size="40.6" fill="#000000" transform="matrix(1.00, 0.00, -0.00, -1.00, 617.1, 589.3)">s</text><text xml:space="preserve" font-family="Helvetica-Light,Helvetica" font-size="40.6" fill="#000000" transform="matrix(1.00, 0.00, -0.00, -1.00, 637.4, 589.3)">i</text><text xml:space="preserve" font-family="Helvetica-Light,Helvetica" font-size="40.6" fill="#000000" transform="matrix(1.00, 0.00, -0.00, -1.00, 646.4, 589.3)">n</text><text xml:space="preserve" font-family="Helvetica-Light,Helvetica" font-size="40.6" fill="#000000" transform="matrix(1.00, 0.00, -0.00, -1.00, 668.9, 589.3)">g</text><text xml:space="preserve" font-family="Helvetica-Light,Helvetica" font-size="40.6" fill="#000000" transform="matrix(1.00, 0.00, -0.00, -1.00, 693.7, 589.3)"> </text><text xml:space="preserve" font-family="Helvetica-Light,Helvetica" font-size="40.6" fill="#000000" transform="matrix(1.00, 0.00, -0.00, -1.00, 705.0, 589.3)">r</text><text xml:space="preserve" font-family="Helvetica-Light,Helvetica" font-size="40.6" fill="#000000" transform="matrix(1.00, 0.00, -0.00, -1.00, 718.5, 589.3)">u</text><text xml:space="preserve" font-family="Helvetica-Light,Helvetica" font-size="40.6" fill="#000000" transform="matrix(1.00, 0.00, -0.00, -1.00, 741.0, 589.3)">l</text><text xml:space="preserve" font-family="Helvetica-Light,Helvetica" font-size="40.6" fill="#000000" transform="matrix(1.00, 0.00, -0.00, -1.00, 750.0, 589.3)">e</text><text xml:space="preserve" font-family="Helvetica-Light,Helvetica" font-size="40.6" fill="#000000" transform="matrix(1.00, 0.00, -0.00, -1.00, 772.6, 589.3)">s</text><text xml:space="preserve" font-family="Helvetica-Light,Helvetica" font-size="40.6" fill="#000000" transform="matrix(1.00, 0.00, -0.00, -1.00, 792.9, 589.3)"> </text><text xml:space="preserve" font-family="Helvetica-Light,Helvetica" font-size="30.4" fill="#000000" transform="matrix(1.00, 0.00, -0.00, -1.00, 137.0, 498.9)">•</text><text xml:space="preserve" font-family="Helvetica-Light,Helvetica" font-size="40.6" fill="#000000" transform="matrix(1.00, 0.00, -0.00, -1.00, 176.0, 495.3)">P</text><text xml:space="preserve" font-family="Helvetica-Light,Helvetica" font-size="40.6" fill="#000000" transform="matrix(1.00, 0.00, -0.00, -1.00, 200.8, 495.3)">r</text><text xml:space="preserve" font-family="Helvetica-Light,Helvetica" font-size="40.6" fill="#000000" transform="matrix(1.00, 0.00, -0.00, -1.00, 213.6, 495.3)">o</text><text xml:space="preserve" font-family="Helvetica-Light,Helvetica" font-size="40.6" fill="#000000" transform="matrix(1.00, 0.00, -0.00, -1.00, 236.1, 495.3)">d</text><text xml:space="preserve" font-family="Helvetica-Light,Helvetica" font-size="40.6" fill="#000000" transform="matrix(1.00, 0.00, -0.00, -1.00, 260.9, 495.3)">u</text><text xml:space="preserve" font-family="Helvetica-Light,Helvetica" font-size="40.6" fill="#000000" transform="matrix(1.00, 0.00, -0.00, -1.00, 283.4, 495.3)">c</text><text xml:space="preserve" font-family="Helvetica-Light,Helvetica" font-size="40.6" fill="#000000" transform="matrix(1.00, 0.00, -0.00, -1.00, 306.0, 495.3)">i</text><text xml:space="preserve" font-family="Helvetica-Light,Helvetica" font-size="40.6" fill="#000000" transform="matrix(1.00, 0.00, -0.00, -1.00, 315.0, 495.3)">n</text><text xml:space="preserve" font-family="Helvetica-Light,Helvetica" font-size="40.6" fill="#000000" transform="matrix(1.00, 0.00, -0.00, -1.00, 337.6, 495.3)">g</text><text xml:space="preserve" font-family="Helvetica-Light,Helvetica" font-size="40.6" fill="#000000" transform="matrix(1.00, 0.00, -0.00, -1.00, 362.3, 495.3)"> </text><text xml:space="preserve" font-family="Helvetica-Light,Helvetica" font-size="40.6" fill="#000000" transform="matrix(1.00, 0.00, -0.00, -1.00, 373.6, 495.3)">i</text><text xml:space="preserve" font-family="Helvetica-Light,Helvetica" font-size="40.6" fill="#000000" transform="matrix(1.00, 0.00, -0.00, -1.00, 382.6, 495.3)">n</text><text xml:space="preserve" font-family="Helvetica-Light,Helvetica" font-size="40.6" fill="#000000" transform="matrix(1.00, 0.00, -0.00, -1.00, 405.2, 495.3)">v</text><text xml:space="preserve" font-family="Helvetica-Light,Helvetica" font-size="40.6" fill="#000000" transform="matrix(1.00, 0.00, -0.00, -1.00, 425.4, 495.3)">a</text><text xml:space="preserve" font-family="Helvetica-Light,Helvetica" font-size="40.6" fill="#000000" transform="matrix(1.00, 0.00, -0.00, -1.00, 448.0, 495.3)">l</text><text xml:space="preserve" font-family="Helvetica-Light,Helvetica" font-size="40.6" fill="#000000" transform="matrix(1.00, 0.00, -0.00, -1.00, 457.0, 495.3)">i</text><text xml:space="preserve" font-family="Helvetica-Light,Helvetica" font-size="40.6" fill="#000000" transform="matrix(1.00, 0.00, -0.00, -1.00, 466.0, 495.3)">d</text><text xml:space="preserve" font-family="Helvetica-Light,Helvetica" font-size="40.6" fill="#000000" transform="matrix(1.00, 0.00, -0.00, -1.00, 490.8, 495.3)"> </text><text xml:space="preserve" font-family="Helvetica-Light,Helvetica" font-size="40.6" fill="#000000" transform="matrix(1.00, 0.00, -0.00, -1.00, 502.1, 495.3)">p</text><text xml:space="preserve" font-family="Helvetica-Light,Helvetica" font-size="40.6" fill="#000000" transform="matrix(1.00, 0.00, -0.00, -1.00, 526.8, 495.3)">r</text><text xml:space="preserve" font-family="Helvetica-Light,Helvetica" font-size="40.6" fill="#000000" transform="matrix(1.00, 0.00, -0.00, -1.00, 540.4, 495.3)">i</text><text xml:space="preserve" font-family="Helvetica-Light,Helvetica" font-size="40.6" fill="#000000" transform="matrix(1.00, 0.00, -0.00, -1.00, 549.4, 495.3)">m</text><text xml:space="preserve" font-family="Helvetica-Light,Helvetica" font-size="40.6" fill="#000000" transform="matrix(1.00, 0.00, -0.00, -1.00, 583.1, 495.3)">i</text><text xml:space="preserve" font-family="Helvetica-Light,Helvetica" font-size="40.6" fill="#000000" transform="matrix(1.00, 0.00, -0.00, -1.00, 592.1, 495.3)">t</text><text xml:space="preserve" font-family="Helvetica-Light,Helvetica" font-size="40.6" fill="#000000" transform="matrix(1.00, 0.00, -0.00, -1.00, 603.4, 495.3)">i</text><text xml:space="preserve" font-family="Helvetica-Light,Helvetica" font-size="40.6" fill="#000000" transform="matrix(1.00, 0.00, -0.00, -1.00, 612.4, 495.3)">v</text><text xml:space="preserve" font-family="Helvetica-Light,Helvetica" font-size="40.6" fill="#000000" transform="matrix(1.00, 0.00, -0.00, -1.00, 632.7, 495.3)">e</text><text xml:space="preserve" font-family="Helvetica-Light,Helvetica" font-size="40.6" fill="#000000" transform="matrix(1.00, 0.00, -0.00, -1.00, 655.3, 495.3)"> </text><text xml:space="preserve" font-family="Helvetica-Light,Helvetica" font-size="40.6" fill="#000000" transform="matrix(1.00, 0.00, -0.00, -1.00, 666.5, 495.3)">v</text><text xml:space="preserve" font-family="Helvetica-Light,Helvetica" font-size="40.6" fill="#000000" transform="matrix(1.00, 0.00, -0.00, -1.00, 686.8, 495.3)">a</text><text xml:space="preserve" font-family="Helvetica-Light,Helvetica" font-size="40.6" fill="#000000" transform="matrix(1.00, 0.00, -0.00, -1.00, 709.4, 495.3)">l</text><text xml:space="preserve" font-family="Helvetica-Light,Helvetica" font-size="40.6" fill="#000000" transform="matrix(1.00, 0.00, -0.00, -1.00, 718.4, 495.3)">u</text><text xml:space="preserve" font-family="Helvetica-Light,Helvetica" font-size="40.6" fill="#000000" transform="matrix(1.00, 0.00, -0.00, -1.00, 740.9, 495.3)">e</text><text xml:space="preserve" font-family="Helvetica-Light,Helvetica" font-size="40.6" fill="#000000" transform="matrix(1.00, 0.00, -0.00, -1.00, 763.5, 495.3)">s</text><text xml:space="preserve" font-family="Helvetica-Light,Helvetica" font-size="40.6" fill="#000000" transform="matrix(1.00, 0.00, -0.00, -1.00, 783.8, 495.3)"> </text><text xml:space="preserve" font-family="Helvetica-Light,Helvetica" font-size="30.4" fill="#000000" transform="matrix(1.00, 0.00, -0.00, -1.00, 137.0, 404.9)">•</text><text xml:space="preserve" font-family="Helvetica-Light,Helvetica" font-size="40.6" fill="#000000" transform="matrix(1.00, 0.00, -0.00, -1.00, 176.0, 401.2)">A</text><text xml:space="preserve" font-family="Helvetica-Light,Helvetica" font-size="40.6" fill="#000000" transform="matrix(1.00, 0.00, -0.00, -1.00, 203.1, 401.2)"> </text><text xml:space="preserve" font-family="Helvetica-Light,Helvetica" font-size="40.6" fill="#000000" transform="matrix(1.00, 0.00, -0.00, -1.00, 214.3, 401.2)">b</text><text xml:space="preserve" font-family="Helvetica-Light,Helvetica" font-size="40.6" fill="#000000" transform="matrix(1.00, 0.00, -0.00, -1.00, 239.1, 401.2)">o</text><text xml:space="preserve" font-family="Helvetica-Light,Helvetica" font-size="40.6" fill="#000000" transform="matrix(1.00, 0.00, -0.00, -1.00, 261.7, 401.2)">o</text><text xml:space="preserve" font-family="Helvetica-Light,Helvetica" font-size="40.6" fill="#000000" transform="matrix(1.00, 0.00, -0.00, -1.00, 284.2, 401.2)">l</text><text xml:space="preserve" font-family="Helvetica-Light,Helvetica" font-size="40.6" fill="#000000" transform="matrix(1.00, 0.00, -0.00, -1.00, 293.2, 401.2)"> </text><text xml:space="preserve" font-family="Helvetica-Light,Helvetica" font-size="40.6" fill="#000000" transform="matrix(1.00, 0.00, -0.00, -1.00, 304.5, 401.2)">t</text><text xml:space="preserve" font-family="Helvetica-Light,Helvetica" font-size="40.6" fill="#000000" transform="matrix(1.00, 0.00, -0.00, -1.00, 315.8, 401.2)">h</text><text xml:space="preserve" font-family="Helvetica-Light,Helvetica" font-size="40.6" fill="#000000" transform="matrix(1.00, 0.00, -0.00, -1.00, 338.3, 401.2)">a</text><text xml:space="preserve" font-family="Helvetica-Light,Helvetica" font-size="40.6" fill="#000000" transform="matrix(1.00, 0.00, -0.00, -1.00, 360.9, 401.2)">t</text><text xml:space="preserve" font-family="Helvetica-Light,Helvetica" font-size="40.6" fill="#000000" transform="matrix(1.00, 0.00, -0.00, -1.00, 372.1, 401.2)"> </text><text xml:space="preserve" font-family="Helvetica-Light,Helvetica" font-size="40.6" fill="#000000" transform="matrix(1.00, 0.00, -0.00, -1.00, 383.4, 401.2)">i</text><text xml:space="preserve" font-family="Helvetica-Light,Helvetica" font-size="40.6" fill="#000000" transform="matrix(1.00, 0.00, -0.00, -1.00, 392.4, 401.2)">s</text><text xml:space="preserve" font-family="Helvetica-Light,Helvetica" font-size="40.6" fill="#000000" transform="matrix(1.00, 0.00, -0.00, -1.00, 412.7, 401.2)">n</text><text xml:space="preserve" font-family="Helvetica-Light,Helvetica" font-size="40.6" fill="#000000" transform="matrix(1.00, 0.00, -0.00, -1.00, 435.3, 401.2)">'</text><text xml:space="preserve" font-family="Helvetica-Light,Helvetica" font-size="40.6" fill="#000000" transform="matrix(1.00, 0.00, -0.00, -1.00, 444.3, 401.2)">t</text><text xml:space="preserve" font-family="Helvetica-Light,Helvetica" font-size="40.6" fill="#000000" transform="matrix(1.00, 0.00, -0.00, -1.00, 455.5, 401.2)"> </text><text xml:space="preserve" font-family="Helvetica-Light,Helvetica" font-size="40.6" fill="#000000" transform="matrix(1.00, 0.00, -0.00, -1.00, 466.8, 401.2)">0</text><text xml:space="preserve" font-family="Helvetica-Light,Helvetica" font-size="40.6" fill="#000000" transform="matrix(1.00, 0.00, -0.00, -1.00, 489.4, 401.2)"> </text><text xml:space="preserve" font-family="Helvetica-Light,Helvetica" font-size="40.6" fill="#000000" transform="matrix(1.00, 0.00, -0.00, -1.00, 500.6, 401.2)">o</text><text xml:space="preserve" font-family="Helvetica-Light,Helvetica" font-size="40.6" fill="#000000" transform="matrix(1.00, 0.00, -0.00, -1.00, 523.2, 401.2)">r</text><text xml:space="preserve" font-family="Helvetica-Light,Helvetica" font-size="40.6" fill="#000000" transform="matrix(1.00, 0.00, -0.00, -1.00, 536.7, 401.2)"> </text><text xml:space="preserve" font-family="Helvetica-Light,Helvetica" font-size="40.6" fill="#000000" transform="matrix(1.00, 0.00, -0.00, -1.00, 548.0, 401.2)">1</text><text xml:space="preserve" font-family="Helvetica-Light,Helvetica" font-size="40.6" fill="#000000" transform="matrix(1.00, 0.00, -0.00, -1.00, 570.5, 401.2)"> </text><text xml:space="preserve" font-family="Helvetica-Light,Helvetica" font-size="30.4" fill="#000000" transform="matrix(1.00, 0.00, -0.00, -1.00, 137.0, 310.9)">•</text><text xml:space="preserve" font-family="Helvetica-Light,Helvetica" font-size="40.6" fill="#000000" transform="matrix(1.00, 0.00, -0.00, -1.00, 176.0, 307.2)">A</text><text xml:space="preserve" font-family="Helvetica-Light,Helvetica" font-size="40.6" fill="#000000" transform="matrix(1.00, 0.00, -0.00, -1.00, 203.1, 307.2)">n</text><text xml:space="preserve" font-family="Helvetica-Light,Helvetica" font-size="40.6" fill="#000000" transform="matrix(1.00, 0.00, -0.00, -1.00, 225.6, 307.2)"> </text><text xml:space="preserve" font-family="Helvetica-Light,Helvetica" font-size="40.6" fill="#000000" transform="matrix(1.00, 0.00, -0.00, -1.00, 236.9, 307.2)">u</text><text xml:space="preserve" font-family="Helvetica-Light,Helvetica" font-size="40.6" fill="#000000" transform="matrix(1.00, 0.00, -0.00, -1.00, 259.4, 307.2)">n</text><text xml:space="preserve" font-family="Helvetica-Light,Helvetica" font-size="40.6" fill="#000000" transform="matrix(1.00, 0.00, -0.00, -1.00, 282.0, 307.2)">d</text><text xml:space="preserve" font-family="Helvetica-Light,Helvetica" font-size="40.6" fill="#000000" transform="matrix(1.00, 0.00, -0.00, -1.00, 306.8, 307.2)">e</text><text xml:space="preserve" font-family="Helvetica-Light,Helvetica" font-size="40.6" fill="#000000" transform="matrix(1.00, 0.00, -0.00, -1.00, 329.3, 307.2)">ﬁ</text><text xml:space="preserve" font-family="Helvetica-Light,Helvetica" font-size="40.6" fill="#000000" transform="matrix(1.00, 0.00, -0.00, -1.00, 349.6, 307.2)">n</text><text xml:space="preserve" font-family="Helvetica-Light,Helvetica" font-size="40.6" fill="#000000" transform="matrix(1.00, 0.00, -0.00, -1.00, 372.1, 307.2)">e</text><text xml:space="preserve" font-family="Helvetica-Light,Helvetica" font-size="40.6" fill="#000000" transform="matrix(1.00, 0.00, -0.00, -1.00, 394.7, 307.2)">d</text><text xml:space="preserve" font-family="Helvetica-Light,Helvetica" font-size="40.6" fill="#000000" transform="matrix(1.00, 0.00, -0.00, -1.00, 419.5, 307.2)"> </text><text xml:space="preserve" font-family="Helvetica-Light,Helvetica" font-size="40.6" fill="#000000" transform="matrix(1.00, 0.00, -0.00, -1.00, 430.8, 307.2)">e</text><text xml:space="preserve" font-family="Helvetica-Light,Helvetica" font-size="40.6" fill="#000000" transform="matrix(1.00, 0.00, -0.00, -1.00, 453.3, 307.2)">n</text><text xml:space="preserve" font-family="Helvetica-Light,Helvetica" font-size="40.6" fill="#000000" transform="matrix(1.00, 0.00, -0.00, -1.00, 475.9, 307.2)">u</text><text xml:space="preserve" font-family="Helvetica-Light,Helvetica" font-size="40.6" fill="#000000" transform="matrix(1.00, 0.00, -0.00, -1.00, 498.4, 307.2)">m</text><text xml:space="preserve" font-family="Helvetica-Light,Helvetica" font-size="40.6" fill="#000000" transform="matrix(1.00, 0.00, -0.00, -1.00, 532.2, 307.2)"> </text><text xml:space="preserve" font-family="Helvetica-Light,Helvetica" font-size="40.6" fill="#000000" transform="matrix(1.00, 0.00, -0.00, -1.00, 543.5, 307.2)">d</text><text xml:space="preserve" font-family="Helvetica-Light,Helvetica" font-size="40.6" fill="#000000" transform="matrix(1.00, 0.00, -0.00, -1.00, 568.3, 307.2)">i</text><text xml:space="preserve" font-family="Helvetica-Light,Helvetica" font-size="40.6" fill="#000000" transform="matrix(1.00, 0.00, -0.00, -1.00, 577.3, 307.2)">s</text><text xml:space="preserve" font-family="Helvetica-Light,Helvetica" font-size="40.6" fill="#000000" transform="matrix(1.00, 0.00, -0.00, -1.00, 597.5, 307.2)">c</text><text xml:space="preserve" font-family="Helvetica-Light,Helvetica" font-size="40.6" fill="#000000" transform="matrix(1.00, 0.00, -0.00, -1.00, 620.1, 307.2)">r</text><text xml:space="preserve" font-family="Helvetica-Light,Helvetica" font-size="40.6" fill="#000000" transform="matrix(1.00, 0.00, -0.00, -1.00, 633.6, 307.2)">i</text><text xml:space="preserve" font-family="Helvetica-Light,Helvetica" font-size="40.6" fill="#000000" transform="matrix(1.00, 0.00, -0.00, -1.00, 642.6, 307.2)">m</text><text xml:space="preserve" font-family="Helvetica-Light,Helvetica" font-size="40.6" fill="#000000" transform="matrix(1.00, 0.00, -0.00, -1.00, 676.4, 307.2)">i</text><text xml:space="preserve" font-family="Helvetica-Light,Helvetica" font-size="40.6" fill="#000000" transform="matrix(1.00, 0.00, -0.00, -1.00, 685.4, 307.2)">n</text><text xml:space="preserve" font-family="Helvetica-Light,Helvetica" font-size="40.6" fill="#000000" transform="matrix(1.00, 0.00, -0.00, -1.00, 707.9, 307.2)">a</text><text xml:space="preserve" font-family="Helvetica-Light,Helvetica" font-size="40.6" fill="#000000" transform="matrix(1.00, 0.00, -0.00, -1.00, 730.5, 307.2)">n</text><text xml:space="preserve" font-family="Helvetica-Light,Helvetica" font-size="40.6" fill="#000000" transform="matrix(1.00, 0.00, -0.00, -1.00, 753.0, 307.2)">t</text><text xml:space="preserve" font-family="Helvetica-Light,Helvetica" font-size="40.6" fill="#000000" transform="matrix(1.00, 0.00, -0.00, -1.00, 764.3, 307.2)"> </text><text xml:space="preserve" font-family="Helvetica-Light,Helvetica" font-size="30.4" fill="#000000" transform="matrix(1.00, 0.00, -0.00, -1.00, 137.0, 216.9)">•</text><text xml:space="preserve" font-family="Helvetica-Light,Helvetica" font-size="40.6" fill="#000000" transform="matrix(1.00, 0.00, -0.00, -1.00, 176.0, 213.2)">A</text><text xml:space="preserve" font-family="Helvetica-Light,Helvetica" font-size="40.6" fill="#000000" transform="matrix(1.00, 0.00, -0.00, -1.00, 203.1, 213.2)"> </text><text xml:space="preserve" font-family="Helvetica-Light,Helvetica" font-size="40.6" fill="#000000" transform="matrix(1.00, 0.00, -0.00, -1.00, 214.3, 213.2)">n</text><text xml:space="preserve" font-family="Helvetica-Light,Helvetica" font-size="40.6" fill="#000000" transform="matrix(1.00, 0.00, -0.00, -1.00, 236.9, 213.2)">o</text><text xml:space="preserve" font-family="Helvetica-Light,Helvetica" font-size="40.6" fill="#000000" transform="matrix(1.00, 0.00, -0.00, -1.00, 259.4, 213.2)">n</text><text xml:space="preserve" font-family="Helvetica-Light,Helvetica" font-size="40.6" fill="#000000" transform="matrix(1.00, 0.00, -0.00, -1.00, 282.0, 213.2)">-</text><text xml:space="preserve" font-family="Helvetica-Light,Helvetica" font-size="40.6" fill="#000000" transform="matrix(1.00, 0.00, -0.00, -1.00, 295.5, 213.2)">u</text><text xml:space="preserve" font-family="Helvetica-Light,Helvetica" font-size="40.6" fill="#000000" transform="matrix(1.00, 0.00, -0.00, -1.00, 318.0, 213.2)">t</text><text xml:space="preserve" font-family="Helvetica-Light,Helvetica" font-size="40.6" fill="#000000" transform="matrix(1.00, 0.00, -0.00, -1.00, 329.3, 213.2)">f</text><text xml:space="preserve" font-family="Helvetica-Light,Helvetica" font-size="40.6" fill="#000000" transform="matrix(1.00, 0.00, -0.00, -1.00, 340.6, 213.2)">8</text><text xml:space="preserve" font-family="Helvetica-Light,Helvetica" font-size="40.6" fill="#000000" transform="matrix(1.00, 0.00, -0.00, -1.00, 363.1, 213.2)"> </text><text xml:space="preserve" font-family="Helvetica-Light,Helvetica" font-size="40.6" fill="#000000" transform="matrix(1.00, 0.00, -0.00, -1.00, 374.4, 213.2)">s</text><text xml:space="preserve" font-family="Helvetica-Light,Helvetica" font-size="40.6" fill="#000000" transform="matrix(1.00, 0.00, -0.00, -1.00, 394.7, 213.2)">t</text><text xml:space="preserve" font-family="Helvetica-Light,Helvetica" font-size="40.6" fill="#000000" transform="matrix(1.00, 0.00, -0.00, -1.00, 406.0, 213.2)">r</text><text xml:space="preserve" font-family="Helvetica-Light,Helvetica" font-size="40.6" fill="#000000" transform="matrix(1.00, 0.00, -0.00, -1.00, 419.5, 213.2)"> </text><text xml:space="preserve" font-family="Helvetica-Light,Helvetica" font-size="30.4" fill="#000000" transform="matrix(1.00, 0.00, -0.00, -1.00, 137.0, 122.9)">•</text><text xml:space="preserve" font-family="Helvetica-Light,Helvetica" font-size="40.6" fill="#000000" transform="matrix(1.00, 0.00, -0.00, -1.00, 176.0, 119.2)">U</text><text xml:space="preserve" font-family="Helvetica-Light,Helvetica" font-size="40.6" fill="#000000" transform="matrix(1.00, 0.00, -0.00, -1.00, 205.3, 119.2)">n</text><text xml:space="preserve" font-family="Helvetica-Light,Helvetica" font-size="40.6" fill="#000000" transform="matrix(1.00, 0.00, -0.00, -1.00, 227.8, 119.2)">w</text><text xml:space="preserve" font-family="Helvetica-Light,Helvetica" font-size="40.6" fill="#000000" transform="matrix(1.00, 0.00, -0.00, -1.00, 257.1, 119.2)">i</text><text xml:space="preserve" font-family="Helvetica-Light,Helvetica" font-size="40.6" fill="#000000" transform="matrix(1.00, 0.00, -0.00, -1.00, 266.1, 119.2)">n</text><text xml:space="preserve" font-family="Helvetica-Light,Helvetica" font-size="40.6" fill="#000000" transform="matrix(1.00, 0.00, -0.00, -1.00, 288.7, 119.2)">d</text><text xml:space="preserve" font-family="Helvetica-Light,Helvetica" font-size="40.6" fill="#000000" transform="matrix(1.00, 0.00, -0.00, -1.00, 313.5, 119.2)">i</text><text xml:space="preserve" font-family="Helvetica-Light,Helvetica" font-size="40.6" fill="#000000" transform="matrix(1.00, 0.00, -0.00, -1.00, 322.5, 119.2)">n</text><text xml:space="preserve" font-family="Helvetica-Light,Helvetica" font-size="40.6" fill="#000000" transform="matrix(1.00, 0.00, -0.00, -1.00, 345.0, 119.2)">g</text><text xml:space="preserve" font-family="Helvetica-Light,Helvetica" font-size="40.6" fill="#000000" transform="matrix(1.00, 0.00, -0.00, -1.00, 369.8, 119.2)"> </text><text xml:space="preserve" font-family="Helvetica-Light,Helvetica" font-size="40.6" fill="#000000" transform="matrix(1.00, 0.00, -0.00, -1.00, 381.1, 119.2)">i</text><text xml:space="preserve" font-family="Helvetica-Light,Helvetica" font-size="40.6" fill="#000000" transform="matrix(1.00, 0.00, -0.00, -1.00, 390.1, 119.2)">n</text><text xml:space="preserve" font-family="Helvetica-Light,Helvetica" font-size="40.6" fill="#000000" transform="matrix(1.00, 0.00, -0.00, -1.00, 412.6, 119.2)">t</text><text xml:space="preserve" font-family="Helvetica-Light,Helvetica" font-size="40.6" fill="#000000" transform="matrix(1.00, 0.00, -0.00, -1.00, 423.9, 119.2)">o</text><text xml:space="preserve" font-family="Helvetica-Light,Helvetica" font-size="40.6" fill="#000000" transform="matrix(1.00, 0.00, -0.00, -1.00, 446.5, 119.2)"> </text><text xml:space="preserve" font-family="Helvetica-Light,Helvetica" font-size="40.6" fill="#000000" transform="matrix(1.00, 0.00, -0.00, -1.00, 457.7, 119.2)">a</text><text xml:space="preserve" font-family="Helvetica-Light,Helvetica" font-size="40.6" fill="#000000" transform="matrix(1.00, 0.00, -0.00, -1.00, 480.3, 119.2)">n</text><text xml:space="preserve" font-family="Helvetica-Light,Helvetica" font-size="40.6" fill="#000000" transform="matrix(1.00, 0.00, -0.00, -1.00, 502.8, 119.2)">o</text><text xml:space="preserve" font-family="Helvetica-Light,Helvetica" font-size="40.6" fill="#000000" transform="matrix(1.00, 0.00, -0.00, -1.00, 525.4, 119.2)">t</text><text xml:space="preserve" font-family="Helvetica-Light,Helvetica" font-size="40.6" fill="#000000" transform="matrix(1.00, 0.00, -0.00, -1.00, 536.7, 119.2)">h</text><text xml:space="preserve" font-family="Helvetica-Light,Helvetica" font-size="40.6" fill="#000000" transform="matrix(1.00, 0.00, -0.00, -1.00, 559.2, 119.2)">e</text><text xml:space="preserve" font-family="Helvetica-Light,Helvetica" font-size="40.6" fill="#000000" transform="matrix(1.00, 0.00, -0.00, -1.00, 581.8, 119.2)">r</text><text xml:space="preserve" font-family="Helvetica-Light,Helvetica" font-size="40.6" fill="#000000" transform="matrix(1.00, 0.00, -0.00, -1.00, 595.3, 119.2)"> </text><text xml:space="preserve" font-family="Helvetica-Light,Helvetica" font-size="40.6" fill="#000000" transform="matrix(1.00, 0.00, -0.00, -1.00, 606.5, 119.2)">l</text><text xml:space="preserve" font-family="Helvetica-Light,Helvetica" font-size="40.6" fill="#000000" transform="matrix(1.00, 0.00, -0.00, -1.00, 615.5, 119.2)">a</text><text xml:space="preserve" font-family="Helvetica-Light,Helvetica" font-size="40.6" fill="#000000" transform="matrix(1.00, 0.00, -0.00, -1.00, 638.1, 119.2)">n</text><text xml:space="preserve" font-family="Helvetica-Light,Helvetica" font-size="40.6" fill="#000000" transform="matrix(1.00, 0.00, -0.00, -1.00, 660.7, 119.2)">g</text><text xml:space="preserve" font-family="Helvetica-Light,Helvetica" font-size="40.6" fill="#000000" transform="matrix(1.00, 0.00, -0.00, -1.00, 685.4, 119.2)">u</text><text xml:space="preserve" font-family="Helvetica-Light,Helvetica" font-size="40.6" fill="#000000" transform="matrix(1.00, 0.00, -0.00, -1.00, 708.0, 119.2)">a</text><text xml:space="preserve" font-family="Helvetica-Light,Helvetica" font-size="40.6" fill="#000000" transform="matrix(1.00, 0.00, -0.00, -1.00, 730.5, 119.2)">g</text><text xml:space="preserve" font-family="Helvetica-Light,Helvetica" font-size="40.6" fill="#000000" transform="matrix(1.00, 0.00, -0.00, -1.00, 755.3, 119.2)">e</text></g></svg>