<?xml version="1.0" encoding="UTF-8" standalone="no"?><svg xmlns="http://www.w3.org/2000/svg" xmlns:xlink="http://www.w3.org/1999/xlink" clip-rule="evenodd" stroke-miterlimit="10" viewBox="0 0 1920 1080"><desc>SVG generated by Keynote</desc><defs></defs><g transform="matrix(1.00, 0.00, -0.00, -1.00, 0.0, 1080.0)"><path d="M 0.0 1080.0 L 1920.0 1080.0 L 1920.0 0.0 L 0.0 0.0 Z M 0.0 1080.0 " fill="#FEFFFF"></path><text xml:space="preserve" font-family="Helvetica-Light,Helvetica" font-size="112.0" fill="#000000" transform="matrix(1.00, 0.00, -0.00, -1.00, 436.1, 562.8)">R</text><text xml:space="preserve" font-family="Helvetica-Light,Helvetica" font-size="112.0" fill="#000000" transform="matrix(1.00, 0.00, -0.00, -1.00, 510.8, 562.8)">u</text><text xml:space="preserve" font-family="Helvetica-Light,Helvetica" font-size="112.0" fill="#000000" transform="matrix(1.00, 0.00, -0.00, -1.00, 573.1, 562.8)">s</text><text xml:space="preserve" font-family="Helvetica-Light,Helvetica" font-size="112.0" fill="#000000" transform="matrix(1.00, 0.00, -0.00, -1.00, 629.1, 562.8)">t</text><text xml:space="preserve" font-family="Helvetica-Light,Helvetica" font-size="112.0" fill="#000000" transform="matrix(1.00, 0.00, -0.00, -1.00, 660.2, 562.8)">:</text><text xml:space="preserve" font-family="Helvetica-Light,Helvetica" font-size="112.0" fill="#000000" transform="matrix(1.00, 0.00, -0.00, -1.00, 691.4, 562.8)"> </text><text xml:space="preserve" font-family="Helvetica-Light,Helvetica" font-size="112.0" fill="#000000" transform="matrix(1.00, 0.00, -0.00, -1.00, 722.5, 562.8)">G</text><text xml:space="preserve" font-family="Helvetica-Light,Helvetica" font-size="112.0" fill="#000000" transform="matrix(1.00, 0.00, -0.00, -1.00, 809.6, 562.8)">e</text><text xml:space="preserve" font-family="Helvetica-Light,Helvetica" font-size="112.0" fill="#000000" transform="matrix(1.00, 0.00, -0.00, -1.00, 871.9, 562.8)">t</text><text xml:space="preserve" font-family="Helvetica-Light,Helvetica" font-size="112.0" fill="#000000" transform="matrix(1.00, 0.00, -0.00, -1.00, 903.0, 562.8)">t</text><text xml:space="preserve" font-family="Helvetica-Light,Helvetica" font-size="112.0" fill="#000000" transform="matrix(1.00, 0.00, -0.00, -1.00, 934.2, 562.8)">i</text><text xml:space="preserve" font-family="Helvetica-Light,Helvetica" font-size="112.0" fill="#000000" transform="matrix(1.00, 0.00, -0.00, -1.00, 959.0, 562.8)">n</text><text xml:space="preserve" font-family="Helvetica-Light,Helvetica" font-size="112.0" fill="#000000" transform="matrix(1.00, 0.00, -0.00, -1.00, 1021.3, 562.8)">g</text><text xml:space="preserve" font-family="Helvetica-Light,Helvetica" font-size="112.0" fill="#000000" transform="matrix(1.00, 0.00, -0.00, -1.00, 1089.8, 562.8)"> </text><text xml:space="preserve" font-family="Helvetica-Light,Helvetica" font-size="112.0" fill="#000000" transform="matrix(1.00, 0.00, -0.00, -1.00, 1120.9, 562.8)">S</text><text xml:space="preserve" font-family="Helvetica-Light,Helvetica" font-size="112.0" fill="#000000" transform="matrix(1.00, 0.00, -0.00, -1.00, 1189.3, 562.8)">t</text><text xml:space="preserve" font-family="Helvetica-Light,Helvetica" font-size="112.0" fill="#000000" transform="matrix(1.00, 0.00, -0.00, -1.00, 1220.5, 562.8)">a</text><text xml:space="preserve" font-family="Helvetica-Light,Helvetica" font-size="112.0" fill="#000000" transform="matrix(1.00, 0.00, -0.00, -1.00, 1282.7, 562.8)">r</text><text xml:space="preserve" font-family="Helvetica-Light,Helvetica" font-size="112.0" fill="#000000" transform="matrix(1.00, 0.00, -0.00, -1.00, 1322.0, 562.8)">t</text><text xml:space="preserve" font-family="Helvetica-Light,Helvetica" font-size="112.0" fill="#000000" transform="matrix(1.00, 0.00, -0.00, -1.00, 1353.2, 562.8)">e</text><text xml:space="preserve" font-family="Helvetica-Light,Helvetica" font-size="112.0" fill="#000000" transform="matrix(1.00, 0.00, -0.00, -1.00, 1415.4, 562.8)">d</text><text xml:space="preserve" font-family="Helvetica-Light,Helvetica" font-size="44.0" fill="#000000" transform="matrix(1.00, 0.00, -0.00, -1.00, 386.9, 476.1)">I</text><text xml:space="preserve" font-family="Helvetica-Light,Helvetica" font-size="44.0" fill="#000000" transform="matrix(1.00, 0.00, -0.00, -1.00, 399.2, 476.1)">n</text><text xml:space="preserve" font-family="Helvetica-Light,Helvetica" font-size="44.0" fill="#000000" transform="matrix(1.00, 0.00, -0.00, -1.00, 423.6, 476.1)">s</text><text xml:space="preserve" font-family="Helvetica-Light,Helvetica" font-size="44.0" fill="#000000" transform="matrix(1.00, 0.00, -0.00, -1.00, 445.6, 476.1)">t</text><text xml:space="preserve" font-family="Helvetica-Light,Helvetica" font-size="44.0" fill="#000000" transform="matrix(1.00, 0.00, -0.00, -1.00, 457.9, 476.1)">a</text><text xml:space="preserve" font-family="Helvetica-Light,Helvetica" font-size="44.0" fill="#000000" transform="matrix(1.00, 0.00, -0.00, -1.00, 482.3, 476.1)">l</text><text xml:space="preserve" font-family="Helvetica-Light,Helvetica" font-size="44.0" fill="#000000" transform="matrix(1.00, 0.00, -0.00, -1.00, 492.1, 476.1)">l</text><text xml:space="preserve" font-family="Helvetica-Light,Helvetica" font-size="44.0" fill="#000000" transform="matrix(1.00, 0.00, -0.00, -1.00, 501.9, 476.1)">a</text><text xml:space="preserve" font-family="Helvetica-Light,Helvetica" font-size="44.0" fill="#000000" transform="matrix(1.00, 0.00, -0.00, -1.00, 526.3, 476.1)">t</text><text xml:space="preserve" font-family="Helvetica-Light,Helvetica" font-size="44.0" fill="#000000" transform="matrix(1.00, 0.00, -0.00, -1.00, 538.6, 476.1)">i</text><text xml:space="preserve" font-family="Helvetica-Light,Helvetica" font-size="44.0" fill="#000000" transform="matrix(1.00, 0.00, -0.00, -1.00, 548.3, 476.1)">o</text><text xml:space="preserve" font-family="Helvetica-Light,Helvetica" font-size="44.0" fill="#000000" transform="matrix(1.00, 0.00, -0.00, -1.00, 572.8, 476.1)">n</text><text xml:space="preserve" font-family="Helvetica-Light,Helvetica" font-size="44.0" fill="#000000" transform="matrix(1.00, 0.00, -0.00, -1.00, 597.3, 476.1)">,</text><text xml:space="preserve" font-family="Helvetica-Light,Helvetica" font-size="44.0" fill="#000000" transform="matrix(1.00, 0.00, -0.00, -1.00, 609.5, 476.1)"> </text><text xml:space="preserve" font-family="Helvetica-Light,Helvetica" font-size="44.0" fill="#000000" transform="matrix(1.00, 0.00, -0.00, -1.00, 621.7, 476.1)">s</text><text xml:space="preserve" font-family="Helvetica-Light,Helvetica" font-size="44.0" fill="#000000" transform="matrix(1.00, 0.00, -0.00, -1.00, 643.7, 476.1)">e</text><text xml:space="preserve" font-family="Helvetica-Light,Helvetica" font-size="44.0" fill="#000000" transform="matrix(1.00, 0.00, -0.00, -1.00, 668.2, 476.1)">t</text><text xml:space="preserve" font-family="Helvetica-Light,Helvetica" font-size="44.0" fill="#000000" transform="matrix(1.00, 0.00, -0.00, -1.00, 680.4, 476.1)">t</text><text xml:space="preserve" font-family="Helvetica-Light,Helvetica" font-size="44.0" fill="#000000" transform="matrix(1.00, 0.00, -0.00, -1.00, 692.7, 476.1)">i</text><text xml:space="preserve" font-family="Helvetica-Light,Helvetica" font-size="44.0" fill="#000000" transform="matrix(1.00, 0.00, -0.00, -1.00, 702.4, 476.1)">n</text><text xml:space="preserve" font-family="Helvetica-Light,Helvetica" font-size="44.0" fill="#000000" transform="matrix(1.00, 0.00, -0.00, -1.00, 726.9, 476.1)">g</text><text xml:space="preserve" font-family="Helvetica-Light,Helvetica" font-size="44.0" fill="#000000" transform="matrix(1.00, 0.00, -0.00, -1.00, 753.8, 476.1)"> </text><text xml:space="preserve" font-family="Helvetica-Light,Helvetica" font-size="44.0" fill="#000000" transform="matrix(1.00, 0.00, -0.00, -1.00, 766.0, 476.1)">u</text><text xml:space="preserve" font-family="Helvetica-Light,Helvetica" font-size="44.0" fill="#000000" transform="matrix(1.00, 0.00, -0.00, -1.00, 790.5, 476.1)">p</text><text xml:space="preserve" font-family="Helvetica-Light,Helvetica" font-size="44.0" fill="#000000" transform="matrix(1.00, 0.00, -0.00, -1.00, 817.4, 476.1)"> </text><text xml:space="preserve" font-family="Helvetica-Light,Helvetica" font-size="44.0" fill="#000000" transform="matrix(1.00, 0.00, -0.00, -1.00, 829.6, 476.1)">p</text><text xml:space="preserve" font-family="Helvetica-Light,Helvetica" font-size="44.0" fill="#000000" transform="matrix(1.00, 0.00, -0.00, -1.00, 856.5, 476.1)">r</text><text xml:space="preserve" font-family="Helvetica-Light,Helvetica" font-size="44.0" fill="#000000" transform="matrix(1.00, 0.00, -0.00, -1.00, 870.3, 476.1)">o</text><text xml:space="preserve" font-family="Helvetica-Light,Helvetica" font-size="44.0" fill="#000000" transform="matrix(1.00, 0.00, -0.00, -1.00, 894.8, 476.1)">j</text><text xml:space="preserve" font-family="Helvetica-Light,Helvetica" font-size="44.0" fill="#000000" transform="matrix(1.00, 0.00, -0.00, -1.00, 904.6, 476.1)">e</text><text xml:space="preserve" font-family="Helvetica-Light,Helvetica" font-size="44.0" fill="#000000" transform="matrix(1.00, 0.00, -0.00, -1.00, 929.0, 476.1)">c</text><text xml:space="preserve" font-family="Helvetica-Light,Helvetica" font-size="44.0" fill="#000000" transform="matrix(1.00, 0.00, -0.00, -1.00, 953.5, 476.1)">t</text><text xml:space="preserve" font-family="Helvetica-Light,Helvetica" font-size="44.0" fill="#000000" transform="matrix(1.00, 0.00, -0.00, -1.00, 965.7, 476.1)">,</text><text xml:space="preserve" font-family="Helvetica-Light,Helvetica" font-size="44.0" fill="#000000" transform="matrix(1.00, 0.00, -0.00, -1.00, 978.0, 476.1)"> </text><text xml:space="preserve" font-family="Helvetica-Light,Helvetica" font-size="44.0" fill="#000000" transform="matrix(1.00, 0.00, -0.00, -1.00, 990.2, 476.1)">h</text><text xml:space="preserve" font-family="Helvetica-Light,Helvetica" font-size="44.0" fill="#000000" transform="matrix(1.00, 0.00, -0.00, -1.00, 1014.6, 476.1)">e</text><text xml:space="preserve" font-family="Helvetica-Light,Helvetica" font-size="44.0" fill="#000000" transform="matrix(1.00, 0.00, -0.00, -1.00, 1039.1, 476.1)">l</text><text xml:space="preserve" font-family="Helvetica-Light,Helvetica" font-size="44.0" fill="#000000" transform="matrix(1.00, 0.00, -0.00, -1.00, 1048.9, 476.1)">l</text><text xml:space="preserve" font-family="Helvetica-Light,Helvetica" font-size="44.0" fill="#000000" transform="matrix(1.00, 0.00, -0.00, -1.00, 1058.6, 476.1)">o</text><text xml:space="preserve" font-family="Helvetica-Light,Helvetica" font-size="44.0" fill="#000000" transform="matrix(1.00, 0.00, -0.00, -1.00, 1083.1, 476.1)"> </text><text xml:space="preserve" font-family="Helvetica-Light,Helvetica" font-size="44.0" fill="#000000" transform="matrix(1.00, 0.00, -0.00, -1.00, 1095.3, 476.1)">w</text><text xml:space="preserve" font-family="Helvetica-Light,Helvetica" font-size="44.0" fill="#000000" transform="matrix(1.00, 0.00, -0.00, -1.00, 1127.1, 476.1)">o</text><text xml:space="preserve" font-family="Helvetica-Light,Helvetica" font-size="44.0" fill="#000000" transform="matrix(1.00, 0.00, -0.00, -1.00, 1151.6, 476.1)">r</text><text xml:space="preserve" font-family="Helvetica-Light,Helvetica" font-size="44.0" fill="#000000" transform="matrix(1.00, 0.00, -0.00, -1.00, 1166.2, 476.1)">l</text><text xml:space="preserve" font-family="Helvetica-Light,Helvetica" font-size="44.0" fill="#000000" transform="matrix(1.00, 0.00, -0.00, -1.00, 1176.0, 476.1)">d</text><text xml:space="preserve" font-family="Helvetica-Light,Helvetica" font-size="44.0" fill="#000000" transform="matrix(1.00, 0.00, -0.00, -1.00, 1202.9, 476.1)"> </text><text xml:space="preserve" font-family="Helvetica-Light,Helvetica" font-size="44.0" fill="#000000" transform="matrix(1.00, 0.00, -0.00, -1.00, 1215.1, 476.1)">a</text><text xml:space="preserve" font-family="Helvetica-Light,Helvetica" font-size="44.0" fill="#000000" transform="matrix(1.00, 0.00, -0.00, -1.00, 1239.6, 476.1)">n</text><text xml:space="preserve" font-family="Helvetica-Light,Helvetica" font-size="44.0" fill="#000000" transform="matrix(1.00, 0.00, -0.00, -1.00, 1264.0, 476.1)">d</text><text xml:space="preserve" font-family="Helvetica-Light,Helvetica" font-size="44.0" fill="#000000" transform="matrix(1.00, 0.00, -0.00, -1.00, 1290.9, 476.1)"> </text><text xml:space="preserve" font-family="Helvetica-Light,Helvetica" font-size="44.0" fill="#000000" transform="matrix(1.00, 0.00, -0.00, -1.00, 1303.2, 476.1)">a</text><text xml:space="preserve" font-family="Helvetica-Light,Helvetica" font-size="44.0" fill="#000000" transform="matrix(1.00, 0.00, -0.00, -1.00, 1327.6, 476.1)"> </text><text xml:space="preserve" font-family="Helvetica-Light,Helvetica" font-size="44.0" fill="#000000" transform="matrix(1.00, 0.00, -0.00, -1.00, 1339.9, 476.1)">c</text><text xml:space="preserve" font-family="Helvetica-Light,Helvetica" font-size="44.0" fill="#000000" transform="matrix(1.00, 0.00, -0.00, -1.00, 1364.3, 476.1)">h</text><text xml:space="preserve" font-family="Helvetica-Light,Helvetica" font-size="44.0" fill="#000000" transform="matrix(1.00, 0.00, -0.00, -1.00, 1388.8, 476.1)">a</text><text xml:space="preserve" font-family="Helvetica-Light,Helvetica" font-size="44.0" fill="#000000" transform="matrix(1.00, 0.00, -0.00, -1.00, 1413.2, 476.1)">l</text><text xml:space="preserve" font-family="Helvetica-Light,Helvetica" font-size="44.0" fill="#000000" transform="matrix(1.00, 0.00, -0.00, -1.00, 1423.0, 476.1)">l</text><text xml:space="preserve" font-family="Helvetica-Light,Helvetica" font-size="44.0" fill="#000000" transform="matrix(1.00, 0.00, -0.00, -1.00, 1432.8, 476.1)">e</text><text xml:space="preserve" font-family="Helvetica-Light,Helvetica" font-size="44.0" fill="#000000" transform="matrix(1.00, 0.00, -0.00, -1.00, 1457.2, 476.1)">n</text><text xml:space="preserve" font-family="Helvetica-Light,Helvetica" font-size="44.0" fill="#000000" transform="matrix(1.00, 0.00, -0.00, -1.00, 1481.7, 476.1)">g</text><text xml:space="preserve" font-family="Helvetica-Light,Helvetica" font-size="44.0" fill="#000000" transform="matrix(1.00, 0.00, -0.00, -1.00, 1508.6, 476.1)">e</text><text xml:space="preserve" font-family="Helvetica-Light,Helvetica" font-size="44.0" fill="#000000" transform="matrix(1.00, 0.00, -0.00, -1.00, 1533.1, 476.1)"> </text><text xml:space="preserve" font-family="Helvetica-Light,Helvetica" font-size="44.0" fill="#000000" transform="matrix(1.00, 0.00, -0.00, -1.00, 515.4, 423.1)">J</text><text xml:space="preserve" font-family="Helvetica-Light,Helvetica" font-size="44.0" fill="#000000" transform="matrix(1.00, 0.00, -0.00, -1.00, 537.4, 423.1)">a</text><text xml:space="preserve" font-family="Helvetica-Light,Helvetica" font-size="44.0" fill="#000000" transform="matrix(1.00, 0.00, -0.00, -1.00, 561.8, 423.1)">k</text><text xml:space="preserve" font-family="Helvetica-Light,Helvetica" font-size="44.0" fill="#000000" transform="matrix(1.00, 0.00, -0.00, -1.00, 583.8, 423.1)">u</text><text xml:space="preserve" font-family="Helvetica-Light,Helvetica" font-size="44.0" fill="#000000" transform="matrix(1.00, 0.00, -0.00, -1.00, 608.3, 423.1)">b</text><text xml:space="preserve" font-family="Helvetica-Light,Helvetica" font-size="44.0" fill="#000000" transform="matrix(1.00, 0.00, -0.00, -1.00, 635.2, 423.1)"> </text><text xml:space="preserve" font-family="Helvetica-Light,Helvetica" font-size="44.0" fill="#000000" transform="matrix(1.00, 0.00, -0.00, -1.00, 647.4, 423.1)">P</text><text xml:space="preserve" font-family="Helvetica-Light,Helvetica" font-size="44.0" fill="#000000" transform="matrix(1.00, 0.00, -0.00, -1.00, 674.3, 423.1)">a</text><text xml:space="preserve" font-family="Helvetica-Light,Helvetica" font-size="44.0" fill="#000000" transform="matrix(1.00, 0.00, -0.00, -1.00, 698.8, 423.1)">s</text><text xml:space="preserve" font-family="Helvetica-Light,Helvetica" font-size="44.0" fill="#000000" transform="matrix(1.00, 0.00, -0.00, -1.00, 720.8, 423.1)">t</text><text xml:space="preserve" font-family="Helvetica-Light,Helvetica" font-size="44.0" fill="#000000" transform="matrix(1.00, 0.00, -0.00, -1.00, 733.0, 423.1)">u</text><text xml:space="preserve" font-family="Helvetica-Light,Helvetica" font-size="44.0" fill="#000000" transform="matrix(1.00, 0.00, -0.00, -1.00, 757.5, 423.1)">s</text><text xml:space="preserve" font-family="Helvetica-Light,Helvetica" font-size="44.0" fill="#000000" transform="matrix(1.00, 0.00, -0.00, -1.00, 779.5, 423.1)">z</text><text xml:space="preserve" font-family="Helvetica-Light,Helvetica" font-size="44.0" fill="#000000" transform="matrix(1.00, 0.00, -0.00, -1.00, 801.5, 423.1)">e</text><text xml:space="preserve" font-family="Helvetica-Light,Helvetica" font-size="44.0" fill="#000000" transform="matrix(1.00, 0.00, -0.00, -1.00, 825.9, 423.1)">k</text><text xml:space="preserve" font-family="Helvetica-Light,Helvetica" font-size="44.0" fill="#000000" transform="matrix(1.00, 0.00, -0.00, -1.00, 847.9, 423.1)"> </text><text xml:space="preserve" font-family="Helvetica-Light,Helvetica" font-size="44.0" fill="#000000" transform="matrix(1.00, 0.00, -0.00, -1.00, 860.2, 423.1)">D</text><text xml:space="preserve" font-family="Helvetica-Light,Helvetica" font-size="44.0" fill="#000000" transform="matrix(1.00, 0.00, -0.00, -1.00, 891.9, 423.1)">u</text><text xml:space="preserve" font-family="Helvetica-Light,Helvetica" font-size="44.0" fill="#000000" transform="matrix(1.00, 0.00, -0.00, -1.00, 916.4, 423.1)">b</text><text xml:space="preserve" font-family="Helvetica-Light,Helvetica" font-size="44.0" fill="#000000" transform="matrix(1.00, 0.00, -0.00, -1.00, 943.3, 423.1)">l</text><text xml:space="preserve" font-family="Helvetica-Light,Helvetica" font-size="44.0" fill="#000000" transform="matrix(1.00, 0.00, -0.00, -1.00, 953.0, 423.1)">i</text><text xml:space="preserve" font-family="Helvetica-Light,Helvetica" font-size="44.0" fill="#000000" transform="matrix(1.00, 0.00, -0.00, -1.00, 962.8, 423.1)">n</text><text xml:space="preserve" font-family="Helvetica-Light,Helvetica" font-size="44.0" fill="#000000" transform="matrix(1.00, 0.00, -0.00, -1.00, 987.3, 423.1)"> </text><text xml:space="preserve" font-family="Helvetica-Light,Helvetica" font-size="44.0" fill="#000000" transform="matrix(1.00, 0.00, -0.00, -1.00, 999.5, 423.1)">3</text><text xml:space="preserve" font-family="Helvetica-Light,Helvetica" font-size="44.0" fill="#000000" transform="matrix(1.00, 0.00, -0.00, -1.00, 1024.0, 423.1)">r</text><text xml:space="preserve" font-family="Helvetica-Light,Helvetica" font-size="44.0" fill="#000000" transform="matrix(1.00, 0.00, -0.00, -1.00, 1037.8, 423.1)">d</text><text xml:space="preserve" font-family="Helvetica-Light,Helvetica" font-size="44.0" fill="#000000" transform="matrix(1.00, 0.00, -0.00, -1.00, 1064.7, 423.1)"> </text><text xml:space="preserve" font-family="Helvetica-Light,Helvetica" font-size="44.0" fill="#000000" transform="matrix(1.00, 0.00, -0.00, -1.00, 1077.0, 423.1)">S</text><text xml:space="preserve" font-family="Helvetica-Light,Helvetica" font-size="44.0" fill="#000000" transform="matrix(1.00, 0.00, -0.00, -1.00, 1103.8, 423.1)">e</text><text xml:space="preserve" font-family="Helvetica-Light,Helvetica" font-size="44.0" fill="#000000" transform="matrix(1.00, 0.00, -0.00, -1.00, 1128.3, 423.1)">p</text><text xml:space="preserve" font-family="Helvetica-Light,Helvetica" font-size="44.0" fill="#000000" transform="matrix(1.00, 0.00, -0.00, -1.00, 1155.2, 423.1)">t</text><text xml:space="preserve" font-family="Helvetica-Light,Helvetica" font-size="44.0" fill="#000000" transform="matrix(1.00, 0.00, -0.00, -1.00, 1167.4, 423.1)">e</text><text xml:space="preserve" font-family="Helvetica-Light,Helvetica" font-size="44.0" fill="#000000" transform="matrix(1.00, 0.00, -0.00, -1.00, 1191.9, 423.1)">m</text><text xml:space="preserve" font-family="Helvetica-Light,Helvetica" font-size="44.0" fill="#000000" transform="matrix(1.00, 0.00, -0.00, -1.00, 1228.5, 423.1)">b</text><text xml:space="preserve" font-family="Helvetica-Light,Helvetica" font-size="44.0" fill="#000000" transform="matrix(1.00, 0.00, -0.00, -1.00, 1255.4, 423.1)">e</text><text xml:space="preserve" font-family="Helvetica-Light,Helvetica" font-size="44.0" fill="#000000" transform="matrix(1.00, 0.00, -0.00, -1.00, 1279.9, 423.1)">r</text><text xml:space="preserve" font-family="Helvetica-Light,Helvetica" font-size="44.0" fill="#000000" transform="matrix(1.00, 0.00, -0.00, -1.00, 1294.5, 423.1)"> </text><text xml:space="preserve" font-family="Helvetica-Light,Helvetica" font-size="44.0" fill="#000000" transform="matrix(1.00, 0.00, -0.00, -1.00, 1306.8, 423.1)">2</text><text xml:space="preserve" font-family="Helvetica-Light,Helvetica" font-size="44.0" fill="#000000" transform="matrix(1.00, 0.00, -0.00, -1.00, 1331.2, 423.1)">0</text><text xml:space="preserve" font-family="Helvetica-Light,Helvetica" font-size="44.0" fill="#000000" transform="matrix(1.00, 0.00, -0.00, -1.00, 1355.7, 423.1)">1</text><text xml:space="preserve" font-family="Helvetica-Light,Helvetica" font-size="44.0" fill="#000000" transform="matrix(1.00, 0.00, -0.00, -1.00, 1380.2, 423.1)">5</text></g></svg>