<?xml version="1.0" encoding="UTF-8" standalone="no"?><svg xmlns="http://www.w3.org/2000/svg" xmlns:xlink="http://www.w3.org/1999/xlink" clip-rule="evenodd" stroke-miterlimit="4.00" viewBox="0 0 1920 1080"><desc>SVG generated by Keynote</desc><defs></defs><g transform="matrix(1.00, 0.00, -0.00, -1.00, 0.0, 1080.0)"><path d="M 0.0 1080.0 L 1920.0 1080.0 L 1920.0 0.0 L 0.0 0.0 Z M 0.0 1080.0 " fill="#F4F4F4"></path><text xml:space="preserve" font-family="Helvetica-Light" font-size="112.0" fill="#000000" transform="matrix(1.00, 0.00, -0.00, -1.00, 767.0, 874.0)">R</text><text xml:space="preserve" font-family="Helvetica-Light" font-size="112.0" fill="#000000" transform="matrix(1.00, 0.00, -0.00, -1.00, 841.7, 874.0)">a</text><text xml:space="preserve" font-family="Helvetica-Light" font-size="112.0" fill="#000000" transform="matrix(1.00, 0.00, -0.00, -1.00, 904.0, 874.0)">n</text><text xml:space="preserve" font-family="Helvetica-Light" font-size="112.0" fill="#000000" transform="matrix(1.00, 0.00, -0.00, -1.00, 966.2, 874.0)">g</text><text xml:space="preserve" font-family="Helvetica-Light" font-size="112.0" fill="#000000" transform="matrix(1.00, 0.00, -0.00, -1.00, 1034.7, 874.0)">e</text><text xml:space="preserve" font-family="Helvetica-Light" font-size="112.0" fill="#000000" transform="matrix(1.00, 0.00, -0.00, -1.00, 1097.0, 874.0)">s</text><text xml:space="preserve" font-family="Helvetica-Light" font-size="35.9" fill="#000000" transform="matrix(1.00, 0.00, -0.00, -1.00, 137.0, 777.8)">•</text><text xml:space="preserve" font-family="Helvetica-Light" font-size="47.8" fill="#000000" transform="matrix(1.00, 0.00, -0.00, -1.00, 183.0, 773.0)">t</text><text xml:space="preserve" font-family="Helvetica-Light" font-size="47.8" fill="#000000" transform="matrix(1.00, 0.00, -0.00, -1.00, 196.3, 773.0)">h</text><text xml:space="preserve" font-family="Helvetica-Light" font-size="47.8" fill="#000000" transform="matrix(1.00, 0.00, -0.00, -1.00, 222.9, 773.0)">e</text><text xml:space="preserve" font-family="Helvetica-Light" font-size="47.8" fill="#000000" transform="matrix(1.00, 0.00, -0.00, -1.00, 249.5, 773.0)">r</text><text xml:space="preserve" font-family="Helvetica-Light" font-size="47.8" fill="#000000" transform="matrix(1.00, 0.00, -0.00, -1.00, 264.6, 773.0)">e</text><text xml:space="preserve" font-family="Helvetica-Light" font-size="47.8" fill="#000000" transform="matrix(1.00, 0.00, -0.00, -1.00, 291.2, 773.0)"> </text><text xml:space="preserve" font-family="Helvetica-Light" font-size="47.8" fill="#000000" transform="matrix(1.00, 0.00, -0.00, -1.00, 304.5, 773.0)">a</text><text xml:space="preserve" font-family="Helvetica-Light" font-size="47.8" fill="#000000" transform="matrix(1.00, 0.00, -0.00, -1.00, 331.1, 773.0)">r</text><text xml:space="preserve" font-family="Helvetica-Light" font-size="47.8" fill="#000000" transform="matrix(1.00, 0.00, -0.00, -1.00, 346.1, 773.0)">e</text><text xml:space="preserve" font-family="Helvetica-Light" font-size="47.8" fill="#000000" transform="matrix(1.00, 0.00, -0.00, -1.00, 372.7, 773.0)"> </text><text xml:space="preserve" font-family="Helvetica-Light" font-size="47.8" fill="#000000" transform="matrix(1.00, 0.00, -0.00, -1.00, 386.0, 773.0)">t</text><text xml:space="preserve" font-family="Helvetica-Light" font-size="47.8" fill="#000000" transform="matrix(1.00, 0.00, -0.00, -1.00, 399.3, 773.0)">h</text><text xml:space="preserve" font-family="Helvetica-Light" font-size="47.8" fill="#000000" transform="matrix(1.00, 0.00, -0.00, -1.00, 425.9, 773.0)">r</text><text xml:space="preserve" font-family="Helvetica-Light" font-size="47.8" fill="#000000" transform="matrix(1.00, 0.00, -0.00, -1.00, 441.0, 773.0)">e</text><text xml:space="preserve" font-family="Helvetica-Light" font-size="47.8" fill="#000000" transform="matrix(1.00, 0.00, -0.00, -1.00, 467.6, 773.0)">e</text><text xml:space="preserve" font-family="Helvetica-Light" font-size="47.8" fill="#000000" transform="matrix(1.00, 0.00, -0.00, -1.00, 494.2, 773.0)"> </text><text xml:space="preserve" font-family="Helvetica-Light" font-size="47.8" fill="#000000" transform="matrix(1.00, 0.00, -0.00, -1.00, 507.5, 773.0)">t</text><text xml:space="preserve" font-family="Helvetica-Light" font-size="47.8" fill="#000000" transform="matrix(1.00, 0.00, -0.00, -1.00, 520.8, 773.0)">y</text><text xml:space="preserve" font-family="Helvetica-Light" font-size="47.8" fill="#000000" transform="matrix(1.00, 0.00, -0.00, -1.00, 544.7, 773.0)">p</text><text xml:space="preserve" font-family="Helvetica-Light" font-size="47.8" fill="#000000" transform="matrix(1.00, 0.00, -0.00, -1.00, 573.9, 773.0)">e</text><text xml:space="preserve" font-family="Helvetica-Light" font-size="47.8" fill="#000000" transform="matrix(1.00, 0.00, -0.00, -1.00, 600.5, 773.0)">s</text><text xml:space="preserve" font-family="Helvetica-Light" font-size="47.8" fill="#000000" transform="matrix(1.00, 0.00, -0.00, -1.00, 624.5, 773.0)"> </text><text xml:space="preserve" font-family="Helvetica-Light" font-size="47.8" fill="#000000" transform="matrix(1.00, 0.00, -0.00, -1.00, 637.8, 773.0)">o</text><text xml:space="preserve" font-family="Helvetica-Light" font-size="47.8" fill="#000000" transform="matrix(1.00, 0.00, -0.00, -1.00, 664.4, 773.0)">f</text><text xml:space="preserve" font-family="Helvetica-Light" font-size="47.8" fill="#000000" transform="matrix(1.00, 0.00, -0.00, -1.00, 677.7, 773.0)"> </text><text xml:space="preserve" font-family="Helvetica-Light" font-size="47.8" fill="#000000" transform="matrix(1.00, 0.00, -0.00, -1.00, 691.0, 773.0)">r</text><text xml:space="preserve" font-family="Helvetica-Light" font-size="47.8" fill="#000000" transform="matrix(1.00, 0.00, -0.00, -1.00, 706.9, 773.0)">a</text><text xml:space="preserve" font-family="Helvetica-Light" font-size="47.8" fill="#000000" transform="matrix(1.00, 0.00, -0.00, -1.00, 733.5, 773.0)">n</text><text xml:space="preserve" font-family="Helvetica-Light" font-size="47.8" fill="#000000" transform="matrix(1.00, 0.00, -0.00, -1.00, 760.1, 773.0)">g</text><text xml:space="preserve" font-family="Helvetica-Light" font-size="47.8" fill="#000000" transform="matrix(1.00, 0.00, -0.00, -1.00, 789.3, 773.0)">e</text><text xml:space="preserve" font-family="Helvetica-Light" font-size="47.8" fill="#000000" transform="matrix(1.00, 0.00, -0.00, -1.00, 815.9, 773.0)">s</text><text xml:space="preserve" font-family="Helvetica-Light" font-size="47.8" fill="#000000" transform="matrix(1.00, 0.00, -0.00, -1.00, 839.8, 773.0)">:</text><text xml:space="preserve" font-family="Helvetica-Light" font-size="47.8" fill="#000000" transform="matrix(1.00, 0.00, -0.00, -1.00, 853.1, 773.0)"> </text><text xml:space="preserve" font-family="Helvetica-Light" font-size="35.9" fill="#000000" transform="matrix(1.00, 0.00, -0.00, -1.00, 187.0, 671.9)">•</text><text xml:space="preserve" font-family="PragmataPro" font-size="47.8" fill="#000000" transform="matrix(1.00, 0.00, -0.00, -1.00, 233.0, 667.0)">a</text><text xml:space="preserve" font-family="PragmataPro" font-size="47.8" fill="#000000" transform="matrix(1.00, 0.00, -0.00, -1.00, 257.7, 667.0)">.</text><text xml:space="preserve" font-family="PragmataPro" font-size="47.8" fill="#000000" transform="matrix(1.00, 0.00, -0.00, -1.00, 282.5, 667.0)">.</text><text xml:space="preserve" font-family="PragmataPro" font-size="47.8" fill="#000000" transform="matrix(1.00, 0.00, -0.00, -1.00, 307.2, 667.0)">b</text><text xml:space="preserve" font-family="Helvetica-Light" font-size="47.8" fill="#000000" transform="matrix(1.00, 0.00, -0.00, -1.00, 332.0, 667.0)"> </text><text xml:space="preserve" font-family="Helvetica-Light" font-size="47.8" fill="#000000" transform="matrix(1.00, 0.00, -0.00, -1.00, 345.3, 667.0)">-</text><text xml:space="preserve" font-family="Helvetica-Light" font-size="47.8" fill="#000000" transform="matrix(1.00, 0.00, -0.00, -1.00, 361.3, 667.0)"> </text><text xml:space="preserve" font-family="Helvetica-Light" font-size="47.8" fill="#000000" transform="matrix(1.00, 0.00, -0.00, -1.00, 374.6, 667.0)">w</text><text xml:space="preserve" font-family="Helvetica-Light" font-size="47.8" fill="#000000" transform="matrix(1.00, 0.00, -0.00, -1.00, 409.1, 667.0)">i</text><text xml:space="preserve" font-family="Helvetica-Light" font-size="47.8" fill="#000000" transform="matrix(1.00, 0.00, -0.00, -1.00, 419.7, 667.0)">t</text><text xml:space="preserve" font-family="Helvetica-Light" font-size="47.8" fill="#000000" transform="matrix(1.00, 0.00, -0.00, -1.00, 433.0, 667.0)">h</text><text xml:space="preserve" font-family="Helvetica-Light" font-size="47.8" fill="#000000" transform="matrix(1.00, 0.00, -0.00, -1.00, 459.6, 667.0)"> </text><text xml:space="preserve" font-family="Helvetica-Light" font-size="47.8" fill="#000000" transform="matrix(1.00, 0.00, -0.00, -1.00, 472.9, 667.0)">s</text><text xml:space="preserve" font-family="Helvetica-Light" font-size="47.8" fill="#000000" transform="matrix(1.00, 0.00, -0.00, -1.00, 496.9, 667.0)">t</text><text xml:space="preserve" font-family="Helvetica-Light" font-size="47.8" fill="#000000" transform="matrix(1.00, 0.00, -0.00, -1.00, 510.2, 667.0)">a</text><text xml:space="preserve" font-family="Helvetica-Light" font-size="47.8" fill="#000000" transform="matrix(1.00, 0.00, -0.00, -1.00, 536.8, 667.0)">r</text><text xml:space="preserve" font-family="Helvetica-Light" font-size="47.8" fill="#000000" transform="matrix(1.00, 0.00, -0.00, -1.00, 553.5, 667.0)">t</text><text xml:space="preserve" font-family="Helvetica-Light" font-size="47.8" fill="#000000" transform="matrix(1.00, 0.00, -0.00, -1.00, 566.8, 667.0)"> </text><text xml:space="preserve" font-family="Helvetica-Light" font-size="47.8" fill="#000000" transform="matrix(1.00, 0.00, -0.00, -1.00, 580.1, 667.0)">a</text><text xml:space="preserve" font-family="Helvetica-Light" font-size="47.8" fill="#000000" transform="matrix(1.00, 0.00, -0.00, -1.00, 606.7, 667.0)">n</text><text xml:space="preserve" font-family="Helvetica-Light" font-size="47.8" fill="#000000" transform="matrix(1.00, 0.00, -0.00, -1.00, 633.3, 667.0)">d</text><text xml:space="preserve" font-family="Helvetica-Light" font-size="47.8" fill="#000000" transform="matrix(1.00, 0.00, -0.00, -1.00, 662.6, 667.0)"> </text><text xml:space="preserve" font-family="Helvetica-Light" font-size="47.8" fill="#000000" transform="matrix(1.00, 0.00, -0.00, -1.00, 675.9, 667.0)">e</text><text xml:space="preserve" font-family="Helvetica-Light" font-size="47.8" fill="#000000" transform="matrix(1.00, 0.00, -0.00, -1.00, 702.5, 667.0)">n</text><text xml:space="preserve" font-family="Helvetica-Light" font-size="47.8" fill="#000000" transform="matrix(1.00, 0.00, -0.00, -1.00, 729.1, 667.0)">d</text><text xml:space="preserve" font-family="Helvetica-Light" font-size="47.8" fill="#000000" transform="matrix(1.00, 0.00, -0.00, -1.00, 758.3, 667.0)"> </text><text xml:space="preserve" font-family="Helvetica-Light" font-size="47.8" fill="#000000" transform="matrix(1.00, 0.00, -0.00, -1.00, 771.6, 667.0)">i</text><text xml:space="preserve" font-family="Helvetica-Light" font-size="47.8" fill="#000000" transform="matrix(1.00, 0.00, -0.00, -1.00, 782.2, 667.0)">n</text><text xml:space="preserve" font-family="Helvetica-Light" font-size="47.8" fill="#000000" transform="matrix(1.00, 0.00, -0.00, -1.00, 808.8, 667.0)">d</text><text xml:space="preserve" font-family="Helvetica-Light" font-size="47.8" fill="#000000" transform="matrix(1.00, 0.00, -0.00, -1.00, 838.0, 667.0)">e</text><text xml:space="preserve" font-family="Helvetica-Light" font-size="47.8" fill="#000000" transform="matrix(1.00, 0.00, -0.00, -1.00, 864.6, 667.0)">x</text><text xml:space="preserve" font-family="Helvetica-Light" font-size="47.8" fill="#000000" transform="matrix(1.00, 0.00, -0.00, -1.00, 888.6, 667.0)"> </text><text xml:space="preserve" font-family="Helvetica-Light" font-size="35.9" fill="#000000" transform="matrix(1.00, 0.00, -0.00, -1.00, 187.0, 566.1)">•</text><text xml:space="preserve" font-family="PragmataPro" font-size="47.8" fill="#000000" transform="matrix(1.00, 0.00, -0.00, -1.00, 233.0, 561.0)">.</text><text xml:space="preserve" font-family="PragmataPro" font-size="47.8" fill="#000000" transform="matrix(1.00, 0.00, -0.00, -1.00, 257.7, 561.0)">.</text><text xml:space="preserve" font-family="PragmataPro" font-size="47.8" fill="#000000" transform="matrix(1.00, 0.00, -0.00, -1.00, 282.5, 561.0)">b</text><text xml:space="preserve" font-family="Helvetica-Light" font-size="47.8" fill="#000000" transform="matrix(1.00, 0.00, -0.00, -1.00, 307.3, 561.0)"> </text><text xml:space="preserve" font-family="Helvetica-Light" font-size="47.8" fill="#000000" transform="matrix(1.00, 0.00, -0.00, -1.00, 320.6, 561.0)">-</text><text xml:space="preserve" font-family="Helvetica-Light" font-size="47.8" fill="#000000" transform="matrix(1.00, 0.00, -0.00, -1.00, 336.5, 561.0)"> </text><text xml:space="preserve" font-family="Helvetica-Light" font-size="47.8" fill="#000000" transform="matrix(1.00, 0.00, -0.00, -1.00, 349.8, 561.0)">w</text><text xml:space="preserve" font-family="Helvetica-Light" font-size="47.8" fill="#000000" transform="matrix(1.00, 0.00, -0.00, -1.00, 384.4, 561.0)">i</text><text xml:space="preserve" font-family="Helvetica-Light" font-size="47.8" fill="#000000" transform="matrix(1.00, 0.00, -0.00, -1.00, 395.0, 561.0)">t</text><text xml:space="preserve" font-family="Helvetica-Light" font-size="47.8" fill="#000000" transform="matrix(1.00, 0.00, -0.00, -1.00, 408.3, 561.0)">h</text><text xml:space="preserve" font-family="Helvetica-Light" font-size="47.8" fill="#000000" transform="matrix(1.00, 0.00, -0.00, -1.00, 434.9, 561.0)">o</text><text xml:space="preserve" font-family="Helvetica-Light" font-size="47.8" fill="#000000" transform="matrix(1.00, 0.00, -0.00, -1.00, 461.5, 561.0)">u</text><text xml:space="preserve" font-family="Helvetica-Light" font-size="47.8" fill="#000000" transform="matrix(1.00, 0.00, -0.00, -1.00, 488.1, 561.0)">t</text><text xml:space="preserve" font-family="Helvetica-Light" font-size="47.8" fill="#000000" transform="matrix(1.00, 0.00, -0.00, -1.00, 501.4, 561.0)"> </text><text xml:space="preserve" font-family="Helvetica-Light" font-size="47.8" fill="#000000" transform="matrix(1.00, 0.00, -0.00, -1.00, 514.7, 561.0)">s</text><text xml:space="preserve" font-family="Helvetica-Light" font-size="47.8" fill="#000000" transform="matrix(1.00, 0.00, -0.00, -1.00, 538.6, 561.0)">t</text><text xml:space="preserve" font-family="Helvetica-Light" font-size="47.8" fill="#000000" transform="matrix(1.00, 0.00, -0.00, -1.00, 551.9, 561.0)">a</text><text xml:space="preserve" font-family="Helvetica-Light" font-size="47.8" fill="#000000" transform="matrix(1.00, 0.00, -0.00, -1.00, 578.5, 561.0)">r</text><text xml:space="preserve" font-family="Helvetica-Light" font-size="47.8" fill="#000000" transform="matrix(1.00, 0.00, -0.00, -1.00, 595.3, 561.0)">t</text><text xml:space="preserve" font-family="Helvetica-Light" font-size="47.8" fill="#000000" transform="matrix(1.00, 0.00, -0.00, -1.00, 608.6, 561.0)"> </text><text xml:space="preserve" font-family="Helvetica-Light" font-size="47.8" fill="#000000" transform="matrix(1.00, 0.00, -0.00, -1.00, 621.9, 561.0)">i</text><text xml:space="preserve" font-family="Helvetica-Light" font-size="47.8" fill="#000000" transform="matrix(1.00, 0.00, -0.00, -1.00, 632.5, 561.0)">n</text><text xml:space="preserve" font-family="Helvetica-Light" font-size="47.8" fill="#000000" transform="matrix(1.00, 0.00, -0.00, -1.00, 659.1, 561.0)">d</text><text xml:space="preserve" font-family="Helvetica-Light" font-size="47.8" fill="#000000" transform="matrix(1.00, 0.00, -0.00, -1.00, 688.3, 561.0)">e</text><text xml:space="preserve" font-family="Helvetica-Light" font-size="47.8" fill="#000000" transform="matrix(1.00, 0.00, -0.00, -1.00, 714.9, 561.0)">x</text><text xml:space="preserve" font-family="Helvetica-Light" font-size="47.8" fill="#000000" transform="matrix(1.00, 0.00, -0.00, -1.00, 738.8, 561.0)"> </text><text xml:space="preserve" font-family="Helvetica-Light" font-size="35.9" fill="#000000" transform="matrix(1.00, 0.00, -0.00, -1.00, 187.0, 460.2)">•</text><text xml:space="preserve" font-family="PragmataPro" font-size="47.8" fill="#000000" transform="matrix(1.00, 0.00, -0.00, -1.00, 233.0, 455.0)">a</text><text xml:space="preserve" font-family="PragmataPro" font-size="47.8" fill="#000000" transform="matrix(1.00, 0.00, -0.00, -1.00, 257.7, 455.0)">.</text><text xml:space="preserve" font-family="PragmataPro" font-size="47.8" fill="#000000" transform="matrix(1.00, 0.00, -0.00, -1.00, 282.5, 455.0)">.</text><text xml:space="preserve" font-family="Helvetica-Light" font-size="47.8" fill="#000000" transform="matrix(1.00, 0.00, -0.00, -1.00, 307.3, 455.0)"> </text><text xml:space="preserve" font-family="Helvetica-Light" font-size="47.8" fill="#000000" transform="matrix(1.00, 0.00, -0.00, -1.00, 320.6, 455.0)">-</text><text xml:space="preserve" font-family="Helvetica-Light" font-size="47.8" fill="#000000" transform="matrix(1.00, 0.00, -0.00, -1.00, 336.5, 455.0)"> </text><text xml:space="preserve" font-family="Helvetica-Light" font-size="47.8" fill="#000000" transform="matrix(1.00, 0.00, -0.00, -1.00, 349.8, 455.0)">w</text><text xml:space="preserve" font-family="Helvetica-Light" font-size="47.8" fill="#000000" transform="matrix(1.00, 0.00, -0.00, -1.00, 384.4, 455.0)">i</text><text xml:space="preserve" font-family="Helvetica-Light" font-size="47.8" fill="#000000" transform="matrix(1.00, 0.00, -0.00, -1.00, 395.0, 455.0)">t</text><text xml:space="preserve" font-family="Helvetica-Light" font-size="47.8" fill="#000000" transform="matrix(1.00, 0.00, -0.00, -1.00, 408.3, 455.0)">h</text><text xml:space="preserve" font-family="Helvetica-Light" font-size="47.8" fill="#000000" transform="matrix(1.00, 0.00, -0.00, -1.00, 434.9, 455.0)">o</text><text xml:space="preserve" font-family="Helvetica-Light" font-size="47.8" fill="#000000" transform="matrix(1.00, 0.00, -0.00, -1.00, 461.5, 455.0)">u</text><text xml:space="preserve" font-family="Helvetica-Light" font-size="47.8" fill="#000000" transform="matrix(1.00, 0.00, -0.00, -1.00, 488.1, 455.0)">t</text><text xml:space="preserve" font-family="Helvetica-Light" font-size="47.8" fill="#000000" transform="matrix(1.00, 0.00, -0.00, -1.00, 501.4, 455.0)"> </text><text xml:space="preserve" font-family="Helvetica-Light" font-size="47.8" fill="#000000" transform="matrix(1.00, 0.00, -0.00, -1.00, 514.7, 455.0)">e</text><text xml:space="preserve" font-family="Helvetica-Light" font-size="47.8" fill="#000000" transform="matrix(1.00, 0.00, -0.00, -1.00, 541.3, 455.0)">n</text><text xml:space="preserve" font-family="Helvetica-Light" font-size="47.8" fill="#000000" transform="matrix(1.00, 0.00, -0.00, -1.00, 567.9, 455.0)">d</text><text xml:space="preserve" font-family="Helvetica-Light" font-size="47.8" fill="#000000" transform="matrix(1.00, 0.00, -0.00, -1.00, 597.1, 455.0)"> </text><text xml:space="preserve" font-family="Helvetica-Light" font-size="47.8" fill="#000000" transform="matrix(1.00, 0.00, -0.00, -1.00, 610.4, 455.0)">i</text><text xml:space="preserve" font-family="Helvetica-Light" font-size="47.8" fill="#000000" transform="matrix(1.00, 0.00, -0.00, -1.00, 621.0, 455.0)">n</text><text xml:space="preserve" font-family="Helvetica-Light" font-size="47.8" fill="#000000" transform="matrix(1.00, 0.00, -0.00, -1.00, 647.6, 455.0)">d</text><text xml:space="preserve" font-family="Helvetica-Light" font-size="47.8" fill="#000000" transform="matrix(1.00, 0.00, -0.00, -1.00, 676.8, 455.0)">e</text><text xml:space="preserve" font-family="Helvetica-Light" font-size="47.8" fill="#000000" transform="matrix(1.00, 0.00, -0.00, -1.00, 703.4, 455.0)">x</text><text xml:space="preserve" font-family="Courier" font-size="38.0" fill="#20677E" transform="matrix(1.00, 0.00, -0.00, -1.00, 137.0, 255.0)">l</text><text xml:space="preserve" font-family="Courier" font-size="38.0" fill="#20677E" transform="matrix(1.00, 0.00, -0.00, -1.00, 159.8, 255.0)">e</text><text xml:space="preserve" font-family="Courier" font-size="38.0" fill="#20677E" transform="matrix(1.00, 0.00, -0.00, -1.00, 182.6, 255.0)">t</text><text xml:space="preserve" font-family="Courier" font-size="38.0" fill="#20677E" transform="matrix(1.00, 0.00, -0.00, -1.00, 205.4, 255.0)"> </text><text xml:space="preserve" font-family="Courier" font-size="38.0" fill="#404040" transform="matrix(1.00, 0.00, -0.00, -1.00, 228.2, 255.0)">a</text><text xml:space="preserve" font-family="Courier" font-size="38.0" fill="#404040" transform="matrix(1.00, 0.00, -0.00, -1.00, 251.0, 255.0)"> </text><text xml:space="preserve" font-family="Courier" font-size="38.0" fill="#404040" transform="matrix(1.00, 0.00, -0.00, -1.00, 273.8, 255.0)">=</text><text xml:space="preserve" font-family="Courier" font-size="38.0" fill="#404040" transform="matrix(1.00, 0.00, -0.00, -1.00, 296.6, 255.0)"> </text><text xml:space="preserve" font-family="Courier" font-size="38.0" fill="#7C50A3" transform="matrix(1.00, 0.00, -0.00, -1.00, 319.4, 255.0)">0</text><text xml:space="preserve" font-family="Courier" font-size="38.0" fill="#404040" transform="matrix(1.00, 0.00, -0.00, -1.00, 342.2, 255.0)">.</text><text xml:space="preserve" font-family="Courier" font-size="38.0" fill="#404040" transform="matrix(1.00, 0.00, -0.00, -1.00, 365.0, 255.0)">.</text><text xml:space="preserve" font-family="Courier" font-size="38.0" fill="#7C50A3" transform="matrix(1.00, 0.00, -0.00, -1.00, 387.8, 255.0)">1</text><text xml:space="preserve" font-family="Courier" font-size="38.0" fill="#7C50A3" transform="matrix(1.00, 0.00, -0.00, -1.00, 410.6, 255.0)">6</text><text xml:space="preserve" font-family="Courier" font-size="38.0" fill="#404040" transform="matrix(1.00, 0.00, -0.00, -1.00, 433.4, 255.0)">;</text><text xml:space="preserve" font-family="Courier" font-size="38.0" fill="#404040" transform="matrix(1.00, 0.00, -0.00, -1.00, 456.3, 255.0)"> </text><text xml:space="preserve" font-family="Courier" font-size="38.0" fill="#78868C" transform="matrix(1.00, 0.00, -0.00, -1.00, 479.1, 255.0)">/</text><text xml:space="preserve" font-family="Courier" font-size="38.0" fill="#78868C" transform="matrix(1.00, 0.00, -0.00, -1.00, 501.9, 255.0)">/</text><text xml:space="preserve" font-family="Courier" font-size="38.0" fill="#78868C" transform="matrix(1.00, 0.00, -0.00, -1.00, 524.7, 255.0)"> </text><text xml:space="preserve" font-family="Courier" font-size="38.0" fill="#78868C" transform="matrix(1.00, 0.00, -0.00, -1.00, 547.5, 255.0)">a</text><text xml:space="preserve" font-family="Courier" font-size="38.0" fill="#78868C" transform="matrix(1.00, 0.00, -0.00, -1.00, 570.3, 255.0)">.</text><text xml:space="preserve" font-family="Courier" font-size="38.0" fill="#78868C" transform="matrix(1.00, 0.00, -0.00, -1.00, 593.1, 255.0)">s</text><text xml:space="preserve" font-family="Courier" font-size="38.0" fill="#78868C" transform="matrix(1.00, 0.00, -0.00, -1.00, 615.9, 255.0)">t</text><text xml:space="preserve" font-family="Courier" font-size="38.0" fill="#78868C" transform="matrix(1.00, 0.00, -0.00, -1.00, 638.7, 255.0)">a</text><text xml:space="preserve" font-family="Courier" font-size="38.0" fill="#78868C" transform="matrix(1.00, 0.00, -0.00, -1.00, 661.5, 255.0)">r</text><text xml:space="preserve" font-family="Courier" font-size="38.0" fill="#78868C" transform="matrix(1.00, 0.00, -0.00, -1.00, 684.3, 255.0)">t</text><text xml:space="preserve" font-family="Courier" font-size="38.0" fill="#78868C" transform="matrix(1.00, 0.00, -0.00, -1.00, 707.1, 255.0)"> </text><text xml:space="preserve" font-family="Courier" font-size="38.0" fill="#78868C" transform="matrix(1.00, 0.00, -0.00, -1.00, 729.9, 255.0)">=</text><text xml:space="preserve" font-family="Courier" font-size="38.0" fill="#78868C" transform="matrix(1.00, 0.00, -0.00, -1.00, 752.7, 255.0)">=</text><text xml:space="preserve" font-family="Courier" font-size="38.0" fill="#78868C" transform="matrix(1.00, 0.00, -0.00, -1.00, 775.6, 255.0)"> </text><text xml:space="preserve" font-family="Courier" font-size="38.0" fill="#78868C" transform="matrix(1.00, 0.00, -0.00, -1.00, 798.4, 255.0)">0</text><text xml:space="preserve" font-family="Courier" font-size="38.0" fill="#78868C" transform="matrix(1.00, 0.00, -0.00, -1.00, 821.2, 255.0)">;</text><text xml:space="preserve" font-family="Courier" font-size="38.0" fill="#78868C" transform="matrix(1.00, 0.00, -0.00, -1.00, 844.0, 255.0)"> </text><text xml:space="preserve" font-family="Courier" font-size="38.0" fill="#78868C" transform="matrix(1.00, 0.00, -0.00, -1.00, 866.8, 255.0)">a</text><text xml:space="preserve" font-family="Courier" font-size="38.0" fill="#78868C" transform="matrix(1.00, 0.00, -0.00, -1.00, 889.6, 255.0)">.</text><text xml:space="preserve" font-family="Courier" font-size="38.0" fill="#78868C" transform="matrix(1.00, 0.00, -0.00, -1.00, 912.4, 255.0)">e</text><text xml:space="preserve" font-family="Courier" font-size="38.0" fill="#78868C" transform="matrix(1.00, 0.00, -0.00, -1.00, 935.2, 255.0)">n</text><text xml:space="preserve" font-family="Courier" font-size="38.0" fill="#78868C" transform="matrix(1.00, 0.00, -0.00, -1.00, 958.0, 255.0)">d</text><text xml:space="preserve" font-family="Courier" font-size="38.0" fill="#78868C" transform="matrix(1.00, 0.00, -0.00, -1.00, 980.8, 255.0)"> </text><text xml:space="preserve" font-family="Courier" font-size="38.0" fill="#78868C" transform="matrix(1.00, 0.00, -0.00, -1.00, 1003.6, 255.0)">=</text><text xml:space="preserve" font-family="Courier" font-size="38.0" fill="#78868C" transform="matrix(1.00, 0.00, -0.00, -1.00, 1026.4, 255.0)">=</text><text xml:space="preserve" font-family="Courier" font-size="38.0" fill="#78868C" transform="matrix(1.00, 0.00, -0.00, -1.00, 1049.2, 255.0)"> </text><text xml:space="preserve" font-family="Courier" font-size="38.0" fill="#78868C" transform="matrix(1.00, 0.00, -0.00, -1.00, 1072.1, 255.0)">1</text><text xml:space="preserve" font-family="Courier" font-size="38.0" fill="#78868C" transform="matrix(1.00, 0.00, -0.00, -1.00, 1094.9, 255.0)">6</text><text xml:space="preserve" font-family="Courier" font-size="38.0" fill="#20677E" transform="matrix(1.00, 0.00, -0.00, -1.00, 137.0, 209.0)">l</text><text xml:space="preserve" font-family="Courier" font-size="38.0" fill="#20677E" transform="matrix(1.00, 0.00, -0.00, -1.00, 159.8, 209.0)">e</text><text xml:space="preserve" font-family="Courier" font-size="38.0" fill="#20677E" transform="matrix(1.00, 0.00, -0.00, -1.00, 182.6, 209.0)">t</text><text xml:space="preserve" font-family="Courier" font-size="38.0" fill="#20677E" transform="matrix(1.00, 0.00, -0.00, -1.00, 205.4, 209.0)"> </text><text xml:space="preserve" font-family="Courier" font-size="38.0" fill="#404040" transform="matrix(1.00, 0.00, -0.00, -1.00, 228.2, 209.0)">b</text><text xml:space="preserve" font-family="Courier" font-size="38.0" fill="#404040" transform="matrix(1.00, 0.00, -0.00, -1.00, 251.0, 209.0)"> </text><text xml:space="preserve" font-family="Courier" font-size="38.0" fill="#404040" transform="matrix(1.00, 0.00, -0.00, -1.00, 273.8, 209.0)">=</text><text xml:space="preserve" font-family="Courier" font-size="38.0" fill="#404040" transform="matrix(1.00, 0.00, -0.00, -1.00, 296.6, 209.0)"> </text><text xml:space="preserve" font-family="Courier" font-size="38.0" fill="#404040" transform="matrix(1.00, 0.00, -0.00, -1.00, 319.4, 209.0)">.</text><text xml:space="preserve" font-family="Courier" font-size="38.0" fill="#404040" transform="matrix(1.00, 0.00, -0.00, -1.00, 342.3, 209.0)">.</text><text xml:space="preserve" font-family="Courier" font-size="38.0" fill="#7C50A3" transform="matrix(1.00, 0.00, -0.00, -1.00, 365.0, 209.0)">1</text><text xml:space="preserve" font-family="Courier" font-size="38.0" fill="#7C50A3" transform="matrix(1.00, 0.00, -0.00, -1.00, 387.8, 209.0)">6</text><text xml:space="preserve" font-family="Courier" font-size="38.0" fill="#404040" transform="matrix(1.00, 0.00, -0.00, -1.00, 410.6, 209.0)">;</text><text xml:space="preserve" font-family="Courier" font-size="38.0" fill="#404040" transform="matrix(1.00, 0.00, -0.00, -1.00, 433.5, 209.0)"> </text><text xml:space="preserve" font-family="Courier" font-size="38.0" fill="#404040" transform="matrix(1.00, 0.00, -0.00, -1.00, 456.3, 209.0)"> </text><text xml:space="preserve" font-family="Courier" font-size="38.0" fill="#78868C" transform="matrix(1.00, 0.00, -0.00, -1.00, 479.1, 209.0)">/</text><text xml:space="preserve" font-family="Courier" font-size="38.0" fill="#78868C" transform="matrix(1.00, 0.00, -0.00, -1.00, 501.9, 209.0)">/</text><text xml:space="preserve" font-family="Courier" font-size="38.0" fill="#78868C" transform="matrix(1.00, 0.00, -0.00, -1.00, 524.7, 209.0)"> </text><text xml:space="preserve" font-family="Courier" font-size="38.0" fill="#78868C" transform="matrix(1.00, 0.00, -0.00, -1.00, 547.5, 209.0)">h</text><text xml:space="preserve" font-family="Courier" font-size="38.0" fill="#78868C" transform="matrix(1.00, 0.00, -0.00, -1.00, 570.3, 209.0)">a</text><text xml:space="preserve" font-family="Courier" font-size="38.0" fill="#78868C" transform="matrix(1.00, 0.00, -0.00, -1.00, 593.1, 209.0)">s</text><text xml:space="preserve" font-family="Courier" font-size="38.0" fill="#78868C" transform="matrix(1.00, 0.00, -0.00, -1.00, 615.9, 209.0)"> </text><text xml:space="preserve" font-family="Courier" font-size="38.0" fill="#78868C" transform="matrix(1.00, 0.00, -0.00, -1.00, 638.7, 209.0)">n</text><text xml:space="preserve" font-family="Courier" font-size="38.0" fill="#78868C" transform="matrix(1.00, 0.00, -0.00, -1.00, 661.5, 209.0)">o</text><text xml:space="preserve" font-family="Courier" font-size="38.0" fill="#78868C" transform="matrix(1.00, 0.00, -0.00, -1.00, 684.3, 209.0)"> </text><text xml:space="preserve" font-family="Courier" font-size="38.0" fill="#78868C" transform="matrix(1.00, 0.00, -0.00, -1.00, 707.1, 209.0)">.</text><text xml:space="preserve" font-family="Courier" font-size="38.0" fill="#78868C" transform="matrix(1.00, 0.00, -0.00, -1.00, 729.9, 209.0)">s</text><text xml:space="preserve" font-family="Courier" font-size="38.0" fill="#78868C" transform="matrix(1.00, 0.00, -0.00, -1.00, 752.7, 209.0)">t</text><text xml:space="preserve" font-family="Courier" font-size="38.0" fill="#78868C" transform="matrix(1.00, 0.00, -0.00, -1.00, 775.6, 209.0)">a</text><text xml:space="preserve" font-family="Courier" font-size="38.0" fill="#78868C" transform="matrix(1.00, 0.00, -0.00, -1.00, 798.4, 209.0)">r</text><text xml:space="preserve" font-family="Courier" font-size="38.0" fill="#78868C" transform="matrix(1.00, 0.00, -0.00, -1.00, 821.2, 209.0)">t</text><text xml:space="preserve" font-family="Courier" font-size="38.0" fill="#78868C" transform="matrix(1.00, 0.00, -0.00, -1.00, 844.0, 209.0)"> </text><text xml:space="preserve" font-family="Courier" font-size="38.0" fill="#78868C" transform="matrix(1.00, 0.00, -0.00, -1.00, 866.8, 209.0)">f</text><text xml:space="preserve" font-family="Courier" font-size="38.0" fill="#78868C" transform="matrix(1.00, 0.00, -0.00, -1.00, 889.6, 209.0)">i</text><text xml:space="preserve" font-family="Courier" font-size="38.0" fill="#78868C" transform="matrix(1.00, 0.00, -0.00, -1.00, 912.4, 209.0)">e</text><text xml:space="preserve" font-family="Courier" font-size="38.0" fill="#78868C" transform="matrix(1.00, 0.00, -0.00, -1.00, 935.2, 209.0)">l</text><text xml:space="preserve" font-family="Courier" font-size="38.0" fill="#78868C" transform="matrix(1.00, 0.00, -0.00, -1.00, 958.0, 209.0)">d</text><text xml:space="preserve" font-family="Courier" font-size="38.0" fill="#20677E" transform="matrix(1.00, 0.00, -0.00, -1.00, 137.0, 163.0)">l</text><text xml:space="preserve" font-family="Courier" font-size="38.0" fill="#20677E" transform="matrix(1.00, 0.00, -0.00, -1.00, 159.8, 163.0)">e</text><text xml:space="preserve" font-family="Courier" font-size="38.0" fill="#20677E" transform="matrix(1.00, 0.00, -0.00, -1.00, 182.6, 163.0)">t</text><text xml:space="preserve" font-family="Courier" font-size="38.0" fill="#20677E" transform="matrix(1.00, 0.00, -0.00, -1.00, 205.4, 163.0)"> </text><text xml:space="preserve" font-family="Courier" font-size="38.0" fill="#404040" transform="matrix(1.00, 0.00, -0.00, -1.00, 228.2, 163.0)">c</text><text xml:space="preserve" font-family="Courier" font-size="38.0" fill="#404040" transform="matrix(1.00, 0.00, -0.00, -1.00, 251.0, 163.0)"> </text><text xml:space="preserve" font-family="Courier" font-size="38.0" fill="#404040" transform="matrix(1.00, 0.00, -0.00, -1.00, 273.8, 163.0)">=</text><text xml:space="preserve" font-family="Courier" font-size="38.0" fill="#404040" transform="matrix(1.00, 0.00, -0.00, -1.00, 296.6, 163.0)"> </text><text xml:space="preserve" font-family="Courier" font-size="38.0" fill="#7C50A3" transform="matrix(1.00, 0.00, -0.00, -1.00, 319.4, 163.0)">0</text><text xml:space="preserve" font-family="Courier" font-size="38.0" fill="#404040" transform="matrix(1.00, 0.00, -0.00, -1.00, 342.2, 163.0)">.</text><text xml:space="preserve" font-family="Courier" font-size="38.0" fill="#404040" transform="matrix(1.00, 0.00, -0.00, -1.00, 365.0, 163.0)">.</text><text xml:space="preserve" font-family="Courier" font-size="38.0" fill="#404040" transform="matrix(1.00, 0.00, -0.00, -1.00, 387.8, 163.0)">;</text><text xml:space="preserve" font-family="Courier" font-size="38.0" fill="#404040" transform="matrix(1.00, 0.00, -0.00, -1.00, 410.7, 163.0)"> </text><text xml:space="preserve" font-family="Courier" font-size="38.0" fill="#404040" transform="matrix(1.00, 0.00, -0.00, -1.00, 433.5, 163.0)"> </text><text xml:space="preserve" font-family="Courier" font-size="38.0" fill="#404040" transform="matrix(1.00, 0.00, -0.00, -1.00, 456.3, 163.0)"> </text><text xml:space="preserve" font-family="Courier" font-size="38.0" fill="#78868C" transform="matrix(1.00, 0.00, -0.00, -1.00, 479.1, 163.0)">/</text><text xml:space="preserve" font-family="Courier" font-size="38.0" fill="#78868C" transform="matrix(1.00, 0.00, -0.00, -1.00, 501.9, 163.0)">/</text><text xml:space="preserve" font-family="Courier" font-size="38.0" fill="#78868C" transform="matrix(1.00, 0.00, -0.00, -1.00, 524.7, 163.0)"> </text><text xml:space="preserve" font-family="Courier" font-size="38.0" fill="#78868C" transform="matrix(1.00, 0.00, -0.00, -1.00, 547.5, 163.0)">h</text><text xml:space="preserve" font-family="Courier" font-size="38.0" fill="#78868C" transform="matrix(1.00, 0.00, -0.00, -1.00, 570.3, 163.0)">a</text><text xml:space="preserve" font-family="Courier" font-size="38.0" fill="#78868C" transform="matrix(1.00, 0.00, -0.00, -1.00, 593.1, 163.0)">s</text><text xml:space="preserve" font-family="Courier" font-size="38.0" fill="#78868C" transform="matrix(1.00, 0.00, -0.00, -1.00, 615.9, 163.0)"> </text><text xml:space="preserve" font-family="Courier" font-size="38.0" fill="#78868C" transform="matrix(1.00, 0.00, -0.00, -1.00, 638.7, 163.0)">n</text><text xml:space="preserve" font-family="Courier" font-size="38.0" fill="#78868C" transform="matrix(1.00, 0.00, -0.00, -1.00, 661.5, 163.0)">o</text><text xml:space="preserve" font-family="Courier" font-size="38.0" fill="#78868C" transform="matrix(1.00, 0.00, -0.00, -1.00, 684.3, 163.0)"> </text><text xml:space="preserve" font-family="Courier" font-size="38.0" fill="#78868C" transform="matrix(1.00, 0.00, -0.00, -1.00, 707.1, 163.0)">.</text><text xml:space="preserve" font-family="Courier" font-size="38.0" fill="#78868C" transform="matrix(1.00, 0.00, -0.00, -1.00, 729.9, 163.0)">e</text><text xml:space="preserve" font-family="Courier" font-size="38.0" fill="#78868C" transform="matrix(1.00, 0.00, -0.00, -1.00, 752.7, 163.0)">n</text><text xml:space="preserve" font-family="Courier" font-size="38.0" fill="#78868C" transform="matrix(1.00, 0.00, -0.00, -1.00, 775.6, 163.0)">d</text><text xml:space="preserve" font-family="Courier" font-size="38.0" fill="#78868C" transform="matrix(1.00, 0.00, -0.00, -1.00, 798.4, 163.0)"> </text><text xml:space="preserve" font-family="Courier" font-size="38.0" fill="#78868C" transform="matrix(1.00, 0.00, -0.00, -1.00, 821.2, 163.0)">f</text><text xml:space="preserve" font-family="Courier" font-size="38.0" fill="#78868C" transform="matrix(1.00, 0.00, -0.00, -1.00, 844.0, 163.0)">i</text><text xml:space="preserve" font-family="Courier" font-size="38.0" fill="#78868C" transform="matrix(1.00, 0.00, -0.00, -1.00, 866.8, 163.0)">e</text><text xml:space="preserve" font-family="Courier" font-size="38.0" fill="#78868C" transform="matrix(1.00, 0.00, -0.00, -1.00, 889.6, 163.0)">l</text><text xml:space="preserve" font-family="Courier" font-size="38.0" fill="#78868C" transform="matrix(1.00, 0.00, -0.00, -1.00, 912.4, 163.0)">d</text></g></svg>