<?xml version="1.0" encoding="UTF-8" standalone="no"?><svg xmlns="http://www.w3.org/2000/svg" xmlns:xlink="http://www.w3.org/1999/xlink" clip-rule="evenodd" stroke-miterlimit="10" viewBox="0 0 1920 1080"><desc>SVG generated by Keynote</desc><defs></defs><g transform="matrix(1.00, 0.00, -0.00, -1.00, 0.0, 1080.0)"><path d="M 0.0 1080.0 L 1920.0 1080.0 L 1920.0 0.0 L 0.0 0.0 Z M 0.0 1080.0 " fill="#FEFFFF"></path><text xml:space="preserve" font-family="Helvetica-Light,Helvetica" font-size="112.0" fill="#000000" transform="matrix(1.00, 0.00, -0.00, -1.00, 735.9, 873.8)">L</text><text xml:space="preserve" font-family="Helvetica-Light,Helvetica" font-size="112.0" fill="#000000" transform="matrix(1.00, 0.00, -0.00, -1.00, 798.2, 873.8)">i</text><text xml:space="preserve" font-family="Helvetica-Light,Helvetica" font-size="112.0" fill="#000000" transform="matrix(1.00, 0.00, -0.00, -1.00, 823.1, 873.8)">f</text><text xml:space="preserve" font-family="Helvetica-Light,Helvetica" font-size="112.0" fill="#000000" transform="matrix(1.00, 0.00, -0.00, -1.00, 854.2, 873.8)">e</text><text xml:space="preserve" font-family="Helvetica-Light,Helvetica" font-size="112.0" fill="#000000" transform="matrix(1.00, 0.00, -0.00, -1.00, 916.5, 873.8)">t</text><text xml:space="preserve" font-family="Helvetica-Light,Helvetica" font-size="112.0" fill="#000000" transform="matrix(1.00, 0.00, -0.00, -1.00, 947.6, 873.8)">i</text><text xml:space="preserve" font-family="Helvetica-Light,Helvetica" font-size="112.0" fill="#000000" transform="matrix(1.00, 0.00, -0.00, -1.00, 972.5, 873.8)">m</text><text xml:space="preserve" font-family="Helvetica-Light,Helvetica" font-size="112.0" fill="#000000" transform="matrix(1.00, 0.00, -0.00, -1.00, 1065.8, 873.8)">e</text><text xml:space="preserve" font-family="Helvetica-Light,Helvetica" font-size="112.0" fill="#000000" transform="matrix(1.00, 0.00, -0.00, -1.00, 1128.1, 873.8)">s</text><text xml:space="preserve" font-family="Helvetica-Light,Helvetica" font-size="39.0" fill="#000000" transform="matrix(1.00, 0.00, -0.00, -1.00, 137.0, 716.5)">•</text><text xml:space="preserve" font-family="Helvetica-Light,Helvetica" font-size="52.0" fill="#000000" transform="matrix(1.00, 0.00, -0.00, -1.00, 187.0, 712.0)">B</text><text xml:space="preserve" font-family="Helvetica-Light,Helvetica" font-size="52.0" fill="#000000" transform="matrix(1.00, 0.00, -0.00, -1.00, 221.7, 712.0)">o</text><text xml:space="preserve" font-family="Helvetica-Light,Helvetica" font-size="52.0" fill="#000000" transform="matrix(1.00, 0.00, -0.00, -1.00, 250.6, 712.0)">r</text><text xml:space="preserve" font-family="Helvetica-Light,Helvetica" font-size="52.0" fill="#000000" transform="matrix(1.00, 0.00, -0.00, -1.00, 267.9, 712.0)">r</text><text xml:space="preserve" font-family="Helvetica-Light,Helvetica" font-size="52.0" fill="#000000" transform="matrix(1.00, 0.00, -0.00, -1.00, 284.3, 712.0)">o</text><text xml:space="preserve" font-family="Helvetica-Light,Helvetica" font-size="52.0" fill="#000000" transform="matrix(1.00, 0.00, -0.00, -1.00, 313.2, 712.0)">w</text><text xml:space="preserve" font-family="Helvetica-Light,Helvetica" font-size="52.0" fill="#000000" transform="matrix(1.00, 0.00, -0.00, -1.00, 350.7, 712.0)"> </text><text xml:space="preserve" font-family="Helvetica-Light,Helvetica" font-size="52.0" fill="#000000" transform="matrix(1.00, 0.00, -0.00, -1.00, 365.2, 712.0)">c</text><text xml:space="preserve" font-family="Helvetica-Light,Helvetica" font-size="52.0" fill="#000000" transform="matrix(1.00, 0.00, -0.00, -1.00, 394.1, 712.0)">h</text><text xml:space="preserve" font-family="Helvetica-Light,Helvetica" font-size="52.0" fill="#000000" transform="matrix(1.00, 0.00, -0.00, -1.00, 423.0, 712.0)">e</text><text xml:space="preserve" font-family="Helvetica-Light,Helvetica" font-size="52.0" fill="#000000" transform="matrix(1.00, 0.00, -0.00, -1.00, 451.9, 712.0)">c</text><text xml:space="preserve" font-family="Helvetica-Light,Helvetica" font-size="52.0" fill="#000000" transform="matrix(1.00, 0.00, -0.00, -1.00, 480.9, 712.0)">k</text><text xml:space="preserve" font-family="Helvetica-Light,Helvetica" font-size="52.0" fill="#000000" transform="matrix(1.00, 0.00, -0.00, -1.00, 506.9, 712.0)">e</text><text xml:space="preserve" font-family="Helvetica-Light,Helvetica" font-size="52.0" fill="#000000" transform="matrix(1.00, 0.00, -0.00, -1.00, 535.8, 712.0)">r</text><text xml:space="preserve" font-family="Helvetica-Light,Helvetica" font-size="52.0" fill="#000000" transform="matrix(1.00, 0.00, -0.00, -1.00, 553.1, 712.0)"> </text><text xml:space="preserve" font-family="Helvetica-Light,Helvetica" font-size="52.0" fill="#000000" transform="matrix(1.00, 0.00, -0.00, -1.00, 567.5, 712.0)">u</text><text xml:space="preserve" font-family="Helvetica-Light,Helvetica" font-size="52.0" fill="#000000" transform="matrix(1.00, 0.00, -0.00, -1.00, 596.4, 712.0)">s</text><text xml:space="preserve" font-family="Helvetica-Light,Helvetica" font-size="52.0" fill="#000000" transform="matrix(1.00, 0.00, -0.00, -1.00, 622.4, 712.0)">e</text><text xml:space="preserve" font-family="Helvetica-Light,Helvetica" font-size="52.0" fill="#000000" transform="matrix(1.00, 0.00, -0.00, -1.00, 651.4, 712.0)">s</text><text xml:space="preserve" font-family="Helvetica-Light,Helvetica" font-size="52.0" fill="#000000" transform="matrix(1.00, 0.00, -0.00, -1.00, 677.4, 712.0)"> </text><text xml:space="preserve" font-family="Helvetica-Light,Helvetica" font-size="52.0" fill="#000000" transform="matrix(1.00, 0.00, -0.00, -1.00, 691.8, 712.0)">t</text><text xml:space="preserve" font-family="Helvetica-Light,Helvetica" font-size="52.0" fill="#000000" transform="matrix(1.00, 0.00, -0.00, -1.00, 706.3, 712.0)">o</text><text xml:space="preserve" font-family="Helvetica-Light,Helvetica" font-size="52.0" fill="#000000" transform="matrix(1.00, 0.00, -0.00, -1.00, 735.2, 712.0)"> </text><text xml:space="preserve" font-family="Helvetica-Light,Helvetica" font-size="52.0" fill="#000000" transform="matrix(1.00, 0.00, -0.00, -1.00, 749.6, 712.0)">e</text><text xml:space="preserve" font-family="Helvetica-Light,Helvetica" font-size="52.0" fill="#000000" transform="matrix(1.00, 0.00, -0.00, -1.00, 778.6, 712.0)">n</text><text xml:space="preserve" font-family="Helvetica-Light,Helvetica" font-size="52.0" fill="#000000" transform="matrix(1.00, 0.00, -0.00, -1.00, 807.5, 712.0)">s</text><text xml:space="preserve" font-family="Helvetica-Light,Helvetica" font-size="52.0" fill="#000000" transform="matrix(1.00, 0.00, -0.00, -1.00, 833.5, 712.0)">u</text><text xml:space="preserve" font-family="Helvetica-Light,Helvetica" font-size="52.0" fill="#000000" transform="matrix(1.00, 0.00, -0.00, -1.00, 862.4, 712.0)">r</text><text xml:space="preserve" font-family="Helvetica-Light,Helvetica" font-size="52.0" fill="#000000" transform="matrix(1.00, 0.00, -0.00, -1.00, 878.8, 712.0)">e</text><text xml:space="preserve" font-family="Helvetica-Light,Helvetica" font-size="52.0" fill="#000000" transform="matrix(1.00, 0.00, -0.00, -1.00, 907.7, 712.0)"> </text><text xml:space="preserve" font-family="Helvetica-Light,Helvetica" font-size="52.0" fill="#000000" transform="matrix(1.00, 0.00, -0.00, -1.00, 922.1, 712.0)">a</text><text xml:space="preserve" font-family="Helvetica-Light,Helvetica" font-size="52.0" fill="#000000" transform="matrix(1.00, 0.00, -0.00, -1.00, 951.0, 712.0)">l</text><text xml:space="preserve" font-family="Helvetica-Light,Helvetica" font-size="52.0" fill="#000000" transform="matrix(1.00, 0.00, -0.00, -1.00, 962.6, 712.0)">l</text><text xml:space="preserve" font-family="Helvetica-Light,Helvetica" font-size="52.0" fill="#000000" transform="matrix(1.00, 0.00, -0.00, -1.00, 974.1, 712.0)"> </text><text xml:space="preserve" font-family="Helvetica-Light,Helvetica" font-size="52.0" fill="#000000" transform="matrix(1.00, 0.00, -0.00, -1.00, 988.6, 712.0)">b</text><text xml:space="preserve" font-family="Helvetica-Light,Helvetica" font-size="52.0" fill="#000000" transform="matrix(1.00, 0.00, -0.00, -1.00, 1020.4, 712.0)">o</text><text xml:space="preserve" font-family="Helvetica-Light,Helvetica" font-size="52.0" fill="#000000" transform="matrix(1.00, 0.00, -0.00, -1.00, 1049.3, 712.0)">r</text><text xml:space="preserve" font-family="Helvetica-Light,Helvetica" font-size="52.0" fill="#000000" transform="matrix(1.00, 0.00, -0.00, -1.00, 1066.6, 712.0)">r</text><text xml:space="preserve" font-family="Helvetica-Light,Helvetica" font-size="52.0" fill="#000000" transform="matrix(1.00, 0.00, -0.00, -1.00, 1083.0, 712.0)">o</text><text xml:space="preserve" font-family="Helvetica-Light,Helvetica" font-size="52.0" fill="#000000" transform="matrix(1.00, 0.00, -0.00, -1.00, 1111.9, 712.0)">w</text><text xml:space="preserve" font-family="Helvetica-Light,Helvetica" font-size="52.0" fill="#000000" transform="matrix(1.00, 0.00, -0.00, -1.00, 1149.4, 712.0)">s</text><text xml:space="preserve" font-family="Helvetica-Light,Helvetica" font-size="52.0" fill="#000000" transform="matrix(1.00, 0.00, -0.00, -1.00, 1175.4, 712.0)"> </text><text xml:space="preserve" font-family="Helvetica-Light,Helvetica" font-size="52.0" fill="#000000" transform="matrix(1.00, 0.00, -0.00, -1.00, 1189.9, 712.0)">a</text><text xml:space="preserve" font-family="Helvetica-Light,Helvetica" font-size="52.0" fill="#000000" transform="matrix(1.00, 0.00, -0.00, -1.00, 1218.8, 712.0)">r</text><text xml:space="preserve" font-family="Helvetica-Light,Helvetica" font-size="52.0" fill="#000000" transform="matrix(1.00, 0.00, -0.00, -1.00, 1235.2, 712.0)">e</text><text xml:space="preserve" font-family="Helvetica-Light,Helvetica" font-size="52.0" fill="#000000" transform="matrix(1.00, 0.00, -0.00, -1.00, 1264.1, 712.0)"> </text><text xml:space="preserve" font-family="Helvetica-Light,Helvetica" font-size="52.0" fill="#000000" transform="matrix(1.00, 0.00, -0.00, -1.00, 1278.5, 712.0)">v</text><text xml:space="preserve" font-family="Helvetica-Light,Helvetica" font-size="52.0" fill="#000000" transform="matrix(1.00, 0.00, -0.00, -1.00, 1304.5, 712.0)">a</text><text xml:space="preserve" font-family="Helvetica-Light,Helvetica" font-size="52.0" fill="#000000" transform="matrix(1.00, 0.00, -0.00, -1.00, 1333.4, 712.0)">l</text><text xml:space="preserve" font-family="Helvetica-Light,Helvetica" font-size="52.0" fill="#000000" transform="matrix(1.00, 0.00, -0.00, -1.00, 1345.0, 712.0)">i</text><text xml:space="preserve" font-family="Helvetica-Light,Helvetica" font-size="52.0" fill="#000000" transform="matrix(1.00, 0.00, -0.00, -1.00, 1356.5, 712.0)">d</text><text xml:space="preserve" font-family="Helvetica-Light,Helvetica" font-size="52.0" fill="#000000" transform="matrix(1.00, 0.00, -0.00, -1.00, 1388.3, 712.0)"> </text><text xml:space="preserve" font-family="Helvetica-Light,Helvetica" font-size="39.0" fill="#000000" transform="matrix(1.00, 0.00, -0.00, -1.00, 137.0, 595.5)">•</text><text xml:space="preserve" font-family="Helvetica-Light,Helvetica" font-size="52.0" fill="#000000" transform="matrix(1.00, 0.00, -0.00, -1.00, 187.0, 591.0)">A</text><text xml:space="preserve" font-family="Helvetica-Light,Helvetica" font-size="52.0" fill="#000000" transform="matrix(1.00, 0.00, -0.00, -1.00, 221.7, 591.0)"> </text><text xml:space="preserve" font-family="Helvetica-Light,Helvetica" font-size="52.0" fill="#000000" transform="matrix(1.00, 0.00, -0.00, -1.00, 236.1, 591.0)">l</text><text xml:space="preserve" font-family="Helvetica-Light,Helvetica" font-size="52.0" fill="#000000" transform="matrix(1.00, 0.00, -0.00, -1.00, 247.7, 591.0)">i</text><text xml:space="preserve" font-family="Helvetica-Light,Helvetica" font-size="52.0" fill="#000000" transform="matrix(1.00, 0.00, -0.00, -1.00, 259.2, 591.0)">f</text><text xml:space="preserve" font-family="Helvetica-Light,Helvetica" font-size="52.0" fill="#000000" transform="matrix(1.00, 0.00, -0.00, -1.00, 273.7, 591.0)">e</text><text xml:space="preserve" font-family="Helvetica-Light,Helvetica" font-size="52.0" fill="#000000" transform="matrix(1.00, 0.00, -0.00, -1.00, 302.6, 591.0)">t</text><text xml:space="preserve" font-family="Helvetica-Light,Helvetica" font-size="52.0" fill="#000000" transform="matrix(1.00, 0.00, -0.00, -1.00, 317.1, 591.0)">i</text><text xml:space="preserve" font-family="Helvetica-Light,Helvetica" font-size="52.0" fill="#000000" transform="matrix(1.00, 0.00, -0.00, -1.00, 328.6, 591.0)">m</text><text xml:space="preserve" font-family="Helvetica-Light,Helvetica" font-size="52.0" fill="#000000" transform="matrix(1.00, 0.00, -0.00, -1.00, 371.9, 591.0)">e</text><text xml:space="preserve" font-family="Helvetica-Light,Helvetica" font-size="52.0" fill="#000000" transform="matrix(1.00, 0.00, -0.00, -1.00, 400.8, 591.0)"> </text><text xml:space="preserve" font-family="Helvetica-Light,Helvetica" font-size="52.0" fill="#000000" transform="matrix(1.00, 0.00, -0.00, -1.00, 415.3, 591.0)">s</text><text xml:space="preserve" font-family="Helvetica-Light,Helvetica" font-size="52.0" fill="#000000" transform="matrix(1.00, 0.00, -0.00, -1.00, 441.3, 591.0)">t</text><text xml:space="preserve" font-family="Helvetica-Light,Helvetica" font-size="52.0" fill="#000000" transform="matrix(1.00, 0.00, -0.00, -1.00, 455.7, 591.0)">a</text><text xml:space="preserve" font-family="Helvetica-Light,Helvetica" font-size="52.0" fill="#000000" transform="matrix(1.00, 0.00, -0.00, -1.00, 484.6, 591.0)">r</text><text xml:space="preserve" font-family="Helvetica-Light,Helvetica" font-size="52.0" fill="#000000" transform="matrix(1.00, 0.00, -0.00, -1.00, 502.9, 591.0)">t</text><text xml:space="preserve" font-family="Helvetica-Light,Helvetica" font-size="52.0" fill="#000000" transform="matrix(1.00, 0.00, -0.00, -1.00, 517.4, 591.0)">s</text><text xml:space="preserve" font-family="Helvetica-Light,Helvetica" font-size="52.0" fill="#000000" transform="matrix(1.00, 0.00, -0.00, -1.00, 543.4, 591.0)"> </text><text xml:space="preserve" font-family="Helvetica-Light,Helvetica" font-size="52.0" fill="#000000" transform="matrix(1.00, 0.00, -0.00, -1.00, 557.8, 591.0)">w</text><text xml:space="preserve" font-family="Helvetica-Light,Helvetica" font-size="52.0" fill="#000000" transform="matrix(1.00, 0.00, -0.00, -1.00, 595.4, 591.0)">h</text><text xml:space="preserve" font-family="Helvetica-Light,Helvetica" font-size="52.0" fill="#000000" transform="matrix(1.00, 0.00, -0.00, -1.00, 624.3, 591.0)">e</text><text xml:space="preserve" font-family="Helvetica-Light,Helvetica" font-size="52.0" fill="#000000" transform="matrix(1.00, 0.00, -0.00, -1.00, 653.2, 591.0)">n</text><text xml:space="preserve" font-family="Helvetica-Light,Helvetica" font-size="52.0" fill="#000000" transform="matrix(1.00, 0.00, -0.00, -1.00, 682.1, 591.0)"> </text><text xml:space="preserve" font-family="Helvetica-Light,Helvetica" font-size="52.0" fill="#000000" transform="matrix(1.00, 0.00, -0.00, -1.00, 696.5, 591.0)">a</text><text xml:space="preserve" font-family="Helvetica-Light,Helvetica" font-size="52.0" fill="#000000" transform="matrix(1.00, 0.00, -0.00, -1.00, 725.5, 591.0)"> </text><text xml:space="preserve" font-family="Helvetica-Light,Helvetica" font-size="52.0" fill="#000000" transform="matrix(1.00, 0.00, -0.00, -1.00, 739.9, 591.0)">v</text><text xml:space="preserve" font-family="Helvetica-Light,Helvetica" font-size="52.0" fill="#000000" transform="matrix(1.00, 0.00, -0.00, -1.00, 765.9, 591.0)">a</text><text xml:space="preserve" font-family="Helvetica-Light,Helvetica" font-size="52.0" fill="#000000" transform="matrix(1.00, 0.00, -0.00, -1.00, 794.8, 591.0)">r</text><text xml:space="preserve" font-family="Helvetica-Light,Helvetica" font-size="52.0" fill="#000000" transform="matrix(1.00, 0.00, -0.00, -1.00, 812.1, 591.0)">i</text><text xml:space="preserve" font-family="Helvetica-Light,Helvetica" font-size="52.0" fill="#000000" transform="matrix(1.00, 0.00, -0.00, -1.00, 823.7, 591.0)">a</text><text xml:space="preserve" font-family="Helvetica-Light,Helvetica" font-size="52.0" fill="#000000" transform="matrix(1.00, 0.00, -0.00, -1.00, 852.6, 591.0)">b</text><text xml:space="preserve" font-family="Helvetica-Light,Helvetica" font-size="52.0" fill="#000000" transform="matrix(1.00, 0.00, -0.00, -1.00, 884.4, 591.0)">l</text><text xml:space="preserve" font-family="Helvetica-Light,Helvetica" font-size="52.0" fill="#000000" transform="matrix(1.00, 0.00, -0.00, -1.00, 895.9, 591.0)">e</text><text xml:space="preserve" font-family="Helvetica-Light,Helvetica" font-size="52.0" fill="#000000" transform="matrix(1.00, 0.00, -0.00, -1.00, 924.8, 591.0)"> </text><text xml:space="preserve" font-family="Helvetica-Light,Helvetica" font-size="52.0" fill="#000000" transform="matrix(1.00, 0.00, -0.00, -1.00, 939.3, 591.0)">i</text><text xml:space="preserve" font-family="Helvetica-Light,Helvetica" font-size="52.0" fill="#000000" transform="matrix(1.00, 0.00, -0.00, -1.00, 950.8, 591.0)">s</text><text xml:space="preserve" font-family="Helvetica-Light,Helvetica" font-size="52.0" fill="#000000" transform="matrix(1.00, 0.00, -0.00, -1.00, 976.8, 591.0)"> </text><text xml:space="preserve" font-family="Helvetica-Light,Helvetica" font-size="52.0" fill="#000000" transform="matrix(1.00, 0.00, -0.00, -1.00, 991.3, 591.0)">c</text><text xml:space="preserve" font-family="Helvetica-Light,Helvetica" font-size="52.0" fill="#000000" transform="matrix(1.00, 0.00, -0.00, -1.00, 1020.2, 591.0)">r</text><text xml:space="preserve" font-family="Helvetica-Light,Helvetica" font-size="52.0" fill="#000000" transform="matrix(1.00, 0.00, -0.00, -1.00, 1036.6, 591.0)">e</text><text xml:space="preserve" font-family="Helvetica-Light,Helvetica" font-size="52.0" fill="#000000" transform="matrix(1.00, 0.00, -0.00, -1.00, 1065.5, 591.0)">a</text><text xml:space="preserve" font-family="Helvetica-Light,Helvetica" font-size="52.0" fill="#000000" transform="matrix(1.00, 0.00, -0.00, -1.00, 1094.4, 591.0)">t</text><text xml:space="preserve" font-family="Helvetica-Light,Helvetica" font-size="52.0" fill="#000000" transform="matrix(1.00, 0.00, -0.00, -1.00, 1108.9, 591.0)">e</text><text xml:space="preserve" font-family="Helvetica-Light,Helvetica" font-size="52.0" fill="#000000" transform="matrix(1.00, 0.00, -0.00, -1.00, 1137.8, 591.0)">d</text><text xml:space="preserve" font-family="Helvetica-Light,Helvetica" font-size="52.0" fill="#000000" transform="matrix(1.00, 0.00, -0.00, -1.00, 1169.5, 591.0)"> </text><text xml:space="preserve" font-family="Helvetica-Light,Helvetica" font-size="52.0" fill="#000000" transform="matrix(1.00, 0.00, -0.00, -1.00, 1184.0, 591.0)">a</text><text xml:space="preserve" font-family="Helvetica-Light,Helvetica" font-size="52.0" fill="#000000" transform="matrix(1.00, 0.00, -0.00, -1.00, 1212.9, 591.0)">n</text><text xml:space="preserve" font-family="Helvetica-Light,Helvetica" font-size="52.0" fill="#000000" transform="matrix(1.00, 0.00, -0.00, -1.00, 1241.8, 591.0)">d</text><text xml:space="preserve" font-family="Helvetica-Light,Helvetica" font-size="52.0" fill="#000000" transform="matrix(1.00, 0.00, -0.00, -1.00, 1273.6, 591.0)"> </text><text xml:space="preserve" font-family="Helvetica-Light,Helvetica" font-size="52.0" fill="#000000" transform="matrix(1.00, 0.00, -0.00, -1.00, 1288.0, 591.0)">e</text><text xml:space="preserve" font-family="Helvetica-Light,Helvetica" font-size="52.0" fill="#000000" transform="matrix(1.00, 0.00, -0.00, -1.00, 1317.0, 591.0)">n</text><text xml:space="preserve" font-family="Helvetica-Light,Helvetica" font-size="52.0" fill="#000000" transform="matrix(1.00, 0.00, -0.00, -1.00, 1345.9, 591.0)">d</text><text xml:space="preserve" font-family="Helvetica-Light,Helvetica" font-size="52.0" fill="#000000" transform="matrix(1.00, 0.00, -0.00, -1.00, 1377.6, 591.0)">s</text><text xml:space="preserve" font-family="Helvetica-Light,Helvetica" font-size="52.0" fill="#000000" transform="matrix(1.00, 0.00, -0.00, -1.00, 1403.6, 591.0)"> </text><text xml:space="preserve" font-family="Helvetica-Light,Helvetica" font-size="52.0" fill="#000000" transform="matrix(1.00, 0.00, -0.00, -1.00, 1418.1, 591.0)">w</text><text xml:space="preserve" font-family="Helvetica-Light,Helvetica" font-size="52.0" fill="#000000" transform="matrix(1.00, 0.00, -0.00, -1.00, 1455.6, 591.0)">h</text><text xml:space="preserve" font-family="Helvetica-Light,Helvetica" font-size="52.0" fill="#000000" transform="matrix(1.00, 0.00, -0.00, -1.00, 1484.6, 591.0)">e</text><text xml:space="preserve" font-family="Helvetica-Light,Helvetica" font-size="52.0" fill="#000000" transform="matrix(1.00, 0.00, -0.00, -1.00, 1513.5, 591.0)">n</text><text xml:space="preserve" font-family="Helvetica-Light,Helvetica" font-size="52.0" fill="#000000" transform="matrix(1.00, 0.00, -0.00, -1.00, 1542.4, 591.0)"> </text><text xml:space="preserve" font-family="Helvetica-Light,Helvetica" font-size="52.0" fill="#000000" transform="matrix(1.00, 0.00, -0.00, -1.00, 1556.8, 591.0)">i</text><text xml:space="preserve" font-family="Helvetica-Light,Helvetica" font-size="52.0" fill="#000000" transform="matrix(1.00, 0.00, -0.00, -1.00, 1568.4, 591.0)">t</text><text xml:space="preserve" font-family="Helvetica-Light,Helvetica" font-size="52.0" fill="#000000" transform="matrix(1.00, 0.00, -0.00, -1.00, 1582.8, 591.0)"> </text><text xml:space="preserve" font-family="Helvetica-Light,Helvetica" font-size="52.0" fill="#000000" transform="matrix(1.00, 0.00, -0.00, -1.00, 1597.3, 591.0)">i</text><text xml:space="preserve" font-family="Helvetica-Light,Helvetica" font-size="52.0" fill="#000000" transform="matrix(1.00, 0.00, -0.00, -1.00, 1608.8, 591.0)">s</text><text xml:space="preserve" font-family="Helvetica-Light,Helvetica" font-size="52.0" fill="#000000" transform="matrix(1.00, 0.00, -0.00, -1.00, 1634.8, 591.0)"> </text><text xml:space="preserve" font-family="Helvetica-Light,Helvetica" font-size="52.0" fill="#000000" transform="matrix(1.00, 0.00, -0.00, -1.00, 187.0, 529.0)">d</text><text xml:space="preserve" font-family="Helvetica-Light,Helvetica" font-size="52.0" fill="#000000" transform="matrix(1.00, 0.00, -0.00, -1.00, 218.8, 529.0)">e</text><text xml:space="preserve" font-family="Helvetica-Light,Helvetica" font-size="52.0" fill="#000000" transform="matrix(1.00, 0.00, -0.00, -1.00, 247.7, 529.0)">s</text><text xml:space="preserve" font-family="Helvetica-Light,Helvetica" font-size="52.0" fill="#000000" transform="matrix(1.00, 0.00, -0.00, -1.00, 273.7, 529.0)">t</text><text xml:space="preserve" font-family="Helvetica-Light,Helvetica" font-size="52.0" fill="#000000" transform="matrix(1.00, 0.00, -0.00, -1.00, 288.1, 529.0)">r</text><text xml:space="preserve" font-family="Helvetica-Light,Helvetica" font-size="52.0" fill="#000000" transform="matrix(1.00, 0.00, -0.00, -1.00, 304.5, 529.0)">o</text><text xml:space="preserve" font-family="Helvetica-Light,Helvetica" font-size="52.0" fill="#000000" transform="matrix(1.00, 0.00, -0.00, -1.00, 333.4, 529.0)">y</text><text xml:space="preserve" font-family="Helvetica-Light,Helvetica" font-size="52.0" fill="#000000" transform="matrix(1.00, 0.00, -0.00, -1.00, 359.4, 529.0)">e</text><text xml:space="preserve" font-family="Helvetica-Light,Helvetica" font-size="52.0" fill="#000000" transform="matrix(1.00, 0.00, -0.00, -1.00, 388.3, 529.0)">d</text><path d="M 345.0 407.0 L 1575.0 407.0 L 1575.0 145.0 L 345.0 145.0 Z M 345.5 406.6 " fill="#FEFFFE"></path><image xlink:href="3E6E01AA5152F9E4238D2012B20D10CA.png" width="1251.00" height="284.00" transform="matrix(1.00, 0.00, -0.00, 1.00, 334.5, 133.6)"></image><g><clipPath id="clip0x6000024ab340"><path d="M 341.4 140.5 L 1578.6 140.5 L 1578.6 410.7 L 341.4 410.7 Z M 341.4 140.5 "></path></clipPath><g clip-path="url(#clip0x6000024ab340)"><text xml:space="preserve" font-family="PragmataPro,PragmataPro" font-size="32.0" fill="#A61C5D" transform="matrix(1.00, 0.00, -0.00, -1.00, 350.5, 371.5)">f</text><text xml:space="preserve" font-family="PragmataPro,PragmataPro" font-size="32.0" fill="#A61C5D" transform="matrix(1.00, 0.00, -0.00, -1.00, 367.0, 371.5)">n</text><text xml:space="preserve" font-family="PragmataPro,PragmataPro" font-size="32.0" fill="#000000" transform="matrix(1.00, 0.00, -0.00, -1.00, 383.6, 371.5)"> </text><text xml:space="preserve" font-family="PragmataPro,PragmataPro" font-size="32.0" fill="#795DA3" transform="matrix(1.00, 0.00, -0.00, -1.00, 400.2, 371.5)">m</text><text xml:space="preserve" font-family="PragmataPro,PragmataPro" font-size="32.0" fill="#795DA3" transform="matrix(1.00, 0.00, -0.00, -1.00, 416.7, 371.5)">a</text><text xml:space="preserve" font-family="PragmataPro,PragmataPro" font-size="32.0" fill="#795DA3" transform="matrix(1.00, 0.00, -0.00, -1.00, 433.3, 371.5)">i</text><text xml:space="preserve" font-family="PragmataPro,PragmataPro" font-size="32.0" fill="#795DA3" transform="matrix(1.00, 0.00, -0.00, -1.00, 449.8, 371.5)">n</text><text xml:space="preserve" font-family="PragmataPro,PragmataPro" font-size="32.0" fill="#000000" transform="matrix(1.00, 0.00, -0.00, -1.00, 466.4, 371.5)">(</text><text xml:space="preserve" font-family="PragmataPro,PragmataPro" font-size="32.0" fill="#000000" transform="matrix(1.00, 0.00, -0.00, -1.00, 483.0, 371.5)">)</text><text xml:space="preserve" font-family="PragmataPro,PragmataPro" font-size="32.0" fill="#000000" transform="matrix(1.00, 0.00, -0.00, -1.00, 499.5, 371.5)"> </text><text xml:space="preserve" font-family="PragmataPro,PragmataPro" font-size="32.0" fill="#000000" transform="matrix(1.00, 0.00, -0.00, -1.00, 516.1, 371.5)">{</text><text xml:space="preserve" font-family="PragmataPro,PragmataPro" font-size="32.0" fill="#000000" transform="matrix(1.00, 0.00, -0.00, -1.00, 532.6, 371.5)"> </text><text xml:space="preserve" font-family="PragmataPro,PragmataPro" font-size="32.0" fill="#000000" transform="matrix(1.00, 0.00, -0.00, -1.00, 350.5, 335.5)"> </text><text xml:space="preserve" font-family="PragmataPro,PragmataPro" font-size="32.0" fill="#000000" transform="matrix(1.00, 0.00, -0.00, -1.00, 367.0, 335.5)"> </text><text xml:space="preserve" font-family="PragmataPro,PragmataPro" font-size="32.0" fill="#000000" transform="matrix(1.00, 0.00, -0.00, -1.00, 383.6, 335.5)"> </text><text xml:space="preserve" font-family="PragmataPro,PragmataPro" font-size="32.0" fill="#000000" transform="matrix(1.00, 0.00, -0.00, -1.00, 400.1, 335.5)"> </text><text xml:space="preserve" font-family="PragmataPro,PragmataPro" font-size="32.0" fill="#A61C5D" transform="matrix(1.00, 0.00, -0.00, -1.00, 416.7, 335.5)">l</text><text xml:space="preserve" font-family="PragmataPro,PragmataPro" font-size="32.0" fill="#A61C5D" transform="matrix(1.00, 0.00, -0.00, -1.00, 433.3, 335.5)">e</text><text xml:space="preserve" font-family="PragmataPro,PragmataPro" font-size="32.0" fill="#A61C5D" transform="matrix(1.00, 0.00, -0.00, -1.00, 449.8, 335.5)">t</text><text xml:space="preserve" font-family="PragmataPro,PragmataPro" font-size="32.0" fill="#000000" transform="matrix(1.00, 0.00, -0.00, -1.00, 466.4, 335.5)"> </text><text xml:space="preserve" font-family="PragmataPro,PragmataPro" font-size="32.0" fill="#000000" transform="matrix(1.00, 0.00, -0.00, -1.00, 483.0, 335.5)">b</text><text xml:space="preserve" font-family="PragmataPro,PragmataPro" font-size="32.0" fill="#A61C5D" transform="matrix(1.00, 0.00, -0.00, -1.00, 499.5, 335.5)">;</text><text xml:space="preserve" font-family="PragmataPro,PragmataPro" font-size="32.0" fill="#000000" transform="matrix(1.00, 0.00, -0.00, -1.00, 516.1, 335.5)"> </text><text xml:space="preserve" font-family="PragmataPro,PragmataPro" font-size="32.0" fill="#000000" transform="matrix(1.00, 0.00, -0.00, -1.00, 350.5, 299.5)"> </text><text xml:space="preserve" font-family="PragmataPro,PragmataPro" font-size="32.0" fill="#000000" transform="matrix(1.00, 0.00, -0.00, -1.00, 367.0, 299.5)"> </text><text xml:space="preserve" font-family="PragmataPro,PragmataPro" font-size="32.0" fill="#000000" transform="matrix(1.00, 0.00, -0.00, -1.00, 383.6, 299.5)"> </text><text xml:space="preserve" font-family="PragmataPro,PragmataPro" font-size="32.0" fill="#000000" transform="matrix(1.00, 0.00, -0.00, -1.00, 400.1, 299.5)"> </text><text xml:space="preserve" font-family="PragmataPro,PragmataPro" font-size="32.0" fill="#000000" transform="matrix(1.00, 0.00, -0.00, -1.00, 416.7, 299.5)">{</text><text xml:space="preserve" font-family="PragmataPro,PragmataPro" font-size="32.0" fill="#000000" transform="matrix(1.00, 0.00, -0.00, -1.00, 433.2, 299.5)"> </text><text xml:space="preserve" font-family="PragmataPro,PragmataPro" font-size="32.0" fill="#000000" transform="matrix(1.00, 0.00, -0.00, -1.00, 350.5, 263.5)"> </text><text xml:space="preserve" font-family="PragmataPro,PragmataPro" font-size="32.0" fill="#000000" transform="matrix(1.00, 0.00, -0.00, -1.00, 367.0, 263.5)"> </text><text xml:space="preserve" font-family="PragmataPro,PragmataPro" font-size="32.0" fill="#000000" transform="matrix(1.00, 0.00, -0.00, -1.00, 383.6, 263.5)"> </text><text xml:space="preserve" font-family="PragmataPro,PragmataPro" font-size="32.0" fill="#000000" transform="matrix(1.00, 0.00, -0.00, -1.00, 400.1, 263.5)"> </text><text xml:space="preserve" font-family="PragmataPro,PragmataPro" font-size="32.0" fill="#000000" transform="matrix(1.00, 0.00, -0.00, -1.00, 416.7, 263.5)"> </text><text xml:space="preserve" font-family="PragmataPro,PragmataPro" font-size="32.0" fill="#000000" transform="matrix(1.00, 0.00, -0.00, -1.00, 433.2, 263.5)"> </text><text xml:space="preserve" font-family="PragmataPro,PragmataPro" font-size="32.0" fill="#000000" transform="matrix(1.00, 0.00, -0.00, -1.00, 449.8, 263.5)"> </text><text xml:space="preserve" font-family="PragmataPro,PragmataPro" font-size="32.0" fill="#000000" transform="matrix(1.00, 0.00, -0.00, -1.00, 466.3, 263.5)"> </text><text xml:space="preserve" font-family="PragmataPro,PragmataPro" font-size="32.0" fill="#A61C5D" transform="matrix(1.00, 0.00, -0.00, -1.00, 483.0, 263.5)">l</text><text xml:space="preserve" font-family="PragmataPro,PragmataPro" font-size="32.0" fill="#A61C5D" transform="matrix(1.00, 0.00, -0.00, -1.00, 499.5, 263.5)">e</text><text xml:space="preserve" font-family="PragmataPro,PragmataPro" font-size="32.0" fill="#A61C5D" transform="matrix(1.00, 0.00, -0.00, -1.00, 516.1, 263.5)">t</text><text xml:space="preserve" font-family="PragmataPro,PragmataPro" font-size="32.0" fill="#000000" transform="matrix(1.00, 0.00, -0.00, -1.00, 532.7, 263.5)"> </text><text xml:space="preserve" font-family="PragmataPro,PragmataPro" font-size="32.0" fill="#000000" transform="matrix(1.00, 0.00, -0.00, -1.00, 549.2, 263.5)">a</text><text xml:space="preserve" font-family="PragmataPro,PragmataPro" font-size="32.0" fill="#000000" transform="matrix(1.00, 0.00, -0.00, -1.00, 565.8, 263.5)"> </text><text xml:space="preserve" font-family="PragmataPro,PragmataPro" font-size="32.0" fill="#A61C5D" transform="matrix(1.00, 0.00, -0.00, -1.00, 582.3, 263.5)">=</text><text xml:space="preserve" font-family="PragmataPro,PragmataPro" font-size="32.0" fill="#000000" transform="matrix(1.00, 0.00, -0.00, -1.00, 598.9, 263.5)"> </text><text xml:space="preserve" font-family="PragmataPro,PragmataPro" font-size="32.0" fill="#0085B3" transform="matrix(1.00, 0.00, -0.00, -1.00, 615.5, 263.5)">1</text><text xml:space="preserve" font-family="PragmataPro,PragmataPro" font-size="32.0" fill="#A61C5D" transform="matrix(1.00, 0.00, -0.00, -1.00, 632.0, 263.5)">;</text><text xml:space="preserve" font-family="PragmataPro,PragmataPro" font-size="32.0" fill="#000000" transform="matrix(1.00, 0.00, -0.00, -1.00, 648.6, 263.5)"> </text><text xml:space="preserve" font-family="PragmataPro,PragmataPro" font-size="32.0" fill="#000000" transform="matrix(1.00, 0.00, -0.00, -1.00, 350.5, 227.5)"> </text><text xml:space="preserve" font-family="PragmataPro,PragmataPro" font-size="32.0" fill="#000000" transform="matrix(1.00, 0.00, -0.00, -1.00, 367.0, 227.5)"> </text><text xml:space="preserve" font-family="PragmataPro,PragmataPro" font-size="32.0" fill="#000000" transform="matrix(1.00, 0.00, -0.00, -1.00, 383.6, 227.5)"> </text><text xml:space="preserve" font-family="PragmataPro,PragmataPro" font-size="32.0" fill="#000000" transform="matrix(1.00, 0.00, -0.00, -1.00, 400.1, 227.5)"> </text><text xml:space="preserve" font-family="PragmataPro,PragmataPro" font-size="32.0" fill="#000000" transform="matrix(1.00, 0.00, -0.00, -1.00, 416.7, 227.5)"> </text><text xml:space="preserve" font-family="PragmataPro,PragmataPro" font-size="32.0" fill="#000000" transform="matrix(1.00, 0.00, -0.00, -1.00, 433.2, 227.5)"> </text><text xml:space="preserve" font-family="PragmataPro,PragmataPro" font-size="32.0" fill="#000000" transform="matrix(1.00, 0.00, -0.00, -1.00, 449.8, 227.5)"> </text><text xml:space="preserve" font-family="PragmataPro,PragmataPro" font-size="32.0" fill="#000000" transform="matrix(1.00, 0.00, -0.00, -1.00, 466.3, 227.5)"> </text><text xml:space="preserve" font-family="PragmataPro,PragmataPro" font-size="32.0" fill="#000000" transform="matrix(1.00, 0.00, -0.00, -1.00, 482.9, 227.5)">b</text><text xml:space="preserve" font-family="PragmataPro,PragmataPro" font-size="32.0" fill="#000000" transform="matrix(1.00, 0.00, -0.00, -1.00, 499.4, 227.5)"> </text><text xml:space="preserve" font-family="PragmataPro,PragmataPro" font-size="32.0" fill="#A61C5D" transform="matrix(1.00, 0.00, -0.00, -1.00, 516.1, 227.5)">=</text><text xml:space="preserve" font-family="PragmataPro,PragmataPro" font-size="32.0" fill="#000000" transform="matrix(1.00, 0.00, -0.00, -1.00, 532.7, 227.5)"> </text><text xml:space="preserve" font-family="PragmataPro,PragmataPro" font-size="32.0" fill="#A61C5D" transform="matrix(1.00, 0.00, -0.00, -1.00, 549.2, 227.5)">&amp;</text><text xml:space="preserve" font-family="PragmataPro,PragmataPro" font-size="32.0" fill="#000000" transform="matrix(1.00, 0.00, -0.00, -1.00, 565.8, 227.5)">a</text><text xml:space="preserve" font-family="PragmataPro,PragmataPro" font-size="32.0" fill="#A61C5D" transform="matrix(1.00, 0.00, -0.00, -1.00, 582.3, 227.5)">;</text><text xml:space="preserve" font-family="PragmataPro,PragmataPro" font-size="32.0" fill="#52575F" transform="matrix(1.00, 0.00, -0.00, -1.00, 598.9, 227.5)"> </text><text xml:space="preserve" font-family="PragmataPro,PragmataPro" font-size="32.0" fill="#52575F" transform="matrix(1.00, 0.00, -0.00, -1.00, 615.5, 227.5)">/</text><text xml:space="preserve" font-family="PragmataPro,PragmataPro" font-size="32.0" fill="#52575F" transform="matrix(1.00, 0.00, -0.00, -1.00, 632.0, 227.5)">/</text><text xml:space="preserve" font-family="PragmataPro,PragmataPro" font-size="32.0" fill="#52575F" transform="matrix(1.00, 0.00, -0.00, -1.00, 648.6, 227.5)"> </text><text xml:space="preserve" font-family="PragmataPro,PragmataPro" font-size="32.0" fill="#52575F" transform="matrix(1.00, 0.00, -0.00, -1.00, 665.2, 227.5)">e</text><text xml:space="preserve" font-family="PragmataPro,PragmataPro" font-size="32.0" fill="#52575F" transform="matrix(1.00, 0.00, -0.00, -1.00, 681.7, 227.5)">r</text><text xml:space="preserve" font-family="PragmataPro,PragmataPro" font-size="32.0" fill="#52575F" transform="matrix(1.00, 0.00, -0.00, -1.00, 698.3, 227.5)">r</text><text xml:space="preserve" font-family="PragmataPro,PragmataPro" font-size="32.0" fill="#52575F" transform="matrix(1.00, 0.00, -0.00, -1.00, 714.8, 227.5)">o</text><text xml:space="preserve" font-family="PragmataPro,PragmataPro" font-size="32.0" fill="#52575F" transform="matrix(1.00, 0.00, -0.00, -1.00, 731.4, 227.5)">r</text><text xml:space="preserve" font-family="PragmataPro,PragmataPro" font-size="32.0" fill="#52575F" transform="matrix(1.00, 0.00, -0.00, -1.00, 747.9, 227.5)">:</text><text xml:space="preserve" font-family="PragmataPro,PragmataPro" font-size="32.0" fill="#52575F" transform="matrix(1.00, 0.00, -0.00, -1.00, 764.5, 227.5)"> </text><text xml:space="preserve" font-family="PragmataPro,PragmataPro" font-size="32.0" fill="#52575F" transform="matrix(1.00, 0.00, -0.00, -1.00, 781.0, 227.5)">`</text><text xml:space="preserve" font-family="PragmataPro,PragmataPro" font-size="32.0" fill="#52575F" transform="matrix(1.00, 0.00, -0.00, -1.00, 797.6, 227.5)">a</text><text xml:space="preserve" font-family="PragmataPro,PragmataPro" font-size="32.0" fill="#52575F" transform="matrix(1.00, 0.00, -0.00, -1.00, 814.1, 227.5)">`</text><text xml:space="preserve" font-family="PragmataPro,PragmataPro" font-size="32.0" fill="#52575F" transform="matrix(1.00, 0.00, -0.00, -1.00, 830.7, 227.5)"> </text><text xml:space="preserve" font-family="PragmataPro,PragmataPro" font-size="32.0" fill="#52575F" transform="matrix(1.00, 0.00, -0.00, -1.00, 847.2, 227.5)">d</text><text xml:space="preserve" font-family="PragmataPro,PragmataPro" font-size="32.0" fill="#52575F" transform="matrix(1.00, 0.00, -0.00, -1.00, 863.8, 227.5)">o</text><text xml:space="preserve" font-family="PragmataPro,PragmataPro" font-size="32.0" fill="#52575F" transform="matrix(1.00, 0.00, -0.00, -1.00, 880.3, 227.5)">e</text><text xml:space="preserve" font-family="PragmataPro,PragmataPro" font-size="32.0" fill="#52575F" transform="matrix(1.00, 0.00, -0.00, -1.00, 896.9, 227.5)">s</text><text xml:space="preserve" font-family="PragmataPro,PragmataPro" font-size="32.0" fill="#52575F" transform="matrix(1.00, 0.00, -0.00, -1.00, 913.4, 227.5)"> </text><text xml:space="preserve" font-family="PragmataPro,PragmataPro" font-size="32.0" fill="#52575F" transform="matrix(1.00, 0.00, -0.00, -1.00, 930.0, 227.5)">n</text><text xml:space="preserve" font-family="PragmataPro,PragmataPro" font-size="32.0" fill="#52575F" transform="matrix(1.00, 0.00, -0.00, -1.00, 946.5, 227.5)">o</text><text xml:space="preserve" font-family="PragmataPro,PragmataPro" font-size="32.0" fill="#52575F" transform="matrix(1.00, 0.00, -0.00, -1.00, 963.1, 227.5)">t</text><text xml:space="preserve" font-family="PragmataPro,PragmataPro" font-size="32.0" fill="#52575F" transform="matrix(1.00, 0.00, -0.00, -1.00, 979.6, 227.5)"> </text><text xml:space="preserve" font-family="PragmataPro,PragmataPro" font-size="32.0" fill="#52575F" transform="matrix(1.00, 0.00, -0.00, -1.00, 996.2, 227.5)">l</text><text xml:space="preserve" font-family="PragmataPro,PragmataPro" font-size="32.0" fill="#52575F" transform="matrix(1.00, 0.00, -0.00, -1.00, 1012.7, 227.5)">i</text><text xml:space="preserve" font-family="PragmataPro,PragmataPro" font-size="32.0" fill="#52575F" transform="matrix(1.00, 0.00, -0.00, -1.00, 1029.2, 227.5)">v</text><text xml:space="preserve" font-family="PragmataPro,PragmataPro" font-size="32.0" fill="#52575F" transform="matrix(1.00, 0.00, -0.00, -1.00, 1045.8, 227.5)">e</text><text xml:space="preserve" font-family="PragmataPro,PragmataPro" font-size="32.0" fill="#52575F" transform="matrix(1.00, 0.00, -0.00, -1.00, 1062.3, 227.5)"> </text><text xml:space="preserve" font-family="PragmataPro,PragmataPro" font-size="32.0" fill="#52575F" transform="matrix(1.00, 0.00, -0.00, -1.00, 1078.9, 227.5)">l</text><text xml:space="preserve" font-family="PragmataPro,PragmataPro" font-size="32.0" fill="#52575F" transform="matrix(1.00, 0.00, -0.00, -1.00, 1095.4, 227.5)">o</text><text xml:space="preserve" font-family="PragmataPro,PragmataPro" font-size="32.0" fill="#52575F" transform="matrix(1.00, 0.00, -0.00, -1.00, 1112.0, 227.5)">n</text><text xml:space="preserve" font-family="PragmataPro,PragmataPro" font-size="32.0" fill="#52575F" transform="matrix(1.00, 0.00, -0.00, -1.00, 1128.5, 227.5)">g</text><text xml:space="preserve" font-family="PragmataPro,PragmataPro" font-size="32.0" fill="#52575F" transform="matrix(1.00, 0.00, -0.00, -1.00, 1145.1, 227.5)"> </text><text xml:space="preserve" font-family="PragmataPro,PragmataPro" font-size="32.0" fill="#52575F" transform="matrix(1.00, 0.00, -0.00, -1.00, 1161.6, 227.5)">e</text><text xml:space="preserve" font-family="PragmataPro,PragmataPro" font-size="32.0" fill="#52575F" transform="matrix(1.00, 0.00, -0.00, -1.00, 1178.2, 227.5)">n</text><text xml:space="preserve" font-family="PragmataPro,PragmataPro" font-size="32.0" fill="#52575F" transform="matrix(1.00, 0.00, -0.00, -1.00, 1194.7, 227.5)">o</text><text xml:space="preserve" font-family="PragmataPro,PragmataPro" font-size="32.0" fill="#52575F" transform="matrix(1.00, 0.00, -0.00, -1.00, 1211.3, 227.5)">u</text><text xml:space="preserve" font-family="PragmataPro,PragmataPro" font-size="32.0" fill="#52575F" transform="matrix(1.00, 0.00, -0.00, -1.00, 1227.8, 227.5)">g</text><text xml:space="preserve" font-family="PragmataPro,PragmataPro" font-size="32.0" fill="#52575F" transform="matrix(1.00, 0.00, -0.00, -1.00, 1244.4, 227.5)">h</text><text xml:space="preserve" font-family="PragmataPro,PragmataPro" font-size="32.0" fill="#52575F" transform="matrix(1.00, 0.00, -0.00, -1.00, 1260.9, 227.5)"> </text><text xml:space="preserve" font-family="PragmataPro,PragmataPro" font-size="32.0" fill="#000000" transform="matrix(1.00, 0.00, -0.00, -1.00, 350.5, 191.5)"> </text><text xml:space="preserve" font-family="PragmataPro,PragmataPro" font-size="32.0" fill="#000000" transform="matrix(1.00, 0.00, -0.00, -1.00, 367.0, 191.5)"> </text><text xml:space="preserve" font-family="PragmataPro,PragmataPro" font-size="32.0" fill="#000000" transform="matrix(1.00, 0.00, -0.00, -1.00, 383.6, 191.5)"> </text><text xml:space="preserve" font-family="PragmataPro,PragmataPro" font-size="32.0" fill="#000000" transform="matrix(1.00, 0.00, -0.00, -1.00, 400.1, 191.5)"> </text><text xml:space="preserve" font-family="PragmataPro,PragmataPro" font-size="32.0" fill="#000000" transform="matrix(1.00, 0.00, -0.00, -1.00, 416.7, 191.5)">}</text><text xml:space="preserve" font-family="PragmataPro,PragmataPro" font-size="32.0" fill="#000000" transform="matrix(1.00, 0.00, -0.00, -1.00, 433.2, 191.5)"> </text><text xml:space="preserve" font-family="PragmataPro,PragmataPro" font-size="32.0" fill="#000000" transform="matrix(1.00, 0.00, -0.00, -1.00, 350.5, 155.5)">}</text></g></g></g></svg>