<?xml version="1.0" encoding="UTF-8" standalone="no"?><svg xmlns="http://www.w3.org/2000/svg" xmlns:xlink="http://www.w3.org/1999/xlink" clip-rule="evenodd" stroke-miterlimit="10" viewBox="0 0 1920 1080"><desc>SVG generated by Keynote</desc><defs></defs><g transform="matrix(1.00, 0.00, -0.00, -1.00, 0.0, 1080.0)"><path d="M 0.0 1080.0 L 1920.0 1080.0 L 1920.0 0.0 L 0.0 0.0 Z M 0.0 1080.0 " fill="#FEFFFF"></path><text xml:space="preserve" font-family="Helvetica-Light,Helvetica" font-size="112.0" fill="#000000" transform="matrix(1.00, 0.00, -0.00, -1.00, 267.2, 873.8)">M</text><text xml:space="preserve" font-family="Helvetica-Light,Helvetica" font-size="112.0" fill="#000000" transform="matrix(1.00, 0.00, -0.00, -1.00, 360.5, 873.8)">u</text><text xml:space="preserve" font-family="Helvetica-Light,Helvetica" font-size="112.0" fill="#000000" transform="matrix(1.00, 0.00, -0.00, -1.00, 422.8, 873.8)">l</text><text xml:space="preserve" font-family="Helvetica-Light,Helvetica" font-size="112.0" fill="#000000" transform="matrix(1.00, 0.00, -0.00, -1.00, 447.7, 873.8)">t</text><text xml:space="preserve" font-family="Helvetica-Light,Helvetica" font-size="112.0" fill="#000000" transform="matrix(1.00, 0.00, -0.00, -1.00, 478.8, 873.8)">i</text><text xml:space="preserve" font-family="Helvetica-Light,Helvetica" font-size="112.0" fill="#000000" transform="matrix(1.00, 0.00, -0.00, -1.00, 503.7, 873.8)">p</text><text xml:space="preserve" font-family="Helvetica-Light,Helvetica" font-size="112.0" fill="#000000" transform="matrix(1.00, 0.00, -0.00, -1.00, 572.1, 873.8)">l</text><text xml:space="preserve" font-family="Helvetica-Light,Helvetica" font-size="112.0" fill="#000000" transform="matrix(1.00, 0.00, -0.00, -1.00, 597.0, 873.8)">e</text><text xml:space="preserve" font-family="Helvetica-Light,Helvetica" font-size="112.0" fill="#000000" transform="matrix(1.00, 0.00, -0.00, -1.00, 659.2, 873.8)"> </text><text xml:space="preserve" font-family="Helvetica-Light,Helvetica" font-size="112.0" fill="#000000" transform="matrix(1.00, 0.00, -0.00, -1.00, 690.4, 873.8)">p</text><text xml:space="preserve" font-family="Helvetica-Light,Helvetica" font-size="112.0" fill="#000000" transform="matrix(1.00, 0.00, -0.00, -1.00, 758.8, 873.8)">l</text><text xml:space="preserve" font-family="Helvetica-Light,Helvetica" font-size="112.0" fill="#000000" transform="matrix(1.00, 0.00, -0.00, -1.00, 783.7, 873.8)">a</text><text xml:space="preserve" font-family="Helvetica-Light,Helvetica" font-size="112.0" fill="#000000" transform="matrix(1.00, 0.00, -0.00, -1.00, 845.9, 873.8)">t</text><text xml:space="preserve" font-family="Helvetica-Light,Helvetica" font-size="112.0" fill="#000000" transform="matrix(1.00, 0.00, -0.00, -1.00, 877.1, 873.8)">f</text><text xml:space="preserve" font-family="Helvetica-Light,Helvetica" font-size="112.0" fill="#000000" transform="matrix(1.00, 0.00, -0.00, -1.00, 908.2, 873.8)">o</text><text xml:space="preserve" font-family="Helvetica-Light,Helvetica" font-size="112.0" fill="#000000" transform="matrix(1.00, 0.00, -0.00, -1.00, 970.5, 873.8)">r</text><text xml:space="preserve" font-family="Helvetica-Light,Helvetica" font-size="112.0" fill="#000000" transform="matrix(1.00, 0.00, -0.00, -1.00, 1009.8, 873.8)">m</text><text xml:space="preserve" font-family="Helvetica-Light,Helvetica" font-size="112.0" fill="#000000" transform="matrix(1.00, 0.00, -0.00, -1.00, 1103.1, 873.8)"> </text><text xml:space="preserve" font-family="Helvetica-Light,Helvetica" font-size="112.0" fill="#000000" transform="matrix(1.00, 0.00, -0.00, -1.00, 1134.2, 873.8)">s</text><text xml:space="preserve" font-family="Helvetica-Light,Helvetica" font-size="112.0" fill="#000000" transform="matrix(1.00, 0.00, -0.00, -1.00, 1190.2, 873.8)">u</text><text xml:space="preserve" font-family="Helvetica-Light,Helvetica" font-size="112.0" fill="#000000" transform="matrix(1.00, 0.00, -0.00, -1.00, 1252.5, 873.8)">p</text><text xml:space="preserve" font-family="Helvetica-Light,Helvetica" font-size="112.0" fill="#000000" transform="matrix(1.00, 0.00, -0.00, -1.00, 1320.9, 873.8)">p</text><text xml:space="preserve" font-family="Helvetica-Light,Helvetica" font-size="112.0" fill="#000000" transform="matrix(1.00, 0.00, -0.00, -1.00, 1389.4, 873.8)">o</text><text xml:space="preserve" font-family="Helvetica-Light,Helvetica" font-size="112.0" fill="#000000" transform="matrix(1.00, 0.00, -0.00, -1.00, 1451.6, 873.8)">r</text><text xml:space="preserve" font-family="Helvetica-Light,Helvetica" font-size="112.0" fill="#000000" transform="matrix(1.00, 0.00, -0.00, -1.00, 1490.9, 873.8)">t</text><text xml:space="preserve" font-family="Helvetica-Light,Helvetica" font-size="112.0" fill="#000000" transform="matrix(1.00, 0.00, -0.00, -1.00, 1522.1, 873.8)">e</text><text xml:space="preserve" font-family="Helvetica-Light,Helvetica" font-size="112.0" fill="#000000" transform="matrix(1.00, 0.00, -0.00, -1.00, 1584.3, 873.8)">d</text><text xml:space="preserve" font-family="Helvetica-Light,Helvetica" font-size="39.0" fill="#000000" transform="matrix(1.00, 0.00, -0.00, -1.00, 137.0, 750.5)">•</text><text xml:space="preserve" font-family="Helvetica-Light,Helvetica" font-size="52.0" fill="#000000" transform="matrix(1.00, 0.00, -0.00, -1.00, 187.0, 746.0)">L</text><text xml:space="preserve" font-family="Helvetica-Light,Helvetica" font-size="52.0" fill="#000000" transform="matrix(1.00, 0.00, -0.00, -1.00, 215.9, 746.0)">i</text><text xml:space="preserve" font-family="Helvetica-Light,Helvetica" font-size="52.0" fill="#000000" transform="matrix(1.00, 0.00, -0.00, -1.00, 227.5, 746.0)">n</text><text xml:space="preserve" font-family="Helvetica-Light,Helvetica" font-size="52.0" fill="#000000" transform="matrix(1.00, 0.00, -0.00, -1.00, 256.4, 746.0)">u</text><text xml:space="preserve" font-family="Helvetica-Light,Helvetica" font-size="52.0" fill="#000000" transform="matrix(1.00, 0.00, -0.00, -1.00, 285.3, 746.0)">x</text><text xml:space="preserve" font-family="Helvetica-Light,Helvetica" font-size="52.0" fill="#000000" transform="matrix(1.00, 0.00, -0.00, -1.00, 311.3, 746.0)"> </text><text xml:space="preserve" font-family="Helvetica-Light,Helvetica" font-size="39.0" fill="#000000" transform="matrix(1.00, 0.00, -0.00, -1.00, 137.0, 629.5)">•</text><text xml:space="preserve" font-family="Helvetica-Light,Helvetica" font-size="52.0" fill="#000000" transform="matrix(1.00, 0.00, -0.00, -1.00, 187.0, 625.0)">M</text><text xml:space="preserve" font-family="Helvetica-Light,Helvetica" font-size="52.0" fill="#000000" transform="matrix(1.00, 0.00, -0.00, -1.00, 230.3, 625.0)">a</text><text xml:space="preserve" font-family="Helvetica-Light,Helvetica" font-size="52.0" fill="#000000" transform="matrix(1.00, 0.00, -0.00, -1.00, 259.2, 625.0)">c</text><text xml:space="preserve" font-family="Helvetica-Light,Helvetica" font-size="52.0" fill="#000000" transform="matrix(1.00, 0.00, -0.00, -1.00, 288.1, 625.0)"> </text><text xml:space="preserve" font-family="Helvetica-Light,Helvetica" font-size="39.0" fill="#000000" transform="matrix(1.00, 0.00, -0.00, -1.00, 137.0, 508.5)">•</text><text xml:space="preserve" font-family="Helvetica-Light,Helvetica" font-size="52.0" fill="#000000" transform="matrix(1.00, 0.00, -0.00, -1.00, 187.0, 504.0)">W</text><text xml:space="preserve" font-family="Helvetica-Light,Helvetica" font-size="52.0" fill="#000000" transform="matrix(1.00, 0.00, -0.00, -1.00, 233.2, 504.0)">i</text><text xml:space="preserve" font-family="Helvetica-Light,Helvetica" font-size="52.0" fill="#000000" transform="matrix(1.00, 0.00, -0.00, -1.00, 244.8, 504.0)">n</text><text xml:space="preserve" font-family="Helvetica-Light,Helvetica" font-size="52.0" fill="#000000" transform="matrix(1.00, 0.00, -0.00, -1.00, 273.7, 504.0)">d</text><text xml:space="preserve" font-family="Helvetica-Light,Helvetica" font-size="52.0" fill="#000000" transform="matrix(1.00, 0.00, -0.00, -1.00, 305.5, 504.0)">o</text><text xml:space="preserve" font-family="Helvetica-Light,Helvetica" font-size="52.0" fill="#000000" transform="matrix(1.00, 0.00, -0.00, -1.00, 334.4, 504.0)">w</text><text xml:space="preserve" font-family="Helvetica-Light,Helvetica" font-size="52.0" fill="#000000" transform="matrix(1.00, 0.00, -0.00, -1.00, 371.9, 504.0)">s</text><text xml:space="preserve" font-family="Helvetica-Light,Helvetica" font-size="52.0" fill="#000000" transform="matrix(1.00, 0.00, -0.00, -1.00, 397.9, 504.0)"> </text><text xml:space="preserve" font-family="Helvetica-Light,Helvetica" font-size="52.0" fill="#000000" transform="matrix(1.00, 0.00, -0.00, -1.00, 412.4, 504.0)">-</text><text xml:space="preserve" font-family="Helvetica-Light,Helvetica" font-size="52.0" fill="#000000" transform="matrix(1.00, 0.00, -0.00, -1.00, 429.7, 504.0)"> </text><text xml:space="preserve" font-family="Helvetica-Light,Helvetica" font-size="52.0" fill="#000000" transform="matrix(1.00, 0.00, -0.00, -1.00, 444.1, 504.0)">n</text><text xml:space="preserve" font-family="Helvetica-Light,Helvetica" font-size="52.0" fill="#000000" transform="matrix(1.00, 0.00, -0.00, -1.00, 473.1, 504.0)">o</text><text xml:space="preserve" font-family="Helvetica-Light,Helvetica" font-size="52.0" fill="#000000" transform="matrix(1.00, 0.00, -0.00, -1.00, 502.0, 504.0)">w</text><text xml:space="preserve" font-family="Helvetica-Light,Helvetica" font-size="52.0" fill="#000000" transform="matrix(1.00, 0.00, -0.00, -1.00, 539.5, 504.0)"> </text><text xml:space="preserve" font-family="Helvetica-Light,Helvetica" font-size="52.0" fill="#000000" transform="matrix(1.00, 0.00, -0.00, -1.00, 554.0, 504.0)">u</text><text xml:space="preserve" font-family="Helvetica-Light,Helvetica" font-size="52.0" fill="#000000" transform="matrix(1.00, 0.00, -0.00, -1.00, 582.9, 504.0)">s</text><text xml:space="preserve" font-family="Helvetica-Light,Helvetica" font-size="52.0" fill="#000000" transform="matrix(1.00, 0.00, -0.00, -1.00, 608.9, 504.0)">i</text><text xml:space="preserve" font-family="Helvetica-Light,Helvetica" font-size="52.0" fill="#000000" transform="matrix(1.00, 0.00, -0.00, -1.00, 620.4, 504.0)">n</text><text xml:space="preserve" font-family="Helvetica-Light,Helvetica" font-size="52.0" fill="#000000" transform="matrix(1.00, 0.00, -0.00, -1.00, 649.3, 504.0)">g</text><text xml:space="preserve" font-family="Helvetica-Light,Helvetica" font-size="52.0" fill="#000000" transform="matrix(1.00, 0.00, -0.00, -1.00, 681.1, 504.0)"> </text><text xml:space="preserve" font-family="Helvetica-Light,Helvetica" font-size="52.0" fill="#000000" transform="matrix(1.00, 0.00, -0.00, -1.00, 695.6, 504.0)">n</text><text xml:space="preserve" font-family="Helvetica-Light,Helvetica" font-size="52.0" fill="#000000" transform="matrix(1.00, 0.00, -0.00, -1.00, 724.5, 504.0)">a</text><text xml:space="preserve" font-family="Helvetica-Light,Helvetica" font-size="52.0" fill="#000000" transform="matrix(1.00, 0.00, -0.00, -1.00, 753.4, 504.0)">t</text><text xml:space="preserve" font-family="Helvetica-Light,Helvetica" font-size="52.0" fill="#000000" transform="matrix(1.00, 0.00, -0.00, -1.00, 767.8, 504.0)">i</text><text xml:space="preserve" font-family="Helvetica-Light,Helvetica" font-size="52.0" fill="#000000" transform="matrix(1.00, 0.00, -0.00, -1.00, 779.4, 504.0)">v</text><text xml:space="preserve" font-family="Helvetica-Light,Helvetica" font-size="52.0" fill="#000000" transform="matrix(1.00, 0.00, -0.00, -1.00, 805.4, 504.0)">e</text><text xml:space="preserve" font-family="Helvetica-Light,Helvetica" font-size="52.0" fill="#000000" transform="matrix(1.00, 0.00, -0.00, -1.00, 834.3, 504.0)"> </text><text xml:space="preserve" font-family="Helvetica-Light,Helvetica" font-size="52.0" fill="#000000" transform="matrix(1.00, 0.00, -0.00, -1.00, 848.8, 504.0)">b</text><text xml:space="preserve" font-family="Helvetica-Light,Helvetica" font-size="52.0" fill="#000000" transform="matrix(1.00, 0.00, -0.00, -1.00, 880.5, 504.0)">u</text><text xml:space="preserve" font-family="Helvetica-Light,Helvetica" font-size="52.0" fill="#000000" transform="matrix(1.00, 0.00, -0.00, -1.00, 909.4, 504.0)">i</text><text xml:space="preserve" font-family="Helvetica-Light,Helvetica" font-size="52.0" fill="#000000" transform="matrix(1.00, 0.00, -0.00, -1.00, 921.0, 504.0)">l</text><text xml:space="preserve" font-family="Helvetica-Light,Helvetica" font-size="52.0" fill="#000000" transform="matrix(1.00, 0.00, -0.00, -1.00, 932.5, 504.0)">d</text><text xml:space="preserve" font-family="Helvetica-Light,Helvetica" font-size="52.0" fill="#000000" transform="matrix(1.00, 0.00, -0.00, -1.00, 964.3, 504.0)"> </text><text xml:space="preserve" font-family="Helvetica-Light,Helvetica" font-size="52.0" fill="#000000" transform="matrix(1.00, 0.00, -0.00, -1.00, 978.8, 504.0)">t</text><text xml:space="preserve" font-family="Helvetica-Light,Helvetica" font-size="52.0" fill="#000000" transform="matrix(1.00, 0.00, -0.00, -1.00, 993.2, 504.0)">o</text><text xml:space="preserve" font-family="Helvetica-Light,Helvetica" font-size="52.0" fill="#000000" transform="matrix(1.00, 0.00, -0.00, -1.00, 1022.1, 504.0)">o</text><text xml:space="preserve" font-family="Helvetica-Light,Helvetica" font-size="52.0" fill="#000000" transform="matrix(1.00, 0.00, -0.00, -1.00, 1051.0, 504.0)">l</text><text xml:space="preserve" font-family="Helvetica-Light,Helvetica" font-size="52.0" fill="#000000" transform="matrix(1.00, 0.00, -0.00, -1.00, 1062.6, 504.0)">s</text><text xml:space="preserve" font-family="Helvetica-Light,Helvetica" font-size="52.0" fill="#000000" transform="matrix(1.00, 0.00, -0.00, -1.00, 1088.6, 504.0)"> </text><text xml:space="preserve" font-family="Helvetica-Light,Helvetica" font-size="39.0" fill="#000000" transform="matrix(1.00, 0.00, -0.00, -1.00, 137.0, 387.5)">•</text><text xml:space="preserve" font-family="Helvetica-Light,Helvetica" font-size="52.0" fill="#000000" transform="matrix(1.00, 0.00, -0.00, -1.00, 187.0, 383.0)">x</text><text xml:space="preserve" font-family="Helvetica-Light,Helvetica" font-size="52.0" fill="#000000" transform="matrix(1.00, 0.00, -0.00, -1.00, 213.0, 383.0)">8</text><text xml:space="preserve" font-family="Helvetica-Light,Helvetica" font-size="52.0" fill="#000000" transform="matrix(1.00, 0.00, -0.00, -1.00, 241.9, 383.0)">6</text><text xml:space="preserve" font-family="Helvetica-Light,Helvetica" font-size="52.0" fill="#000000" transform="matrix(1.00, 0.00, -0.00, -1.00, 270.8, 383.0)"> </text><text xml:space="preserve" font-family="Helvetica-Light,Helvetica" font-size="39.0" fill="#000000" transform="matrix(1.00, 0.00, -0.00, -1.00, 137.0, 266.5)">•</text><text xml:space="preserve" font-family="Helvetica-Light,Helvetica" font-size="52.0" fill="#000000" transform="matrix(1.00, 0.00, -0.00, -1.00, 187.0, 262.0)">A</text><text xml:space="preserve" font-family="Helvetica-Light,Helvetica" font-size="52.0" fill="#000000" transform="matrix(1.00, 0.00, -0.00, -1.00, 221.7, 262.0)">R</text><text xml:space="preserve" font-family="Helvetica-Light,Helvetica" font-size="52.0" fill="#000000" transform="matrix(1.00, 0.00, -0.00, -1.00, 256.4, 262.0)">M</text><text xml:space="preserve" font-family="Helvetica-Light,Helvetica" font-size="52.0" fill="#000000" transform="matrix(1.00, 0.00, -0.00, -1.00, 299.7, 262.0)"> </text><text xml:space="preserve" font-family="Helvetica-Light,Helvetica" font-size="39.0" fill="#000000" transform="matrix(1.00, 0.00, -0.00, -1.00, 137.0, 145.5)">•</text><text xml:space="preserve" font-family="Helvetica-Light,Helvetica" font-size="52.0" fill="#000000" transform="matrix(1.00, 0.00, -0.00, -1.00, 187.0, 141.0)">o</text><text xml:space="preserve" font-family="Helvetica-Light,Helvetica" font-size="52.0" fill="#000000" transform="matrix(1.00, 0.00, -0.00, -1.00, 215.9, 141.0)">t</text><text xml:space="preserve" font-family="Helvetica-Light,Helvetica" font-size="52.0" fill="#000000" transform="matrix(1.00, 0.00, -0.00, -1.00, 230.4, 141.0)">h</text><text xml:space="preserve" font-family="Helvetica-Light,Helvetica" font-size="52.0" fill="#000000" transform="matrix(1.00, 0.00, -0.00, -1.00, 259.3, 141.0)">e</text><text xml:space="preserve" font-family="Helvetica-Light,Helvetica" font-size="52.0" fill="#000000" transform="matrix(1.00, 0.00, -0.00, -1.00, 288.2, 141.0)">r</text><text xml:space="preserve" font-family="Helvetica-Light,Helvetica" font-size="52.0" fill="#000000" transform="matrix(1.00, 0.00, -0.00, -1.00, 305.5, 141.0)"> </text><text xml:space="preserve" font-family="Helvetica-Light,Helvetica" font-size="52.0" fill="#000000" transform="matrix(1.00, 0.00, -0.00, -1.00, 320.0, 141.0)">L</text><text xml:space="preserve" font-family="Helvetica-Light,Helvetica" font-size="52.0" fill="#000000" transform="matrix(1.00, 0.00, -0.00, -1.00, 348.9, 141.0)">L</text><text xml:space="preserve" font-family="Helvetica-Light,Helvetica" font-size="52.0" fill="#000000" transform="matrix(1.00, 0.00, -0.00, -1.00, 373.0, 141.0)">V</text><text xml:space="preserve" font-family="Helvetica-Light,Helvetica" font-size="52.0" fill="#000000" transform="matrix(1.00, 0.00, -0.00, -1.00, 404.8, 141.0)">M</text><text xml:space="preserve" font-family="Helvetica-Light,Helvetica" font-size="52.0" fill="#000000" transform="matrix(1.00, 0.00, -0.00, -1.00, 448.1, 141.0)"> </text><text xml:space="preserve" font-family="Helvetica-Light,Helvetica" font-size="52.0" fill="#000000" transform="matrix(1.00, 0.00, -0.00, -1.00, 462.5, 141.0)">t</text><text xml:space="preserve" font-family="Helvetica-Light,Helvetica" font-size="52.0" fill="#000000" transform="matrix(1.00, 0.00, -0.00, -1.00, 477.0, 141.0)">a</text><text xml:space="preserve" font-family="Helvetica-Light,Helvetica" font-size="52.0" fill="#000000" transform="matrix(1.00, 0.00, -0.00, -1.00, 505.9, 141.0)">r</text><text xml:space="preserve" font-family="Helvetica-Light,Helvetica" font-size="52.0" fill="#000000" transform="matrix(1.00, 0.00, -0.00, -1.00, 523.2, 141.0)">g</text><text xml:space="preserve" font-family="Helvetica-Light,Helvetica" font-size="52.0" fill="#000000" transform="matrix(1.00, 0.00, -0.00, -1.00, 555.0, 141.0)">e</text><text xml:space="preserve" font-family="Helvetica-Light,Helvetica" font-size="52.0" fill="#000000" transform="matrix(1.00, 0.00, -0.00, -1.00, 583.9, 141.0)">t</text><text xml:space="preserve" font-family="Helvetica-Light,Helvetica" font-size="52.0" fill="#000000" transform="matrix(1.00, 0.00, -0.00, -1.00, 598.4, 141.0)">s</text></g></svg>